<svg width="398" height="446" viewBox="0 0 398 446" fill="none" xmlns="http://www.w3.org/2000/svg">
<path d="M12.7828 37.255C13.2696 37.1397 13.9229 37.2054 14.7428 37.452C16.7989 38.0637 21.0968 39.3591 27.6366 41.3384C47.3617 47.3097 66.8994 49.9327 86.6965 48.6116C96.535 47.9582 107.872 46.3009 117.951 43.5098C131.172 39.8491 143.398 35.5208 155.22 29.29C166.231 23.4917 175.003 17.3858 185.922 9.72352C189.416 7.2703 192.276 4.89073 194.502 2.58483C196.611 0.399031 200.632 -1.24873 203.135 1.26855C206.997 5.15975 211.042 8.16703 216.485 12.0102C218.327 13.3137 223.018 16.4058 230.561 21.2866C236.095 24.8704 240.9 27.724 244.977 29.8473C253.346 34.2045 261.436 37.8267 270.198 40.4689C278.197 42.8852 285.869 45.0182 294.232 46.5651C311.258 49.7133 328.15 50.1152 344.909 47.7709C357.933 45.9502 370.976 43.2648 383.821 38.7394C387.415 37.476 391.205 40.7715 392.358 43.9709C392.592 44.6211 392.941 46.6051 393.405 49.923C395.042 61.5999 396.147 70.7322 396.72 77.32C397.963 91.5237 398.3 105.972 397.734 120.666C396.595 149.946 392.3 180.269 384.744 207.844C381.278 220.484 377.354 232.206 372.969 243.009C372.351 244.533 370.036 250.128 366.023 259.794C359.47 275.57 351.226 291.202 342.464 304.984C337.83 312.27 330.621 322.525 320.837 335.749C318.108 339.435 315.198 343.152 312.108 346.899C304.916 355.618 300.208 361.33 293.492 368.176C290.607 371.119 284.056 377.627 273.84 387.699C270.611 390.884 266.182 394.823 263.228 397.624C261.376 399.379 258.79 401.656 255.469 404.455C247.341 411.301 239.232 417.575 230.546 424.488C225.267 428.686 218.714 433.12 212.003 438.121C210.254 439.422 207.79 441.185 204.61 443.411C202.739 444.72 201.343 445.454 200.421 445.611C196.784 446.226 194.127 444.669 191.178 442.416C182.209 435.566 171.928 428.384 162.561 420.587C154.842 414.162 145.745 406.452 135.269 397.456C124.629 388.319 115.117 378.389 103.832 366.393C93.8256 355.753 84.4579 344.391 75.7723 332.944C70.2702 325.699 65.519 318.998 61.5189 312.839C54.8254 302.542 48.3817 291.671 42.1878 280.225C40.8171 277.692 39.5505 275.161 38.3879 272.635C33.6032 262.22 28.9914 251.494 24.5525 240.458C23.2682 237.268 21.7406 233.036 19.9695 227.761C12.0814 204.303 6.23981 180.312 3.11243 155.73C2.23811 148.857 1.44225 140.932 0.72486 131.955C-0.0277603 122.514 -0.194298 111.696 0.225248 99.4999C0.865776 81.0047 2.87223 62.6487 6.24461 44.4321C6.97161 40.5057 9.151 38.1133 12.7828 37.255ZM199.426 9.00292C198.12 10.348 196.605 11.6931 194.882 13.0382C189.152 17.5059 182.462 22.2186 174.811 27.1763C169.491 30.6191 164.666 33.4375 160.336 35.6313C153.925 38.8723 148.85 41.2119 145.113 42.6499C132.017 47.6796 119.666 51.8206 106.172 54.0785C99.5647 55.1834 94.1058 55.9504 89.7951 56.3796C71.4968 58.1955 53.4627 56.1153 35.3278 51.9984C28.29 50.4034 21.8863 48.0015 14.3008 45.7004C14.2535 45.6854 14.2029 45.684 14.1548 45.6965C14.1067 45.709 14.0631 45.7347 14.029 45.7708C13.9949 45.807 13.9717 45.8519 13.962 45.9007C13.9523 45.9494 13.9565 45.9998 13.9742 46.0463C14.1535 46.5138 14.1888 47.0183 14.0799 47.5595C12.3697 56.0673 11.063 63.8738 10.2127 72.2374C8.32953 90.7231 7.71302 108.389 8.36315 125.235C9.25029 148.239 12.5938 171.476 18.3938 194.945C19.803 200.655 21.6733 207.145 24.0048 214.415C27.31 224.715 29.4477 231.125 30.4181 233.646C33.624 241.992 35.861 247.68 37.1293 250.709C45.328 270.3 55.0929 288.737 66.4238 306.022C78.5778 324.565 92.5861 342.667 108.218 359.399C120.971 373.049 133.74 385.417 146.525 396.505C151.989 401.245 163.454 410.583 180.921 424.521C183.866 426.866 188.574 430.219 191.653 432.578C193.882 434.288 196.039 435.751 198.124 436.968C198.258 437.043 198.365 437.16 198.427 437.3L198.571 437.617C198.59 437.657 198.617 437.692 198.651 437.72C198.685 437.748 198.724 437.769 198.767 437.78C198.809 437.791 198.853 437.792 198.895 437.784C198.938 437.776 198.978 437.758 199.013 437.732C211.622 428.32 221.001 421.292 227.15 416.648C231.608 413.282 237.791 408.345 245.698 401.837C262.718 387.834 278.528 372.624 293.103 356.91C300.91 348.489 308.99 338.439 315.523 329.807C330.265 310.328 343.049 289.597 353.873 267.614C356.484 262.321 358.938 256.775 361.238 250.978C367.144 236.105 372.273 221.578 376.625 207.397C378.089 202.625 379.422 197.473 380.627 191.943C384.398 174.643 387.299 157.248 388.596 139.762C389.592 126.333 389.991 112.724 389.793 98.933C389.543 81.3281 387.89 64.0835 384.835 47.1992C384.83 47.1712 384.818 47.1447 384.802 47.1215C384.785 47.0982 384.764 47.0786 384.74 47.0641C384.715 47.0496 384.688 47.0404 384.66 47.0372C384.631 47.034 384.603 47.0368 384.576 47.0455C377.386 49.4154 372.201 50.9623 369.02 51.6861C353.307 55.2651 337.665 57.5133 321.231 57.374C315.261 57.3259 308.229 56.6934 300.136 55.4764C286.66 53.4524 273.327 50.0287 260.139 45.2056C256.76 43.9725 253.573 42.6515 250.579 41.2423C243.949 38.1293 239.208 35.8571 232.919 32.0379C225.179 27.3428 217.869 22.6638 210.989 18.0007C207.281 15.4867 203.836 12.9101 200.656 10.2712C200.19 9.88685 200.08 9.43048 199.835 9.04616C199.813 9.01314 199.785 8.98532 199.751 8.96474C199.718 8.94415 199.68 8.93132 199.641 8.92718C199.602 8.92303 199.562 8.92768 199.525 8.94079C199.488 8.95389 199.454 8.97512 199.426 9.00292Z" fill="#EEEDEE"/>
<path d="M199.834 9.04617C200.079 9.43049 200.189 9.88686 200.655 10.2712C203.836 12.9102 207.28 15.4867 210.989 18.0008C217.868 22.6638 225.178 27.3428 232.919 32.0379C239.207 35.8571 243.949 38.1293 250.578 41.2423C253.573 42.6515 256.759 43.9726 260.138 45.2056C273.327 50.0287 286.659 53.4524 300.136 55.4764C308.229 56.6934 315.26 57.326 321.23 57.374C337.664 57.5133 353.306 55.2651 369.02 51.6861C372.2 50.9623 377.385 49.4154 384.575 47.0455C384.602 47.0368 384.631 47.034 384.659 47.0372C384.687 47.0404 384.715 47.0496 384.739 47.0641C384.764 47.0786 384.785 47.0982 384.801 47.1215C384.818 47.1448 384.829 47.1713 384.834 47.1992C387.89 64.0835 389.542 81.3281 389.792 98.933C389.991 112.724 389.592 126.333 388.596 139.762C387.299 157.248 384.397 174.643 380.626 191.942C379.422 197.473 378.088 202.625 376.624 207.397C372.272 221.578 367.143 236.105 361.237 250.978C358.938 256.775 356.483 262.32 353.873 267.614C343.048 289.597 330.265 310.328 315.523 329.806C308.99 338.439 300.909 348.489 293.103 356.91C278.528 372.624 262.718 387.833 245.697 401.837C237.79 408.345 231.607 413.282 227.149 416.648C221 421.291 211.621 428.32 199.012 437.732C198.978 437.758 198.937 437.776 198.895 437.784C198.852 437.792 198.808 437.791 198.766 437.78C198.724 437.769 198.684 437.748 198.65 437.72C198.617 437.692 198.589 437.657 198.571 437.617L198.426 437.3C198.364 437.16 198.258 437.043 198.124 436.968C196.039 435.751 193.882 434.288 191.653 432.578C188.573 430.219 183.866 426.866 180.921 424.521C163.454 410.583 151.988 401.245 146.524 396.505C133.739 385.417 120.971 373.049 108.218 359.399C92.5856 342.667 78.5772 324.565 66.4232 306.022C55.0923 288.737 45.3274 270.3 37.1287 250.709C35.8604 247.68 33.6234 241.992 30.4176 233.646C29.4472 231.125 27.3094 224.715 24.0043 214.415C21.6727 207.145 19.8024 200.655 18.3932 194.945C12.5933 171.476 9.24971 148.239 8.36258 125.235C7.71244 108.389 8.32895 90.7231 10.2121 72.2374C11.0624 63.8738 12.3691 56.0673 14.0793 47.5595C14.1882 47.0183 14.153 46.5138 13.9736 46.0463C13.9559 45.9998 13.9517 45.9494 13.9614 45.9007C13.9711 45.852 13.9943 45.807 14.0284 45.7709C14.0626 45.7347 14.1061 45.709 14.1542 45.6965C14.2023 45.6841 14.2529 45.6854 14.3003 45.7004C21.8857 48.0015 28.2894 50.4035 35.3272 51.9984C53.4621 56.1154 71.4962 58.1955 89.7945 56.3796C94.1052 55.9504 99.5641 55.1834 106.171 54.0785C119.666 51.8206 132.016 47.6796 145.112 42.6499C148.85 41.2119 153.924 38.8723 160.336 35.6313C164.666 33.4375 169.491 30.6191 174.81 27.1763C182.461 22.2186 189.152 17.5059 194.881 13.0383C196.604 11.6932 198.119 10.348 199.426 9.00294C199.453 8.97514 199.487 8.95391 199.524 8.9408C199.561 8.9277 199.601 8.92305 199.64 8.92719C199.679 8.93133 199.717 8.94417 199.75 8.96475C199.784 8.98534 199.813 9.01315 199.834 9.04617ZM370.802 67.9907C370.799 67.9664 370.79 67.9431 370.777 67.9223C370.765 67.9015 370.748 67.8836 370.728 67.87C370.708 67.8564 370.685 67.8472 370.661 67.8432C370.638 67.8392 370.614 67.8403 370.591 67.8466C362.008 70.0436 353.407 71.709 344.789 72.8427C330.45 74.7323 316.388 74.83 302.6 73.1358C294.581 72.1494 285.61 70.4344 275.688 67.9907C265.888 65.5728 256.668 62.4982 248.027 58.7671C232.354 51.9936 217.617 43.9501 203.816 34.6369C202.17 33.5287 200.711 32.4575 199.44 31.423C199.327 31.3315 199.185 31.2812 199.04 31.2803C198.894 31.2795 198.752 31.3281 198.638 31.4182C191.454 37.0805 183.846 42.1679 175.814 46.6804C171.936 48.8614 166.586 51.6012 159.764 54.9C149.49 59.8705 139.218 63.8433 128.947 66.8186C107.438 73.0509 85.7511 75.2047 63.8867 73.2799C52.1875 72.2487 40.9831 70.3239 30.2734 67.5055C28.986 67.1661 27.9051 66.849 27.0308 66.5544C26.9981 66.5433 26.9634 66.5398 26.9292 66.5442C26.895 66.5486 26.8623 66.5608 26.8335 66.5798C26.8048 66.5988 26.7808 66.6242 26.7633 66.6539C26.7459 66.6836 26.7355 66.717 26.7329 66.7513C26.0507 76.5226 25.3254 85.6213 25.1236 95.5751C24.5023 126.061 27.2806 156.1 33.4585 185.693C37.6795 205.924 44.072 225.786 52.6359 245.281C58.7993 259.318 66.3368 274.326 74.7773 288.007C88.8145 310.768 104.865 331.667 122.927 350.704C132.974 361.295 142.415 370.464 151.252 378.211C152.212 379.057 157.444 383.526 166.946 391.619C178 401.035 185.499 406.54 198.422 416.528C198.479 416.571 198.548 416.595 198.62 416.595C198.692 416.596 198.762 416.574 198.82 416.532C200.796 415.082 206.897 410.736 217.123 403.494C221.248 400.574 225.734 397.136 230.579 393.18C242.487 383.457 253.76 373.27 264.399 362.618C270.369 356.641 277.503 349.045 285.801 339.828C298.526 325.69 309.729 311.109 319.477 295.3C323.246 289.186 326.151 284.291 328.191 280.614C333.241 271.506 338.415 261.23 343.713 249.787C348.516 239.414 352.718 228.598 356.318 217.341C363.745 194.106 368.719 170.337 371.239 146.036C373.247 126.686 374.122 107.254 372.969 87.8791C372.648 82.4763 372.227 78.031 371.705 74.5434C371.337 72.0837 371.036 69.8995 370.802 67.9907Z" fill="#030303"/>
<path d="M370.803 67.9907C371.037 69.8995 371.338 72.0837 371.706 74.5433C372.228 78.031 372.649 82.4762 372.969 87.8791C374.122 107.253 373.248 126.685 371.24 146.036C368.719 170.337 363.746 194.106 356.319 217.341C352.719 228.598 348.517 239.414 343.713 249.787C338.416 261.23 333.242 271.506 328.192 280.614C326.152 284.291 323.247 289.186 319.477 295.3C309.73 311.109 298.527 325.689 285.801 339.828C277.503 349.045 270.37 356.641 264.4 362.618C253.761 373.269 242.487 383.457 230.58 393.18C225.734 397.136 221.249 400.574 217.124 403.494C206.898 410.736 200.797 415.082 198.821 416.532C198.763 416.574 198.693 416.596 198.621 416.595C198.549 416.595 198.48 416.571 198.422 416.528C185.5 406.54 178.001 401.035 166.947 391.619C157.444 383.526 152.213 379.057 151.252 378.211C142.416 370.464 132.975 361.295 122.928 350.704C104.865 331.667 88.8151 310.768 74.7779 288.007C66.3374 274.326 58.8 259.318 52.6365 245.281C44.0726 225.786 37.6802 205.924 33.4591 185.692C27.2812 156.1 24.5029 126.061 25.1242 95.575C25.326 85.6212 26.0514 76.5225 26.7335 66.7513C26.7361 66.7169 26.7465 66.6836 26.764 66.6538C26.7814 66.6241 26.8054 66.5987 26.8342 66.5797C26.8629 66.5607 26.8956 66.5485 26.9298 66.5441C26.964 66.5397 26.9988 66.5432 27.0314 66.5543C27.9057 66.8489 28.9866 67.166 30.2741 67.5055C40.9837 70.3238 52.1881 72.2486 63.8874 73.2798C85.7518 75.2046 107.438 73.0509 128.947 66.8185C139.218 63.8433 149.491 59.8704 159.765 54.8999C166.586 51.6012 171.936 48.8613 175.815 46.6803C183.847 42.1678 191.455 37.0804 198.638 31.4181C198.753 31.328 198.895 31.2794 199.04 31.2803C199.186 31.2812 199.327 31.3315 199.441 31.423C200.712 32.4574 202.171 33.5287 203.817 34.6368C217.617 43.9501 232.354 51.9935 248.028 58.7671C256.669 62.4982 265.889 65.5727 275.689 67.9907C285.611 70.4343 294.581 72.1493 302.601 73.1357C316.388 74.8299 330.451 74.7322 344.789 72.8427C353.408 71.7089 362.008 70.0436 370.591 67.8466C370.614 67.8403 370.639 67.8391 370.662 67.8431C370.686 67.8472 370.708 67.8563 370.728 67.8699C370.748 67.8836 370.765 67.9014 370.778 67.9222C370.791 67.943 370.799 67.9664 370.803 67.9907ZM198.735 120.032C190.379 119.856 182.042 119.96 173.725 120.344C173.71 120.345 173.695 120.343 173.681 120.338C173.667 120.333 173.655 120.325 173.644 120.315C173.633 120.305 173.624 120.293 173.619 120.28C173.613 120.267 173.61 120.253 173.61 120.239C173.587 115.505 173.599 110.725 173.643 105.899C173.65 104.944 173.37 103.87 172.803 102.675C171.333 99.5879 169.133 97.5863 166.202 96.6703C159.659 94.6334 155.288 99.0387 150.512 103.055C134.179 116.784 117.729 130.759 101.161 144.979C97.9138 147.77 96.218 150.662 96.3285 155.048C96.4246 159.064 98.0243 162.36 101.128 164.935C125.429 185.105 141.162 198.136 148.327 204.029C151.215 206.406 153.14 207.975 154.101 208.737C158.564 212.292 164.228 213.714 168.921 209.832C171.688 207.546 173.221 203.717 173.35 200.181C173.565 194.343 173.669 187.769 173.663 180.461C173.663 180.389 173.691 180.32 173.741 180.269C173.791 180.218 173.86 180.188 173.932 180.187C182.662 180.014 189.745 179.926 195.18 179.923C196.381 179.923 197.397 179.973 198.23 180.072C200.709 180.365 203.394 180.552 205.796 181.009C214.924 182.735 222.772 187.015 229.341 193.85C235.864 200.633 238.535 209.856 238.598 219.027C238.655 227.107 236.819 234.702 233.088 241.812C227.083 253.26 216.264 260.745 203.49 263.151C200.96 263.632 197.364 263.838 192.701 263.771C190.641 263.742 182.753 263.715 169.036 263.69C165.84 263.683 163.496 263.917 162.003 264.391C157.055 265.971 152.66 270.876 152.674 276.444C152.729 292.047 152.733 301.168 152.689 303.807C152.618 308.189 152.852 311.129 153.39 312.628C155.163 317.537 159.294 321.251 164.641 321.289C177.483 321.382 188.832 321.307 198.686 321.063L198.787 415.365C198.788 415.442 198.811 415.516 198.854 415.58C198.897 415.643 198.957 415.693 199.028 415.722C199.099 415.751 199.177 415.759 199.252 415.744C199.327 415.729 199.396 415.693 199.45 415.639L200.603 414.486C200.728 414.364 200.858 414.247 200.992 414.135C201.54 413.748 207.105 409.786 217.686 402.25C220.524 400.229 223.137 398.271 225.526 396.375C228.796 393.778 231.341 391.728 233.16 390.226C235.299 388.458 236.57 387.387 236.974 387.012C238.169 385.904 239.426 384.81 240.745 383.731C242.202 382.539 245.692 379.435 251.213 374.416C252.478 373.266 253.232 372.579 253.476 372.355C256.701 369.415 262.851 363.276 271.928 353.937C275.057 350.718 281.14 344.031 290.178 333.875C293.339 330.324 295.51 327.734 296.692 326.107C297.341 325.219 298.104 324.503 298.801 323.576C300.815 320.879 303.398 317.443 306.55 313.266C308.689 310.438 311.948 305.739 316.326 299.167C317.245 297.786 318.351 296.003 319.645 293.815C319.809 293.54 320.899 291.743 322.917 288.425C325.641 283.948 328.413 278.769 331.074 274.028C332.016 272.349 333.103 270.247 334.336 267.72C335.992 264.325 337.969 260.325 340.269 255.72C340.893 254.471 341.332 253.552 341.585 252.962C342.594 250.589 343.838 248.423 344.741 246.025C345.659 243.604 346.831 241.438 347.883 238.637C348.956 235.777 349.877 233.404 350.645 231.517C351.606 229.157 352.488 226.771 353.292 224.36C356.428 214.944 358.604 207.944 359.821 203.361C362.043 194.996 363.911 187.164 365.422 179.865C366.194 176.137 366.873 172.419 367.459 168.71C368.724 160.697 369.655 154.017 370.25 148.668C371.454 137.856 372.289 126.226 372.753 113.777C373.266 99.977 372.599 86.2457 370.755 72.5833C370.585 71.3278 370.385 70.13 370.154 68.9899C370.143 68.9368 370.122 68.8865 370.091 68.842C370.061 68.7975 370.021 68.7597 369.975 68.7309C369.929 68.7021 369.878 68.683 369.825 68.6747C369.771 68.6664 369.717 68.669 369.664 68.6824C359.819 71.251 349.491 73.1133 338.679 74.2695C335.129 74.6442 329.763 74.894 326.606 75.0189C322.894 75.163 317.383 75.0077 310.071 74.5529C305.872 74.2903 302.265 73.8931 299.248 73.3615C295.51 72.6986 292.138 72.4055 288.761 71.4784C287.874 71.2382 286.644 71.0012 285.071 70.7674C283.704 70.5688 281.872 70.1829 279.576 69.6096C276.421 68.8282 272.563 67.8097 268.003 66.5543C261.706 64.8217 254.305 62.109 245.799 58.4164C240.483 56.1105 235.882 53.9471 231.997 51.9262C226.252 48.9382 219.87 45.3432 212.853 41.1414C208.296 38.4127 204.257 35.7641 200.738 33.1956C200.289 32.8689 199.844 32.4382 199.402 31.9033C199.35 31.8389 199.281 31.7896 199.203 31.7608C199.125 31.7319 199.041 31.7244 198.959 31.7391C198.877 31.7538 198.8 31.7902 198.737 31.8444C198.674 31.8986 198.627 31.9687 198.6 32.0475L198.485 32.3837C198.434 32.5332 198.408 32.689 198.408 32.8449L198.514 119.014C198.514 119.119 198.545 119.223 198.603 119.312C198.661 119.4 198.743 119.47 198.84 119.513L199.052 119.604C199.087 119.619 199.117 119.644 199.137 119.677C199.158 119.71 199.167 119.748 199.165 119.786C199.162 119.824 199.147 119.861 199.123 119.89C199.098 119.92 199.065 119.941 199.028 119.95L198.735 120.032ZM199.08 263.166C205.582 262.429 211.865 260.328 217.931 256.863C224.402 253.174 229.562 247.294 232.732 240.991C234.817 236.845 236.691 232.118 237.363 227.127C238.071 221.852 238.026 216.659 237.229 211.547C236.255 205.312 233.831 200.164 229.955 196.103C228.284 194.354 225.617 191.4 223.043 189.416C218.479 185.899 213.262 183.486 207.391 182.176C204.201 181.462 201.505 180.937 199.301 180.6C199.229 180.589 199.156 180.594 199.086 180.614C199.016 180.634 198.951 180.669 198.896 180.716C198.84 180.764 198.796 180.823 198.766 180.889C198.736 180.955 198.72 181.027 198.72 181.1V262.849C198.72 262.894 198.73 262.939 198.749 262.98C198.768 263.021 198.795 263.058 198.829 263.088C198.863 263.118 198.903 263.14 198.947 263.154C198.99 263.167 199.035 263.171 199.08 263.166Z" fill="#828282"/>
<path d="M198.686 321.063C209.886 320.561 220.778 318.346 231.363 314.42C255.45 305.484 274.334 286.869 285.748 264.29C292.349 251.233 295.813 236.36 296.139 221.554C296.44 207.873 294.178 194.644 289.351 181.869C287.126 175.982 283.971 169.968 279.888 163.825C261.753 136.553 231.348 120.71 198.734 120.032L199.027 119.951C199.065 119.941 199.098 119.92 199.123 119.891C199.147 119.861 199.162 119.825 199.164 119.786C199.167 119.748 199.158 119.71 199.137 119.677C199.117 119.645 199.087 119.619 199.051 119.605L198.84 119.513C198.743 119.471 198.661 119.401 198.603 119.312C198.545 119.223 198.514 119.12 198.513 119.014L198.408 32.8451C198.408 32.6892 198.434 32.5334 198.485 32.3839L198.6 32.0477C198.627 31.9689 198.674 31.8988 198.737 31.8446C198.8 31.7904 198.877 31.754 198.959 31.7393C199.04 31.7246 199.125 31.7321 199.203 31.761C199.281 31.7899 199.35 31.8391 199.402 31.9036C199.844 32.4384 200.289 32.8691 200.738 33.1958C204.257 35.7643 208.296 38.4129 212.853 41.1416C219.87 45.3434 226.251 48.9384 231.997 51.9265C235.882 53.9473 240.482 56.1107 245.799 58.4166C254.305 62.1092 261.706 64.8219 268.003 66.5545C272.563 67.8099 276.421 68.8284 279.575 69.6098C281.872 70.1831 283.704 70.569 285.071 70.7676C286.644 71.0014 287.873 71.2384 288.761 71.4786C292.138 72.4057 295.51 72.6988 299.248 73.3617C302.265 73.8934 305.872 74.2905 310.071 74.5531C317.383 75.0079 322.894 75.1632 326.606 75.0191C329.762 74.8942 335.128 74.6444 338.679 74.2697C349.491 73.1135 359.819 71.2512 369.664 68.6827C369.716 68.6692 369.771 68.6666 369.825 68.6749C369.878 68.6832 369.929 68.7024 369.975 68.7311C370.021 68.7599 370.06 68.7977 370.091 68.8422C370.122 68.8867 370.143 68.9371 370.154 68.9901C370.385 70.1302 370.585 71.328 370.755 72.5835C372.599 86.2459 373.265 99.9773 372.753 113.777C372.289 126.226 371.454 137.856 370.25 148.669C369.654 154.017 368.724 160.698 367.459 168.711C366.873 172.419 366.194 176.138 365.422 179.865C363.911 187.164 362.043 194.996 359.821 203.362C358.604 207.945 356.428 214.944 353.292 224.36C352.488 226.771 351.606 229.157 350.645 231.518C349.877 233.404 348.956 235.777 347.883 238.637C346.831 241.438 345.659 243.604 344.741 246.026C343.838 248.423 342.594 250.589 341.585 252.963C341.332 253.552 340.893 254.471 340.269 255.72C337.969 260.325 335.991 264.325 334.336 267.72C333.103 270.247 332.015 272.35 331.074 274.028C328.412 278.769 325.641 283.948 322.917 288.425C320.899 291.743 319.809 293.54 319.645 293.815C318.351 296.003 317.245 297.787 316.326 299.167C311.948 305.739 308.689 310.439 306.55 313.267C303.398 317.443 300.815 320.879 298.801 323.576C298.104 324.503 297.34 325.219 296.692 326.108C295.51 327.735 293.339 330.324 290.178 333.876C281.14 344.031 275.056 350.718 271.928 353.937C262.851 363.276 256.701 369.415 253.475 372.355C253.232 372.579 252.478 373.266 251.213 374.416C245.691 379.435 242.202 382.54 240.745 383.731C239.426 384.81 238.168 385.904 236.974 387.012C236.57 387.387 235.299 388.458 233.16 390.226C231.34 391.728 228.796 393.778 225.526 396.375C223.137 398.271 220.524 400.23 217.686 402.25C207.104 409.786 201.54 413.748 200.992 414.135C200.858 414.247 200.728 414.364 200.603 414.486L199.45 415.639C199.396 415.693 199.327 415.73 199.252 415.744C199.176 415.759 199.099 415.751 199.028 415.722C198.957 415.693 198.896 415.643 198.854 415.58C198.811 415.516 198.788 415.442 198.787 415.365L198.686 321.063Z" fill="#676767"/>
<path d="M198.735 120.032C231.349 120.709 261.753 136.553 279.888 163.825C283.971 169.968 287.126 175.982 289.352 181.869C294.178 194.644 296.441 207.872 296.14 221.554C295.813 236.36 292.35 251.233 285.749 264.29C274.335 286.869 255.45 305.484 231.363 314.419C220.779 318.346 209.886 320.56 198.687 321.063C188.832 321.307 177.484 321.382 164.641 321.289C159.294 321.251 155.163 317.537 153.39 312.627C152.852 311.129 152.618 308.189 152.689 303.807C152.734 301.168 152.729 292.047 152.674 276.444C152.66 270.876 157.056 265.971 162.004 264.391C163.496 263.917 165.84 263.683 169.037 263.69C182.754 263.715 190.642 263.742 192.701 263.771C197.364 263.838 200.961 263.632 203.491 263.151C216.264 260.745 227.083 253.26 233.088 241.812C236.819 234.702 238.656 227.107 238.598 219.027C238.536 209.856 235.865 200.633 229.341 193.85C222.772 187.015 214.924 182.735 205.797 181.009C203.395 180.552 200.709 180.365 198.23 180.072C197.398 179.973 196.381 179.923 195.18 179.923C189.745 179.926 182.662 180.014 173.932 180.187C173.86 180.188 173.792 180.218 173.741 180.269C173.691 180.32 173.663 180.389 173.663 180.461C173.669 187.769 173.565 194.343 173.351 200.181C173.221 203.717 171.689 207.546 168.921 209.832C164.228 213.714 158.564 212.292 154.101 208.737C153.14 207.975 151.216 206.406 148.327 204.029C141.163 198.136 125.43 185.105 101.128 164.935C98.0246 162.36 96.4249 159.064 96.3288 155.048C96.2183 150.662 97.9141 147.77 101.162 144.979C117.729 130.759 134.179 116.784 150.513 103.055C155.288 99.0387 159.659 94.6334 166.202 96.6703C169.133 97.5863 171.333 99.5879 172.803 102.675C173.37 103.87 173.65 104.944 173.644 105.899C173.599 110.725 173.588 115.505 173.61 120.239C173.61 120.253 173.613 120.267 173.619 120.28C173.625 120.293 173.633 120.305 173.644 120.315C173.655 120.325 173.668 120.333 173.682 120.338C173.696 120.343 173.71 120.345 173.725 120.344C182.043 119.96 190.379 119.856 198.735 120.032ZM163.123 168.811C164.484 168.795 173.761 168.749 190.952 168.672C194.834 168.656 198.514 168.775 201.992 169.028C220.881 170.406 238.43 181.609 245.991 199.268C249.907 208.42 250.627 218.523 249.45 228.404C246.818 250.608 230.912 267.691 209.553 273.403C208.035 273.81 206.247 274.145 204.187 274.407C201.234 274.782 199.422 274.971 198.749 274.974C189.817 275.016 178.939 275.028 166.116 275.012C163.983 275.012 163.579 276.603 163.627 278.519C163.708 281.626 163.81 290.677 163.935 305.671C163.954 308.184 163.57 310.057 166.563 310.057C175.94 310.061 183.786 310.048 190.102 310.019C194.9 309.996 199.26 309.811 203.183 309.462C222.508 307.748 239.311 300.606 253.591 288.036C272.183 271.664 283.851 248.802 284.644 223.961C284.975 213.546 284.216 203.736 281.502 193.931C277.598 179.82 270.508 167.614 260.23 157.311C245.998 143.04 228.779 134.609 208.573 132.018C201.774 131.147 195.047 130.83 188.392 131.067C178.736 131.417 172.102 131.321 163.272 131.706C163.241 131.707 163.211 131.702 163.182 131.691C163.153 131.681 163.127 131.664 163.104 131.643C163.082 131.622 163.064 131.597 163.052 131.569C163.039 131.541 163.032 131.51 163.032 131.48L162.364 109.29C162.359 109.144 162.313 109.003 162.231 108.882C162.149 108.761 162.035 108.665 161.902 108.607C161.769 108.548 161.622 108.528 161.479 108.55C161.335 108.571 161.201 108.633 161.091 108.728C144.043 123.406 126.442 138.42 108.286 153.77C107.655 154.302 107.567 154.994 108.022 155.845C108.034 155.868 108.051 155.887 108.07 155.903C125.905 170.757 143.289 185.126 160.221 199.009C160.87 199.542 161.11 199.586 161.864 199.475C161.994 199.458 162.114 199.394 162.201 199.297C162.288 199.199 162.338 199.073 162.34 198.942L163.037 168.898C163.038 168.875 163.047 168.853 163.064 168.836C163.08 168.82 163.101 168.811 163.123 168.811Z" fill="#030303"/>
<path d="M163.123 168.811C163.101 168.811 163.08 168.82 163.064 168.837C163.048 168.853 163.038 168.875 163.037 168.898L162.34 198.942C162.338 199.073 162.289 199.199 162.202 199.297C162.114 199.395 161.995 199.458 161.865 199.475C161.111 199.586 160.87 199.542 160.222 199.009C143.29 185.126 125.906 170.757 108.07 155.903C108.051 155.887 108.035 155.868 108.022 155.846C107.567 154.994 107.655 154.302 108.286 153.77C126.442 138.42 144.044 123.406 161.091 108.728C161.201 108.633 161.335 108.571 161.479 108.55C161.623 108.528 161.769 108.548 161.903 108.607C162.036 108.666 162.15 108.761 162.232 108.882C162.313 109.003 162.359 109.145 162.364 109.29L163.032 131.48C163.033 131.511 163.04 131.541 163.052 131.569C163.064 131.597 163.082 131.622 163.105 131.643C163.127 131.664 163.154 131.681 163.182 131.691C163.211 131.702 163.242 131.707 163.272 131.706C172.102 131.321 178.736 131.417 188.392 131.067C195.047 130.83 201.775 131.147 208.574 132.018C228.779 134.609 245.998 143.04 260.231 157.311C270.508 167.614 277.599 179.821 281.503 193.931C284.217 203.736 284.976 213.546 284.644 223.961C283.852 248.802 272.183 271.664 253.592 288.036C239.311 300.606 222.508 307.748 203.184 309.462C199.26 309.811 194.9 309.997 190.103 310.019C183.787 310.048 175.94 310.061 166.563 310.057C163.57 310.057 163.955 308.184 163.935 305.671C163.81 290.677 163.708 281.626 163.628 278.519C163.58 276.603 163.983 275.013 166.116 275.013C178.94 275.029 189.817 275.016 198.75 274.974C199.422 274.971 201.235 274.782 204.188 274.407C206.247 274.145 208.036 273.81 209.554 273.403C230.912 267.691 246.818 250.608 249.451 228.405C250.628 218.523 249.907 208.42 245.992 199.269C238.43 181.609 220.881 170.406 201.992 169.028C198.514 168.775 194.834 168.656 190.953 168.672C173.761 168.749 164.485 168.795 163.123 168.811Z" fill="#EEEDEE"/>
<path d="M199.081 263.166C199.037 263.171 198.991 263.167 198.948 263.154C198.904 263.14 198.864 263.118 198.83 263.088C198.796 263.058 198.769 263.021 198.75 262.98C198.731 262.939 198.722 262.894 198.721 262.849V181.1C198.721 181.027 198.737 180.955 198.767 180.889C198.797 180.823 198.842 180.764 198.897 180.716C198.952 180.669 199.017 180.634 199.087 180.614C199.157 180.594 199.23 180.589 199.302 180.6C201.506 180.937 204.203 181.462 207.392 182.176C213.263 183.486 218.48 185.899 223.044 189.416C225.619 191.4 228.285 194.354 229.957 196.103C233.832 200.164 236.256 205.312 237.23 211.547C238.027 216.659 238.072 221.852 237.364 227.127C236.692 232.118 234.818 236.845 232.733 240.991C229.563 247.294 224.403 253.174 217.932 256.863C211.866 260.328 205.583 262.429 199.081 263.166Z" fill="#676767"/>
</svg>
