<svg width="29" height="42" viewBox="0 0 29 42" fill="none" xmlns="http://www.w3.org/2000/svg">
<g clip-path="url(#clip0_281_1252)">
<path d="M25.9528 9.77001L25.924 9.75303L25.8574 9.73267C25.8842 9.75534 25.9178 9.7685 25.9528 9.77001Z" fill="white"/>
<path d="M25.9649 9.76533C25.9608 9.7648 25.9567 9.76384 25.9528 9.76245C25.9526 9.76513 25.9526 9.76785 25.9528 9.77053C25.9572 9.76993 25.9614 9.76815 25.9649 9.76533Z" fill="white"/>
<path d="M25.9526 9.77048H25.9573V9.76758L25.9526 9.77048Z" fill="white"/>
<path d="M26.3462 12.7651L26.3947 12.7374L26.4128 12.7272L26.4292 12.7097C26.3984 12.723 26.3703 12.7418 26.3462 12.7651Z" fill="white"/>
<path d="M26.0366 9.83555L25.9892 9.79033L25.957 9.77283C25.9743 9.80337 26.0029 9.82589 26.0366 9.83555Z" fill="white"/>
<path d="M14.1068 38.9519C14.0689 38.9683 14.0357 38.9939 14.0103 39.0264L14.0402 39.0074C14.0605 38.9887 14.0893 38.9667 14.1068 38.9519Z" fill="white"/>
<path d="M21.0342 37.5876C21.0342 37.5449 21.0133 37.5527 21.0184 37.7051C21.0184 37.693 21.0235 37.6805 21.0257 37.6687C21.0285 37.6414 21.0308 37.6148 21.0342 37.5876Z" fill="white"/>
<path d="M20.3158 38.9519C20.2779 38.9683 20.2447 38.9939 20.2192 39.0264L20.2492 39.0074C20.2695 38.9887 20.2983 38.9667 20.3158 38.9519Z" fill="white"/>
<path d="M9.22806 39.2764C9.19929 39.2514 9.16409 39.235 9.12646 39.2288C9.15694 39.2435 9.18742 39.2583 9.20772 39.2695L9.22806 39.2764Z" fill="white"/>
<path d="M8.13042 38.224C8.12593 38.1796 8.11228 38.1366 8.09033 38.0975C8.10588 38.1379 8.11887 38.1796 8.12927 38.2217L8.13042 38.224Z" fill="white"/>
<path d="M15.5046 19.402C13.9974 20.0478 12.2871 20.7801 10.0704 20.7801C9.14316 20.7782 8.22034 20.6509 7.32715 20.4015L8.86024 36.1574C8.9145 36.8158 9.21421 37.4299 9.69983 37.8775C10.1855 38.3251 10.8215 38.5733 11.4816 38.5733C11.4816 38.5733 13.6553 38.6863 14.3807 38.6863C15.1613 38.6863 17.5022 38.5733 17.5022 38.5733C18.1622 38.5733 18.7981 38.3248 19.2836 37.8772C19.7691 37.4296 20.0687 36.8158 20.123 36.1574L21.765 18.7465C21.0312 18.4957 20.2906 18.329 19.4558 18.329C18.0119 18.3284 16.8485 18.8262 15.5046 19.402Z" fill="#FFDD00"/>
<path d="M2.58154 12.6798L2.60751 12.7042L2.62444 12.7144C2.6114 12.7014 2.59702 12.6898 2.58154 12.6798Z" fill="white"/>
<path d="M28.8546 11.2257L28.6237 10.06C28.4166 9.01417 27.9464 8.02594 26.8739 7.64794C26.5301 7.527 26.1401 7.47505 25.8765 7.22472C25.6129 6.97443 25.535 6.58569 25.474 6.22519C25.3611 5.56354 25.255 4.90132 25.1393 4.24082C25.0394 3.67295 24.9603 3.03504 24.7001 2.51409C24.3614 1.81458 23.6587 1.4055 22.9599 1.13485C22.6018 1.00105 22.2364 0.887862 21.8654 0.795839C20.1195 0.334775 18.2838 0.165267 16.4877 0.0686472C14.3319 -0.0504318 12.1703 -0.014555 10.0195 0.176002C8.41869 0.321779 6.73263 0.49807 5.21141 1.05236C4.65542 1.25521 4.08247 1.49873 3.65971 1.92872C3.14095 2.45702 2.97161 3.27405 3.35035 3.93286C3.61962 4.40071 4.07571 4.73126 4.55946 4.94992C5.18956 5.23168 5.8476 5.44608 6.52267 5.58955C8.40232 6.00541 10.3492 6.16868 12.2695 6.2382C14.3979 6.32417 16.5297 6.25449 18.6479 6.02968C19.1718 5.97205 19.6946 5.90292 20.2166 5.82234C20.8313 5.72796 21.2258 4.92336 21.0447 4.36284C20.8279 3.69275 20.2453 3.43283 19.5866 3.53398C19.4895 3.54921 19.393 3.56333 19.2959 3.57745L19.226 3.58763C19.0028 3.61591 18.7796 3.64224 18.5565 3.66674C18.0955 3.71646 17.6334 3.75714 17.1702 3.7888C16.1327 3.86111 15.0924 3.89444 14.0526 3.89615C13.0309 3.89615 12.0087 3.86732 10.9893 3.8001C10.5241 3.76959 10.0601 3.73078 9.59729 3.68369C9.38675 3.66165 9.17676 3.6385 8.96681 3.61249L8.76696 3.58708L8.72352 3.58087L8.51636 3.55092C8.093 3.48705 7.66965 3.41362 7.25082 3.3249C7.20857 3.3155 7.17074 3.29199 7.14365 3.25818C7.11655 3.22438 7.10179 3.18234 7.10179 3.13901C7.10179 3.09567 7.11655 3.05363 7.14365 3.01984C7.17074 2.98604 7.20857 2.9625 7.25082 2.95311H7.25873C7.62169 2.87571 7.98743 2.8096 8.35433 2.75196C8.47666 2.73275 8.59932 2.71392 8.72237 2.69546H8.72575C8.95549 2.6802 9.18637 2.63896 9.41496 2.61184C11.404 2.40474 13.4048 2.33414 15.4034 2.40052C16.3737 2.42877 17.3434 2.48584 18.3092 2.58415C18.517 2.60562 18.7236 2.62822 18.9301 2.65365C19.0092 2.66326 19.0888 2.67455 19.1684 2.68416L19.3287 2.70733C19.796 2.77701 20.261 2.86158 20.7235 2.96103C21.4087 3.11019 22.2887 3.15878 22.5935 3.91027C22.6906 4.14871 22.7347 4.41371 22.7883 4.664L22.8566 4.98326C22.8584 4.98897 22.8597 4.99485 22.8605 5.00076C23.022 5.75413 23.1836 6.5075 23.3454 7.26088C23.3573 7.31654 23.3575 7.37404 23.3462 7.4298C23.3349 7.48559 23.3122 7.53839 23.2796 7.58502C23.247 7.63162 23.2051 7.67099 23.1566 7.70068C23.1081 7.73036 23.054 7.74971 22.9977 7.75755H22.9932L22.8944 7.77112L22.7968 7.78409C22.4874 7.82441 22.1777 7.86208 21.8676 7.89712C21.2569 7.9668 20.6452 8.02706 20.0326 8.07792C18.8152 8.17923 17.5954 8.24573 16.3731 8.27738C15.7503 8.29393 15.1277 8.30168 14.5053 8.30053C12.0279 8.2986 9.55258 8.15444 7.09165 7.86884C6.8252 7.83722 6.55879 7.8033 6.29234 7.76885C6.49895 7.79542 6.14219 7.74849 6.06996 7.73834C5.90061 7.7146 5.73127 7.68994 5.56193 7.66433C4.99351 7.57898 4.4285 7.4739 3.8612 7.38179C3.17538 7.26879 2.51947 7.32531 1.89913 7.66433C1.38992 7.94325 0.977782 8.37097 0.717704 8.89044C0.450146 9.44415 0.370557 10.047 0.250891 10.642C0.131225 11.237 -0.0550492 11.8772 0.0155088 12.488C0.16735 13.8062 1.08799 14.8775 2.41223 15.117C3.658 15.343 4.91055 15.5261 6.16647 15.6821C11.1001 16.2869 16.0843 16.3592 21.0334 15.8979C21.4364 15.8602 21.8388 15.8192 22.2407 15.7747C22.3663 15.7609 22.4933 15.7754 22.6125 15.8171C22.7317 15.8588 22.8401 15.9267 22.9297 16.0157C23.0194 16.1048 23.0879 16.2128 23.1305 16.3318C23.173 16.4508 23.1884 16.5779 23.1755 16.7036L23.0502 17.923C22.7977 20.3868 22.5452 22.8506 22.2927 25.3141C22.0293 27.9012 21.7641 30.4881 21.4973 33.0746C21.4221 33.8033 21.3468 34.5316 21.2716 35.2596C21.1993 35.9768 21.1892 36.7163 21.0531 37.425C20.8386 38.5392 20.0851 39.2235 18.9855 39.4738C17.9781 39.7033 16.949 39.8238 15.9159 39.833C14.7706 39.8392 13.6259 39.7883 12.4806 39.7946C11.2579 39.8015 9.76044 39.6885 8.81666 38.7776C7.98743 37.9777 7.87284 36.7249 7.75996 35.6415C7.60945 34.2075 7.46025 32.7738 7.31233 31.3401L6.48258 23.3681L5.94579 18.21C5.93673 18.1247 5.92771 18.0405 5.91925 17.9546C5.85488 17.3393 5.41969 16.737 4.73386 16.768C4.14684 16.794 3.47964 17.2935 3.5485 17.9546L3.94643 21.7787L4.76942 29.6891C5.00388 31.936 5.23775 34.1832 5.47106 36.431C5.51623 36.8615 5.55855 37.2933 5.60596 37.7238C5.86394 40.0767 7.65892 41.3446 9.88178 41.7015C11.1801 41.9107 12.5099 41.9537 13.8274 41.975C15.5163 42.0023 17.2221 42.0673 18.8833 41.7609C21.345 41.3088 23.1919 39.6636 23.4555 37.1114C23.5307 36.3745 23.606 35.6376 23.6813 34.9004C23.9315 32.4625 24.1814 30.0244 24.4309 27.5861L25.2471 19.6192L25.6213 15.968C25.64 15.7869 25.7163 15.6167 25.8392 15.4825C25.962 15.3483 26.1247 15.2572 26.3032 15.2227C27.0071 15.0854 27.6799 14.8509 28.1806 14.3147C28.9776 13.461 29.1362 12.3478 28.8546 11.2257ZM2.3761 12.0133C2.38682 12.0083 2.36707 12.1003 2.3586 12.1433C2.35691 12.0783 2.3603 12.0207 2.3761 12.0133ZM2.4444 12.5422C2.45005 12.5382 2.46698 12.5609 2.48448 12.588C2.45795 12.5631 2.44102 12.5445 2.44384 12.5422H2.4444ZM2.51157 12.6309C2.54883 12.6982 2.53585 12.6721 2.51157 12.6309ZM2.64648 12.7405H2.64987C2.64987 12.7445 2.65608 12.7484 2.65833 12.7524C2.65459 12.748 2.65043 12.7441 2.64592 12.7405H2.64648ZM26.2705 12.5767C26.0176 12.8174 25.6366 12.9292 25.2601 12.9852C21.0379 13.6124 16.7542 13.9299 12.4856 13.7898C9.43077 13.6853 6.40808 13.3457 3.38368 12.9179C3.08733 12.8761 2.76614 12.8219 2.56237 12.6032C2.17854 12.1907 2.36707 11.3602 2.46698 10.8618C2.55842 10.4053 2.73341 9.79674 3.27586 9.73175C4.12256 9.63232 5.10584 9.98996 5.94352 10.1171C6.95203 10.2712 7.96431 10.3945 8.98032 10.4872C13.3165 10.8827 17.7256 10.8211 22.0426 10.2425C22.8295 10.1367 23.6135 10.0137 24.3947 9.87358C25.0907 9.7487 25.8624 9.51423 26.2829 10.2358C26.5713 10.7273 26.6097 11.385 26.5651 11.9404C26.5514 12.1824 26.4457 12.41 26.2699 12.5767H26.2705Z" fill="white"/>
</g>
<defs>
<clipPath id="clip0_281_1252">
<rect width="29" height="42" fill="white"/>
</clipPath>
</defs>
</svg>
