<svg width="1024" height="636" viewBox="0 0 1024 636" fill="none" xmlns="http://www.w3.org/2000/svg">
<g clip-path="url(#clip0_269_788)">
<path d="M957.98 128.11C957.98 102.628 947.857 78.1897 929.839 60.1712C911.82 42.1527 887.382 32.03 861.9 32.03H163.02C137.538 32.03 113.1 42.1527 95.0811 60.1712C77.0626 78.1897 66.9399 102.628 66.9399 128.11V496.95C66.9399 522.432 77.0626 546.87 95.0811 564.889C113.1 582.907 137.538 593.03 163.02 593.03H861.9C887.382 593.03 911.82 582.907 929.839 564.889C947.857 546.87 957.98 522.432 957.98 496.95V128.11Z" stroke="#808080" stroke-width="2"/>
<path d="M923.52 117.34L922.99 114.39" stroke="#4E4F4F" stroke-width="2"/>
<path d="M922.99 114.39C921.65 107.963 919.386 102.183 916.2 97.05C902.98 75.7434 883.386 65.09 857.42 65.09C666.773 65.1167 436.883 65.1134 167.75 65.08C146.56 65.08 128.04 72.68 114.54 89.3C105.373 100.587 100.793 113.57 100.8 128.25C100.826 232.437 100.83 351.453 100.81 485.3C100.81 496.913 100.93 503.707 101.17 505.68C102.016 512.567 104.02 519.02 107.18 525.04C116.826 543.44 131.2 554.66 150.3 558.7C154.746 559.633 162.603 560.1 173.87 560.1C285.93 560.047 512.596 560.04 853.87 560.08C862.923 560.08 869.64 559.617 874.02 558.69C900.06 553.19 920.05 532.34 923.85 505.81C924.583 500.703 924.953 494.1 924.96 486C924.993 368.9 924.983 251.817 924.93 134.75C924.93 128.417 924.46 122.613 923.52 117.34" stroke="#777777" stroke-width="2"/>
<path d="M922.99 114.39L916.09 148.23C916.057 148.376 916.04 148.527 916.04 148.68L915.93 152.12C915.929 152.176 915.915 152.23 915.889 152.279C915.862 152.328 915.824 152.369 915.777 152.4C915.731 152.43 915.678 152.449 915.623 152.454C915.567 152.46 915.512 152.451 915.46 152.43C915.38 152.39 915.294 152.333 915.2 152.26" stroke="#C5C6C6" stroke-width="2"/>
<path d="M915.2 152.26C914.127 145.173 912.723 139.003 910.99 133.75C901.68 105.43 876.48 85.65 846.11 85.46C841.49 85.43 836.01 85.3001 830.94 85.4501" stroke="#B2B2B2" stroke-width="2"/>
<path d="M830.94 85.4501L830.31 85.5001" stroke="#C5C6C6" stroke-width="2"/>
<path d="M830.31 85.5C829.704 85.3467 829.084 85.3467 828.45 85.5" stroke="#777777" stroke-width="2"/>
<path d="M828.45 85.5C827.483 85.2667 826.556 85.2967 825.67 85.59C825.661 85.5908 825.653 85.5889 825.646 85.5846C825.638 85.5803 825.633 85.5737 825.629 85.5659C825.626 85.5582 825.625 85.5495 825.627 85.5413C825.629 85.533 825.633 85.5256 825.64 85.52C825.713 85.46 825.75 85.3767 825.75 85.27C825.75 85.2541 825.745 85.2389 825.735 85.2276C825.726 85.2163 825.713 85.21 825.7 85.21L818.34 85.45" stroke="#C5C6C6" stroke-width="2"/>
<path d="M818.34 85.45C816.426 85.2634 814.983 85.3 814.01 85.56" stroke="#777777" stroke-width="2"/>
<path d="M814.01 85.56C813.937 85.5267 813.863 85.4934 813.79 85.46" stroke="#C5C6C6" stroke-width="2"/>
<path d="M813.79 85.46C813.517 85.4267 813.237 85.44 812.95 85.5" stroke="#B2B2B2" stroke-width="2"/>
<path d="M812.95 85.5C812.577 85.38 812.19 85.3767 811.79 85.49" stroke="#C5C6C6" stroke-width="2"/>
<path d="M811.79 85.4901C811.51 85.4434 811.233 85.4467 810.96 85.5001" stroke="#B2B2B2" stroke-width="2"/>
<path d="M810.96 85.5C810.907 85.4867 810.853 85.4767 810.8 85.47" stroke="#C5C6C6" stroke-width="2"/>
<path d="M810.8 85.47C810.513 85.43 810.227 85.46 809.94 85.56" stroke="#B2B2B2" stroke-width="2"/>
<path d="M809.94 85.56C809.893 85.5267 809.846 85.4934 809.8 85.46" stroke="#C5C6C6" stroke-width="2"/>
<path d="M809.8 85.4601C809.52 85.4201 809.23 85.4401 808.93 85.5201" stroke="#777777" stroke-width="2"/>
<path d="M808.93 85.52C808.89 85.5067 808.846 85.4967 808.8 85.49" stroke="#C5C6C6" stroke-width="2"/>
<path d="M808.8 85.49C808.52 85.4367 808.237 85.44 807.95 85.5" stroke="#777777" stroke-width="2"/>
<path d="M807.95 85.5C807.91 85.5 807.873 85.5033 807.84 85.51" stroke="#C5C6C6" stroke-width="2"/>
<path d="M807.84 85.51C806.853 85.31 805.887 85.31 804.94 85.51" stroke="#777777" stroke-width="2"/>
<path d="M804.94 85.51C804.573 85.37 804.193 85.3767 803.8 85.53" stroke="#C5C6C6" stroke-width="2"/>
<path d="M803.8 85.5301C803.52 85.4701 803.24 85.4601 802.96 85.5001" stroke="#777777" stroke-width="2"/>
<path d="M802.96 85.5C802.907 85.4934 802.853 85.4867 802.8 85.48" stroke="#C5C6C6" stroke-width="2"/>
<path d="M802.8 85.48C802.52 85.4334 802.237 85.44 801.95 85.5" stroke="#777777" stroke-width="2"/>
<path d="M801.95 85.5C801.897 85.5 801.843 85.5 801.79 85.5" stroke="#C5C6C6" stroke-width="2"/>
<path d="M801.79 85.5H800.96" stroke="#777777" stroke-width="2"/>
<path d="M800.96 85.5C800.913 85.5133 800.863 85.5267 800.81 85.54" stroke="#C5C6C6" stroke-width="2"/>
<path d="M800.81 85.5401C800.19 85.3334 799.57 85.3234 798.95 85.5101" stroke="#777777" stroke-width="2"/>
<path d="M798.95 85.51C798.91 85.5033 798.87 85.4967 798.83 85.49" stroke="#C5C6C6" stroke-width="2"/>
<path d="M798.83 85.49C798.183 85.3367 797.553 85.3434 796.94 85.51" stroke="#777777" stroke-width="2"/>
<path d="M796.94 85.51C796.24 85.3167 795.526 85.32 794.8 85.52" stroke="#C5C6C6" stroke-width="2"/>
<path d="M794.8 85.52L793.96 85.5" stroke="#B2B2B2" stroke-width="2"/>
<path d="M793.96 85.5C793.553 85.3667 793.17 85.38 792.81 85.54" stroke="#C5C6C6" stroke-width="2"/>
<path d="M792.81 85.54C791.537 85.3067 790.25 85.2934 788.95 85.5" stroke="#777777" stroke-width="2"/>
<path d="M788.95 85.5L783.8 85.47" stroke="#C5C6C6" stroke-width="2"/>
<path d="M783.8 85.47L782.95 85.5" stroke="#777777" stroke-width="2"/>
<path d="M782.95 85.5C782.896 85.4933 782.846 85.49 782.8 85.49" stroke="#C5C6C6" stroke-width="2"/>
<path d="M782.8 85.49H781.95" stroke="#777777" stroke-width="2"/>
<path d="M781.95 85.49C780.896 85.3034 779.846 85.31 778.8 85.51" stroke="#C5C6C6" stroke-width="2"/>
<path d="M778.8 85.51C778.514 85.4634 778.23 85.46 777.95 85.5" stroke="#777777" stroke-width="2"/>
<path d="M777.95 85.5C777.897 85.5067 777.843 85.5133 777.79 85.52" stroke="#C5C6C6" stroke-width="2"/>
<path d="M777.79 85.52L776.96 85.5" stroke="#777777" stroke-width="2"/>
<path d="M776.96 85.5C776.56 85.3734 776.173 85.3834 775.8 85.53" stroke="#C5C6C6" stroke-width="2"/>
<path d="M775.8 85.53L774.96 85.5" stroke="#777777" stroke-width="2"/>
<path d="M774.96 85.5C774.907 85.5133 774.857 85.5267 774.81 85.54" stroke="#C5C6C6" stroke-width="2"/>
<path d="M774.81 85.5401C774.377 85.3934 773.927 85.3801 773.46 85.5001" stroke="#777777" stroke-width="2"/>
<path d="M773.46 85.5C772.893 85.3267 772.34 85.3401 771.8 85.5401" stroke="#C5C6C6" stroke-width="2"/>
<path d="M771.8 85.54L770.96 85.5" stroke="#777777" stroke-width="2"/>
<path d="M770.96 85.5C770.907 85.5067 770.857 85.5133 770.81 85.52" stroke="#C5C6C6" stroke-width="2"/>
<path d="M770.81 85.52C770.477 85.5334 770.19 85.4934 769.95 85.4" stroke="#777777" stroke-width="2"/>
<path d="M769.95 85.4H725.31" stroke="#C5C6C6" stroke-width="2"/>
<path d="M725.31 85.4C725.196 85.5867 724.93 85.5833 724.51 85.39" stroke="#777777" stroke-width="2"/>
<path d="M724.51 85.39H645.81" stroke="#C5C6C6" stroke-width="2"/>
<path d="M645.81 85.39C645.483 85.4767 645.106 85.4967 644.68 85.45" stroke="#B2B2B2" stroke-width="2"/>
<path d="M644.68 85.4501L633.82 85.4601" stroke="#C5C6C6" stroke-width="2"/>
<path d="M633.82 85.46L632.52 85.47" stroke="#777777" stroke-width="2"/>
<path d="M632.52 85.47C631.42 85.3034 630.35 85.32 629.31 85.52" stroke="#C5C6C6" stroke-width="2"/>
<path d="M629.31 85.52L628.45 85.51" stroke="#B2B2B2" stroke-width="2"/>
<path d="M628.45 85.51C628.397 85.55 628.343 85.5933 628.29 85.64" stroke="#C5C6C6" stroke-width="2"/>
<path d="M628.29 85.6401L622.46 85.55" stroke="#777777" stroke-width="2"/>
<path d="M622.46 85.55C622.1 85.3767 621.713 85.3667 621.3 85.52" stroke="#C5C6C6" stroke-width="2"/>
<path d="M621.3 85.52L620.46 85.5" stroke="#B2B2B2" stroke-width="2"/>
<path d="M620.46 85.5C620.06 85.3734 619.677 85.3834 619.31 85.53" stroke="#C5C6C6" stroke-width="2"/>
<path d="M619.31 85.53L618.45 85.51" stroke="#B2B2B2" stroke-width="2"/>
<path d="M618.45 85.51C618.396 85.53 618.346 85.55 618.3 85.57" stroke="#C5C6C6" stroke-width="2"/>
<path d="M618.3 85.57L614.45 85.53" stroke="#777777" stroke-width="2"/>
<path d="M614.45 85.53C614.403 85.5367 614.357 85.5434 614.31 85.55" stroke="#C5C6C6" stroke-width="2"/>
<path d="M614.31 85.55C613.71 85.4367 613.09 85.4267 612.45 85.52" stroke="#B2B2B2" stroke-width="2"/>
<path d="M612.45 85.52C612.403 85.5334 612.357 85.5434 612.31 85.55" stroke="#C5C6C6" stroke-width="2"/>
<path d="M612.31 85.55C611.717 85.4233 611.1 85.41 610.46 85.51" stroke="#B2B2B2" stroke-width="2"/>
<path d="M610.46 85.51C610.407 85.5233 610.353 85.5367 610.3 85.55" stroke="#C5C6C6" stroke-width="2"/>
<path d="M610.3 85.55L608 85.49" stroke="#B2B2B2" stroke-width="2"/>
<path d="M608 85.49L601.81 85.5" stroke="#C5C6C6" stroke-width="2"/>
<path d="M601.81 85.5L599.45 85.52" stroke="#777777" stroke-width="2"/>
<path d="M599.45 85.52C599.397 85.5334 599.343 85.5467 599.29 85.56" stroke="#C5C6C6" stroke-width="2"/>
<path d="M599.29 85.56L598.46 85.53" stroke="#777777" stroke-width="2"/>
<path d="M598.46 85.53C598.253 85.4967 598.11 85.54 598.03 85.66" stroke="#C5C6C6" stroke-width="2"/>
<path d="M598.03 85.66L588.49 85.64" stroke="#777777" stroke-width="2"/>
<path d="M588.49 85.6401C588.423 85.6201 588.36 85.5967 588.3 85.5701" stroke="#C5C6C6" stroke-width="2"/>
<path d="M588.3 85.57C587.694 85.4567 587.077 85.4467 586.45 85.54" stroke="#B2B2B2" stroke-width="2"/>
<path d="M586.45 85.54C586.396 85.56 586.34 85.5767 586.28 85.59" stroke="#C5C6C6" stroke-width="2"/>
<path d="M586.28 85.5901L584 85.5601" stroke="#777777" stroke-width="2"/>
<path d="M584 85.5601C583.753 85.4934 583.517 85.4967 583.29 85.5701" stroke="#C5C6C6" stroke-width="2"/>
<path d="M583.29 85.57L582.46 85.52" stroke="#777777" stroke-width="2"/>
<path d="M582.46 85.52C582.407 85.54 582.357 85.5567 582.31 85.57" stroke="#C5C6C6" stroke-width="2"/>
<path d="M582.31 85.57L580.45 85.54" stroke="#777777" stroke-width="2"/>
<path d="M580.45 85.54C580.403 85.5534 580.357 85.5667 580.31 85.58" stroke="#C5C6C6" stroke-width="2"/>
<path d="M580.31 85.58C579.71 85.44 579.087 85.42 578.44 85.52" stroke="#B2B2B2" stroke-width="2"/>
<path d="M578.44 85.52C578.406 85.5534 578.373 85.5833 578.34 85.61" stroke="#C5C6C6" stroke-width="2"/>
<path d="M578.34 85.61L574.44 85.51" stroke="#777777" stroke-width="2"/>
<path d="M574.44 85.51C574.393 85.5233 574.346 85.5333 574.3 85.54" stroke="#C5C6C6" stroke-width="2"/>
<path d="M574.3 85.54H573.45" stroke="#777777" stroke-width="2"/>
<path d="M573.45 85.54C573.403 85.54 573.357 85.5367 573.31 85.53" stroke="#C5C6C6" stroke-width="2"/>
<path d="M573.31 85.53L572.45 85.51" stroke="#777777" stroke-width="2"/>
<path d="M572.45 85.51C572.403 85.5033 572.357 85.5 572.31 85.5" stroke="#C5C6C6" stroke-width="2"/>
<path d="M572.31 85.5L570.7 85.53" stroke="#777777" stroke-width="2"/>
<path d="M570.7 85.53L570.23 85.6" stroke="#C5C6C6" stroke-width="2"/>
<path d="M570.23 85.6L568.28 85.53" stroke="#777777" stroke-width="2"/>
<path d="M568.28 85.53C567.94 85.41 567.61 85.4267 567.29 85.58" stroke="#C5C6C6" stroke-width="2"/>
<path d="M567.29 85.58L566.46 85.53" stroke="#777777" stroke-width="2"/>
<path d="M566.46 85.53C566.407 85.55 566.353 85.57 566.3 85.59" stroke="#C5C6C6" stroke-width="2"/>
<path d="M566.3 85.59L564.7 85.53" stroke="#777777" stroke-width="2"/>
<path d="M564.7 85.53C564.527 85.5367 564.363 85.5767 564.21 85.65" stroke="#C5C6C6" stroke-width="2"/>
<path d="M564.21 85.65L559.75 85.62" stroke="#777777" stroke-width="2"/>
<path d="M559.75 85.62C559.27 85.3133 558.773 85.31 558.26 85.61" stroke="#C5C6C6" stroke-width="2"/>
<path d="M558.26 85.61L551.46 85.64" stroke="#777777" stroke-width="2"/>
<path d="M551.46 85.64C551.407 85.6267 551.353 85.6134 551.3 85.6" stroke="#C5C6C6" stroke-width="2"/>
<path d="M551.3 85.6001L550.45 85.5601" stroke="#777777" stroke-width="2"/>
<path d="M550.45 85.5601C550.39 85.6001 550.33 85.6367 550.27 85.6701" stroke="#C5C6C6" stroke-width="2"/>
<path d="M550.27 85.67L544.3 85.65" stroke="#777777" stroke-width="2"/>
<path d="M544.3 85.6501C543.627 85.2634 542.957 85.2434 542.29 85.5901" stroke="#C5C6C6" stroke-width="2"/>
<path d="M542.29 85.59L540.7 85.6" stroke="#B2B2B2" stroke-width="2"/>
<path d="M540.7 85.6C540.627 85.62 540.553 85.64 540.48 85.66" stroke="#C5C6C6" stroke-width="2"/>
<path d="M540.48 85.66L536.16 85.54" stroke="#B2B2B2" stroke-width="2"/>
<path d="M536.16 85.54L529.98 85.56" stroke="#C5C6C6" stroke-width="2"/>
<path d="M529.98 85.56L528.71 85.54" stroke="#B2B2B2" stroke-width="2"/>
<path d="M528.71 85.5401C527.697 85.2801 526.726 85.2934 525.8 85.58" stroke="#C5C6C6" stroke-width="2"/>
<path d="M525.8 85.58L524.7 85.54" stroke="#777777" stroke-width="2"/>
<path d="M524.7 85.54C524.44 85.4667 524.237 85.4767 524.09 85.57" stroke="#C5C6C6" stroke-width="2"/>
<path d="M524.09 85.57L520.18 85.54" stroke="#B2B2B2" stroke-width="2"/>
<path d="M520.18 85.54C520.146 85.5334 520.11 85.5267 520.07 85.52" stroke="#C5C6C6" stroke-width="2"/>
<path d="M520.07 85.52L518.45 85.5" stroke="#B2B2B2" stroke-width="2"/>
<path d="M518.45 85.5C517.657 85.32 516.853 85.34 516.04 85.56" stroke="#C5C6C6" stroke-width="2"/>
<path d="M516.04 85.5601L514.71 85.55" stroke="#B2B2B2" stroke-width="2"/>
<path d="M514.71 85.55C514.236 85.3834 513.76 85.4034 513.28 85.61" stroke="#C5C6C6" stroke-width="2"/>
<path d="M513.28 85.61L512.28 85.52" stroke="#777777" stroke-width="2"/>
<path d="M512.28 85.52C512.2 85.54 512.12 85.5634 512.04 85.59" stroke="#C5C6C6" stroke-width="2"/>
<path d="M512.04 85.59L509.94 85.47" stroke="#B2B2B2" stroke-width="2"/>
<path d="M509.94 85.47L503.29 85.48" stroke="#C5C6C6" stroke-width="2"/>
<path d="M503.29 85.48L502.21 85.47" stroke="#B2B2B2" stroke-width="2"/>
<path d="M502.21 85.47L495.3 85.49" stroke="#C5C6C6" stroke-width="2"/>
<path d="M495.3 85.49L494.44 85.59" stroke="#777777" stroke-width="2"/>
<path d="M494.44 85.59C494.393 85.59 494.343 85.59 494.29 85.59" stroke="#C5C6C6" stroke-width="2"/>
<path d="M494.29 85.5901L492.7 85.5601" stroke="#B2B2B2" stroke-width="2"/>
<path d="M492.7 85.56C492.473 85.5334 492.247 85.55 492.02 85.61" stroke="#C5C6C6" stroke-width="2"/>
<path d="M492.02 85.61L490.71 85.59" stroke="#B2B2B2" stroke-width="2"/>
<path d="M490.71 85.59C490.643 85.6167 490.576 85.6434 490.51 85.67" stroke="#C5C6C6" stroke-width="2"/>
<path d="M490.51 85.67L476.72 85.68" stroke="#777777" stroke-width="2"/>
<path d="M476.72 85.68C476.526 85.5333 476.29 85.5133 476.01 85.62" stroke="#C5C6C6" stroke-width="2"/>
<path d="M476.01 85.62H472.7" stroke="#B2B2B2" stroke-width="2"/>
<path d="M472.7 85.62C472.473 85.5533 472.227 85.5467 471.96 85.6" stroke="#C5C6C6" stroke-width="2"/>
<path d="M471.96 85.6L470.29 85.59" stroke="#777777" stroke-width="2"/>
<path d="M470.29 85.59C470.21 85.5967 470.13 85.6033 470.05 85.61" stroke="#C5C6C6" stroke-width="2"/>
<path d="M470.05 85.61L466.44 85.59" stroke="#B2B2B2" stroke-width="2"/>
<path d="M466.44 85.59C466.353 85.61 466.266 85.63 466.18 85.65" stroke="#C5C6C6" stroke-width="2"/>
<path d="M466.18 85.65L458.43 85.67" stroke="#777777" stroke-width="2"/>
<path d="M458.43 85.67C458.363 85.6634 458.3 85.6567 458.24 85.65" stroke="#C5C6C6" stroke-width="2"/>
<path d="M458.24 85.65L432.29 85.68" stroke="#777777" stroke-width="2"/>
<path d="M432.29 85.68C432.183 85.6734 432.08 85.67 431.98 85.67" stroke="#C5C6C6" stroke-width="2"/>
<path d="M431.98 85.67L364.29 85.69" stroke="#777777" stroke-width="2"/>
<path d="M364.29 85.69C364.203 85.6633 364.113 85.6367 364.02 85.61" stroke="#C5C6C6" stroke-width="2"/>
<path d="M364.02 85.61L361.45 85.54" stroke="#777777" stroke-width="2"/>
<path d="M361.45 85.54C361.403 85.56 361.353 85.5767 361.3 85.59" stroke="#C5C6C6" stroke-width="2"/>
<path d="M361.3 85.59L360.46 85.53" stroke="#777777" stroke-width="2"/>
<path d="M360.46 85.53C360.386 85.5567 360.313 85.5867 360.24 85.62" stroke="#C5C6C6" stroke-width="2"/>
<path d="M360.24 85.6201L356.27 85.5701" stroke="#777777" stroke-width="2"/>
<path d="M356.27 85.5701C356.196 85.5767 356.123 85.5867 356.05 85.6001" stroke="#C5C6C6" stroke-width="2"/>
<path d="M356.05 85.6C355.29 85.4467 354.507 85.4167 353.7 85.51" stroke="#B2B2B2" stroke-width="2"/>
<path d="M353.7 85.51L353.3 85.57" stroke="#C5C6C6" stroke-width="2"/>
<path d="M353.3 85.57L352.45 85.54" stroke="#777777" stroke-width="2"/>
<path d="M352.45 85.54C352.403 85.58 352.36 85.62 352.32 85.66" stroke="#C5C6C6" stroke-width="2"/>
<path d="M352.32 85.66L345.48 85.64" stroke="#777777" stroke-width="2"/>
<path d="M345.48 85.64C345.42 85.6267 345.36 85.61 345.3 85.59" stroke="#C5C6C6" stroke-width="2"/>
<path d="M345.3 85.59L344.45 85.54" stroke="#777777" stroke-width="2"/>
<path d="M344.45 85.54C344.39 85.5667 344.326 85.5967 344.26 85.63" stroke="#C5C6C6" stroke-width="2"/>
<path d="M344.26 85.63L340.69 85.61" stroke="#777777" stroke-width="2"/>
<path d="M340.69 85.61C340.637 85.5967 340.587 85.5801 340.54 85.5601" stroke="#C5C6C6" stroke-width="2"/>
<path d="M340.54 85.56L338.21 85.51" stroke="#B2B2B2" stroke-width="2"/>
<path d="M338.21 85.51C337.896 85.4034 337.593 85.4267 337.3 85.58" stroke="#C5C6C6" stroke-width="2"/>
<path d="M337.3 85.58L336.46 85.53" stroke="#777777" stroke-width="2"/>
<path d="M336.46 85.53C336.4 85.55 336.343 85.57 336.29 85.59" stroke="#C5C6C6" stroke-width="2"/>
<path d="M336.29 85.59L334.46 85.52" stroke="#777777" stroke-width="2"/>
<path d="M334.46 85.52C334.38 85.5467 334.3 85.5734 334.22 85.6" stroke="#C5C6C6" stroke-width="2"/>
<path d="M334.22 85.6001L332.71 85.5601" stroke="#777777" stroke-width="2"/>
<path d="M332.71 85.5601C332.47 85.4867 332.256 85.4834 332.07 85.5501" stroke="#C5C6C6" stroke-width="2"/>
<path d="M332.07 85.55L329.44 85.51" stroke="#B2B2B2" stroke-width="2"/>
<path d="M329.44 85.51C329.02 85.3434 328.597 85.3867 328.17 85.64" stroke="#C5C6C6" stroke-width="2"/>
<path d="M328.17 85.64L316.31 85.7" stroke="#777777" stroke-width="2"/>
<path d="M316.31 85.7C316.196 85.6867 316.083 85.6734 315.97 85.66" stroke="#C5C6C6" stroke-width="2"/>
<path d="M315.97 85.66L308.3 85.64" stroke="#777777" stroke-width="2"/>
<path d="M308.3 85.64C308.2 85.6467 308.1 85.6567 308 85.67" stroke="#C5C6C6" stroke-width="2"/>
<path d="M308 85.67L296.45 85.65" stroke="#777777" stroke-width="2"/>
<path d="M296.45 85.65C296.403 85.6367 296.353 85.6267 296.3 85.62" stroke="#C5C6C6" stroke-width="2"/>
<path d="M296.3 85.6201L292.27 85.5701" stroke="#777777" stroke-width="2"/>
<path d="M292.27 85.5701C292.183 85.5767 292.096 85.5834 292.01 85.5901" stroke="#C5C6C6" stroke-width="2"/>
<path d="M292.01 85.5901L290.21 85.55" stroke="#777777" stroke-width="2"/>
<path d="M290.21 85.55C290.143 85.59 290.076 85.6334 290.01 85.6801" stroke="#C5C6C6" stroke-width="2"/>
<path d="M290.01 85.6801L275.82 85.7101" stroke="#777777" stroke-width="2"/>
<path d="M275.82 85.71C275.7 85.6767 275.58 85.6433 275.46 85.61" stroke="#C5C6C6" stroke-width="2"/>
<path d="M275.46 85.61L274.3 85.5701" stroke="#777777" stroke-width="2"/>
<path d="M274.3 85.5701C274.173 85.6034 274.05 85.6367 273.93 85.6701" stroke="#C5C6C6" stroke-width="2"/>
<path d="M273.93 85.67L241.73 85.68" stroke="#777777" stroke-width="2"/>
<path d="M241.73 85.68C241.63 85.56 241.486 85.5267 241.3 85.58" stroke="#C5C6C6" stroke-width="2"/>
<path d="M241.3 85.58L240.44 85.5701" stroke="#777777" stroke-width="2"/>
<path d="M240.44 85.5701C240.073 85.4101 239.693 85.4034 239.3 85.55" stroke="#C5C6C6" stroke-width="2"/>
<path d="M239.3 85.55L238.44 85.6001" stroke="#B2B2B2" stroke-width="2"/>
<path d="M238.44 85.6C238.386 85.6 238.333 85.5967 238.28 85.59" stroke="#C5C6C6" stroke-width="2"/>
<path d="M238.28 85.59L237.45 85.61" stroke="#777777" stroke-width="2"/>
<path d="M237.45 85.61C237.396 85.6033 237.346 85.5967 237.3 85.59" stroke="#C5C6C6" stroke-width="2"/>
<path d="M237.3 85.5901L235.71 85.55" stroke="#B2B2B2" stroke-width="2"/>
<path d="M235.71 85.55C235.176 85.3167 234.706 85.3334 234.3 85.6001" stroke="#C5C6C6" stroke-width="2"/>
<path d="M234.3 85.6H233.45" stroke="#777777" stroke-width="2"/>
<path d="M233.45 85.6C233.397 85.5934 233.343 85.59 233.29 85.59" stroke="#C5C6C6" stroke-width="2"/>
<path d="M233.29 85.5901L232.46 85.55" stroke="#B2B2B2" stroke-width="2"/>
<path d="M232.46 85.55C231.713 85.3433 230.97 85.3633 230.23 85.61" stroke="#C5C6C6" stroke-width="2"/>
<path d="M230.23 85.61L229.46 85.6" stroke="#777777" stroke-width="2"/>
<path d="M229.46 85.6001C229.153 85.5067 228.847 85.5 228.54 85.58" stroke="#C5C6C6" stroke-width="2"/>
<path d="M228.54 85.58L227.71 85.5601" stroke="#B2B2B2" stroke-width="2"/>
<path d="M227.71 85.5601L227.32 85.5701" stroke="#C5C6C6" stroke-width="2"/>
<path d="M227.32 85.5701L224.69 85.5601" stroke="#B2B2B2" stroke-width="2"/>
<path d="M224.69 85.56C224.257 85.3667 223.797 85.38 223.31 85.6" stroke="#C5C6C6" stroke-width="2"/>
<path d="M223.31 85.6L220.71 85.63" stroke="#777777" stroke-width="2"/>
<path d="M220.71 85.6301L219.26 85.5601" stroke="#C5C6C6" stroke-width="2"/>
<path d="M219.26 85.56L218.29 85.46" stroke="#777777" stroke-width="2"/>
<path d="M218.29 85.46C217.936 85.4 217.606 85.4234 217.3 85.53" stroke="#C5C6C6" stroke-width="2"/>
<path d="M217.3 85.53L216.46 85.5" stroke="#B2B2B2" stroke-width="2"/>
<path d="M216.46 85.5C216.08 85.3867 215.69 85.4033 215.29 85.55" stroke="#C5C6C6" stroke-width="2"/>
<path d="M215.29 85.55L214.46 85.5601" stroke="#B2B2B2" stroke-width="2"/>
<path d="M214.46 85.5601C214.4 85.5801 214.34 85.6001 214.28 85.6201" stroke="#C5C6C6" stroke-width="2"/>
<path d="M214.28 85.62L210.18 85.58" stroke="#B2B2B2" stroke-width="2"/>
<path d="M210.18 85.58C210.127 85.6067 210.073 85.6334 210.02 85.66" stroke="#C5C6C6" stroke-width="2"/>
<path d="M210.02 85.66L188.56 85.6" stroke="#777777" stroke-width="2"/>
<path d="M188.56 85.6C179.1 84.9867 169.926 86.3967 161.04 89.83C135.36 99.74 121.02 122.45 120.98 149.5C120.893 222.153 120.883 294.807 120.95 367.46" stroke="#C5C6C6" stroke-width="2"/>
<path d="M120.95 367.46C120.917 397.093 120.943 426.727 121.03 456.36C121.043 459.107 121.137 461.983 121.31 464.99C121.477 467.863 121.63 470.737 121.77 473.61C122.697 492.823 129.343 509.81 141.71 524.57" stroke="#B9B9B9" stroke-width="2"/>
<path d="M141.71 524.57L106.62 519.8C106.531 519.788 106.441 519.8 106.358 519.834C106.275 519.868 106.202 519.923 106.148 519.994C106.093 520.065 106.058 520.149 106.046 520.238C106.034 520.327 106.046 520.417 106.08 520.5C113.82 539 129.38 553.36 149.27 557.4C154.123 558.387 157.623 558.88 159.77 558.88C369.743 558.907 601.14 558.913 853.96 558.9C863.493 558.9 870.437 558.413 874.79 557.44C882.197 555.787 888.907 553.01 894.92 549.11C915.7 535.64 924.02 514.89 924.05 490.26C924.157 382.087 924.15 261.347 924.03 128.04C924.03 127.874 924.01 127.703 923.97 127.53C923.217 124.13 923.067 120.733 923.52 117.34" stroke="#C5C6C6" stroke-width="2"/>
<path d="M818.34 85.4501C816.606 85.8901 815.163 85.9267 814.01 85.5601" stroke="#4E4F4F" stroke-width="2"/>
<path d="M828.45 85.5C829.344 85.8733 829.964 85.8733 830.31 85.5" stroke="#4E4F4F" stroke-width="2"/>
<path d="M830.94 85.4501C831.087 85.7301 831.277 85.8734 831.51 85.8801C835.703 85.9067 840.567 85.9867 846.1 86.1201C852.127 86.2601 856.947 86.7634 860.56 87.6301C891.7 95.0901 910.57 120.77 913.99 152.21C914.002 152.322 914.045 152.427 914.113 152.516C914.182 152.604 914.275 152.671 914.38 152.71C914.533 152.77 914.65 152.813 914.73 152.84C914.776 152.853 914.824 152.857 914.872 152.85C914.919 152.844 914.965 152.827 915.005 152.801C915.046 152.776 915.081 152.742 915.107 152.702C915.134 152.662 915.152 152.617 915.16 152.57C915.173 152.463 915.187 152.36 915.2 152.26" stroke="#898A8A" stroke-width="2"/>
<path d="M141.71 524.57C155.85 539.15 173.53 546.723 194.75 547.29C218.597 547.93 241.11 548.133 262.29 547.9" stroke="#909191" stroke-width="2"/>
<path d="M262.29 547.9C442.11 548.033 621.93 548.04 801.75 547.92C809.28 547.91 819.61 548.01 828.4 547.38C829.547 547.293 834.913 547.147 844.5 546.94C874.88 546.26 900.08 528.37 910.58 499.79C912.027 495.85 913.24 491.113 914.22 485.58C915.407 478.853 916 473.993 916 471C916.053 374.927 916.053 270.033 916 156.32C916 156.286 915.992 156.252 915.977 156.22C915.961 156.189 915.938 156.162 915.91 156.14C915.697 155.98 915.447 155.973 915.16 156.12C915.098 156.151 915.045 156.198 915.005 156.257C914.965 156.316 914.939 156.386 914.93 156.46C914.63 158.69 914.77 161.32 914.41 164.07C911.317 187.817 905.753 210.963 897.72 233.51C890.31 254.28 881.89 273.93 870.77 293.52" stroke="#898A8A" stroke-width="2"/>
<path d="M870.77 293.52C863.35 290.39 855.36 291.85 848.46 294.89C824.3 305.53 800.06 318.19 774.82 325.92C765.16 328.873 756.623 333.557 749.21 339.97C749.106 340.065 749.023 340.179 748.966 340.307C748.909 340.434 748.88 340.572 748.88 340.71C748.98 349.857 745.896 357.663 739.63 364.13C733.68 370.26 726.01 373.62 717.47 373.76C713.996 373.82 711.69 373.85 710.55 373.85C684.236 373.943 646.653 373.987 597.8 373.98C595.073 373.973 590.83 374.007 585.07 374.08C585.065 374.082 585.061 374.085 585.057 374.089C585.054 374.093 585.052 374.097 585.051 374.102C585.05 374.107 585.05 374.112 585.052 374.117C585.053 374.122 585.056 374.127 585.06 374.13C585.073 374.137 585.093 374.14 585.12 374.14C585.88 374.127 586.686 374.137 587.54 374.17C587.683 374.172 587.82 374.23 587.922 374.33C588.025 374.431 588.085 374.567 588.09 374.71C588.163 376.783 587.313 378.4 585.54 379.56C581.586 382.133 576.876 384.577 571.41 386.89C538.32 400.89 525.4 407.2 503.76 413.83C466.95 425.09 431.96 436.07 397.8 449.02C388.02 452.72 376.32 456.03 364.85 459.07C344.716 464.41 325.59 470.363 307.47 476.93C294.21 481.74 284.43 486.63 271.34 491.42C258.886 495.987 248.676 499.913 240.71 503.2C222.9 510.55 207.71 515.31 187.73 522.5C172.9 527.84 158.67 526.54 143.36 523.93C143.043 523.878 142.753 523.72 142.54 523.48C131.246 510.873 124.86 496.043 123.38 478.99C122.72 471.39 122.366 467.333 122.32 466.82C121.973 463.233 121.803 459.173 121.81 454.64C121.896 411.233 121.913 385.77 121.86 378.25C121.846 376.017 121.543 372.42 120.95 367.46" stroke="#9C9D9D" stroke-width="2"/>
<path d="M188.56 85.6L210.02 85.66" stroke="#4E4F4F" stroke-width="2"/>
<path d="M214.46 85.5601C214.467 85.7867 214.647 85.8867 215 85.86C215.213 85.8467 215.31 85.7434 215.29 85.55" stroke="#898A8A" stroke-width="2"/>
<path d="M216.46 85.5C216.887 85.7733 217.167 85.7833 217.3 85.53" stroke="#898A8A" stroke-width="2"/>
<path d="M218.29 85.46C218.47 85.6734 218.707 85.79 219 85.81C219.173 85.8234 219.26 85.74 219.26 85.56" stroke="#4E4F4F" stroke-width="2"/>
<path d="M220.71 85.63C221.437 85.8634 222.303 85.8534 223.31 85.6" stroke="#4E4F4F" stroke-width="2"/>
<path d="M224.69 85.5601C225.53 85.9667 226.407 85.9701 227.32 85.5701" stroke="#898A8A" stroke-width="2"/>
<path d="M227.71 85.5601C227.963 85.7401 228.24 85.7467 228.54 85.58" stroke="#898A8A" stroke-width="2"/>
<path d="M229.46 85.6C229.633 85.7534 229.89 85.7567 230.23 85.61" stroke="#4E4F4F" stroke-width="2"/>
<path d="M237.45 85.61C237.623 85.9767 237.9 85.97 238.28 85.59" stroke="#4E4F4F" stroke-width="2"/>
<path d="M238.44 85.6001C238.853 86.0001 239.14 85.9834 239.3 85.55" stroke="#898A8A" stroke-width="2"/>
<path d="M240.44 85.5701C240.847 85.9167 241.133 85.92 241.3 85.58" stroke="#4E4F4F" stroke-width="2"/>
<path d="M241.73 85.68L273.93 85.67" stroke="#4E4F4F" stroke-width="2"/>
<path d="M274.3 85.5701C274.82 85.8767 275.206 85.89 275.46 85.61" stroke="#4E4F4F" stroke-width="2"/>
<path d="M275.82 85.7101L290.01 85.6801" stroke="#4E4F4F" stroke-width="2"/>
<path d="M290.21 85.55C290.783 85.9234 291.383 85.9367 292.01 85.5901" stroke="#4E4F4F" stroke-width="2"/>
<path d="M292.27 85.5701C293.597 85.9101 294.94 85.9267 296.3 85.6201" stroke="#4E4F4F" stroke-width="2"/>
<path d="M296.45 85.65L308 85.67" stroke="#4E4F4F" stroke-width="2"/>
<path d="M308.3 85.64L315.97 85.66" stroke="#4E4F4F" stroke-width="2"/>
<path d="M316.31 85.7L328.17 85.64" stroke="#4E4F4F" stroke-width="2"/>
<path d="M329.44 85.51C330.5 85.9767 331.377 85.99 332.07 85.55" stroke="#898A8A" stroke-width="2"/>
<path d="M332.71 85.5601C333.07 85.7534 333.573 85.7667 334.22 85.6001" stroke="#4E4F4F" stroke-width="2"/>
<path d="M334.46 85.52C334.967 85.9067 335.577 85.93 336.29 85.59" stroke="#4E4F4F" stroke-width="2"/>
<path d="M336.46 85.53C336.8 85.73 337.08 85.7467 337.3 85.58" stroke="#4E4F4F" stroke-width="2"/>
<path d="M338.21 85.51C338.717 85.8833 339.493 85.9 340.54 85.56" stroke="#898A8A" stroke-width="2"/>
<path d="M340.69 85.61C341.937 85.8433 343.127 85.85 344.26 85.63" stroke="#4E4F4F" stroke-width="2"/>
<path d="M344.45 85.54C344.817 85.8734 345.1 85.89 345.3 85.59" stroke="#4E4F4F" stroke-width="2"/>
<path d="M345.48 85.64L352.32 85.66" stroke="#4E4F4F" stroke-width="2"/>
<path d="M352.45 85.54C352.824 85.86 353.107 85.87 353.3 85.57" stroke="#4E4F4F" stroke-width="2"/>
<path d="M360.46 85.53C360.673 85.73 360.953 85.75 361.3 85.59" stroke="#4E4F4F" stroke-width="2"/>
<path d="M361.45 85.54C362.457 85.8667 363.314 85.89 364.02 85.61" stroke="#4E4F4F" stroke-width="2"/>
<path d="M364.29 85.69L431.98 85.67" stroke="#4E4F4F" stroke-width="2"/>
<path d="M432.29 85.68L458.24 85.65" stroke="#4E4F4F" stroke-width="2"/>
<path d="M458.43 85.67L466.18 85.65" stroke="#4E4F4F" stroke-width="2"/>
<path d="M466.44 85.59C467.587 85.8967 468.79 85.9033 470.05 85.61" stroke="#898A8A" stroke-width="2"/>
<path d="M470.29 85.59C470.69 85.8434 471.247 85.8467 471.96 85.6" stroke="#4E4F4F" stroke-width="2"/>
<path d="M472.7 85.62C473.874 85.8067 474.977 85.8067 476.01 85.62" stroke="#898A8A" stroke-width="2"/>
<path d="M476.72 85.68L490.51 85.67" stroke="#4E4F4F" stroke-width="2"/>
<path d="M490.71 85.59C491.137 85.9234 491.573 85.93 492.02 85.61" stroke="#898A8A" stroke-width="2"/>
<path d="M492.7 85.5601C493.207 85.9734 493.737 85.9834 494.29 85.5901" stroke="#898A8A" stroke-width="2"/>
<path d="M494.44 85.59C494.967 85.9833 495.253 85.95 495.3 85.49" stroke="#4E4F4F" stroke-width="2"/>
<path d="M502.21 85.47C502.363 85.83 502.63 85.9767 503.01 85.91C503.23 85.8767 503.323 85.7334 503.29 85.48" stroke="#898A8A" stroke-width="2"/>
<path d="M509.94 85.47C510.533 85.9834 511.233 86.0234 512.04 85.59" stroke="#898A8A" stroke-width="2"/>
<path d="M512.28 85.52C512.853 85.88 513.186 85.91 513.28 85.61" stroke="#4E4F4F" stroke-width="2"/>
<path d="M514.71 85.55C515.137 85.9567 515.58 85.9601 516.04 85.5601" stroke="#898A8A" stroke-width="2"/>
<path d="M518.45 85.5C518.977 86.0467 519.517 86.0533 520.07 85.52" stroke="#898A8A" stroke-width="2"/>
<path d="M520.18 85.54C521.6 85.92 522.903 85.93 524.09 85.57" stroke="#898A8A" stroke-width="2"/>
<path d="M524.7 85.54C524.74 85.9 525.107 85.9134 525.8 85.58" stroke="#4E4F4F" stroke-width="2"/>
<path d="M528.71 85.54C529.043 85.8667 529.467 85.8734 529.98 85.56" stroke="#898A8A" stroke-width="2"/>
<path d="M536.16 85.54C537.553 85.92 538.993 85.96 540.48 85.66" stroke="#898A8A" stroke-width="2"/>
<path d="M540.7 85.6C541.16 85.9267 541.69 85.9234 542.29 85.59" stroke="#898A8A" stroke-width="2"/>
<path d="M544.3 85.65L550.27 85.67" stroke="#4E4F4F" stroke-width="2"/>
<path d="M550.45 85.5601C550.737 85.7667 551.02 85.7801 551.3 85.6001" stroke="#4E4F4F" stroke-width="2"/>
<path d="M551.46 85.64L558.26 85.61" stroke="#4E4F4F" stroke-width="2"/>
<path d="M559.75 85.62L564.21 85.65" stroke="#4E4F4F" stroke-width="2"/>
<path d="M564.7 85.53C565.24 85.75 565.774 85.77 566.3 85.59" stroke="#4E4F4F" stroke-width="2"/>
<path d="M566.46 85.53C566.76 85.6967 567.037 85.7134 567.29 85.58" stroke="#4E4F4F" stroke-width="2"/>
<path d="M568.28 85.53C568.86 85.7434 569.51 85.7667 570.23 85.6" stroke="#4E4F4F" stroke-width="2"/>
<path d="M570.7 85.53C571.387 85.9233 571.924 85.9133 572.31 85.5" stroke="#4E4F4F" stroke-width="2"/>
<path d="M572.45 85.51C572.697 85.8033 572.984 85.81 573.31 85.53" stroke="#4E4F4F" stroke-width="2"/>
<path d="M573.45 85.54C573.677 85.78 573.96 85.78 574.3 85.54" stroke="#4E4F4F" stroke-width="2"/>
<path d="M574.44 85.51C575.827 85.8367 577.127 85.87 578.34 85.61" stroke="#4E4F4F" stroke-width="2"/>
<path d="M578.44 85.52C578.82 85.9934 579.443 86.0134 580.31 85.58" stroke="#898A8A" stroke-width="2"/>
<path d="M580.45 85.54C581.11 85.7934 581.73 85.8034 582.31 85.57" stroke="#4E4F4F" stroke-width="2"/>
<path d="M582.46 85.52C582.753 85.7067 583.03 85.7234 583.29 85.57" stroke="#4E4F4F" stroke-width="2"/>
<path d="M584 85.5601C584.753 85.7001 585.513 85.7101 586.28 85.5901" stroke="#4E4F4F" stroke-width="2"/>
<path d="M586.45 85.54C587.13 85.8934 587.747 85.9034 588.3 85.57" stroke="#898A8A" stroke-width="2"/>
<path d="M588.49 85.64L598.03 85.66" stroke="#4E4F4F" stroke-width="2"/>
<path d="M598.46 85.53C598.727 85.65 599.003 85.66 599.29 85.56" stroke="#4E4F4F" stroke-width="2"/>
<path d="M599.45 85.52C600.317 85.7933 601.104 85.7867 601.81 85.5" stroke="#4E4F4F" stroke-width="2"/>
<path d="M608 85.49C608.753 85.73 609.52 85.75 610.3 85.55" stroke="#898A8A" stroke-width="2"/>
<path d="M610.46 85.51C611.1 85.7633 611.717 85.7767 612.31 85.55" stroke="#898A8A" stroke-width="2"/>
<path d="M612.45 85.52C613.144 85.7734 613.764 85.7834 614.31 85.55" stroke="#898A8A" stroke-width="2"/>
<path d="M614.45 85.53L618.3 85.57" stroke="#4E4F4F" stroke-width="2"/>
<path d="M618.45 85.51C618.684 85.8033 618.97 85.81 619.31 85.53" stroke="#898A8A" stroke-width="2"/>
<path d="M620.46 85.5C620.833 85.7667 621.113 85.7733 621.3 85.52" stroke="#898A8A" stroke-width="2"/>
<path d="M622.46 85.55L628.29 85.6401" stroke="#4E4F4F" stroke-width="2"/>
<path d="M628.45 85.51C628.61 85.9167 628.897 85.92 629.31 85.52" stroke="#898A8A" stroke-width="2"/>
<path d="M632.52 85.47C633.12 85.7567 633.553 85.7534 633.82 85.46" stroke="#4E4F4F" stroke-width="2"/>
<path d="M644.68 85.45C645.293 85.9433 645.67 85.9233 645.81 85.39" stroke="#898A8A" stroke-width="2"/>
<path d="M724.51 85.39C724.936 85.8233 725.203 85.8267 725.31 85.4" stroke="#4E4F4F" stroke-width="2"/>
<path d="M769.95 85.4C770.23 85.7534 770.517 85.7934 770.81 85.52" stroke="#4E4F4F" stroke-width="2"/>
<path d="M770.96 85.5C771.347 85.72 771.627 85.7333 771.8 85.54" stroke="#4E4F4F" stroke-width="2"/>
<path d="M773.46 85.5C774 85.7267 774.45 85.74 774.81 85.54" stroke="#4E4F4F" stroke-width="2"/>
<path d="M774.96 85.5C775.36 85.7333 775.64 85.7433 775.8 85.53" stroke="#4E4F4F" stroke-width="2"/>
<path d="M776.96 85.5C777.24 85.6533 777.517 85.66 777.79 85.52" stroke="#4E4F4F" stroke-width="2"/>
<path d="M777.95 85.5C778.41 85.76 778.694 85.7633 778.8 85.51" stroke="#4E4F4F" stroke-width="2"/>
<path d="M781.95 85.49C782.477 85.8033 782.76 85.8033 782.8 85.49" stroke="#4E4F4F" stroke-width="2"/>
<path d="M782.95 85.5C783.484 85.8 783.767 85.79 783.8 85.47" stroke="#4E4F4F" stroke-width="2"/>
<path d="M788.95 85.5C790.19 85.7667 791.477 85.78 792.81 85.54" stroke="#4E4F4F" stroke-width="2"/>
<path d="M793.96 85.5C794.427 85.74 794.707 85.7467 794.8 85.52" stroke="#898A8A" stroke-width="2"/>
<path d="M796.94 85.51C797.653 85.97 798.283 85.9633 798.83 85.49" stroke="#4E4F4F" stroke-width="2"/>
<path d="M798.95 85.51C799.564 85.7567 800.184 85.7667 800.81 85.54" stroke="#4E4F4F" stroke-width="2"/>
<path d="M800.96 85.5C801.247 85.6667 801.523 85.6667 801.79 85.5" stroke="#4E4F4F" stroke-width="2"/>
<path d="M801.95 85.5C802.47 85.7934 802.754 85.7867 802.8 85.48" stroke="#4E4F4F" stroke-width="2"/>
<path d="M802.96 85.5C803.353 85.7333 803.633 85.7433 803.8 85.53" stroke="#4E4F4F" stroke-width="2"/>
<path d="M804.94 85.51C805.92 85.9633 806.887 85.9633 807.84 85.51" stroke="#4E4F4F" stroke-width="2"/>
<path d="M807.95 85.5C808.444 85.78 808.727 85.7767 808.8 85.49" stroke="#4E4F4F" stroke-width="2"/>
<path d="M808.93 85.52C809.416 85.8734 809.706 85.8534 809.8 85.46" stroke="#4E4F4F" stroke-width="2"/>
<path d="M809.94 85.56C810.427 85.8334 810.713 85.8034 810.8 85.47" stroke="#898A8A" stroke-width="2"/>
<path d="M810.96 85.5C811.247 85.68 811.523 85.6767 811.79 85.49" stroke="#898A8A" stroke-width="2"/>
<path d="M812.95 85.5C813.524 85.8734 813.803 85.86 813.79 85.46" stroke="#898A8A" stroke-width="2"/>
<path d="M262.29 547.9C263.757 547.24 265.36 546.9 267.1 546.88C276.533 546.773 281.417 546.72 281.75 546.72C315.383 547.187 352.3 546.84 392.5 545.68C397.947 545.52 402.78 545.047 407 544.26C415.06 542.753 429.457 540.603 450.19 537.81C465.89 535.69 486.593 532.157 512.3 527.21C518.893 525.943 530.703 523.18 547.73 518.92C573.51 512.48 597.963 504.917 621.09 496.23C632.69 491.877 641.13 488.66 646.41 486.58C655.2 483.11 662.37 478.62 671.63 474.35C702.31 460.177 731.36 442.6 758.78 421.62C769.3 413.58 783.03 402.87 792.8 393.05C805.133 380.65 812.743 372.843 815.63 369.63C828.517 355.27 840.473 340.233 851.5 324.52C858.52 314.507 864.943 304.173 870.77 293.52" stroke="#7D7D7D" stroke-width="2"/>
<path d="M819.54 85.46C819.373 85.44 819.263 85.46 819.21 85.52C819.2 85.5292 819.194 85.5409 819.191 85.5537C819.187 85.5666 819.188 85.5801 819.192 85.5927C819.196 85.6052 819.204 85.6164 819.214 85.6247C819.224 85.6331 819.237 85.6384 819.25 85.64C819.497 85.6867 819.623 85.71 819.63 85.71C819.666 85.7139 819.695 85.7044 819.712 85.6837C819.729 85.663 819.731 85.6327 819.72 85.5996C819.708 85.5664 819.682 85.5331 819.648 85.5069C819.615 85.4808 819.576 85.4639 819.54 85.46Z" stroke="#4E4F4F" stroke-width="2"/>
<path d="M821.92 85.28C821.6 85.22 821.376 85.2367 821.25 85.33C821.207 85.3614 821.173 85.4042 821.152 85.4535C821.132 85.5028 821.126 85.5568 821.134 85.6095C821.142 85.6622 821.165 85.7116 821.199 85.7523C821.234 85.793 821.279 85.8234 821.33 85.84C821.376 85.8534 821.576 85.8234 821.93 85.75C821.984 85.7377 822.032 85.7072 822.066 85.6637C822.1 85.6201 822.117 85.5662 822.116 85.511C822.115 85.4557 822.095 85.4026 822.059 85.3605C822.023 85.3185 821.974 85.29 821.92 85.28Z" stroke="#4E4F4F" stroke-width="2"/>
<path d="M275.14 346.17C276.06 351.71 278.2 356.63 281.56 360.93C287.9 369.03 296.547 373.08 307.5 373.08C503.073 373.053 635.603 373.053 705.09 373.08C715.537 373.087 721.97 372.783 724.39 372.17C738.29 368.66 747.91 356.38 748.05 341.72C748.19 327.487 748.203 308.41 748.09 284.49C748.05 274.87 744.49 266.913 737.41 260.62C732.257 256.033 726.277 253.47 719.47 252.93" stroke="#9C9D9D" stroke-width="2"/>
<path d="M719.47 252.93L720.15 252.61C720.2 252.588 720.241 252.55 720.267 252.502C720.292 252.453 720.3 252.398 720.29 252.344C720.279 252.29 720.251 252.242 720.209 252.207C720.167 252.171 720.115 252.151 720.06 252.15C707.827 252.003 696.64 251.927 686.5 251.92C531.227 251.88 405.523 251.88 309.39 251.92C307.783 251.92 306.53 251.963 305.63 252.05C302.27 252.35 299.59 252.27 296.36 253.45C286.72 256.983 279.913 263.65 275.94 273.45C274.47 277.08 274.59 281.05 274.26 285.05C274.153 286.297 274.1 287.77 274.1 289.47C274.12 303.583 274.123 319.427 274.11 337C274.11 340.847 274.453 343.903 275.14 346.17" stroke="#9C9D9D" stroke-width="2"/>
<path d="M1024 -199V825H0V-199H1024ZM957.98 128.11C957.98 102.628 947.857 78.1897 929.839 60.1712C911.82 42.1527 887.382 32.03 861.9 32.03H163.02C137.538 32.03 113.1 42.1527 95.0812 60.1712C77.0627 78.1897 66.94 102.628 66.94 128.11V496.95C66.94 522.432 77.0627 546.87 95.0812 564.889C113.1 582.907 137.538 593.03 163.02 593.03H861.9C887.382 593.03 911.82 582.907 929.839 564.889C947.857 546.87 957.98 522.432 957.98 496.95V128.11Z" fill="white"/>
<path d="M957.98 496.95C957.98 522.432 947.857 546.87 929.839 564.889C911.82 582.907 887.382 593.03 861.9 593.03H163.02C137.538 593.03 113.1 582.907 95.0811 564.889C77.0626 546.87 66.9399 522.432 66.9399 496.95V128.11C66.9399 102.628 77.0626 78.1897 95.0811 60.1712C113.1 42.1527 137.538 32.03 163.02 32.03H861.9C887.382 32.03 911.82 42.1527 929.839 60.1712C947.857 78.1897 957.98 102.628 957.98 128.11V496.95ZM923.52 117.34L922.99 114.39C921.65 107.963 919.387 102.183 916.2 97.05C902.98 75.7434 883.387 65.09 857.42 65.09C666.773 65.1167 436.883 65.1134 167.75 65.08C146.56 65.08 128.04 72.68 114.54 89.3C105.373 100.587 100.793 113.57 100.8 128.25C100.827 232.437 100.83 351.453 100.81 485.3C100.81 496.913 100.93 503.707 101.17 505.68C102.017 512.567 104.02 519.02 107.18 525.04C116.827 543.44 131.2 554.66 150.3 558.7C154.747 559.633 162.603 560.1 173.87 560.1C285.93 560.047 512.597 560.04 853.87 560.08C862.923 560.08 869.64 559.617 874.02 558.69C900.06 553.19 920.05 532.34 923.85 505.81C924.583 500.703 924.953 494.1 924.96 486C924.993 368.9 924.983 251.817 924.93 134.75C924.93 128.417 924.46 122.613 923.52 117.34Z" fill="black"/>
<path d="M922.99 114.39L916.09 148.23C916.057 148.376 916.04 148.527 916.04 148.68L915.93 152.12C915.929 152.176 915.915 152.23 915.888 152.279C915.862 152.328 915.823 152.369 915.777 152.4C915.731 152.43 915.677 152.449 915.622 152.454C915.567 152.46 915.511 152.451 915.46 152.43C915.38 152.39 915.293 152.333 915.2 152.26C914.126 145.173 912.723 139.003 910.99 133.75C901.68 105.43 876.48 85.65 846.11 85.46C841.49 85.43 836.01 85.3 830.94 85.45L830.31 85.5C829.703 85.3466 829.083 85.3466 828.45 85.5C827.483 85.2666 826.556 85.2966 825.67 85.59C825.661 85.5908 825.653 85.5889 825.646 85.5845C825.638 85.5802 825.633 85.5737 825.629 85.5659C825.626 85.5581 825.625 85.5495 825.627 85.5412C825.629 85.533 825.633 85.5255 825.64 85.52C825.713 85.46 825.75 85.3766 825.75 85.27C825.75 85.254 825.745 85.2388 825.735 85.2275C825.726 85.2163 825.713 85.21 825.7 85.21L818.34 85.45C816.427 85.2633 814.983 85.3 814.01 85.56C813.936 85.5266 813.863 85.4933 813.79 85.46C813.516 85.4266 813.236 85.44 812.95 85.5C812.576 85.38 812.19 85.3766 811.79 85.49C811.51 85.4433 811.233 85.4466 810.96 85.5C810.907 85.4866 810.853 85.4766 810.8 85.47C810.513 85.43 810.226 85.46 809.94 85.56C809.893 85.5266 809.846 85.4933 809.8 85.46C809.52 85.42 809.23 85.44 808.93 85.52C808.89 85.5066 808.846 85.4966 808.8 85.49C808.52 85.4366 808.236 85.44 807.95 85.5C807.91 85.5 807.873 85.5033 807.84 85.51C806.853 85.31 805.886 85.31 804.94 85.51C804.573 85.37 804.193 85.3766 803.8 85.53C803.52 85.47 803.24 85.46 802.96 85.5C802.907 85.4933 802.853 85.4866 802.8 85.48C802.52 85.4333 802.236 85.44 801.95 85.5C801.896 85.5 801.843 85.5 801.79 85.5H800.96C800.913 85.5133 800.863 85.5266 800.81 85.54C800.19 85.3333 799.57 85.3233 798.95 85.51C798.91 85.5033 798.87 85.4966 798.83 85.49C798.183 85.3366 797.553 85.3433 796.94 85.51C796.24 85.3166 795.526 85.32 794.8 85.52L793.96 85.5C793.553 85.3666 793.17 85.38 792.81 85.54C791.536 85.3066 790.25 85.2933 788.95 85.5L783.8 85.47L782.95 85.5C782.896 85.4933 782.846 85.49 782.8 85.49H781.95C780.896 85.3033 779.846 85.31 778.8 85.51C778.513 85.4633 778.23 85.46 777.95 85.5C777.896 85.5066 777.843 85.5133 777.79 85.52L776.96 85.5C776.56 85.3733 776.173 85.3833 775.8 85.53L774.96 85.5C774.907 85.5133 774.856 85.5266 774.81 85.54C774.376 85.3933 773.927 85.38 773.46 85.5C772.893 85.3266 772.34 85.34 771.8 85.54L770.96 85.5C770.907 85.5066 770.856 85.5133 770.81 85.52C770.476 85.5333 770.19 85.4933 769.95 85.4H725.31C725.196 85.5866 724.93 85.5833 724.51 85.39H645.81C645.483 85.4767 645.106 85.4966 644.68 85.45L633.82 85.46L632.52 85.47C631.42 85.3033 630.35 85.32 629.31 85.52L628.45 85.51C628.396 85.55 628.343 85.5933 628.29 85.64L622.46 85.55C622.1 85.3766 621.713 85.3666 621.3 85.52L620.46 85.5C620.06 85.3733 619.676 85.3833 619.31 85.53L618.45 85.51C618.396 85.53 618.346 85.55 618.3 85.57L614.45 85.53C614.403 85.5366 614.356 85.5433 614.31 85.55C613.71 85.4366 613.09 85.4266 612.45 85.52C612.403 85.5333 612.356 85.5433 612.31 85.55C611.716 85.4233 611.1 85.41 610.46 85.51C610.407 85.5233 610.353 85.5366 610.3 85.55L608 85.49L601.81 85.5L599.45 85.52C599.396 85.5333 599.343 85.5466 599.29 85.56L598.46 85.53C598.253 85.4966 598.11 85.54 598.03 85.66L588.49 85.64C588.423 85.62 588.36 85.5966 588.3 85.57C587.693 85.4566 587.076 85.4466 586.45 85.54C586.396 85.56 586.34 85.5766 586.28 85.59L584 85.56C583.753 85.4933 583.516 85.4966 583.29 85.57L582.46 85.52C582.407 85.54 582.356 85.5566 582.31 85.57L580.45 85.54C580.403 85.5533 580.356 85.5666 580.31 85.58C579.71 85.44 579.086 85.42 578.44 85.52C578.406 85.5533 578.373 85.5833 578.34 85.61L574.44 85.51C574.393 85.5233 574.346 85.5333 574.3 85.54H573.45C573.403 85.54 573.356 85.5366 573.31 85.53L572.45 85.51C572.403 85.5033 572.356 85.5 572.31 85.5L570.7 85.53L570.23 85.6L568.28 85.53C567.94 85.41 567.61 85.4266 567.29 85.58L566.46 85.53C566.407 85.55 566.353 85.57 566.3 85.59L564.7 85.53C564.526 85.5366 564.363 85.5766 564.21 85.65L559.75 85.62C559.27 85.3133 558.773 85.31 558.26 85.61L551.46 85.64C551.407 85.6267 551.353 85.6133 551.3 85.6L550.45 85.56C550.39 85.6 550.33 85.6366 550.27 85.67L544.3 85.65C543.626 85.2633 542.956 85.2433 542.29 85.59L540.7 85.6C540.626 85.62 540.553 85.64 540.48 85.66L536.16 85.54L529.98 85.56L528.71 85.54C527.697 85.28 526.726 85.2933 525.8 85.58L524.7 85.54C524.44 85.4666 524.237 85.4766 524.09 85.57L520.18 85.54C520.146 85.5333 520.11 85.5266 520.07 85.52L518.45 85.5C517.656 85.32 516.853 85.34 516.04 85.56L514.71 85.55C514.237 85.3833 513.76 85.4033 513.28 85.61L512.28 85.52C512.2 85.54 512.12 85.5633 512.04 85.59L509.94 85.47L503.29 85.48L502.21 85.47L495.3 85.49L494.44 85.59C494.393 85.59 494.343 85.59 494.29 85.59L492.7 85.56C492.473 85.5333 492.246 85.55 492.02 85.61L490.71 85.59C490.643 85.6166 490.576 85.6433 490.51 85.67L476.72 85.68C476.526 85.5333 476.29 85.5133 476.01 85.62H472.7C472.473 85.5533 472.226 85.5466 471.96 85.6L470.29 85.59C470.21 85.5966 470.13 85.6033 470.05 85.61L466.44 85.59C466.353 85.61 466.266 85.63 466.18 85.65L458.43 85.67C458.363 85.6633 458.3 85.6566 458.24 85.65L432.29 85.68C432.183 85.6733 432.08 85.67 431.98 85.67L364.29 85.69C364.203 85.6633 364.113 85.6366 364.02 85.61L361.45 85.54C361.403 85.56 361.353 85.5766 361.3 85.59L360.46 85.53C360.386 85.5566 360.313 85.5866 360.24 85.62L356.27 85.57C356.196 85.5766 356.123 85.5866 356.05 85.6C355.29 85.4466 354.506 85.4166 353.7 85.51L353.3 85.57L352.45 85.54C352.403 85.58 352.36 85.62 352.32 85.66L345.48 85.64C345.42 85.6267 345.36 85.61 345.3 85.59L344.45 85.54C344.39 85.5666 344.326 85.5966 344.26 85.63L340.69 85.61C340.636 85.5966 340.586 85.58 340.54 85.56L338.21 85.51C337.896 85.4033 337.593 85.4266 337.3 85.58L336.46 85.53C336.4 85.55 336.343 85.57 336.29 85.59L334.46 85.52C334.38 85.5466 334.3 85.5733 334.22 85.6L332.71 85.56C332.47 85.4866 332.256 85.4833 332.07 85.55L329.44 85.51C329.02 85.3433 328.596 85.3867 328.17 85.64L316.31 85.7C316.196 85.6866 316.083 85.6733 315.97 85.66L308.3 85.64C308.2 85.6467 308.1 85.6566 308 85.67L296.45 85.65C296.403 85.6366 296.353 85.6266 296.3 85.62L292.27 85.57C292.183 85.5766 292.096 85.5833 292.01 85.59L290.21 85.55C290.143 85.59 290.076 85.6333 290.01 85.68L275.82 85.71C275.7 85.6766 275.58 85.6433 275.46 85.61L274.3 85.57C274.173 85.6033 274.05 85.6366 273.93 85.67L241.73 85.68C241.63 85.56 241.486 85.5266 241.3 85.58L240.44 85.57C240.073 85.41 239.693 85.4033 239.3 85.55L238.44 85.6C238.386 85.6 238.333 85.5966 238.28 85.59L237.45 85.61C237.396 85.6033 237.346 85.5966 237.3 85.59L235.71 85.55C235.176 85.3166 234.706 85.3333 234.3 85.6H233.45C233.396 85.5933 233.343 85.59 233.29 85.59L232.46 85.55C231.713 85.3433 230.97 85.3633 230.23 85.61L229.46 85.6C229.153 85.5066 228.846 85.5 228.54 85.58L227.71 85.56L227.32 85.57L224.69 85.56C224.256 85.3666 223.796 85.38 223.31 85.6L220.71 85.63L219.26 85.56L218.29 85.46C217.936 85.4 217.606 85.4233 217.3 85.53L216.46 85.5C216.08 85.3866 215.69 85.4033 215.29 85.55L214.46 85.56C214.4 85.58 214.34 85.6 214.28 85.62L210.18 85.58C210.126 85.6066 210.073 85.6333 210.02 85.66L188.56 85.6C179.1 84.9866 169.926 86.3966 161.04 89.83C135.36 99.74 121.02 122.45 120.98 149.5C120.893 222.153 120.883 294.807 120.95 367.46C120.916 397.093 120.943 426.727 121.03 456.36C121.043 459.107 121.136 461.983 121.31 464.99C121.476 467.863 121.63 470.737 121.77 473.61C122.696 492.823 129.343 509.81 141.71 524.57L106.62 519.8C106.531 519.788 106.441 519.799 106.358 519.834C106.275 519.868 106.202 519.923 106.147 519.994C106.093 520.065 106.058 520.149 106.046 520.238C106.034 520.327 106.046 520.417 106.08 520.5C113.82 539 129.38 553.36 149.27 557.4C154.123 558.387 157.623 558.88 159.77 558.88C369.743 558.907 601.14 558.913 853.96 558.9C863.493 558.9 870.436 558.413 874.79 557.44C882.196 555.787 888.906 553.01 894.92 549.11C915.7 535.64 924.02 514.89 924.05 490.26C924.156 382.087 924.15 261.347 924.03 128.04C924.03 127.874 924.01 127.703 923.97 127.53C923.216 124.13 923.067 120.733 923.52 117.34C924.46 122.613 924.93 128.417 924.93 134.75C924.983 251.817 924.993 368.9 924.96 486C924.953 494.1 924.583 500.703 923.85 505.81C920.05 532.34 900.06 553.19 874.02 558.69C869.64 559.617 862.923 560.08 853.87 560.08C512.596 560.04 285.93 560.047 173.87 560.1C162.603 560.1 154.746 559.633 150.3 558.7C131.2 554.66 116.826 543.44 107.18 525.04C104.02 519.02 102.016 512.567 101.17 505.68C100.93 503.707 100.81 496.913 100.81 485.3C100.83 351.453 100.826 232.437 100.8 128.25C100.793 113.57 105.373 100.587 114.54 89.3C128.04 72.68 146.56 65.08 167.75 65.08C436.883 65.1133 666.773 65.1166 857.42 65.09C883.386 65.09 902.98 75.7433 916.2 97.05C919.386 102.183 921.65 107.963 922.99 114.39Z" fill="#9C9D9D"/>
<path d="M818.34 85.45C816.606 85.89 815.163 85.9267 814.01 85.56C814.983 85.3 816.426 85.2634 818.34 85.45Z" fill="black"/>
<path d="M332.07 85.55C331.377 85.99 330.5 85.9767 329.44 85.51L332.07 85.55Z" fill="#767676"/>
<path d="M340.54 85.56C339.493 85.9 338.717 85.8833 338.21 85.51L340.54 85.56Z" fill="#767676"/>
<path d="M470.05 85.61C468.79 85.9033 467.587 85.8966 466.44 85.59L470.05 85.61Z" fill="#767676"/>
<path d="M476.01 85.62C474.977 85.8067 473.874 85.8067 472.7 85.62H476.01Z" fill="#767676"/>
<path d="M492.02 85.61C491.573 85.93 491.137 85.9233 490.71 85.59L492.02 85.61Z" fill="#767676"/>
<path d="M494.29 85.59C493.737 85.9833 493.207 85.9733 492.7 85.56L494.29 85.59Z" fill="#767676"/>
<path d="M495.3 85.49C495.253 85.95 494.967 85.9833 494.44 85.59L495.3 85.49Z" fill="black"/>
<path d="M503.29 85.48C503.323 85.7333 503.23 85.8766 503.01 85.91C502.63 85.9766 502.363 85.83 502.21 85.47L503.29 85.48Z" fill="#767676"/>
<path d="M512.04 85.59C511.233 86.0233 510.533 85.9833 509.94 85.47L512.04 85.59Z" fill="#767676"/>
<path d="M513.28 85.61C513.187 85.91 512.854 85.88 512.28 85.52L513.28 85.61Z" fill="black"/>
<path d="M516.04 85.56C515.58 85.96 515.137 85.9567 514.71 85.55L516.04 85.56Z" fill="#767676"/>
<path d="M520.07 85.52C519.517 86.0533 518.977 86.0467 518.45 85.5L520.07 85.52Z" fill="#767676"/>
<path d="M524.09 85.57C522.904 85.93 521.6 85.92 520.18 85.54L524.09 85.57Z" fill="#767676"/>
<path d="M525.8 85.58C525.107 85.9134 524.74 85.9 524.7 85.54L525.8 85.58Z" fill="black"/>
<path d="M529.98 85.56C529.467 85.8734 529.043 85.8667 528.71 85.54L529.98 85.56Z" fill="#767676"/>
<path d="M540.48 85.66C538.993 85.96 537.553 85.92 536.16 85.54L540.48 85.66Z" fill="#767676"/>
<path d="M542.29 85.59C541.69 85.9233 541.16 85.9266 540.7 85.6L542.29 85.59Z" fill="#767676"/>
<path d="M551.3 85.6C551.02 85.78 550.737 85.7667 550.45 85.56L551.3 85.6Z" fill="black"/>
<path d="M566.3 85.59C565.774 85.77 565.24 85.75 564.7 85.53L566.3 85.59Z" fill="black"/>
<path d="M567.29 85.58C567.037 85.7134 566.76 85.6967 566.46 85.53L567.29 85.58Z" fill="black"/>
<path d="M570.23 85.6C569.51 85.7667 568.86 85.7434 568.28 85.53L570.23 85.6Z" fill="black"/>
<path d="M572.31 85.5C571.924 85.9133 571.387 85.9233 570.7 85.53L572.31 85.5Z" fill="black"/>
<path d="M573.31 85.53C572.984 85.81 572.697 85.8033 572.45 85.51L573.31 85.53Z" fill="black"/>
<path d="M574.3 85.54C573.96 85.78 573.677 85.78 573.45 85.54H574.3Z" fill="black"/>
<path d="M580.31 85.58C579.443 86.0134 578.82 85.9934 578.44 85.52C579.087 85.42 579.71 85.44 580.31 85.58Z" fill="#767676"/>
<path d="M582.31 85.57C581.73 85.8034 581.11 85.7934 580.45 85.54L582.31 85.57Z" fill="black"/>
<path d="M583.29 85.57C583.03 85.7234 582.753 85.7067 582.46 85.52L583.29 85.57Z" fill="black"/>
<path d="M586.28 85.59C585.513 85.71 584.753 85.7 584 85.56L586.28 85.59Z" fill="black"/>
<path d="M588.3 85.57C587.747 85.9034 587.13 85.8934 586.45 85.54C587.077 85.4467 587.694 85.4567 588.3 85.57Z" fill="#767676"/>
<path d="M599.29 85.56C599.003 85.66 598.727 85.65 598.46 85.53L599.29 85.56Z" fill="black"/>
<path d="M601.81 85.5C601.104 85.7867 600.317 85.7933 599.45 85.52L601.81 85.5Z" fill="black"/>
<path d="M610.3 85.55C609.52 85.75 608.753 85.73 608 85.49L610.3 85.55Z" fill="#767676"/>
<path d="M612.31 85.55C611.717 85.7767 611.1 85.7634 610.46 85.51C611.1 85.41 611.717 85.4233 612.31 85.55Z" fill="#767676"/>
<path d="M614.31 85.55C613.764 85.7833 613.144 85.7733 612.45 85.52C613.09 85.4267 613.71 85.4367 614.31 85.55Z" fill="#767676"/>
<path d="M619.31 85.53C618.97 85.81 618.684 85.8033 618.45 85.51L619.31 85.53Z" fill="#767676"/>
<path d="M621.3 85.52C621.113 85.7733 620.833 85.7667 620.46 85.5L621.3 85.52Z" fill="#767676"/>
<path d="M629.31 85.52C628.897 85.92 628.61 85.9167 628.45 85.51L629.31 85.52Z" fill="#767676"/>
<path d="M633.82 85.46C633.553 85.7533 633.12 85.7566 632.52 85.47L633.82 85.46Z" fill="black"/>
<path d="M645.81 85.39C645.67 85.9233 645.294 85.9433 644.68 85.45C645.107 85.4967 645.484 85.4767 645.81 85.39Z" fill="#767676"/>
<path d="M725.31 85.4C725.203 85.8267 724.936 85.8233 724.51 85.39C724.93 85.5833 725.196 85.5867 725.31 85.4Z" fill="black"/>
<path d="M770.81 85.52C770.517 85.7934 770.23 85.7534 769.95 85.4C770.19 85.4934 770.477 85.5334 770.81 85.52Z" fill="black"/>
<path d="M771.8 85.54C771.627 85.7333 771.347 85.72 770.96 85.5L771.8 85.54Z" fill="black"/>
<path d="M774.81 85.54C774.45 85.74 774 85.7267 773.46 85.5C773.927 85.38 774.377 85.3933 774.81 85.54Z" fill="black"/>
<path d="M775.8 85.53C775.64 85.7433 775.36 85.7333 774.96 85.5L775.8 85.53Z" fill="black"/>
<path d="M777.79 85.52C777.517 85.66 777.24 85.6533 776.96 85.5L777.79 85.52Z" fill="black"/>
<path d="M778.8 85.51C778.694 85.7633 778.41 85.76 777.95 85.5C778.23 85.46 778.514 85.4633 778.8 85.51Z" fill="black"/>
<path d="M782.8 85.49C782.76 85.8033 782.477 85.8033 781.95 85.49H782.8Z" fill="black"/>
<path d="M783.8 85.47C783.767 85.79 783.484 85.8 782.95 85.5L783.8 85.47Z" fill="black"/>
<path d="M792.81 85.54C791.477 85.78 790.19 85.7666 788.95 85.5C790.25 85.2933 791.537 85.3066 792.81 85.54Z" fill="black"/>
<path d="M794.8 85.52C794.707 85.7467 794.427 85.74 793.96 85.5L794.8 85.52Z" fill="#767676"/>
<path d="M798.83 85.49C798.283 85.9633 797.653 85.97 796.94 85.51C797.553 85.3433 798.183 85.3366 798.83 85.49Z" fill="black"/>
<path d="M800.81 85.54C800.184 85.7667 799.564 85.7567 798.95 85.51C799.57 85.3234 800.19 85.3334 800.81 85.54Z" fill="black"/>
<path d="M801.79 85.5C801.523 85.6667 801.247 85.6667 800.96 85.5H801.79Z" fill="black"/>
<path d="M802.8 85.48C802.754 85.7866 802.47 85.7933 801.95 85.5C802.237 85.44 802.52 85.4333 802.8 85.48Z" fill="black"/>
<path d="M803.8 85.53C803.633 85.7433 803.353 85.7333 802.96 85.5C803.24 85.46 803.52 85.47 803.8 85.53Z" fill="black"/>
<path d="M807.84 85.51C806.887 85.9633 805.92 85.9633 804.94 85.51C805.887 85.31 806.853 85.31 807.84 85.51Z" fill="black"/>
<path d="M808.8 85.49C808.727 85.7767 808.444 85.78 807.95 85.5C808.237 85.44 808.52 85.4367 808.8 85.49Z" fill="black"/>
<path d="M809.8 85.46C809.707 85.8533 809.417 85.8733 808.93 85.52C809.23 85.44 809.52 85.42 809.8 85.46Z" fill="black"/>
<path d="M810.8 85.47C810.713 85.8034 810.427 85.8334 809.94 85.56C810.227 85.46 810.513 85.43 810.8 85.47Z" fill="#767676"/>
<path d="M811.79 85.49C811.523 85.6767 811.247 85.68 810.96 85.5C811.233 85.4467 811.51 85.4433 811.79 85.49Z" fill="#767676"/>
<path d="M813.79 85.46C813.803 85.86 813.524 85.8733 812.95 85.5C813.237 85.44 813.517 85.4267 813.79 85.46Z" fill="#767676"/>
<path d="M915.2 152.26C915.187 152.36 915.173 152.463 915.16 152.57C915.152 152.617 915.134 152.662 915.107 152.702C915.081 152.742 915.046 152.776 915.005 152.801C914.965 152.827 914.919 152.844 914.872 152.85C914.824 152.857 914.776 152.853 914.73 152.84C914.65 152.813 914.533 152.77 914.38 152.71C914.275 152.671 914.182 152.604 914.113 152.516C914.045 152.427 914.002 152.321 913.99 152.21C910.57 120.77 891.7 95.09 860.56 87.63C856.947 86.7634 852.127 86.26 846.1 86.12C840.567 85.9867 835.703 85.9067 831.51 85.88C831.277 85.8734 831.087 85.7301 830.94 85.4501C836.01 85.3001 841.49 85.43 846.11 85.46C876.48 85.65 901.68 105.43 910.99 133.75C912.723 139.003 914.127 145.173 915.2 152.26Z" fill="#9C9D9D"/>
<path d="M262.29 547.9C263.757 547.24 265.36 546.9 267.1 546.88C276.533 546.773 281.417 546.72 281.75 546.72C315.383 547.187 352.3 546.84 392.5 545.68C397.947 545.52 402.78 545.047 407 544.26C415.06 542.753 429.457 540.603 450.19 537.81C465.89 535.69 486.593 532.157 512.3 527.21C518.893 525.943 530.703 523.18 547.73 518.92C573.51 512.48 597.963 504.917 621.09 496.23C632.69 491.877 641.13 488.66 646.41 486.58C655.2 483.11 662.37 478.62 671.63 474.35C702.31 460.177 731.36 442.6 758.78 421.62C769.3 413.58 783.03 402.87 792.8 393.05C805.133 380.65 812.743 372.843 815.63 369.63C828.517 355.27 840.473 340.233 851.5 324.52C858.52 314.507 864.943 304.173 870.77 293.52C881.89 273.93 890.31 254.28 897.72 233.51C905.753 210.963 911.317 187.817 914.41 164.07C914.77 161.32 914.63 158.69 914.93 156.46C914.939 156.386 914.965 156.316 915.005 156.257C915.045 156.198 915.098 156.15 915.16 156.12C915.447 155.973 915.697 155.98 915.91 156.14C915.938 156.162 915.961 156.189 915.977 156.22C915.992 156.252 916 156.286 916 156.32C916.053 270.033 916.053 374.927 916 471C916 473.993 915.407 478.853 914.22 485.58C913.24 491.113 912.027 495.85 910.58 499.79C900.08 528.37 874.88 546.26 844.5 546.94C834.913 547.147 829.547 547.293 828.4 547.38C819.61 548.01 809.28 547.91 801.75 547.92C621.93 548.04 442.11 548.033 262.29 547.9Z" fill="#767676"/>
<path d="M828.45 85.5C825 84 827.653 84.8733 828 84.5L830.94 85.45C831.087 85.73 831.277 85.8734 831.51 85.88C835.703 85.9067 840.567 85.9867 846.1 86.12C852.127 86.26 856.947 86.7634 860.56 87.63C891.7 95.09 910.57 120.77 913.99 152.21C914.002 152.321 914.045 152.427 914.114 152.516C914.183 152.604 914.275 152.671 914.38 152.71C914.533 152.77 914.65 152.813 914.73 152.84C914.776 152.853 914.825 152.857 914.872 152.85C914.919 152.844 914.965 152.827 915.006 152.801C915.046 152.776 915.081 152.742 915.108 152.702C915.134 152.662 915.152 152.617 915.16 152.57C915.173 152.463 915.187 152.36 915.2 152.26C915.293 152.333 915.38 152.39 915.46 152.43C915.511 152.451 915.567 152.46 915.622 152.454C915.678 152.449 915.731 152.43 915.777 152.4C915.824 152.369 915.862 152.328 915.889 152.279C915.915 152.23 915.929 152.176 915.93 152.12L916.04 148.68C916.04 148.527 916.057 148.376 916.09 148.23L922.99 114.39L923.52 117.34C923.067 120.733 923.217 124.13 923.97 127.53C924.01 127.703 924.03 127.874 924.03 128.04C924.15 261.347 924.157 382.087 924.05 490.26C924.02 514.89 915.7 535.64 894.92 549.11C888.907 553.01 882.197 555.787 874.79 557.44C870.437 558.413 863.493 558.9 853.96 558.9C601.14 558.913 369.743 558.907 159.77 558.88C157.623 558.88 154.123 558.387 149.27 557.4C129.38 553.36 113.82 539 106.08 520.5C106.046 520.417 106.034 520.327 106.046 520.238C106.058 520.149 106.093 520.065 106.148 519.994C106.202 519.923 106.275 519.868 106.358 519.834C106.441 519.8 106.531 519.788 106.62 519.8L141.71 524.57C155.85 539.15 173.53 546.723 194.75 547.29C218.597 547.93 241.11 548.133 262.29 547.9C442.11 548.033 621.93 548.04 801.75 547.92C809.28 547.91 819.61 548.01 828.4 547.38C829.547 547.293 834.913 547.147 844.5 546.94C874.88 546.26 900.08 528.37 910.58 499.79C912.027 495.85 913.24 491.113 914.22 485.58C915.407 478.853 916 473.993 916 471C916.053 374.927 916.053 270.033 916 156.32C916 156.286 915.992 156.252 915.977 156.22C915.961 156.189 915.938 156.162 915.91 156.14C915.697 155.98 915.447 155.973 915.16 156.12C915.098 156.151 915.045 156.198 915.005 156.257C914.965 156.316 914.939 156.386 914.93 156.46C914.63 158.69 914.77 161.32 914.41 164.07C911.317 187.817 905.753 210.963 897.72 233.51C890.31 254.28 881.89 273.93 870.77 293.52C863.35 290.39 855.36 291.85 848.46 294.89C824.3 305.53 800.06 318.19 774.82 325.92C765.16 328.873 756.623 333.557 749.21 339.97C749.106 340.065 749.023 340.179 748.966 340.307C748.909 340.434 748.88 340.572 748.88 340.71C748.98 349.857 745.897 357.663 739.63 364.13C733.68 370.26 726.01 373.62 717.47 373.76C713.997 373.82 711.69 373.85 710.55 373.85C684.237 373.943 646.653 373.987 597.8 373.98C596 375.5 593.41 376.79 593 377C593.073 379.073 587.313 378.4 585.54 379.56C581.587 382.133 576.877 384.577 571.41 386.89C538.32 400.89 525.4 407.2 503.76 413.83C466.95 425.09 431.96 436.07 397.8 449.02C388.02 452.72 376.32 456.03 364.85 459.07C344.717 464.41 325.59 470.363 307.47 476.93C294.21 481.74 284.43 486.63 271.34 491.42C258.887 495.987 248.677 499.913 240.71 503.2C222.9 510.55 207.71 515.31 187.73 522.5C172.9 527.84 158.67 526.54 143.36 523.93C143.043 523.878 139.214 524.441 139 524.202C127.707 511.595 122.98 496.053 121.5 479C120.84 471.4 122.367 467.333 122.32 466.82C121.973 463.233 121.803 459.173 121.81 454.64C121.897 411.233 121.913 385.77 121.86 378.25C121.847 376.017 121.543 372.42 120.95 367.46C120.883 294.807 120.893 222.153 120.98 149.5C121.02 122.45 135.36 99.74 161.04 89.83C169.927 86.3967 179.1 84.9867 188.56 85.6L210.02 85.66C220.094 80.623 266.079 85.6725 273.93 85.67C274.05 85.6367 274.173 85.6034 274.3 85.57C274.82 85.8767 275.207 85.89 275.46 85.61C275.58 85.6433 275.7 85.6767 275.82 85.71C439.518 85.364 683 70.5 818.34 85.45L825.7 85.21C825.713 85.21 825.726 85.2163 825.735 85.2276C825.745 85.2389 825.75 85.2541 825.75 85.27C825.75 85.3767 825.713 85.46 825.64 85.52C825.634 85.5256 825.629 85.533 825.627 85.5413C825.625 85.5495 825.626 85.5582 825.63 85.5659C825.633 85.5737 825.639 85.5803 825.646 85.5846C825.653 85.5889 825.662 85.5908 825.67 85.59C826.557 85.2967 827.483 85.2667 828.45 85.5ZM819.453 85.45C820.237 85.5348 818.627 85.351 819.453 85.45ZM347 356.5C542.573 356.473 610.013 364.103 679.5 364.13C689.947 364.137 683.08 361.113 685.5 360.5C684 354 689.86 364.66 690 350C690.14 335.767 667.113 373.42 667 349.5C666.96 339.88 693.58 338.293 686.5 332C673.103 320.076 674.228 278.647 683.5 294C698.964 287.271 683.864 284.501 667 284.49C511.727 284.45 438.633 275.96 342.5 276C317.83 276 331 271.005 331 309C331.032 331.751 324.249 356.5 347 356.5Z" fill="#9C9D9D"/>
<path d="M870.77 293.52C864.944 304.173 858.52 314.507 851.5 324.52C840.474 340.233 828.517 355.27 815.63 369.63C812.744 372.843 805.134 380.65 792.8 393.05C783.03 402.87 769.3 413.58 758.78 421.62C731.36 442.6 702.31 460.177 671.63 474.35C662.37 478.62 655.2 483.11 646.41 486.58C641.13 488.66 632.69 491.877 621.09 496.23C597.963 504.917 573.51 512.48 547.73 518.92C530.703 523.18 518.893 525.943 512.3 527.21C486.593 532.157 465.89 535.69 450.19 537.81C429.457 540.603 415.06 542.753 407 544.26C402.78 545.047 397.947 545.52 392.5 545.68C352.3 546.84 315.383 547.187 281.75 546.72C281.417 546.72 276.533 546.773 267.1 546.88C265.36 546.9 263.757 547.24 262.29 547.9C241.11 548.133 218.597 547.93 194.75 547.29C173.53 546.723 154.14 538.08 140 523.5C147.29 523.5 162 524.57 187.73 522.5C207.71 515.31 222.9 510.55 240.71 503.2C248.677 499.913 258.887 495.987 271.34 491.42C284.43 486.63 294.21 481.74 307.47 476.93C325.59 470.363 344.717 464.41 364.85 459.07C376.32 456.03 388.02 452.72 397.8 449.02C431.96 436.07 466.95 425.09 503.76 413.83C525.4 407.2 538.32 400.89 571.41 386.89C576.877 384.577 581.587 382.133 585.54 379.56C595 371 652.307 365.608 675.5 366.5C681 363 693.971 355.612 704 346.5C711.413 340.087 765.16 328.873 774.82 325.92C800.06 318.19 824.3 305.53 848.46 294.89C855.36 291.85 863.35 290.39 870.77 293.52Z" fill="#848484"/>
<path d="M567.042 261.186C602.356 261.206 637.656 261.236 672.942 261.276C680.622 261.283 687.602 263.66 693.882 268.406C703.202 275.436 707.142 285.536 707.192 297.466C707.219 305.093 707.222 315.456 707.202 328.556C707.192 336.566 706.022 344.456 702.372 350.326C697.706 357.833 691.539 362.786 683.872 365.186C680.412 366.266 673.612 366.8 663.472 366.786C644.812 366.76 611.759 366.756 564.312 366.776C564.198 366.776 564.089 366.822 564.008 366.902C563.928 366.983 563.882 367.092 563.882 367.206C563.889 409.633 563.912 442.8 563.952 466.706C563.966 475.113 563.442 481.06 562.382 484.546C557.902 499.266 545.942 508.306 530.752 509.496C529.272 509.61 518.412 509.646 498.172 509.606C495.106 509.6 492.676 509.433 490.882 509.106C486.996 508.406 484.616 507.873 483.742 507.506C472.616 502.9 465.492 495.253 462.372 484.566C461.346 481.053 460.839 474.763 460.852 465.696C460.906 422.85 460.929 389.91 460.922 366.876C460.922 366.802 460.893 366.731 460.84 366.678C460.788 366.626 460.717 366.596 460.642 366.596C427.362 366.77 391.736 366.813 353.762 366.726C348.276 366.713 344.349 366.396 341.982 365.776C333.969 363.67 327.632 359.173 322.972 352.286C322.152 351.066 321.349 349.836 320.562 348.596C316.692 339.976 316.972 333.546 317.072 322.246C317.086 321.013 317.062 314.6 317.002 303.006C316.962 294.446 317.419 288.643 318.372 285.596C322.222 273.276 331.612 264.236 344.122 262.086C347.736 261.466 351.952 261.16 356.772 261.166C393.552 261.213 428.069 261.19 460.322 261.096C460.451 261.096 460.574 261.045 460.665 260.953C460.757 260.862 460.81 260.737 460.812 260.606C460.919 230.553 460.926 197.003 460.832 159.956C460.819 155.703 460.999 152.23 461.372 149.536C463.892 131.376 477.322 119.626 495.772 119.156C502.159 118.99 512.326 118.956 526.272 119.056C535.072 119.116 542.712 120.876 549.532 125.926C555.799 130.566 560.109 136.833 562.462 144.726C563.482 148.153 563.982 153.043 563.962 159.396C563.902 176.27 563.889 210.01 563.922 260.616C563.922 260.747 563.974 260.873 564.065 260.966C564.157 261.06 564.282 261.114 564.412 261.116L567.042 261.186ZM535.532 289.426V151.706C535.532 151.063 535.336 150.436 534.969 149.908C534.603 149.381 534.084 148.979 533.482 148.756C531.669 148.083 529.762 147.74 527.762 147.726C519.762 147.666 508.616 147.69 494.322 147.796C491.102 147.816 489.492 149.46 489.492 152.726C489.492 243.533 489.492 289.02 489.492 289.186C489.494 289.258 489.481 289.329 489.455 289.396C489.429 289.463 489.39 289.523 489.341 289.575C489.291 289.626 489.233 289.666 489.168 289.694C489.103 289.722 489.033 289.736 488.962 289.736C472.849 289.776 430.116 289.78 360.762 289.746C356.062 289.74 352.239 289.823 349.292 289.996C347.132 290.123 346.049 291.276 346.042 293.456C345.976 307.196 345.989 321.266 346.082 335.666C346.085 336.187 346.295 336.686 346.666 337.053C347.037 337.42 347.539 337.626 348.062 337.626H488.962C489.033 337.626 489.104 337.64 489.169 337.667C489.235 337.694 489.294 337.734 489.344 337.784C489.394 337.835 489.434 337.894 489.461 337.96C489.488 338.025 489.502 338.095 489.502 338.166C489.489 355.893 489.476 399.473 489.462 468.906C489.462 473.346 489.812 476.163 490.512 477.356C491.906 479.723 494.366 480.88 497.892 480.826C498.806 480.813 509.399 480.783 529.672 480.736C531.866 480.73 533.476 479.91 534.502 478.276C535.189 477.176 535.532 475.383 535.532 472.896C535.559 405.243 535.552 360.236 535.512 337.876C535.512 337.815 535.537 337.757 535.58 337.714C535.623 337.67 535.681 337.646 535.742 337.646H675.512C675.905 337.647 676.284 337.497 676.572 337.226C677.506 336.373 677.979 334.966 677.992 333.006C678.059 317.066 678.049 304.42 677.962 295.066C677.932 292.216 677.532 289.786 674.332 289.786C629.439 289.746 583.286 289.743 535.872 289.776C535.782 289.776 535.696 289.739 535.632 289.674C535.568 289.608 535.532 289.519 535.532 289.426Z" fill="black"/>
<path d="M535.532 289.426C535.532 289.519 535.568 289.608 535.632 289.674C535.695 289.739 535.782 289.776 535.872 289.776C583.285 289.743 629.439 289.746 674.332 289.786C677.532 289.786 677.932 292.216 677.962 295.066C678.049 304.419 678.059 317.066 677.992 333.006C677.979 334.966 677.505 336.373 676.572 337.226C676.283 337.496 675.904 337.647 675.512 337.646H535.742C535.681 337.646 535.623 337.67 535.58 337.714C535.536 337.757 535.512 337.815 535.512 337.876C535.552 360.236 535.559 405.243 535.532 472.896C535.532 475.383 535.189 477.176 534.502 478.276C533.475 479.909 531.865 480.73 529.672 480.736C509.399 480.783 498.805 480.813 497.892 480.826C494.365 480.879 491.905 479.723 490.512 477.356C489.812 476.163 489.462 473.346 489.462 468.906C489.475 399.473 489.489 355.893 489.502 338.166C489.502 338.095 489.488 338.025 489.461 337.96C489.434 337.894 489.394 337.834 489.344 337.784C489.294 337.734 489.234 337.694 489.169 337.667C489.103 337.64 489.033 337.626 488.962 337.626H348.062C347.539 337.626 347.037 337.42 346.666 337.053C346.295 336.685 346.085 336.187 346.082 335.666C345.989 321.266 345.975 307.196 346.042 293.456C346.049 291.276 347.132 290.123 349.292 289.996C352.239 289.823 356.062 289.74 360.762 289.746C430.115 289.78 472.849 289.776 488.962 289.736C489.033 289.736 489.102 289.722 489.167 289.694C489.232 289.666 489.291 289.626 489.34 289.575C489.39 289.523 489.429 289.463 489.455 289.396C489.481 289.329 489.493 289.258 489.492 289.186C489.492 289.02 489.492 243.533 489.492 152.726C489.492 149.46 491.102 147.816 494.322 147.796C508.615 147.69 519.762 147.666 527.762 147.726C529.762 147.74 531.669 148.083 533.482 148.756C534.083 148.979 534.602 149.381 534.969 149.908C535.335 150.436 535.532 151.063 535.532 151.706V289.426Z" fill="white"/>
</g>
<defs>
<clipPath id="clip0_269_788">
<rect width="1024" height="636" fill="white"/>
</clipPath>
</defs>
</svg>
