<svg width="80" height="50" viewBox="0 0 80 50" fill="none" xmlns="http://www.w3.org/2000/svg">
<g clip-path="url(#clip0_269_788)">
<path d="M74.8422 10.0716C74.8422 8.06825 74.0513 6.147 72.6437 4.73045C71.236 3.31391 69.3267 2.5181 67.3359 2.5181H12.7359C10.7451 2.5181 8.8359 3.31391 7.4282 4.73045C6.02051 6.147 5.22968 8.06825 5.22968 10.0716V39.0684C5.22968 41.0717 6.02051 42.993 7.4282 44.4095C8.8359 45.8261 10.7451 46.6219 12.7359 46.6219H67.3359C69.3267 46.6219 71.236 45.8261 72.6437 44.4095C74.0513 42.993 74.8422 41.0717 74.8422 39.0684V10.0716Z" stroke="#808080" stroke-width="2"/>
<path d="M72.15 9.22487L72.1086 8.99295" stroke="#4E4F4F" stroke-width="2"/>
<path d="M72.1086 8.99294C72.0039 8.4877 71.8271 8.03329 71.5781 7.62973C70.5453 5.95468 69.0146 5.11715 66.9859 5.11715C52.0917 5.11925 34.1315 5.11898 13.1055 5.11636C11.45 5.11636 10.0031 5.71385 8.94844 7.02045C8.23229 7.90777 7.87448 8.92847 7.875 10.0826C7.87708 18.2733 7.87734 27.63 7.87578 38.1525C7.87578 39.0655 7.88516 39.5996 7.90391 39.7547C7.97005 40.2961 8.12656 40.8035 8.37344 41.2767C9.12708 42.7233 10.25 43.6054 11.7422 43.923C12.0896 43.9963 12.7034 44.033 13.5836 44.033C22.3383 44.0288 40.0466 44.0283 66.7086 44.0315C67.4159 44.0315 67.9406 43.995 68.2828 43.9222C70.3172 43.4898 71.8789 41.8506 72.1758 39.7649C72.2331 39.3635 72.262 38.8444 72.2625 38.2076C72.2651 29.0016 72.2643 19.7969 72.2602 10.5936C72.2602 10.0957 72.2234 9.63943 72.15 9.22485" stroke="#777777" stroke-width="2"/>
<path d="M72.1086 8.99295L71.5695 11.6533C71.5669 11.6648 71.5656 11.6767 71.5656 11.6887L71.557 11.9591C71.557 11.9635 71.5559 11.9678 71.5538 11.9716C71.5517 11.9755 71.5487 11.9787 71.5451 11.9811C71.5415 11.9835 71.5373 11.985 71.533 11.9854C71.5287 11.9858 71.5243 11.9852 71.5203 11.9835C71.5141 11.9804 71.5073 11.9759 71.5 11.9702" stroke="#C5C6C6" stroke-width="2"/>
<path d="M71.5 11.9702C71.4161 11.413 71.3065 10.928 71.1711 10.515C70.4437 8.28855 68.475 6.73351 66.1023 6.71858C65.7414 6.71622 65.3133 6.706 64.9172 6.71779" stroke="#B2B2B2" stroke-width="2"/>
<path d="M64.9172 6.71777L64.868 6.7217" stroke="#C5C6C6" stroke-width="2"/>
<path d="M64.868 6.72172C64.8206 6.70966 64.7721 6.70966 64.7227 6.72172" stroke="#777777" stroke-width="2"/>
<path d="M64.7226 6.72171C64.6471 6.70337 64.5747 6.70573 64.5055 6.72879C64.5048 6.72885 64.5041 6.7287 64.5036 6.72836C64.503 6.72802 64.5026 6.72751 64.5023 6.7269C64.502 6.72628 64.502 6.72561 64.5021 6.72496C64.5023 6.72431 64.5026 6.72372 64.5031 6.72328C64.5088 6.71857 64.5117 6.71202 64.5117 6.70363C64.5117 6.70238 64.5113 6.70118 64.5106 6.7003C64.5098 6.69941 64.5088 6.69891 64.5078 6.69891L63.9328 6.71778" stroke="#C5C6C6" stroke-width="2"/>
<path d="M63.9328 6.71779C63.7833 6.70311 63.6706 6.70599 63.5945 6.72643" stroke="#777777" stroke-width="2"/>
<path d="M63.5945 6.72643C63.5888 6.72381 63.5831 6.72119 63.5773 6.71857" stroke="#C5C6C6" stroke-width="2"/>
<path d="M63.5773 6.71857C63.556 6.71595 63.5341 6.717 63.5117 6.72171" stroke="#B2B2B2" stroke-width="2"/>
<path d="M63.5117 6.72173C63.4825 6.71229 63.4523 6.71203 63.4211 6.72094" stroke="#C5C6C6" stroke-width="2"/>
<path d="M63.4211 6.72092C63.3992 6.71725 63.3776 6.71752 63.3562 6.72171" stroke="#B2B2B2" stroke-width="2"/>
<path d="M63.3563 6.72172C63.3521 6.72067 63.3479 6.71988 63.3438 6.71936" stroke="#C5C6C6" stroke-width="2"/>
<path d="M63.3437 6.71937C63.3213 6.71622 63.2989 6.71858 63.2766 6.72644" stroke="#B2B2B2" stroke-width="2"/>
<path d="M63.2766 6.72643C63.2729 6.72381 63.2693 6.72119 63.2656 6.71857" stroke="#C5C6C6" stroke-width="2"/>
<path d="M63.2656 6.71858C63.2437 6.71544 63.2211 6.71701 63.1976 6.7233" stroke="#777777" stroke-width="2"/>
<path d="M63.1977 6.72328C63.1945 6.72223 63.1911 6.72144 63.1875 6.72092" stroke="#C5C6C6" stroke-width="2"/>
<path d="M63.1875 6.72092C63.1656 6.71672 63.1435 6.71699 63.1211 6.7217" stroke="#777777" stroke-width="2"/>
<path d="M63.1211 6.72171C63.118 6.72171 63.1151 6.72197 63.1125 6.7225" stroke="#C5C6C6" stroke-width="2"/>
<path d="M63.1125 6.72249C63.0354 6.70676 62.9599 6.70676 62.8859 6.72249" stroke="#777777" stroke-width="2"/>
<path d="M62.8859 6.72251C62.8573 6.7115 62.8276 6.71203 62.7969 6.72408" stroke="#C5C6C6" stroke-width="2"/>
<path d="M62.7969 6.72406C62.775 6.71935 62.7531 6.71856 62.7312 6.7217" stroke="#777777" stroke-width="2"/>
<path d="M62.7313 6.72173C62.7271 6.7212 62.7229 6.72068 62.7188 6.72015" stroke="#C5C6C6" stroke-width="2"/>
<path d="M62.7187 6.72015C62.6969 6.71648 62.6747 6.71701 62.6523 6.72172" stroke="#777777" stroke-width="2"/>
<path d="M62.6523 6.72171C62.6482 6.72171 62.644 6.72171 62.6398 6.72171" stroke="#C5C6C6" stroke-width="2"/>
<path d="M62.6398 6.72171H62.575" stroke="#777777" stroke-width="2"/>
<path d="M62.575 6.72171C62.5713 6.72276 62.5674 6.72381 62.5633 6.72486" stroke="#C5C6C6" stroke-width="2"/>
<path d="M62.5633 6.72487C62.5148 6.70862 62.4664 6.70784 62.418 6.72251" stroke="#777777" stroke-width="2"/>
<path d="M62.4179 6.72249C62.4148 6.72197 62.4117 6.72144 62.4086 6.72092" stroke="#C5C6C6" stroke-width="2"/>
<path d="M62.4086 6.72091C62.3581 6.70886 62.3088 6.70938 62.2609 6.72249" stroke="#777777" stroke-width="2"/>
<path d="M62.2609 6.72251C62.2063 6.70731 62.1505 6.70757 62.0938 6.7233" stroke="#C5C6C6" stroke-width="2"/>
<path d="M62.0937 6.72328L62.0281 6.72171" stroke="#B2B2B2" stroke-width="2"/>
<path d="M62.0281 6.72172C61.9963 6.71123 61.9664 6.71228 61.9383 6.72486" stroke="#C5C6C6" stroke-width="2"/>
<path d="M61.9383 6.72486C61.8388 6.70651 61.7383 6.70547 61.6367 6.72171" stroke="#777777" stroke-width="2"/>
<path d="M61.6367 6.72172L61.2344 6.71936" stroke="#C5C6C6" stroke-width="2"/>
<path d="M61.2344 6.71936L61.168 6.72172" stroke="#777777" stroke-width="2"/>
<path d="M61.168 6.7217C61.1638 6.72118 61.1599 6.72092 61.1562 6.72092" stroke="#C5C6C6" stroke-width="2"/>
<path d="M61.1562 6.72092H61.0898" stroke="#777777" stroke-width="2"/>
<path d="M61.0898 6.72092C61.0076 6.70625 60.9255 6.70677 60.8438 6.7225" stroke="#C5C6C6" stroke-width="2"/>
<path d="M60.8437 6.72251C60.8214 6.71884 60.7992 6.71858 60.7773 6.72172" stroke="#777777" stroke-width="2"/>
<path d="M60.7773 6.72171C60.7732 6.72223 60.769 6.72276 60.7648 6.72328" stroke="#C5C6C6" stroke-width="2"/>
<path d="M60.7648 6.72328L60.7 6.72171" stroke="#777777" stroke-width="2"/>
<path d="M60.7 6.7217C60.6688 6.71175 60.6385 6.71253 60.6094 6.72406" stroke="#C5C6C6" stroke-width="2"/>
<path d="M60.6094 6.72407L60.5437 6.72171" stroke="#777777" stroke-width="2"/>
<path d="M60.5437 6.72171C60.5396 6.72276 60.5357 6.72381 60.532 6.72486" stroke="#C5C6C6" stroke-width="2"/>
<path d="M60.532 6.72484C60.4982 6.71331 60.463 6.71227 60.4265 6.7217" stroke="#777777" stroke-width="2"/>
<path d="M60.4266 6.72171C60.3823 6.70808 60.3391 6.70913 60.2969 6.72485" stroke="#C5C6C6" stroke-width="2"/>
<path d="M60.2969 6.72486L60.2312 6.72171" stroke="#777777" stroke-width="2"/>
<path d="M60.2312 6.72171C60.2271 6.72223 60.2232 6.72276 60.2195 6.72328" stroke="#C5C6C6" stroke-width="2"/>
<path d="M60.2195 6.72327C60.1935 6.72432 60.1711 6.72117 60.1523 6.71384" stroke="#777777" stroke-width="2"/>
<path d="M60.1523 6.71384H56.6648" stroke="#C5C6C6" stroke-width="2"/>
<path d="M56.6648 6.71386C56.656 6.72853 56.6351 6.72827 56.6023 6.71307" stroke="#777777" stroke-width="2"/>
<path d="M56.6023 6.71307H50.4539" stroke="#C5C6C6" stroke-width="2"/>
<path d="M50.4539 6.71307C50.4284 6.71989 50.3989 6.72146 50.3656 6.71779" stroke="#B2B2B2" stroke-width="2"/>
<path d="M50.3656 6.71777L49.5172 6.71856" stroke="#C5C6C6" stroke-width="2"/>
<path d="M49.5172 6.71857L49.4156 6.71935" stroke="#777777" stroke-width="2"/>
<path d="M49.4156 6.71935C49.3297 6.70625 49.2461 6.70756 49.1648 6.72328" stroke="#C5C6C6" stroke-width="2"/>
<path d="M49.1648 6.72329L49.0977 6.7225" stroke="#B2B2B2" stroke-width="2"/>
<path d="M49.0976 6.7225C49.0935 6.72565 49.0893 6.72906 49.0851 6.73272" stroke="#C5C6C6" stroke-width="2"/>
<path d="M49.0851 6.73272L48.6297 6.72565" stroke="#777777" stroke-width="2"/>
<path d="M48.6297 6.72563C48.6016 6.712 48.5714 6.71122 48.5391 6.72327" stroke="#C5C6C6" stroke-width="2"/>
<path d="M48.539 6.72328L48.4734 6.72171" stroke="#B2B2B2" stroke-width="2"/>
<path d="M48.4734 6.7217C48.4422 6.71175 48.4122 6.71253 48.3836 6.72406" stroke="#C5C6C6" stroke-width="2"/>
<path d="M48.3836 6.72408L48.3164 6.7225" stroke="#B2B2B2" stroke-width="2"/>
<path d="M48.3164 6.7225C48.3122 6.72408 48.3083 6.72565 48.3047 6.72722" stroke="#C5C6C6" stroke-width="2"/>
<path d="M48.3047 6.72721L48.0039 6.72406" stroke="#777777" stroke-width="2"/>
<path d="M48.0039 6.72406C48.0002 6.72458 47.9966 6.72511 47.993 6.72563" stroke="#C5C6C6" stroke-width="2"/>
<path d="M47.993 6.72565C47.9461 6.71674 47.8977 6.71596 47.8477 6.72329" stroke="#B2B2B2" stroke-width="2"/>
<path d="M47.8476 6.7233C47.844 6.72435 47.8403 6.72513 47.8367 6.72566" stroke="#C5C6C6" stroke-width="2"/>
<path d="M47.8367 6.72563C47.7903 6.71567 47.7422 6.71463 47.6922 6.72249" stroke="#B2B2B2" stroke-width="2"/>
<path d="M47.6922 6.7225C47.688 6.72355 47.6839 6.7246 47.6797 6.72565" stroke="#C5C6C6" stroke-width="2"/>
<path d="M47.6797 6.72563L47.5 6.72092" stroke="#B2B2B2" stroke-width="2"/>
<path d="M47.5 6.72092L47.0164 6.7217" stroke="#C5C6C6" stroke-width="2"/>
<path d="M47.0164 6.72171L46.832 6.72328" stroke="#777777" stroke-width="2"/>
<path d="M46.832 6.7233C46.8279 6.72435 46.8237 6.72539 46.8195 6.72644" stroke="#C5C6C6" stroke-width="2"/>
<path d="M46.8195 6.72642L46.7547 6.72406" stroke="#777777" stroke-width="2"/>
<path d="M46.7547 6.72406C46.7385 6.72144 46.7273 6.72485 46.7211 6.73428" stroke="#C5C6C6" stroke-width="2"/>
<path d="M46.7211 6.7343L45.9758 6.73273" stroke="#777777" stroke-width="2"/>
<path d="M45.9758 6.73271C45.9706 6.73113 45.9656 6.7293 45.9609 6.7272" stroke="#C5C6C6" stroke-width="2"/>
<path d="M45.9609 6.72721C45.9135 6.7183 45.8654 6.71751 45.8164 6.72485" stroke="#B2B2B2" stroke-width="2"/>
<path d="M45.8164 6.72485C45.8122 6.72643 45.8078 6.72774 45.8031 6.72878" stroke="#C5C6C6" stroke-width="2"/>
<path d="M45.8031 6.7288L45.625 6.72644" stroke="#777777" stroke-width="2"/>
<path d="M45.625 6.72643C45.6057 6.72119 45.5872 6.72145 45.5695 6.72722" stroke="#C5C6C6" stroke-width="2"/>
<path d="M45.5695 6.72723L45.5047 6.7233" stroke="#777777" stroke-width="2"/>
<path d="M45.5047 6.7233C45.5005 6.72487 45.4966 6.72618 45.493 6.72723" stroke="#C5C6C6" stroke-width="2"/>
<path d="M45.493 6.72721L45.3477 6.72485" stroke="#777777" stroke-width="2"/>
<path d="M45.3476 6.72485C45.344 6.7259 45.3403 6.72695 45.3367 6.728" stroke="#C5C6C6" stroke-width="2"/>
<path d="M45.3367 6.72801C45.2898 6.71701 45.2411 6.71544 45.1906 6.7233" stroke="#B2B2B2" stroke-width="2"/>
<path d="M45.1906 6.7233C45.188 6.72592 45.1854 6.72828 45.1828 6.73037" stroke="#C5C6C6" stroke-width="2"/>
<path d="M45.1828 6.73036L44.8781 6.7225" stroke="#777777" stroke-width="2"/>
<path d="M44.8781 6.7225C44.8745 6.72355 44.8708 6.72434 44.8672 6.72486" stroke="#C5C6C6" stroke-width="2"/>
<path d="M44.8672 6.72485H44.8008" stroke="#777777" stroke-width="2"/>
<path d="M44.8008 6.72485C44.7971 6.72485 44.7935 6.72458 44.7898 6.72406" stroke="#C5C6C6" stroke-width="2"/>
<path d="M44.7898 6.72408L44.7227 6.7225" stroke="#777777" stroke-width="2"/>
<path d="M44.7226 6.7225C44.719 6.72197 44.7153 6.72171 44.7117 6.72171" stroke="#C5C6C6" stroke-width="2"/>
<path d="M44.7117 6.72171L44.5859 6.72407" stroke="#777777" stroke-width="2"/>
<path d="M44.5859 6.72406L44.5492 6.72956" stroke="#C5C6C6" stroke-width="2"/>
<path d="M44.5492 6.72956L44.3969 6.72406" stroke="#777777" stroke-width="2"/>
<path d="M44.3969 6.72408C44.3703 6.71464 44.3445 6.71595 44.3195 6.72801" stroke="#C5C6C6" stroke-width="2"/>
<path d="M44.3195 6.72799L44.2547 6.72406" stroke="#777777" stroke-width="2"/>
<path d="M44.2547 6.72406C44.2505 6.72563 44.2464 6.7272 44.2422 6.72878" stroke="#C5C6C6" stroke-width="2"/>
<path d="M44.2422 6.72878L44.1172 6.72406" stroke="#777777" stroke-width="2"/>
<path d="M44.1172 6.72406C44.1036 6.72458 44.0909 6.72773 44.0789 6.73349" stroke="#C5C6C6" stroke-width="2"/>
<path d="M44.0789 6.7335L43.7305 6.73114" stroke="#777777" stroke-width="2"/>
<path d="M43.7304 6.73114C43.6929 6.70703 43.6541 6.70677 43.614 6.73035" stroke="#C5C6C6" stroke-width="2"/>
<path d="M43.614 6.73035L43.0828 6.73271" stroke="#777777" stroke-width="2"/>
<path d="M43.0828 6.73273C43.0786 6.73168 43.0745 6.73063 43.0703 6.72958" stroke="#C5C6C6" stroke-width="2"/>
<path d="M43.0703 6.72959L43.0039 6.72644" stroke="#777777" stroke-width="2"/>
<path d="M43.0039 6.72644C42.9992 6.72959 42.9945 6.73247 42.9898 6.73509" stroke="#C5C6C6" stroke-width="2"/>
<path d="M42.9898 6.73509L42.5234 6.73352" stroke="#777777" stroke-width="2"/>
<path d="M42.5234 6.73351C42.4708 6.70312 42.4185 6.70154 42.3664 6.7288" stroke="#C5C6C6" stroke-width="2"/>
<path d="M42.3664 6.72879L42.2422 6.72958" stroke="#B2B2B2" stroke-width="2"/>
<path d="M42.2422 6.72958C42.2364 6.73116 42.2307 6.73273 42.225 6.7343" stroke="#C5C6C6" stroke-width="2"/>
<path d="M42.225 6.73429L41.8875 6.72485" stroke="#B2B2B2" stroke-width="2"/>
<path d="M41.8875 6.72485L41.4047 6.72642" stroke="#C5C6C6" stroke-width="2"/>
<path d="M41.4047 6.72642L41.3055 6.72485" stroke="#B2B2B2" stroke-width="2"/>
<path d="M41.3055 6.72485C41.2263 6.70441 41.1505 6.70546 41.0781 6.72799" stroke="#C5C6C6" stroke-width="2"/>
<path d="M41.0781 6.728L40.9922 6.72485" stroke="#777777" stroke-width="2"/>
<path d="M40.9922 6.72484C40.9719 6.71908 40.956 6.71986 40.9445 6.7272" stroke="#C5C6C6" stroke-width="2"/>
<path d="M40.9445 6.72721L40.639 6.72485" stroke="#B2B2B2" stroke-width="2"/>
<path d="M40.6391 6.72487C40.6365 6.72435 40.6336 6.72382 40.6305 6.7233" stroke="#C5C6C6" stroke-width="2"/>
<path d="M40.6305 6.72328L40.5039 6.72171" stroke="#B2B2B2" stroke-width="2"/>
<path d="M40.5039 6.72171C40.4419 6.70756 40.3792 6.70913 40.3156 6.72643" stroke="#C5C6C6" stroke-width="2"/>
<path d="M40.3156 6.72643L40.2117 6.72565" stroke="#B2B2B2" stroke-width="2"/>
<path d="M40.2117 6.72563C40.1747 6.71253 40.1375 6.7141 40.1 6.73035" stroke="#C5C6C6" stroke-width="2"/>
<path d="M40.1 6.73037L40.0219 6.7233" stroke="#777777" stroke-width="2"/>
<path d="M40.0219 6.7233C40.0156 6.72487 40.0094 6.7267 40.0031 6.7288" stroke="#C5C6C6" stroke-width="2"/>
<path d="M40.0031 6.72879L39.8391 6.71936" stroke="#B2B2B2" stroke-width="2"/>
<path d="M39.839 6.71936L39.3195 6.72015" stroke="#C5C6C6" stroke-width="2"/>
<path d="M39.3195 6.72015L39.2351 6.71936" stroke="#B2B2B2" stroke-width="2"/>
<path d="M39.2352 6.71936L38.6953 6.72093" stroke="#C5C6C6" stroke-width="2"/>
<path d="M38.6953 6.72092L38.6281 6.72878" stroke="#777777" stroke-width="2"/>
<path d="M38.6281 6.72879C38.6245 6.72879 38.6206 6.72879 38.6164 6.72879" stroke="#C5C6C6" stroke-width="2"/>
<path d="M38.6164 6.7288L38.4922 6.72644" stroke="#B2B2B2" stroke-width="2"/>
<path d="M38.4922 6.72643C38.4745 6.72434 38.4568 6.72564 38.4391 6.73036" stroke="#C5C6C6" stroke-width="2"/>
<path d="M38.439 6.73036L38.3367 6.72879" stroke="#B2B2B2" stroke-width="2"/>
<path d="M38.3367 6.72879C38.3315 6.73089 38.3263 6.73298 38.3211 6.73508" stroke="#C5C6C6" stroke-width="2"/>
<path d="M38.3211 6.73508L37.2437 6.73586" stroke="#777777" stroke-width="2"/>
<path d="M37.2437 6.73587C37.2286 6.72434 37.2101 6.72277 37.1883 6.73116" stroke="#C5C6C6" stroke-width="2"/>
<path d="M37.1883 6.73114H36.9297" stroke="#B2B2B2" stroke-width="2"/>
<path d="M36.9297 6.73114C36.912 6.7259 36.8927 6.72538 36.8719 6.72957" stroke="#C5C6C6" stroke-width="2"/>
<path d="M36.8719 6.72958L36.7414 6.72879" stroke="#777777" stroke-width="2"/>
<path d="M36.7414 6.72879C36.7352 6.72931 36.7289 6.72984 36.7227 6.73036" stroke="#C5C6C6" stroke-width="2"/>
<path d="M36.7226 6.73036L36.4406 6.72879" stroke="#B2B2B2" stroke-width="2"/>
<path d="M36.4406 6.72879C36.4338 6.73036 36.4271 6.73193 36.4203 6.73351" stroke="#C5C6C6" stroke-width="2"/>
<path d="M36.4203 6.73352L35.8148 6.73509" stroke="#777777" stroke-width="2"/>
<path d="M35.8148 6.73509C35.8096 6.73457 35.8047 6.73404 35.8 6.73352" stroke="#C5C6C6" stroke-width="2"/>
<path d="M35.8 6.73352L33.7726 6.73588" stroke="#777777" stroke-width="2"/>
<path d="M33.7726 6.73586C33.7643 6.73534 33.7562 6.73508 33.7484 6.73508" stroke="#C5C6C6" stroke-width="2"/>
<path d="M33.7484 6.73508L28.4601 6.73665" stroke="#777777" stroke-width="2"/>
<path d="M28.4602 6.73664C28.4534 6.73454 28.4463 6.73244 28.4391 6.73035" stroke="#C5C6C6" stroke-width="2"/>
<path d="M28.4391 6.73035L28.2383 6.72485" stroke="#777777" stroke-width="2"/>
<path d="M28.2383 6.72485C28.2346 6.72643 28.2307 6.72774 28.2266 6.72878" stroke="#C5C6C6" stroke-width="2"/>
<path d="M28.2265 6.72878L28.1609 6.72406" stroke="#777777" stroke-width="2"/>
<path d="M28.1609 6.72406C28.1552 6.72616 28.1495 6.72851 28.1437 6.73114" stroke="#C5C6C6" stroke-width="2"/>
<path d="M28.1437 6.73113L27.8336 6.7272" stroke="#777777" stroke-width="2"/>
<path d="M27.8336 6.7272C27.8279 6.72773 27.8221 6.72851 27.8164 6.72956" stroke="#C5C6C6" stroke-width="2"/>
<path d="M27.8164 6.72956C27.757 6.71751 27.6958 6.71515 27.6328 6.72249" stroke="#B2B2B2" stroke-width="2"/>
<path d="M27.6328 6.7225L27.6016 6.72722" stroke="#C5C6C6" stroke-width="2"/>
<path d="M27.6016 6.72721L27.5352 6.72485" stroke="#777777" stroke-width="2"/>
<path d="M27.5352 6.72485C27.5315 6.728 27.5281 6.73114 27.525 6.73429" stroke="#C5C6C6" stroke-width="2"/>
<path d="M27.525 6.7343L26.9906 6.73273" stroke="#777777" stroke-width="2"/>
<path d="M26.9906 6.73272C26.9859 6.73167 26.9812 6.73036 26.9766 6.72879" stroke="#C5C6C6" stroke-width="2"/>
<path d="M26.9766 6.72878L26.9102 6.72485" stroke="#777777" stroke-width="2"/>
<path d="M26.9101 6.72485C26.9055 6.72695 26.9005 6.72931 26.8953 6.73193" stroke="#C5C6C6" stroke-width="2"/>
<path d="M26.8953 6.73192L26.6164 6.73035" stroke="#777777" stroke-width="2"/>
<path d="M26.6164 6.73037C26.6122 6.72932 26.6083 6.72801 26.6047 6.72644" stroke="#C5C6C6" stroke-width="2"/>
<path d="M26.6047 6.72643L26.4226 6.7225" stroke="#B2B2B2" stroke-width="2"/>
<path d="M26.4227 6.72251C26.3982 6.71412 26.3745 6.71595 26.3516 6.72801" stroke="#C5C6C6" stroke-width="2"/>
<path d="M26.3515 6.72799L26.2859 6.72406" stroke="#777777" stroke-width="2"/>
<path d="M26.2859 6.72406C26.2812 6.72563 26.2768 6.7272 26.2726 6.72878" stroke="#C5C6C6" stroke-width="2"/>
<path d="M26.2726 6.7288L26.1297 6.7233" stroke="#777777" stroke-width="2"/>
<path d="M26.1297 6.7233C26.1234 6.72539 26.1172 6.72749 26.1109 6.72959" stroke="#C5C6C6" stroke-width="2"/>
<path d="M26.1109 6.72959L25.993 6.72644" stroke="#777777" stroke-width="2"/>
<path d="M25.993 6.72642C25.9742 6.72066 25.9575 6.7204 25.943 6.72564" stroke="#C5C6C6" stroke-width="2"/>
<path d="M25.943 6.72565L25.7375 6.7225" stroke="#B2B2B2" stroke-width="2"/>
<path d="M25.7375 6.72249C25.7047 6.70939 25.6716 6.71279 25.6383 6.73271" stroke="#C5C6C6" stroke-width="2"/>
<path d="M25.6383 6.73273L24.7117 6.73744" stroke="#777777" stroke-width="2"/>
<path d="M24.7117 6.73743C24.7029 6.73638 24.694 6.73533 24.6852 6.73428" stroke="#C5C6C6" stroke-width="2"/>
<path d="M24.6852 6.7343L24.0859 6.73273" stroke="#777777" stroke-width="2"/>
<path d="M24.0859 6.73273C24.0781 6.73325 24.0703 6.73404 24.0625 6.73509" stroke="#C5C6C6" stroke-width="2"/>
<path d="M24.0625 6.73509L23.1602 6.73352" stroke="#777777" stroke-width="2"/>
<path d="M23.1602 6.7335C23.1565 6.73245 23.1526 6.73166 23.1484 6.73114" stroke="#C5C6C6" stroke-width="2"/>
<path d="M23.1484 6.73113L22.8336 6.7272" stroke="#777777" stroke-width="2"/>
<path d="M22.8336 6.7272C22.8268 6.72773 22.82 6.72825 22.8133 6.72877" stroke="#C5C6C6" stroke-width="2"/>
<path d="M22.8133 6.72879L22.6726 6.72565" stroke="#777777" stroke-width="2"/>
<path d="M22.6726 6.72565C22.6674 6.72879 22.6622 6.7322 22.657 6.73587" stroke="#C5C6C6" stroke-width="2"/>
<path d="M22.657 6.73587L21.5484 6.73823" stroke="#777777" stroke-width="2"/>
<path d="M21.5484 6.73821C21.539 6.73559 21.5297 6.73297 21.5203 6.73035" stroke="#C5C6C6" stroke-width="2"/>
<path d="M21.5203 6.73035L21.4297 6.7272" stroke="#777777" stroke-width="2"/>
<path d="M21.4297 6.72723C21.4198 6.72985 21.4101 6.73248 21.4008 6.7351" stroke="#C5C6C6" stroke-width="2"/>
<path d="M21.4008 6.73508L18.8851 6.73586" stroke="#777777" stroke-width="2"/>
<path d="M18.8852 6.73587C18.8773 6.72644 18.8661 6.72382 18.8516 6.72801" stroke="#C5C6C6" stroke-width="2"/>
<path d="M18.8516 6.72799L18.7844 6.7272" stroke="#777777" stroke-width="2"/>
<path d="M18.7844 6.72722C18.7557 6.71464 18.726 6.71412 18.6953 6.72565" stroke="#C5C6C6" stroke-width="2"/>
<path d="M18.6953 6.72565L18.6281 6.72958" stroke="#B2B2B2" stroke-width="2"/>
<path d="M18.6281 6.72958C18.6239 6.72958 18.6198 6.72931 18.6156 6.72879" stroke="#C5C6C6" stroke-width="2"/>
<path d="M18.6156 6.72879L18.5508 6.73036" stroke="#777777" stroke-width="2"/>
<path d="M18.5508 6.73036C18.5466 6.72984 18.5427 6.72931 18.5391 6.72879" stroke="#C5C6C6" stroke-width="2"/>
<path d="M18.539 6.72879L18.4148 6.72565" stroke="#B2B2B2" stroke-width="2"/>
<path d="M18.4148 6.72564C18.3732 6.7073 18.3365 6.70861 18.3047 6.72957" stroke="#C5C6C6" stroke-width="2"/>
<path d="M18.3047 6.72958H18.2383" stroke="#777777" stroke-width="2"/>
<path d="M18.2383 6.72958C18.2341 6.72905 18.2299 6.72879 18.2258 6.72879" stroke="#C5C6C6" stroke-width="2"/>
<path d="M18.2258 6.72879L18.1609 6.72565" stroke="#B2B2B2" stroke-width="2"/>
<path d="M18.1609 6.72565C18.1026 6.7094 18.0445 6.71097 17.9867 6.73037" stroke="#C5C6C6" stroke-width="2"/>
<path d="M17.9867 6.73037L17.9265 6.72958" stroke="#777777" stroke-width="2"/>
<path d="M17.9266 6.72956C17.9026 6.72222 17.8786 6.7217 17.8547 6.72799" stroke="#C5C6C6" stroke-width="2"/>
<path d="M17.8547 6.72801L17.7898 6.72644" stroke="#B2B2B2" stroke-width="2"/>
<path d="M17.7898 6.72644L17.7594 6.72723" stroke="#C5C6C6" stroke-width="2"/>
<path d="M17.7594 6.72723L17.5539 6.72644" stroke="#B2B2B2" stroke-width="2"/>
<path d="M17.5539 6.72642C17.52 6.71122 17.4841 6.71227 17.4461 6.72957" stroke="#C5C6C6" stroke-width="2"/>
<path d="M17.4461 6.72958L17.243 6.73194" stroke="#777777" stroke-width="2"/>
<path d="M17.243 6.73194L17.1297 6.72644" stroke="#C5C6C6" stroke-width="2"/>
<path d="M17.1297 6.72643L17.0539 6.71857" stroke="#777777" stroke-width="2"/>
<path d="M17.0539 6.71858C17.0263 6.71386 17.0005 6.7157 16.9766 6.72408" stroke="#C5C6C6" stroke-width="2"/>
<path d="M16.9765 6.72407L16.9109 6.72171" stroke="#B2B2B2" stroke-width="2"/>
<path d="M16.9109 6.72171C16.8812 6.7128 16.8508 6.71411 16.8195 6.72564" stroke="#C5C6C6" stroke-width="2"/>
<path d="M16.8195 6.72565L16.7547 6.72643" stroke="#B2B2B2" stroke-width="2"/>
<path d="M16.7547 6.72644C16.75 6.72801 16.7453 6.72958 16.7406 6.73116" stroke="#C5C6C6" stroke-width="2"/>
<path d="M16.7406 6.73114L16.4203 6.728" stroke="#B2B2B2" stroke-width="2"/>
<path d="M16.4203 6.728C16.4161 6.73009 16.412 6.73219 16.4078 6.73429" stroke="#C5C6C6" stroke-width="2"/>
<path d="M16.4078 6.7343L14.7312 6.72958" stroke="#777777" stroke-width="2"/>
<path d="M14.7312 6.72959C13.9922 6.68137 13.2755 6.79222 12.5812 7.06214C10.575 7.84122 9.45467 9.6266 9.45154 11.7532C9.44477 17.4649 9.44399 23.1767 9.4492 28.8884" stroke="#C5C6C6" stroke-width="2"/>
<path d="M9.44921 28.8884C9.4466 31.218 9.44868 33.5477 9.45546 35.8774C9.4565 36.0933 9.46379 36.3194 9.47733 36.5558C9.49035 36.7817 9.50233 37.0076 9.51327 37.2335C9.58566 38.744 10.1049 40.0794 11.0711 41.2398" stroke="#B9B9B9" stroke-width="2"/>
<path d="M11.0711 41.2398L8.32969 40.8648C8.32275 40.8638 8.31568 40.8648 8.3092 40.8674C8.30272 40.8701 8.29706 40.8745 8.29278 40.88C8.2885 40.8856 8.28576 40.8922 8.28484 40.8992C8.28391 40.9062 8.28483 40.9133 8.2875 40.9198C8.89219 42.3742 10.1078 43.5032 11.6617 43.8208C12.0409 43.8983 12.3143 43.9371 12.482 43.9371C28.8862 43.9392 46.9641 43.9397 66.7156 43.9387C67.4604 43.9387 68.0029 43.9004 68.343 43.8239C68.9216 43.6939 69.4458 43.4756 69.9156 43.169C71.5391 42.1101 72.1891 40.4788 72.1914 38.5425C72.1997 30.0383 72.1992 20.5461 72.1899 10.066C72.1899 10.053 72.1883 10.0395 72.1852 10.026C72.1263 9.75866 72.1146 9.49163 72.15 9.22485" stroke="#C5C6C6" stroke-width="2"/>
<path d="M63.9328 6.71777C63.7974 6.75236 63.6846 6.75525 63.5945 6.72642" stroke="#4E4F4F" stroke-width="2"/>
<path d="M64.7227 6.72171C64.7924 6.75106 64.8409 6.75106 64.868 6.72171" stroke="#4E4F4F" stroke-width="2"/>
<path d="M64.9172 6.71777C64.9286 6.73979 64.9435 6.75105 64.9617 6.75158C65.2893 6.75367 65.6693 6.75996 66.1015 6.77045C66.5724 6.78145 66.9489 6.82102 67.2312 6.88916C69.664 7.47563 71.1383 9.4945 71.4055 11.9662C71.4064 11.975 71.4097 11.9833 71.4151 11.9902C71.4205 11.9972 71.4277 12.0025 71.4359 12.0055C71.4479 12.0102 71.457 12.0136 71.4633 12.0157C71.4669 12.0168 71.4706 12.0171 71.4744 12.0165C71.4781 12.016 71.4816 12.0147 71.4848 12.0127C71.488 12.0107 71.4907 12.008 71.4928 12.0049C71.4948 12.0018 71.4962 11.9982 71.4969 11.9945C71.4979 11.9861 71.4989 11.978 71.5 11.9701" stroke="#898A8A" stroke-width="2"/>
<path d="M11.0711 41.2398C12.1758 42.386 13.557 42.9814 15.2148 43.026C17.0778 43.0763 18.8367 43.0923 20.4914 43.0739" stroke="#909191" stroke-width="2"/>
<path d="M20.4914 43.0739C34.5398 43.0844 48.5883 43.0849 62.6367 43.0755C63.225 43.0747 64.032 43.0826 64.7187 43.033C64.8083 43.0262 65.2276 43.0147 65.9765 42.9984C68.35 42.945 70.3187 41.5385 71.1391 39.2917C71.2521 38.9819 71.3469 38.6095 71.4234 38.1745C71.5161 37.6457 71.5625 37.2636 71.5625 37.0283C71.5667 29.4754 71.5667 21.229 71.5625 12.2893C71.5625 12.2866 71.5619 12.2839 71.5607 12.2815C71.5594 12.279 71.5577 12.2769 71.5555 12.2752C71.5388 12.2626 71.5193 12.2621 71.4969 12.2736C71.492 12.276 71.4879 12.2797 71.4847 12.2844C71.4816 12.289 71.4796 12.2945 71.4789 12.3003C71.4555 12.4756 71.4664 12.6824 71.4383 12.8986C71.1966 14.7655 70.762 16.5852 70.1344 18.3577C69.5555 19.9906 68.8976 21.5354 68.0289 23.0755" stroke="#898A8A" stroke-width="2"/>
<path d="M68.0289 23.0755C67.4492 22.8294 66.825 22.9442 66.2859 23.1832C64.3984 24.0197 62.5047 25.0149 60.5328 25.6227C59.7781 25.8548 59.1112 26.223 58.532 26.7272C58.5239 26.7346 58.5174 26.7437 58.513 26.7537C58.5085 26.7637 58.5062 26.7745 58.5062 26.7854C58.5141 27.5045 58.2732 28.1182 57.7836 28.6266C57.3187 29.1085 56.7195 29.3727 56.0523 29.3837C55.781 29.3884 55.6008 29.3907 55.5117 29.3907C53.456 29.3981 50.5198 29.4015 46.7031 29.401C46.4901 29.4004 46.1586 29.4031 45.7086 29.4088C45.7082 29.409 45.7079 29.4092 45.7076 29.4095C45.7074 29.4098 45.7072 29.4102 45.7071 29.4106C45.707 29.411 45.7071 29.4114 45.7072 29.4117C45.7073 29.4121 45.7075 29.4125 45.7078 29.4128C45.7089 29.4133 45.7104 29.4135 45.7125 29.4135C45.7719 29.4125 45.8349 29.4133 45.9016 29.4159C45.9128 29.4161 45.9235 29.4206 45.9315 29.4285C45.9395 29.4364 45.9441 29.4471 45.9445 29.4583C45.9503 29.6213 45.8839 29.7484 45.7453 29.8396C45.4365 30.0419 45.0685 30.234 44.6414 30.4159C42.0562 31.5165 41.0469 32.0126 39.3562 32.5338C36.4805 33.419 33.7469 34.2822 31.0781 35.3003C30.3141 35.5912 29.4 35.8514 28.5039 36.0904C26.931 36.5102 25.4367 36.9783 24.0211 37.4945C22.9852 37.8727 22.2211 38.2571 21.1984 38.6337C20.2255 38.9927 19.4279 39.3014 18.8055 39.5598C17.4141 40.1376 16.2273 40.5118 14.6664 41.0771C13.5078 41.4969 12.3961 41.3947 11.2 41.1895C11.1752 41.1854 11.1526 41.1729 11.1359 41.1541C10.2536 40.163 9.75469 38.9971 9.63906 37.6565C9.5875 37.059 9.5599 36.7401 9.55625 36.6997C9.52917 36.4177 9.51589 36.0985 9.51641 35.7422C9.52318 32.3297 9.52448 30.3278 9.52031 29.7366C9.51927 29.5611 9.49557 29.2783 9.44922 28.8884" stroke="#9C9D9D" stroke-width="2"/>
<path d="M14.7312 6.72958L16.4078 6.7343" stroke="#4E4F4F" stroke-width="2"/>
<path d="M16.7547 6.72643C16.7552 6.74425 16.7693 6.75211 16.7969 6.75002C16.8135 6.74897 16.8211 6.74085 16.8195 6.72565" stroke="#898A8A" stroke-width="2"/>
<path d="M16.9109 6.72171C16.9443 6.7432 16.9661 6.74398 16.9765 6.72407" stroke="#898A8A" stroke-width="2"/>
<path d="M17.0539 6.71857C17.068 6.73534 17.0864 6.74451 17.1094 6.74608C17.1229 6.74713 17.1297 6.74058 17.1297 6.72643" stroke="#4E4F4F" stroke-width="2"/>
<path d="M17.243 6.73194C17.2997 6.75029 17.3674 6.7495 17.4461 6.72958" stroke="#4E4F4F" stroke-width="2"/>
<path d="M17.5539 6.72644C17.6195 6.75841 17.688 6.75867 17.7594 6.72723" stroke="#898A8A" stroke-width="2"/>
<path d="M17.7898 6.72644C17.8096 6.74059 17.8312 6.74111 17.8547 6.72801" stroke="#898A8A" stroke-width="2"/>
<path d="M17.9265 6.72958C17.9401 6.74164 17.9601 6.7419 17.9867 6.73037" stroke="#4E4F4F" stroke-width="2"/>
<path d="M18.5508 6.73036C18.5643 6.75919 18.5859 6.75866 18.6156 6.72879" stroke="#4E4F4F" stroke-width="2"/>
<path d="M18.6281 6.72958C18.6604 6.76103 18.6828 6.75971 18.6953 6.72565" stroke="#898A8A" stroke-width="2"/>
<path d="M18.7844 6.7272C18.8161 6.75446 18.8385 6.75472 18.8516 6.72799" stroke="#4E4F4F" stroke-width="2"/>
<path d="M18.8851 6.73586L21.4008 6.73508" stroke="#4E4F4F" stroke-width="2"/>
<path d="M21.4297 6.7272C21.4703 6.75131 21.5005 6.75236 21.5203 6.73035" stroke="#4E4F4F" stroke-width="2"/>
<path d="M21.5484 6.73823L22.657 6.73587" stroke="#4E4F4F" stroke-width="2"/>
<path d="M22.6726 6.72565C22.7174 6.755 22.7643 6.75605 22.8133 6.72879" stroke="#4E4F4F" stroke-width="2"/>
<path d="M22.8336 6.7272C22.9372 6.75393 23.0422 6.75524 23.1484 6.73113" stroke="#4E4F4F" stroke-width="2"/>
<path d="M23.1602 6.73352L24.0625 6.73509" stroke="#4E4F4F" stroke-width="2"/>
<path d="M24.0859 6.73273L24.6852 6.7343" stroke="#4E4F4F" stroke-width="2"/>
<path d="M24.7117 6.73744L25.6383 6.73273" stroke="#4E4F4F" stroke-width="2"/>
<path d="M25.7375 6.7225C25.8203 6.75919 25.8888 6.76024 25.943 6.72565" stroke="#898A8A" stroke-width="2"/>
<path d="M25.993 6.72644C26.0211 6.74164 26.0604 6.74269 26.1109 6.72959" stroke="#4E4F4F" stroke-width="2"/>
<path d="M26.1297 6.7233C26.1693 6.7537 26.2169 6.75553 26.2726 6.7288" stroke="#4E4F4F" stroke-width="2"/>
<path d="M26.2859 6.72406C26.3125 6.73978 26.3344 6.74109 26.3515 6.72799" stroke="#4E4F4F" stroke-width="2"/>
<path d="M26.4226 6.7225C26.4622 6.75185 26.5229 6.75316 26.6047 6.72643" stroke="#898A8A" stroke-width="2"/>
<path d="M26.6164 6.73035C26.7138 6.74869 26.8068 6.74922 26.8953 6.73192" stroke="#4E4F4F" stroke-width="2"/>
<path d="M26.9102 6.72485C26.9388 6.75106 26.9609 6.75237 26.9766 6.72878" stroke="#4E4F4F" stroke-width="2"/>
<path d="M26.9906 6.73273L27.525 6.7343" stroke="#4E4F4F" stroke-width="2"/>
<path d="M27.5352 6.72485C27.5643 6.75001 27.5865 6.7508 27.6016 6.72721" stroke="#4E4F4F" stroke-width="2"/>
<path d="M28.1609 6.72406C28.1776 6.73978 28.1995 6.74136 28.2265 6.72878" stroke="#4E4F4F" stroke-width="2"/>
<path d="M28.2383 6.72485C28.3169 6.75053 28.3839 6.75237 28.4391 6.73035" stroke="#4E4F4F" stroke-width="2"/>
<path d="M28.4601 6.73665L33.7484 6.73508" stroke="#4E4F4F" stroke-width="2"/>
<path d="M33.7726 6.73588L35.8 6.73352" stroke="#4E4F4F" stroke-width="2"/>
<path d="M35.8148 6.73509L36.4203 6.73352" stroke="#4E4F4F" stroke-width="2"/>
<path d="M36.4406 6.72879C36.5302 6.7529 36.6242 6.75342 36.7226 6.73036" stroke="#898A8A" stroke-width="2"/>
<path d="M36.7414 6.72879C36.7726 6.74871 36.8161 6.74897 36.8719 6.72958" stroke="#4E4F4F" stroke-width="2"/>
<path d="M36.9297 6.73114C37.0214 6.74582 37.1076 6.74582 37.1883 6.73114" stroke="#898A8A" stroke-width="2"/>
<path d="M37.2437 6.73586L38.3211 6.73508" stroke="#4E4F4F" stroke-width="2"/>
<path d="M38.3367 6.72879C38.37 6.755 38.4041 6.75552 38.439 6.73036" stroke="#898A8A" stroke-width="2"/>
<path d="M38.4922 6.72644C38.5318 6.75894 38.5732 6.75972 38.6164 6.7288" stroke="#898A8A" stroke-width="2"/>
<path d="M38.6281 6.72878C38.6693 6.7597 38.6917 6.75708 38.6953 6.72092" stroke="#4E4F4F" stroke-width="2"/>
<path d="M39.2351 6.71936C39.2471 6.74766 39.268 6.75919 39.2976 6.75395C39.3148 6.75133 39.3221 6.74006 39.3195 6.72015" stroke="#898A8A" stroke-width="2"/>
<path d="M39.8391 6.71936C39.8854 6.75972 39.9401 6.76286 40.0031 6.72879" stroke="#898A8A" stroke-width="2"/>
<path d="M40.0219 6.7233C40.0666 6.7516 40.0927 6.75396 40.1 6.73037" stroke="#4E4F4F" stroke-width="2"/>
<path d="M40.2117 6.72565C40.245 6.75762 40.2797 6.75788 40.3156 6.72643" stroke="#898A8A" stroke-width="2"/>
<path d="M40.5039 6.72171C40.5451 6.76469 40.5872 6.76521 40.6305 6.72328" stroke="#898A8A" stroke-width="2"/>
<path d="M40.639 6.72485C40.75 6.75473 40.8518 6.75551 40.9445 6.72721" stroke="#898A8A" stroke-width="2"/>
<path d="M40.9922 6.72485C40.9953 6.75316 41.024 6.7542 41.0781 6.728" stroke="#4E4F4F" stroke-width="2"/>
<path d="M41.3055 6.72485C41.3315 6.75053 41.3646 6.75106 41.4047 6.72642" stroke="#898A8A" stroke-width="2"/>
<path d="M41.8875 6.72485C41.9964 6.75473 42.1089 6.75787 42.225 6.73429" stroke="#898A8A" stroke-width="2"/>
<path d="M42.2422 6.72958C42.2781 6.75526 42.3195 6.755 42.3664 6.72879" stroke="#898A8A" stroke-width="2"/>
<path d="M42.5234 6.73352L42.9898 6.73509" stroke="#4E4F4F" stroke-width="2"/>
<path d="M43.0039 6.72644C43.0263 6.74269 43.0484 6.74374 43.0703 6.72959" stroke="#4E4F4F" stroke-width="2"/>
<path d="M43.0828 6.73271L43.614 6.73035" stroke="#4E4F4F" stroke-width="2"/>
<path d="M43.7305 6.73114L44.0789 6.7335" stroke="#4E4F4F" stroke-width="2"/>
<path d="M44.1172 6.72406C44.1594 6.74136 44.201 6.74293 44.2422 6.72878" stroke="#4E4F4F" stroke-width="2"/>
<path d="M44.2547 6.72406C44.2781 6.73716 44.2997 6.73847 44.3195 6.72799" stroke="#4E4F4F" stroke-width="2"/>
<path d="M44.3969 6.72406C44.4422 6.74083 44.4929 6.74267 44.5492 6.72956" stroke="#4E4F4F" stroke-width="2"/>
<path d="M44.5859 6.72407C44.6396 6.75499 44.6815 6.7542 44.7117 6.72171" stroke="#4E4F4F" stroke-width="2"/>
<path d="M44.7227 6.7225C44.7419 6.74556 44.7643 6.74609 44.7898 6.72408" stroke="#4E4F4F" stroke-width="2"/>
<path d="M44.8008 6.72485C44.8185 6.74372 44.8406 6.74372 44.8672 6.72485" stroke="#4E4F4F" stroke-width="2"/>
<path d="M44.8781 6.7225C44.9864 6.74819 45.088 6.7508 45.1828 6.73036" stroke="#4E4F4F" stroke-width="2"/>
<path d="M45.1906 6.7233C45.2203 6.76051 45.269 6.76208 45.3367 6.72801" stroke="#898A8A" stroke-width="2"/>
<path d="M45.3477 6.72485C45.3992 6.74477 45.4477 6.74556 45.493 6.72721" stroke="#4E4F4F" stroke-width="2"/>
<path d="M45.5047 6.7233C45.5276 6.73797 45.5492 6.73928 45.5695 6.72723" stroke="#4E4F4F" stroke-width="2"/>
<path d="M45.625 6.72644C45.6839 6.73745 45.7432 6.73823 45.8031 6.7288" stroke="#4E4F4F" stroke-width="2"/>
<path d="M45.8164 6.72485C45.8695 6.75263 45.9177 6.75342 45.9609 6.72721" stroke="#898A8A" stroke-width="2"/>
<path d="M45.9758 6.73273L46.7211 6.7343" stroke="#4E4F4F" stroke-width="2"/>
<path d="M46.7547 6.72406C46.7755 6.73349 46.7971 6.73428 46.8195 6.72642" stroke="#4E4F4F" stroke-width="2"/>
<path d="M46.832 6.72328C46.8997 6.74477 46.9612 6.74425 47.0164 6.72171" stroke="#4E4F4F" stroke-width="2"/>
<path d="M47.5 6.72092C47.5589 6.73978 47.6187 6.74136 47.6797 6.72563" stroke="#898A8A" stroke-width="2"/>
<path d="M47.6922 6.7225C47.7422 6.74242 47.7903 6.74347 47.8367 6.72565" stroke="#898A8A" stroke-width="2"/>
<path d="M47.8477 6.7233C47.9018 6.74321 47.9503 6.744 47.993 6.72566" stroke="#898A8A" stroke-width="2"/>
<path d="M48.0039 6.72406L48.3047 6.72721" stroke="#4E4F4F" stroke-width="2"/>
<path d="M48.3164 6.7225C48.3346 6.74556 48.357 6.74609 48.3836 6.72408" stroke="#898A8A" stroke-width="2"/>
<path d="M48.4734 6.72171C48.5026 6.74267 48.5245 6.7432 48.539 6.72328" stroke="#898A8A" stroke-width="2"/>
<path d="M48.6297 6.72565L49.0851 6.73272" stroke="#4E4F4F" stroke-width="2"/>
<path d="M49.0977 6.7225C49.1102 6.75447 49.1326 6.75473 49.1648 6.72329" stroke="#898A8A" stroke-width="2"/>
<path d="M49.4156 6.71935C49.4625 6.74189 49.4963 6.74163 49.5172 6.71857" stroke="#4E4F4F" stroke-width="2"/>
<path d="M50.3656 6.71779C50.4135 6.75657 50.4429 6.755 50.4539 6.71307" stroke="#898A8A" stroke-width="2"/>
<path d="M56.6023 6.71307C56.6357 6.74714 56.6565 6.7474 56.6648 6.71386" stroke="#4E4F4F" stroke-width="2"/>
<path d="M60.1523 6.71384C60.1742 6.74161 60.1966 6.74476 60.2195 6.72327" stroke="#4E4F4F" stroke-width="2"/>
<path d="M60.2312 6.72171C60.2614 6.73901 60.2833 6.74005 60.2969 6.72486" stroke="#4E4F4F" stroke-width="2"/>
<path d="M60.4265 6.72171C60.4687 6.73953 60.5039 6.74058 60.532 6.72486" stroke="#4E4F4F" stroke-width="2"/>
<path d="M60.5437 6.72171C60.575 6.74005 60.5969 6.74084 60.6094 6.72407" stroke="#4E4F4F" stroke-width="2"/>
<path d="M60.7 6.72171C60.7219 6.73376 60.7435 6.73429 60.7648 6.72328" stroke="#4E4F4F" stroke-width="2"/>
<path d="M60.7773 6.72171C60.8133 6.74215 60.8354 6.74241 60.8437 6.7225" stroke="#4E4F4F" stroke-width="2"/>
<path d="M61.0898 6.72092C61.131 6.74555 61.1531 6.74555 61.1562 6.72092" stroke="#4E4F4F" stroke-width="2"/>
<path d="M61.168 6.72172C61.2096 6.7453 61.2318 6.74452 61.2344 6.71936" stroke="#4E4F4F" stroke-width="2"/>
<path d="M61.6367 6.72171C61.7336 6.74267 61.8341 6.74372 61.9383 6.72486" stroke="#4E4F4F" stroke-width="2"/>
<path d="M62.0281 6.72171C62.0646 6.74058 62.0864 6.7411 62.0937 6.72328" stroke="#898A8A" stroke-width="2"/>
<path d="M62.2609 6.72249C62.3167 6.75865 62.3659 6.75813 62.4086 6.72092" stroke="#4E4F4F" stroke-width="2"/>
<path d="M62.418 6.7225C62.4659 6.7419 62.5143 6.74268 62.5633 6.72486" stroke="#4E4F4F" stroke-width="2"/>
<path d="M62.575 6.72171C62.5974 6.73481 62.619 6.73481 62.6398 6.72171" stroke="#4E4F4F" stroke-width="2"/>
<path d="M62.6523 6.72173C62.693 6.74479 62.7151 6.74426 62.7187 6.72015" stroke="#4E4F4F" stroke-width="2"/>
<path d="M62.7312 6.72171C62.762 6.74005 62.7838 6.74084 62.7969 6.72407" stroke="#4E4F4F" stroke-width="2"/>
<path d="M62.8859 6.7225C62.9625 6.75814 63.038 6.75814 63.1125 6.7225" stroke="#4E4F4F" stroke-width="2"/>
<path d="M63.1211 6.7217C63.1596 6.74372 63.1818 6.74345 63.1875 6.72092" stroke="#4E4F4F" stroke-width="2"/>
<path d="M63.1976 6.72328C63.2357 6.75106 63.2583 6.74949 63.2656 6.71857" stroke="#4E4F4F" stroke-width="2"/>
<path d="M63.2766 6.72644C63.3146 6.74792 63.337 6.74557 63.3437 6.71936" stroke="#898A8A" stroke-width="2"/>
<path d="M63.3562 6.7217C63.3786 6.73585 63.4002 6.73559 63.4211 6.72092" stroke="#898A8A" stroke-width="2"/>
<path d="M63.5117 6.72171C63.5565 6.75106 63.5784 6.75001 63.5773 6.71857" stroke="#898A8A" stroke-width="2"/>
<path d="M20.4914 43.0739C20.606 43.022 20.7312 42.9953 20.8672 42.9937C21.6042 42.9854 21.9857 42.9812 22.0117 42.9812C24.6393 43.0178 27.5234 42.9906 30.664 42.8994C31.0896 42.8868 31.4672 42.8496 31.7969 42.7878C32.4265 42.6693 33.5513 42.5003 35.1711 42.2807C36.3976 42.114 38.0151 41.8362 40.0234 41.4474C40.5385 41.3478 41.4612 41.1305 42.7914 40.7956C44.8055 40.2893 46.7159 39.6947 48.5226 39.0118C49.4289 38.6696 50.0883 38.4167 50.5008 38.2532C51.1875 37.9804 51.7476 37.6274 52.4711 37.2917C54.868 36.1774 57.1375 34.7956 59.2797 33.1463C60.1016 32.5142 61.1742 31.6722 61.9375 30.9002C62.901 29.9253 63.4956 29.3116 63.7211 29.059C64.7278 27.9301 65.662 26.7479 66.5234 25.5126C67.0719 24.7254 67.5737 23.913 68.0289 23.0755" stroke="#7D7D7D" stroke-width="2"/>
<path d="M64.0265 6.71858C64.0135 6.717 64.0049 6.71858 64.0008 6.72329C64 6.72401 63.9995 6.72493 63.9992 6.72594C63.999 6.72696 63.999 6.72802 63.9994 6.72901C63.9997 6.72999 64.0003 6.73087 64.0011 6.73153C64.0019 6.73219 64.0029 6.7326 64.0039 6.73273C64.0232 6.7364 64.0331 6.73823 64.0336 6.73823C64.0364 6.73853 64.0387 6.73779 64.04 6.73616C64.0413 6.73453 64.0415 6.73215 64.0406 6.72955C64.0396 6.72694 64.0376 6.72432 64.035 6.72226C64.0324 6.72021 64.0293 6.71888 64.0265 6.71858Z" stroke="#4E4F4F" stroke-width="2"/>
<path d="M64.2125 6.70443C64.1875 6.69971 64.17 6.70102 64.1601 6.70836C64.1568 6.71083 64.1541 6.71419 64.1525 6.71806C64.1509 6.72194 64.1504 6.72618 64.1511 6.73033C64.1517 6.73448 64.1535 6.73836 64.1562 6.74156C64.1589 6.74476 64.1624 6.74714 64.1664 6.74845C64.17 6.7495 64.1857 6.74714 64.2133 6.74138C64.2175 6.74041 64.2212 6.73801 64.2239 6.73459C64.2265 6.73117 64.2279 6.72693 64.2278 6.72258C64.2277 6.71824 64.2262 6.71407 64.2234 6.71076C64.2206 6.70745 64.2167 6.70522 64.2125 6.70443Z" stroke="#4E4F4F" stroke-width="2"/>
<path d="M21.4953 27.2146C21.5672 27.6502 21.7344 28.037 21.9969 28.375C22.4922 29.0118 23.1677 29.3302 24.0234 29.3302C39.3026 29.3281 49.6565 29.3281 55.0851 29.3302C55.9013 29.3307 56.4039 29.3069 56.593 29.2587C57.6789 28.9827 58.4305 28.0173 58.4414 26.8648C58.4523 25.7458 58.4534 24.2461 58.4445 22.3656C58.4414 21.6093 58.1633 20.9838 57.6101 20.489C57.2075 20.1284 56.7403 19.9269 56.2086 19.8845" stroke="#9C9D9D" stroke-width="2"/>
<path d="M56.2086 19.8844L56.2617 19.8593C56.2656 19.8576 56.2689 19.8546 56.2708 19.8507C56.2728 19.8469 56.2735 19.8426 56.2726 19.8384C56.2718 19.8341 56.2696 19.8303 56.2663 19.8276C56.2631 19.8248 56.259 19.8232 56.2547 19.8231C55.299 19.8116 54.425 19.8056 53.6328 19.805C41.5021 19.8019 31.6815 19.8019 24.1711 19.805C24.0456 19.805 23.9477 19.8084 23.8773 19.8152C23.6148 19.8388 23.4055 19.8325 23.1531 19.9253C22.4 20.2031 21.8682 20.7272 21.5578 21.4976C21.443 21.783 21.4523 22.0951 21.4266 22.4096C21.4182 22.5076 21.4141 22.6234 21.4141 22.7571C21.4156 23.8666 21.4159 25.1122 21.4148 26.4937C21.4148 26.7961 21.4417 27.0364 21.4953 27.2146" stroke="#9C9D9D" stroke-width="2"/>
<path d="M74.8422 39.0684C74.8422 41.0717 74.0513 42.993 72.6437 44.4095C71.236 45.8261 69.3267 46.6219 67.3359 46.6219H12.7359C10.7451 46.6219 8.8359 45.8261 7.4282 44.4095C6.02051 42.993 5.22968 41.0717 5.22968 39.0684V10.0716C5.22968 8.06825 6.02051 6.147 7.4282 4.73045C8.8359 3.31391 10.7451 2.5181 12.7359 2.5181H67.3359C69.3267 2.5181 71.236 3.31391 72.6437 4.73045C74.0513 6.147 74.8422 8.06825 74.8422 10.0716V39.0684ZM72.15 9.22486L72.1086 8.99294C72.0039 8.4877 71.8271 8.0333 71.5781 7.62973C70.5453 5.95468 69.0146 5.11715 66.9859 5.11715C52.0917 5.11925 34.1315 5.11899 13.1055 5.11637C11.45 5.11637 10.0031 5.71385 8.94843 7.02045C8.23228 7.90777 7.87447 8.92847 7.87499 10.0826C7.87707 18.2733 7.87733 27.63 7.87577 38.1525C7.87577 39.0655 7.88514 39.5996 7.90389 39.7547C7.97004 40.2961 8.12655 40.8035 8.37343 41.2767C9.12707 42.7233 10.25 43.6054 11.7422 43.923C12.0896 43.9964 12.7034 44.033 13.5836 44.033C22.3383 44.0288 40.0466 44.0283 66.7086 44.0315C67.4159 44.0315 67.9406 43.995 68.2828 43.9222C70.3172 43.4898 71.8789 41.8506 72.1758 39.765C72.2331 39.3635 72.262 38.8444 72.2625 38.2076C72.2651 29.0016 72.2643 19.7969 72.2601 10.5936C72.2601 10.0957 72.2234 9.63943 72.15 9.22486Z" fill="black"/>
<path d="M72.1086 8.99294L71.5695 11.6533C71.5669 11.6648 71.5656 11.6767 71.5656 11.6887L71.557 11.9591C71.557 11.9635 71.5559 11.9678 71.5538 11.9716C71.5517 11.9755 71.5487 11.9787 71.5451 11.9811C71.5415 11.9835 71.5373 11.985 71.533 11.9854C71.5287 11.9858 71.5243 11.9852 71.5203 11.9835C71.5141 11.9804 71.5073 11.9759 71.5 11.9701C71.4161 11.413 71.3065 10.9279 71.1711 10.5149C70.4437 8.28853 68.475 6.7335 66.1023 6.71857C65.7414 6.71621 65.3133 6.70599 64.9172 6.71778L64.868 6.72171C64.8206 6.70966 64.7721 6.70966 64.7227 6.72171C64.6471 6.70337 64.5747 6.70572 64.5055 6.72879C64.5048 6.72885 64.5041 6.7287 64.5036 6.72836C64.503 6.72802 64.5026 6.7275 64.5023 6.72689C64.502 6.72628 64.502 6.7256 64.5021 6.72495C64.5023 6.72431 64.5026 6.72372 64.5031 6.72328C64.5089 6.71856 64.5117 6.71201 64.5117 6.70363C64.5117 6.70238 64.5113 6.70118 64.5106 6.70029C64.5098 6.69941 64.5088 6.69891 64.5078 6.69891L63.9328 6.71778C63.7833 6.70311 63.6706 6.70599 63.5945 6.72643C63.5888 6.72381 63.5831 6.72119 63.5773 6.71857C63.556 6.71594 63.5341 6.71699 63.5117 6.72171C63.4825 6.71228 63.4523 6.71201 63.4211 6.72092C63.3992 6.71725 63.3776 6.71752 63.3562 6.72171C63.3521 6.72066 63.3479 6.71988 63.3437 6.71935C63.3213 6.71621 63.299 6.71857 63.2766 6.72643C63.2729 6.72381 63.2693 6.72119 63.2656 6.71857C63.2437 6.71542 63.2211 6.71699 63.1977 6.72328C63.1945 6.72223 63.1911 6.72145 63.1875 6.72092C63.1656 6.71673 63.1435 6.71699 63.1211 6.72171C63.118 6.72171 63.1151 6.72197 63.1125 6.7225C63.0354 6.70677 62.9599 6.70677 62.8859 6.7225C62.8573 6.71149 62.8276 6.71201 62.7969 6.72407C62.775 6.71935 62.7531 6.71857 62.7312 6.72171C62.7271 6.72119 62.7229 6.72066 62.7187 6.72014C62.6969 6.71647 62.6747 6.71699 62.6523 6.72171C62.6482 6.72171 62.644 6.72171 62.6398 6.72171H62.575C62.5714 6.72276 62.5674 6.72381 62.5633 6.72486C62.5148 6.70861 62.4664 6.70782 62.418 6.7225C62.4148 6.72197 62.4117 6.72145 62.4086 6.72092C62.3581 6.70887 62.3089 6.70939 62.2609 6.7225C62.2062 6.7073 62.1505 6.70756 62.0937 6.72328L62.0281 6.72171C61.9964 6.71123 61.9664 6.71228 61.9383 6.72486C61.8388 6.70651 61.7383 6.70546 61.6367 6.72171L61.2344 6.71935L61.168 6.72171C61.1638 6.72119 61.1599 6.72092 61.1562 6.72092H61.0898C61.0075 6.70625 60.9255 6.70677 60.8437 6.7225C60.8213 6.71883 60.7992 6.71857 60.7773 6.72171C60.7732 6.72223 60.769 6.72276 60.7648 6.72328L60.7 6.72171C60.6687 6.71175 60.6385 6.71254 60.6094 6.72407L60.5437 6.72171C60.5396 6.72276 60.5357 6.72381 60.532 6.72486C60.4982 6.71333 60.463 6.71228 60.4266 6.72171C60.3823 6.70808 60.3391 6.70913 60.2969 6.72486L60.2312 6.72171C60.2271 6.72223 60.2232 6.72276 60.2195 6.72328C60.1935 6.72433 60.1711 6.72119 60.1523 6.71385H56.6648C56.656 6.72852 56.6352 6.72826 56.6023 6.71306H50.4539C50.4284 6.71988 50.399 6.72145 50.3656 6.71778L49.5172 6.71857L49.4156 6.71935C49.3297 6.70625 49.2461 6.70756 49.1648 6.72328L49.0977 6.7225C49.0935 6.72564 49.0893 6.72905 49.0852 6.73272L48.6297 6.72564C48.6016 6.71201 48.5714 6.71123 48.5391 6.72328L48.4734 6.72171C48.4422 6.71175 48.4122 6.71254 48.3836 6.72407L48.3164 6.7225C48.3122 6.72407 48.3083 6.72564 48.3047 6.72721L48.0039 6.72407C48.0003 6.72459 47.9966 6.72512 47.993 6.72564C47.9461 6.71673 47.8977 6.71594 47.8477 6.72328C47.844 6.72433 47.8404 6.72512 47.8367 6.72564C47.7904 6.71568 47.7422 6.71464 47.6922 6.7225C47.688 6.72355 47.6839 6.72459 47.6797 6.72564L47.5 6.72092L47.0164 6.72171L46.832 6.72328C46.8279 6.72433 46.8237 6.72538 46.8195 6.72643L46.7547 6.72407C46.7385 6.72145 46.7273 6.72486 46.7211 6.73429L45.9758 6.73272C45.9706 6.73115 45.9656 6.72931 45.9609 6.72721C45.9135 6.7183 45.8654 6.71752 45.8164 6.72486C45.8122 6.72643 45.8078 6.72774 45.8031 6.72879L45.625 6.72643C45.6057 6.72119 45.5872 6.72145 45.5695 6.72721L45.5047 6.72328C45.5005 6.72485 45.4966 6.72617 45.493 6.72721L45.3477 6.72486C45.344 6.7259 45.3404 6.72695 45.3367 6.728C45.2898 6.71699 45.2411 6.71542 45.1906 6.72328C45.188 6.7259 45.1854 6.72826 45.1828 6.73036L44.8781 6.7225C44.8745 6.72355 44.8708 6.72433 44.8672 6.72486H44.8008C44.7971 6.72486 44.7935 6.72459 44.7898 6.72407L44.7227 6.7225C44.719 6.72197 44.7154 6.72171 44.7117 6.72171L44.5859 6.72407L44.5492 6.72957L44.3969 6.72407C44.3703 6.71463 44.3445 6.71594 44.3195 6.728L44.2547 6.72407C44.2505 6.72564 44.2464 6.72721 44.2422 6.72879L44.1172 6.72407C44.1036 6.72459 44.0909 6.72774 44.0789 6.7335L43.7305 6.73114C43.693 6.70704 43.6542 6.70677 43.6141 6.73036L43.0828 6.73272C43.0786 6.73167 43.0745 6.73062 43.0703 6.72957L43.0039 6.72643C42.9992 6.72957 42.9945 6.73246 42.9898 6.73508L42.5234 6.7335C42.4708 6.7031 42.4185 6.70153 42.3664 6.72879L42.2422 6.72957C42.2365 6.73114 42.2307 6.73272 42.225 6.73429L41.8875 6.72486L41.4047 6.72643L41.3055 6.72486C41.2263 6.70442 41.1505 6.70546 41.0781 6.728L40.9922 6.72486C40.9719 6.71909 40.956 6.71988 40.9445 6.72721L40.6391 6.72486C40.6365 6.72433 40.6336 6.72381 40.6305 6.72328L40.5039 6.72171C40.4419 6.70756 40.3792 6.70913 40.3156 6.72643L40.2117 6.72564C40.1747 6.71254 40.1375 6.71411 40.1 6.73036L40.0219 6.72328C40.0156 6.72485 40.0094 6.72669 40.0031 6.72879L39.8391 6.71935L39.3195 6.72014L39.2352 6.71935L38.6953 6.72092L38.6281 6.72879C38.6245 6.72879 38.6206 6.72879 38.6164 6.72879L38.4922 6.72643C38.4745 6.72433 38.4568 6.72564 38.4391 6.73036L38.3367 6.72879C38.3315 6.73088 38.3263 6.73298 38.3211 6.73508L37.2437 6.73586C37.2286 6.72433 37.2102 6.72276 37.1883 6.73114H36.9297C36.912 6.7259 36.8927 6.72538 36.8719 6.72957L36.7414 6.72879C36.7352 6.72931 36.7289 6.72983 36.7227 6.73036L36.4406 6.72879C36.4339 6.73036 36.4271 6.73193 36.4203 6.7335L35.8148 6.73508C35.8096 6.73455 35.8047 6.73403 35.8 6.7335L33.7727 6.73586C33.7643 6.73534 33.7562 6.73508 33.7484 6.73508L28.4602 6.73665C28.4534 6.73455 28.4464 6.73245 28.4391 6.73036L28.2383 6.72486C28.2346 6.72643 28.2307 6.72774 28.2266 6.72879L28.1609 6.72407C28.1552 6.72617 28.1495 6.72852 28.1437 6.73114L27.8336 6.72721C27.8279 6.72774 27.8221 6.72852 27.8164 6.72957C27.757 6.71752 27.6958 6.71516 27.6328 6.7225L27.6016 6.72721L27.5352 6.72486C27.5315 6.728 27.5281 6.73114 27.525 6.73429L26.9906 6.73272C26.9859 6.73167 26.9812 6.73036 26.9766 6.72879L26.9102 6.72486C26.9055 6.72695 26.9005 6.72931 26.8953 6.73193L26.6164 6.73036C26.6122 6.72931 26.6083 6.728 26.6047 6.72643L26.4227 6.7225C26.3982 6.71411 26.3745 6.71594 26.3516 6.728L26.2859 6.72407C26.2812 6.72564 26.2768 6.72721 26.2727 6.72879L26.1297 6.72328C26.1234 6.72538 26.1172 6.72748 26.1109 6.72957L25.993 6.72643C25.9742 6.72066 25.9576 6.7204 25.943 6.72564L25.7375 6.7225C25.7047 6.70939 25.6716 6.7128 25.6383 6.73272L24.7117 6.73743C24.7029 6.73639 24.694 6.73534 24.6852 6.73429L24.0859 6.73272C24.0781 6.73324 24.0703 6.73403 24.0625 6.73508L23.1602 6.7335C23.1565 6.73245 23.1526 6.73167 23.1484 6.73114L22.8336 6.72721C22.8268 6.72774 22.8201 6.72826 22.8133 6.72879L22.6727 6.72564C22.6674 6.72878 22.6622 6.73219 22.657 6.73586L21.5484 6.73822C21.5391 6.7356 21.5297 6.73298 21.5203 6.73036L21.4297 6.72721C21.4198 6.72983 21.4102 6.73246 21.4008 6.73508L18.8852 6.73586C18.8773 6.72643 18.8661 6.72381 18.8516 6.728L18.7844 6.72721C18.7557 6.71464 18.726 6.71411 18.6953 6.72564L18.6281 6.72957C18.624 6.72957 18.6198 6.72931 18.6156 6.72879L18.5508 6.73036C18.5466 6.72983 18.5427 6.72931 18.5391 6.72879L18.4148 6.72564C18.3732 6.7073 18.3365 6.70861 18.3047 6.72957H18.2383C18.2341 6.72905 18.2299 6.72879 18.2258 6.72879L18.1609 6.72564C18.1026 6.70939 18.0445 6.71097 17.9867 6.73036L17.9266 6.72957C17.9026 6.72224 17.8786 6.72171 17.8547 6.728L17.7898 6.72643L17.7594 6.72721L17.5539 6.72643C17.5201 6.71123 17.4841 6.71228 17.4461 6.72957L17.243 6.73193L17.1297 6.72643L17.0539 6.71857C17.0263 6.71385 17.0005 6.71568 16.9766 6.72407L16.9109 6.72171C16.8813 6.7128 16.8508 6.71411 16.8195 6.72564L16.7547 6.72643C16.75 6.728 16.7453 6.72957 16.7406 6.73114L16.4203 6.728C16.4161 6.7301 16.412 6.73219 16.4078 6.73429L14.7312 6.72957C13.9922 6.68135 13.2755 6.7922 12.5812 7.06212C10.575 7.84121 9.45469 9.62658 9.45156 11.7532C9.44479 17.4649 9.44401 23.1766 9.44922 28.8884C9.44661 31.218 9.4487 33.5477 9.45547 35.8774C9.45651 36.0933 9.4638 36.3195 9.47734 36.5558C9.49036 36.7817 9.50234 37.0076 9.51328 37.2335C9.58568 38.744 10.1049 40.0794 11.0711 41.2398L8.32969 40.8648C8.32275 40.8638 8.31568 40.8648 8.3092 40.8674C8.30272 40.8701 8.29706 40.8744 8.29278 40.88C8.2885 40.8856 8.28576 40.8922 8.28483 40.8992C8.28391 40.9062 8.28483 40.9133 8.2875 40.9198C8.89219 42.3742 10.1078 43.5032 11.6617 43.8208C12.0409 43.8983 12.3143 43.9371 12.482 43.9371C28.8862 43.9392 46.9641 43.9397 66.7156 43.9387C67.4604 43.9387 68.0029 43.9004 68.343 43.8239C68.9216 43.6939 69.4458 43.4756 69.9156 43.169C71.5391 42.1101 72.1891 40.4788 72.1914 38.5425C72.1997 30.0383 72.1992 20.5461 72.1898 10.0661C72.1898 10.053 72.1883 10.0395 72.1851 10.026C72.1263 9.75866 72.1146 9.49163 72.15 9.22485C72.2234 9.63943 72.2602 10.0957 72.2602 10.5936C72.2643 19.7969 72.2651 29.0016 72.2625 38.2076C72.262 38.8444 72.2331 39.3635 72.1758 39.7649C71.8789 41.8506 70.3172 43.4898 68.2828 43.9222C67.9406 43.995 67.4159 44.0315 66.7086 44.0315C40.0466 44.0283 22.3383 44.0288 13.5836 44.033C12.7034 44.033 12.0896 43.9963 11.7422 43.923C10.25 43.6054 9.12708 42.7233 8.37344 41.2767C8.12656 40.8035 7.97005 40.2961 7.90391 39.7547C7.88516 39.5996 7.87578 39.0655 7.87578 38.1525C7.87734 27.63 7.87708 18.2733 7.875 10.0826C7.87448 8.92847 8.23229 7.90777 8.94844 7.02045C10.0031 5.71385 11.45 5.11636 13.1055 5.11636C34.1315 5.11898 52.0917 5.11925 66.9859 5.11715C69.0146 5.11715 70.5453 5.95468 71.5781 7.62973C71.8271 8.03329 72.0039 8.4877 72.1086 8.99294Z" fill="#9C9D9D"/>
<path d="M63.9328 6.71776C63.7974 6.75235 63.6846 6.75523 63.5945 6.7264C63.6706 6.70596 63.7833 6.70308 63.9328 6.71776Z" fill="black"/>
<path d="M25.943 6.72562C25.8888 6.76021 25.8203 6.75916 25.7375 6.72247L25.943 6.72562Z" fill="#767676"/>
<path d="M26.6047 6.7264C26.5229 6.75313 26.4623 6.75182 26.4227 6.72247L26.6047 6.7264Z" fill="#767676"/>
<path d="M36.7226 6.73033C36.6242 6.75339 36.5302 6.75287 36.4406 6.72876L36.7226 6.73033Z" fill="#767676"/>
<path d="M37.1883 6.73114C37.1076 6.74582 37.0214 6.74582 36.9297 6.73114H37.1883Z" fill="#767676"/>
<path d="M38.4391 6.73033C38.4042 6.75549 38.3701 6.75497 38.3367 6.72876L38.4391 6.73033Z" fill="#767676"/>
<path d="M38.6164 6.72877C38.5732 6.75969 38.5318 6.7589 38.4922 6.72641L38.6164 6.72877Z" fill="#767676"/>
<path d="M38.6953 6.72092C38.6917 6.75708 38.6693 6.7597 38.6281 6.72878L38.6953 6.72092Z" fill="black"/>
<path d="M39.3195 6.72012C39.3221 6.74003 39.3149 6.7513 39.2977 6.75392C39.268 6.75916 39.2471 6.74763 39.2352 6.71933L39.3195 6.72012Z" fill="#767676"/>
<path d="M40.0031 6.72876C39.9401 6.76283 39.8854 6.75969 39.8391 6.71933L40.0031 6.72876Z" fill="#767676"/>
<path d="M40.1 6.73034C40.0927 6.75393 40.0667 6.75157 40.0219 6.72327L40.1 6.73034Z" fill="black"/>
<path d="M40.3156 6.7264C40.2797 6.75785 40.2451 6.75759 40.2117 6.72562L40.3156 6.7264Z" fill="#767676"/>
<path d="M40.6305 6.72328C40.5872 6.76521 40.5451 6.76469 40.5039 6.72171L40.6305 6.72328Z" fill="#767676"/>
<path d="M40.9445 6.72721C40.8518 6.75551 40.75 6.75473 40.6391 6.72485L40.9445 6.72721Z" fill="#767676"/>
<path d="M41.0781 6.728C41.024 6.7542 40.9953 6.75316 40.9922 6.72485L41.0781 6.728Z" fill="black"/>
<path d="M41.4047 6.72642C41.3646 6.75106 41.3315 6.75053 41.3055 6.72485L41.4047 6.72642Z" fill="#767676"/>
<path d="M42.225 6.73429C42.1089 6.75787 41.9964 6.75473 41.8875 6.72485L42.225 6.73429Z" fill="#767676"/>
<path d="M42.3664 6.72876C42.3195 6.75497 42.2781 6.75523 42.2422 6.72955L42.3664 6.72876Z" fill="#767676"/>
<path d="M43.0703 6.72956C43.0484 6.74371 43.0263 6.74266 43.0039 6.72641L43.0703 6.72956Z" fill="black"/>
<path d="M44.2422 6.72878C44.201 6.74293 44.1594 6.74136 44.1172 6.72406L44.2422 6.72878Z" fill="black"/>
<path d="M44.3195 6.72799C44.2997 6.73847 44.2781 6.73716 44.2547 6.72406L44.3195 6.72799Z" fill="black"/>
<path d="M44.5493 6.72956C44.493 6.74267 44.4422 6.74083 44.3969 6.72406L44.5493 6.72956Z" fill="black"/>
<path d="M44.7117 6.72171C44.6815 6.7542 44.6396 6.75499 44.5859 6.72407L44.7117 6.72171Z" fill="black"/>
<path d="M44.7898 6.72404C44.7643 6.74606 44.7419 6.74553 44.7227 6.72247L44.7898 6.72404Z" fill="black"/>
<path d="M44.8672 6.72485C44.8406 6.74372 44.8185 6.74372 44.8008 6.72485H44.8672Z" fill="black"/>
<path d="M45.3367 6.72798C45.269 6.76205 45.2203 6.76048 45.1906 6.72327C45.2411 6.71541 45.2898 6.71698 45.3367 6.72798Z" fill="#767676"/>
<path d="M45.493 6.72721C45.4477 6.74556 45.3992 6.74477 45.3477 6.72485L45.493 6.72721Z" fill="black"/>
<path d="M45.5695 6.7272C45.5492 6.73925 45.5276 6.73794 45.5047 6.72327L45.5695 6.7272Z" fill="black"/>
<path d="M45.8031 6.72877C45.7432 6.7382 45.6839 6.73742 45.625 6.72641L45.8031 6.72877Z" fill="black"/>
<path d="M45.9609 6.72721C45.9177 6.75341 45.8695 6.75263 45.8164 6.72485C45.8654 6.71751 45.9135 6.7183 45.9609 6.72721Z" fill="#767676"/>
<path d="M46.8195 6.72642C46.7971 6.73428 46.7755 6.73349 46.7547 6.72406L46.8195 6.72642Z" fill="black"/>
<path d="M47.0164 6.72171C46.9612 6.74425 46.8997 6.74477 46.832 6.72328L47.0164 6.72171Z" fill="black"/>
<path d="M47.6797 6.72563C47.6187 6.74136 47.5589 6.73978 47.5 6.72092L47.6797 6.72563Z" fill="#767676"/>
<path d="M47.8367 6.72563C47.7904 6.74345 47.7422 6.7424 47.6922 6.72249C47.7422 6.71463 47.7904 6.71567 47.8367 6.72563Z" fill="#767676"/>
<path d="M47.993 6.72562C47.9503 6.74397 47.9018 6.74318 47.8477 6.72326C47.8977 6.71593 47.9461 6.71671 47.993 6.72562Z" fill="#767676"/>
<path d="M48.3836 6.72404C48.357 6.74606 48.3346 6.74553 48.3164 6.72247L48.3836 6.72404Z" fill="#767676"/>
<path d="M48.5391 6.72328C48.5245 6.7432 48.5026 6.74267 48.4734 6.72171L48.5391 6.72328Z" fill="#767676"/>
<path d="M49.1648 6.72326C49.1326 6.7547 49.1102 6.75444 49.0977 6.72247L49.1648 6.72326Z" fill="#767676"/>
<path d="M49.5172 6.71854C49.4963 6.7416 49.4625 6.74186 49.4156 6.71932L49.5172 6.71854Z" fill="black"/>
<path d="M50.4539 6.71304C50.443 6.75497 50.4135 6.75654 50.3656 6.71776C50.399 6.72143 50.4284 6.71986 50.4539 6.71304Z" fill="#767676"/>
<path d="M56.6648 6.71383C56.6565 6.74737 56.6357 6.74711 56.6023 6.71304C56.6351 6.72824 56.656 6.7285 56.6648 6.71383Z" fill="black"/>
<path d="M60.2196 6.72327C60.1966 6.74476 60.1742 6.74161 60.1524 6.71384C60.1711 6.72117 60.1935 6.72432 60.2196 6.72327Z" fill="black"/>
<path d="M60.2969 6.72486C60.2833 6.74005 60.2615 6.73901 60.2313 6.72171L60.2969 6.72486Z" fill="black"/>
<path d="M60.532 6.72484C60.5039 6.74057 60.4688 6.73952 60.4266 6.7217C60.463 6.71227 60.4982 6.71331 60.532 6.72484Z" fill="black"/>
<path d="M60.6094 6.72407C60.5969 6.74084 60.575 6.74005 60.5438 6.72171L60.6094 6.72407Z" fill="black"/>
<path d="M60.7649 6.72328C60.7435 6.73429 60.7219 6.73376 60.7 6.72171L60.7649 6.72328Z" fill="black"/>
<path d="M60.8438 6.72248C60.8354 6.74239 60.8133 6.74213 60.7774 6.72169C60.7992 6.71855 60.8214 6.71881 60.8438 6.72248Z" fill="black"/>
<path d="M61.1563 6.72092C61.1532 6.74555 61.131 6.74555 61.0899 6.72092H61.1563Z" fill="black"/>
<path d="M61.2344 6.71933C61.2318 6.74449 61.2097 6.74527 61.168 6.72169L61.2344 6.71933Z" fill="black"/>
<path d="M61.9383 6.72483C61.8341 6.7437 61.7336 6.74265 61.6367 6.72168C61.7383 6.70543 61.8388 6.70648 61.9383 6.72483Z" fill="black"/>
<path d="M62.0938 6.72328C62.0865 6.7411 62.0646 6.74058 62.0281 6.72171L62.0938 6.72328Z" fill="#767676"/>
<path d="M62.4086 6.72091C62.3659 6.75812 62.3167 6.75865 62.2609 6.72249C62.3088 6.70938 62.3581 6.70886 62.4086 6.72091Z" fill="black"/>
<path d="M62.5633 6.72484C62.5144 6.74266 62.4659 6.74187 62.418 6.72248C62.4664 6.70781 62.5149 6.70859 62.5633 6.72484Z" fill="black"/>
<path d="M62.6399 6.72171C62.619 6.73481 62.5974 6.73481 62.575 6.72171H62.6399Z" fill="black"/>
<path d="M62.7188 6.72012C62.7151 6.74423 62.693 6.74475 62.6524 6.72169C62.6748 6.71697 62.6969 6.71645 62.7188 6.72012Z" fill="black"/>
<path d="M62.7969 6.72406C62.7839 6.74083 62.762 6.74005 62.7313 6.7217C62.7531 6.71856 62.775 6.71935 62.7969 6.72406Z" fill="black"/>
<path d="M63.1125 6.72249C63.038 6.75813 62.9625 6.75813 62.8859 6.72249C62.9599 6.70676 63.0354 6.70676 63.1125 6.72249Z" fill="black"/>
<path d="M63.1875 6.72092C63.1818 6.74345 63.1597 6.74372 63.1211 6.7217C63.1435 6.71699 63.1657 6.71672 63.1875 6.72092Z" fill="black"/>
<path d="M63.2656 6.71855C63.2583 6.74947 63.2357 6.75105 63.1977 6.72327C63.2211 6.71698 63.2438 6.71541 63.2656 6.71855Z" fill="black"/>
<path d="M63.3437 6.71933C63.337 6.74554 63.3146 6.7479 63.2766 6.72641C63.2989 6.71855 63.3213 6.71619 63.3437 6.71933Z" fill="#767676"/>
<path d="M63.4211 6.72092C63.4003 6.7356 63.3787 6.73586 63.3563 6.72171C63.3776 6.71752 63.3992 6.71725 63.4211 6.72092Z" fill="#767676"/>
<path d="M63.5774 6.71857C63.5784 6.75001 63.5565 6.75106 63.5117 6.72171C63.5341 6.717 63.556 6.71595 63.5774 6.71857Z" fill="#767676"/>
<path d="M71.5 11.9701C71.4989 11.978 71.4979 11.9861 71.4969 11.9945C71.4962 11.9982 71.4948 12.0018 71.4928 12.0049C71.4907 12.008 71.488 12.0107 71.4848 12.0127C71.4816 12.0147 71.4781 12.016 71.4744 12.0165C71.4706 12.017 71.4669 12.0168 71.4633 12.0157C71.457 12.0136 71.4479 12.0102 71.4359 12.0055C71.4277 12.0025 71.4205 11.9972 71.4151 11.9902C71.4097 11.9833 71.4064 11.975 71.4055 11.9662C71.1383 9.49449 69.664 7.47562 67.2312 6.88915C66.9489 6.82101 66.5724 6.78144 66.1015 6.77043C65.6693 6.75995 65.2893 6.75366 64.9617 6.75157C64.9435 6.75104 64.9286 6.73978 64.9172 6.71776C65.3133 6.70597 65.7414 6.71619 66.1023 6.71855C68.475 6.73348 70.4437 8.28852 71.1711 10.5149C71.3065 10.9279 71.4161 11.413 71.5 11.9701Z" fill="#9C9D9D"/>
<path d="M20.4914 43.0739C20.606 43.022 20.7312 42.9953 20.8672 42.9937C21.6042 42.9853 21.9857 42.9811 22.0117 42.9811C24.6393 43.0178 27.5234 42.9906 30.664 42.8994C31.0896 42.8868 31.4672 42.8496 31.7969 42.7877C32.4265 42.6693 33.5513 42.5003 35.1711 42.2807C36.3976 42.114 38.0151 41.8362 40.0234 41.4473C40.5385 41.3478 41.4612 41.1305 42.7914 40.7956C44.8055 40.2893 46.7159 39.6947 48.5226 39.0118C49.4289 38.6696 50.0883 38.4167 50.5008 38.2532C51.1875 37.9804 51.7476 37.6274 52.4711 37.2917C54.868 36.1774 57.1375 34.7956 59.2797 33.1462C60.1016 32.5142 61.1742 31.6722 61.9375 30.9002C62.901 29.9253 63.4956 29.3116 63.7211 29.059C64.7278 27.93 65.662 26.7479 66.5234 25.5126C67.0719 24.7254 67.5737 23.913 68.0289 23.0755C68.8976 21.5354 69.5555 19.9906 70.1344 18.3577C70.762 16.5852 71.1966 14.7655 71.4383 12.8986C71.4664 12.6824 71.4555 12.4756 71.4789 12.3003C71.4796 12.2945 71.4816 12.289 71.4847 12.2844C71.4879 12.2797 71.492 12.276 71.4969 12.2736C71.5193 12.2621 71.5388 12.2626 71.5555 12.2752C71.5577 12.2769 71.5594 12.279 71.5607 12.2815C71.5619 12.2839 71.5625 12.2866 71.5625 12.2893C71.5667 21.229 71.5667 29.4754 71.5625 37.0283C71.5625 37.2636 71.5161 37.6457 71.4234 38.1745C71.3469 38.6095 71.2521 38.9819 71.1391 39.2917C70.3187 41.5385 68.35 42.945 65.9765 42.9984C65.2276 43.0147 64.8083 43.0262 64.7187 43.033C64.032 43.0826 63.225 43.0747 62.6367 43.0755C48.5883 43.0849 34.5398 43.0844 20.4914 43.0739Z" fill="#767676"/>
<path d="M64.7227 6.72171C64.4531 6.60378 64.6604 6.67244 64.6875 6.64309L64.9172 6.71778C64.9287 6.73979 64.9435 6.75106 64.9617 6.75159C65.2893 6.75368 65.6693 6.75997 66.1016 6.77045C66.5724 6.78146 66.949 6.82103 67.2313 6.88916C69.6641 7.47564 71.1383 9.49451 71.4055 11.9662C71.4064 11.975 71.4097 11.9833 71.4151 11.9902C71.4205 11.9972 71.4277 12.0025 71.4359 12.0055C71.4479 12.0102 71.457 12.0136 71.4633 12.0157C71.4669 12.0168 71.4707 12.0171 71.4744 12.0165C71.4781 12.016 71.4816 12.0147 71.4848 12.0127C71.488 12.0107 71.4907 12.008 71.4928 12.0049C71.4949 12.0018 71.4963 11.9982 71.4969 11.9945C71.4979 11.9861 71.499 11.978 71.5 11.9701C71.5073 11.9759 71.5141 11.9804 71.5203 11.9835C71.5243 11.9852 71.5287 11.9858 71.533 11.9854C71.5373 11.985 71.5415 11.9835 71.5451 11.9811C71.5487 11.9787 71.5517 11.9755 71.5538 11.9716C71.5559 11.9678 71.557 11.9635 71.557 11.9591L71.5656 11.6887C71.5656 11.6767 71.5669 11.6648 71.5695 11.6533L72.1086 8.99294L72.15 9.22486C72.1146 9.49163 72.1263 9.75866 72.1852 10.026C72.1883 10.0395 72.1899 10.053 72.1899 10.0661C72.1992 20.5461 72.1997 30.0383 72.1914 38.5425C72.1891 40.4788 71.5391 42.1101 69.9156 43.169C69.4458 43.4756 68.9216 43.6939 68.343 43.8239C68.0029 43.9004 67.4604 43.9387 66.7156 43.9387C46.9641 43.9397 28.8862 43.9392 12.482 43.9371C12.3143 43.9371 12.0409 43.8983 11.6617 43.8208C10.1078 43.5032 8.89219 42.3742 8.2875 40.9198C8.28483 40.9133 8.28391 40.9062 8.28484 40.8992C8.28576 40.8922 8.2885 40.8856 8.29278 40.88C8.29706 40.8744 8.30272 40.8701 8.3092 40.8674C8.31568 40.8648 8.32275 40.8638 8.32969 40.8648L11.0711 41.2398C12.1758 42.386 13.557 42.9814 15.2148 43.026C17.0779 43.0763 18.8367 43.0923 20.4914 43.0739C34.5398 43.0844 48.5883 43.0849 62.6367 43.0755C63.225 43.0747 64.032 43.0826 64.7188 43.033C64.8083 43.0262 65.2276 43.0147 65.9766 42.9984C68.35 42.945 70.3188 41.5385 71.1391 39.2917C71.2521 38.9819 71.3469 38.6096 71.4234 38.1745C71.5162 37.6457 71.5625 37.2636 71.5625 37.0283C71.5667 29.4754 71.5667 21.229 71.5625 12.2893C71.5625 12.2866 71.5619 12.2839 71.5607 12.2815C71.5595 12.279 71.5577 12.2769 71.5555 12.2752C71.5388 12.2626 71.5193 12.2621 71.4969 12.2736C71.4921 12.276 71.4879 12.2797 71.4848 12.2844C71.4816 12.289 71.4796 12.2945 71.4789 12.3003C71.4555 12.4756 71.4664 12.6824 71.4383 12.8986C71.1966 14.7655 70.762 16.5852 70.1344 18.3577C69.5555 19.9906 68.8977 21.5354 68.0289 23.0755C67.4492 22.8294 66.825 22.9442 66.2859 23.1832C64.3984 24.0197 62.5047 25.015 60.5328 25.6227C59.7781 25.8548 59.1112 26.223 58.532 26.7272C58.5239 26.7346 58.5174 26.7437 58.513 26.7537C58.5085 26.7637 58.5062 26.7745 58.5063 26.7854C58.5141 27.5045 58.2732 28.1182 57.7836 28.6266C57.3188 29.1085 56.7195 29.3727 56.0523 29.3837C55.781 29.3884 55.6008 29.3907 55.5117 29.3907C53.456 29.3981 50.5198 29.4015 46.7031 29.401C46.5625 29.5205 46.3601 29.6219 46.3281 29.6384C46.3339 29.8014 45.8839 29.7484 45.7453 29.8396C45.4365 30.0419 45.0685 30.234 44.6414 30.4159C42.0563 31.5165 41.0469 32.0126 39.3563 32.5338C36.4805 33.419 33.7469 34.2822 31.0781 35.3003C30.3141 35.5912 29.4 35.8514 28.5039 36.0904C26.931 36.5102 25.4367 36.9783 24.0211 37.4945C22.9852 37.8727 22.2211 38.2571 21.1984 38.6337C20.2255 38.9927 19.4279 39.3014 18.8055 39.5598C17.4141 40.1376 16.2273 40.5118 14.6664 41.0771C13.5078 41.4969 12.3961 41.3947 11.2 41.1895C11.1752 41.1854 10.8761 41.2297 10.8594 41.2108C9.97708 40.2197 9.6078 38.9979 9.49218 37.6572C9.44062 37.0598 9.5599 36.7401 9.55625 36.6997C9.52917 36.4177 9.51589 36.0985 9.51641 35.7422C9.52318 32.3297 9.52448 30.3278 9.52031 29.7366C9.51927 29.5611 9.49557 29.2783 9.44922 28.8884C9.44401 23.1766 9.44479 17.4649 9.45156 11.7532C9.45469 9.62658 10.575 7.84121 12.5813 7.06212C13.2755 6.7922 13.9922 6.68136 14.7313 6.72957L16.4078 6.73429C17.1949 6.33829 20.7874 6.73527 21.4008 6.73508C21.4102 6.73246 21.4198 6.72984 21.4297 6.72722C21.4703 6.75132 21.5005 6.75237 21.5203 6.73036C21.5297 6.73298 21.5391 6.7356 21.5484 6.73822C34.3373 6.71101 53.3594 5.54246 63.9328 6.71778L64.5078 6.69891C64.5089 6.69891 64.5098 6.69941 64.5106 6.70029C64.5113 6.70118 64.5117 6.70238 64.5117 6.70363C64.5117 6.71201 64.5089 6.71857 64.5031 6.72328C64.5026 6.72372 64.5023 6.72431 64.5021 6.72496C64.502 6.7256 64.5021 6.72628 64.5023 6.72689C64.5026 6.72751 64.503 6.72802 64.5036 6.72836C64.5042 6.7287 64.5048 6.72885 64.5055 6.72879C64.5747 6.70573 64.6471 6.70337 64.7227 6.72171ZM64.0197 6.71778C64.081 6.72445 63.9552 6.70999 64.0197 6.71778ZM27.1094 28.0267C42.3885 28.0246 47.6573 28.6245 53.0859 28.6266C53.9021 28.6271 53.3656 28.3894 53.5547 28.3412C53.4375 27.8302 53.8953 28.6682 53.9062 27.5157C53.9172 26.3968 52.1182 29.3569 52.1094 27.4764C52.1062 26.7201 54.1859 26.5954 53.6328 26.1006C52.5861 25.1632 52.6741 21.9062 53.3984 23.1132C54.6065 22.5842 53.4269 22.3665 52.1094 22.3656C39.9786 22.3624 34.2682 21.695 26.7578 21.6981C24.8304 21.6981 25.8594 21.3055 25.8594 24.2925C25.8619 26.0811 25.3319 28.0267 27.1094 28.0267Z" fill="#9C9D9D"/>
<path d="M68.0289 23.0755C67.5737 23.913 67.0719 24.7254 66.5235 25.5126C65.662 26.7479 64.7279 27.93 63.7211 29.0589C63.4956 29.3116 62.9011 29.9253 61.9375 30.9001C61.1742 31.6722 60.1016 32.5141 59.2797 33.1462C57.1375 34.7956 54.868 36.1774 52.4711 37.2916C51.7477 37.6273 51.1875 37.9803 50.5008 38.2531C50.0883 38.4167 49.4289 38.6695 48.5227 39.0118C46.7159 39.6947 44.8055 40.2893 42.7914 40.7956C41.4612 41.1305 40.5385 41.3477 40.0234 41.4473C38.0151 41.8362 36.3977 42.114 35.1711 42.2806C33.5513 42.5002 32.4266 42.6693 31.7969 42.7877C31.4672 42.8496 31.0896 42.8868 30.6641 42.8994C27.5234 42.9905 24.6393 43.0178 22.0117 42.9811C21.9857 42.9811 21.6042 42.9853 20.8672 42.9937C20.7312 42.9953 20.606 43.022 20.4914 43.0739C18.8367 43.0922 17.0779 43.0762 15.2148 43.0259C13.557 42.9814 12.0422 42.3019 10.9375 41.1556C11.507 41.1556 12.6562 41.2398 14.6664 41.077C16.2273 40.5118 17.4141 40.1376 18.8055 39.5597C19.4279 39.3013 20.2255 38.9926 21.1984 38.6336C22.2211 38.2571 22.9851 37.8726 24.0211 37.4945C25.4367 36.9782 26.931 36.5102 28.5039 36.0904C29.4 35.8514 30.3141 35.5912 31.0781 35.3003C33.7469 34.2822 36.4805 33.419 39.3563 32.5338C41.0469 32.0126 42.0563 31.5165 44.6414 30.4159C45.0685 30.234 45.4365 30.0419 45.7453 29.8396C46.4844 29.1667 50.9615 28.7427 52.7734 28.8129C53.2031 28.5377 54.2165 27.9569 55 27.2406C55.5792 26.7364 59.7781 25.8548 60.5328 25.6226C62.5047 25.0149 64.3985 24.0196 66.286 23.1832C66.825 22.9442 67.4492 22.8294 68.0289 23.0755Z" fill="#848484"/>
<path d="M44.3002 20.5335C47.059 20.5351 49.8169 20.5374 52.5736 20.5406C53.1736 20.5411 53.7189 20.728 54.2096 21.1011C54.9377 21.6538 55.2455 22.4478 55.2494 23.3857C55.2515 23.9853 55.2518 24.8 55.2502 25.8299C55.2494 26.4596 55.158 27.0799 54.8728 27.5414C54.5083 28.1315 54.0265 28.5209 53.4275 28.7096C53.1572 28.7945 52.626 28.8364 51.8338 28.8354C50.376 28.8333 47.7937 28.833 44.0869 28.8346C44.078 28.8346 44.0695 28.8382 44.0632 28.8445C44.0569 28.8508 44.0533 28.8594 44.0533 28.8684C44.0538 32.2038 44.0557 34.8113 44.0588 36.6907C44.0598 37.3516 44.0189 37.8192 43.9361 38.0933C43.5861 39.2505 42.6518 39.9612 41.465 40.0547C41.3494 40.0636 40.501 40.0665 38.9197 40.0634C38.6801 40.0629 38.4903 40.0498 38.3502 40.0241C38.0465 39.969 37.8606 39.9271 37.7924 39.8983C36.9231 39.5361 36.3666 38.935 36.1228 38.0948C36.0426 37.8186 36.0031 37.3241 36.0041 36.6113C36.0083 33.2429 36.0101 30.6533 36.0096 28.8425C36.0096 28.8366 36.0073 28.831 36.0032 28.8269C35.9991 28.8228 35.9935 28.8205 35.9877 28.8205C33.3877 28.8341 30.6044 28.8375 27.6377 28.8307C27.209 28.8296 26.9023 28.8047 26.7174 28.756C26.0913 28.5904 25.5963 28.2369 25.2322 27.6955C25.1682 27.5995 25.1054 27.5029 25.0439 27.4054C24.7416 26.7277 24.7635 26.2222 24.7713 25.3338C24.7723 25.2369 24.7705 24.7327 24.7658 23.8212C24.7627 23.1483 24.7984 22.6921 24.8728 22.4525C25.1736 21.484 25.9072 20.7733 26.8846 20.6043C27.1669 20.5555 27.4963 20.5314 27.8728 20.5319C30.7463 20.5356 33.4429 20.5338 35.9627 20.5264C35.9727 20.5264 35.9823 20.5224 35.9895 20.5152C35.9966 20.508 36.0008 20.4982 36.001 20.4879C36.0093 18.1252 36.0098 15.4877 36.0025 12.5752C36.0015 12.2408 36.0156 11.9677 36.0447 11.756C36.2416 10.3283 37.2908 9.40458 38.7322 9.36763C39.2312 9.35453 40.0255 9.35191 41.115 9.35977C41.8025 9.36449 42.3994 9.50285 42.9322 9.89986C43.4218 10.2646 43.7585 10.7573 43.9424 11.3778C44.0221 11.6472 44.0611 12.0317 44.0596 12.5312C44.0549 13.8577 44.0538 16.5102 44.0564 20.4887C44.0564 20.499 44.0604 20.5089 44.0676 20.5162C44.0748 20.5236 44.0845 20.5278 44.0947 20.528L44.3002 20.5335ZM41.8385 22.7536V11.9266C41.8384 11.876 41.8231 11.8267 41.7945 11.7852C41.7658 11.7438 41.7253 11.7122 41.6783 11.6947C41.5366 11.6417 41.3877 11.6147 41.2314 11.6137C40.6064 11.609 39.7356 11.6108 38.6189 11.6192C38.3674 11.6208 38.2416 11.75 38.2416 12.0068C38.2416 19.1457 38.2416 22.7217 38.2416 22.7348C38.2417 22.7404 38.2407 22.746 38.2387 22.7513C38.2366 22.7565 38.2336 22.7613 38.2297 22.7653C38.2259 22.7693 38.2213 22.7725 38.2162 22.7747C38.2111 22.7769 38.2057 22.778 38.2002 22.778C36.9413 22.7812 33.6028 22.7814 28.1846 22.7788C27.8174 22.7783 27.5187 22.7848 27.2885 22.7984C27.1197 22.8084 27.0351 22.8991 27.0346 23.0705C27.0294 24.1506 27.0304 25.2568 27.0377 26.3889C27.0379 26.4298 27.0543 26.469 27.0833 26.4979C27.1123 26.5267 27.1515 26.5429 27.1924 26.5429H38.2002C38.2057 26.5429 38.2112 26.544 38.2163 26.5462C38.2215 26.5483 38.2261 26.5514 38.23 26.5554C38.2339 26.5593 38.237 26.564 38.2392 26.5692C38.2413 26.5743 38.2424 26.5798 38.2424 26.5854C38.2413 27.979 38.2403 31.4051 38.2393 36.8637C38.2393 37.2128 38.2666 37.4342 38.3213 37.528C38.4301 37.7141 38.6223 37.805 38.8978 37.8008C38.9692 37.7998 39.7968 37.7974 41.3807 37.7937C41.552 37.7932 41.6778 37.7287 41.758 37.6003C41.8116 37.5139 41.8385 37.3729 41.8385 37.1774C41.8406 31.8587 41.84 28.3205 41.8369 26.5626C41.8369 26.5578 41.8388 26.5532 41.8422 26.5498C41.8455 26.5464 41.8501 26.5445 41.8549 26.5445H52.7744C52.805 26.5446 52.8347 26.5327 52.8572 26.5115C52.9301 26.4444 52.9671 26.3338 52.9682 26.1797C52.9734 24.9266 52.9726 23.9324 52.9658 23.197C52.9635 22.973 52.9322 22.7819 52.6822 22.7819C49.1749 22.7788 45.5692 22.7785 41.865 22.7812C41.858 22.7812 41.8512 22.7783 41.8462 22.7731C41.8413 22.7679 41.8385 22.7609 41.8385 22.7536Z" fill="black"/>
<path d="M41.8384 22.7536C41.8384 22.7609 41.8412 22.7679 41.8462 22.7731C41.8512 22.7782 41.858 22.7811 41.865 22.7811C45.5692 22.7785 49.1749 22.7788 52.6822 22.7819C52.9322 22.7819 52.9634 22.973 52.9658 23.197C52.9726 23.9323 52.9733 24.9266 52.9681 26.1797C52.9671 26.3338 52.9301 26.4444 52.8572 26.5115C52.8346 26.5327 52.805 26.5445 52.7744 26.5445H41.8548C41.8501 26.5445 41.8455 26.5464 41.8421 26.5498C41.8388 26.5532 41.8369 26.5578 41.8369 26.5626C41.84 28.3204 41.8405 31.8587 41.8384 37.1774C41.8384 37.3729 41.8116 37.5138 41.758 37.6003C41.6778 37.7287 41.552 37.7932 41.3806 37.7937C39.7968 37.7974 38.9692 37.7997 38.8978 37.8008C38.6223 37.805 38.4301 37.7141 38.3213 37.528C38.2666 37.4342 38.2392 37.2127 38.2392 36.8637C38.2403 31.4051 38.2413 27.979 38.2423 26.5854C38.2423 26.5798 38.2413 26.5743 38.2391 26.5691C38.237 26.564 38.2339 26.5593 38.23 26.5554C38.2261 26.5514 38.2214 26.5483 38.2163 26.5462C38.2112 26.544 38.2057 26.5429 38.2002 26.5429H27.1923C27.1515 26.5429 27.1122 26.5267 27.0832 26.4979C27.0543 26.469 27.0379 26.4298 27.0377 26.3888C27.0304 25.2568 27.0293 24.1506 27.0345 23.0705C27.0351 22.8991 27.1197 22.8084 27.2884 22.7984C27.5187 22.7848 27.8173 22.7783 28.1845 22.7788C33.6028 22.7814 36.9413 22.7811 38.2002 22.778C38.2057 22.778 38.2111 22.7769 38.2162 22.7747C38.2213 22.7725 38.2259 22.7693 38.2297 22.7653C38.2336 22.7613 38.2366 22.7565 38.2386 22.7513C38.2407 22.746 38.2417 22.7404 38.2416 22.7348C38.2416 22.7217 38.2416 19.1456 38.2416 12.0068C38.2416 11.75 38.3673 11.6208 38.6189 11.6192C39.7356 11.6108 40.6064 11.609 41.2314 11.6137C41.3877 11.6147 41.5366 11.6417 41.6783 11.6947C41.7253 11.7122 41.7658 11.7438 41.7944 11.7852C41.8231 11.8267 41.8384 11.876 41.8384 11.9266V22.7536Z" fill="white"/>
</g>
<defs>
<clipPath id="clip0_269_788">
<rect width="80" height="50" fill="white"/>
</clipPath>
</defs>
</svg>
