<svg width="50" height="50" viewBox="0 0 50 50" fill="none" xmlns="http://www.w3.org/2000/svg">
<path d="M39.7 0H9.6C4.3 0 0 4.3 0 9.6V39.7C0 45 4.3 49.3 9.6 49.3H39.7C45 49.3 49.3 45 49.3 39.7V9.5C49.2 4.3 44.9 0 39.7 0ZM46.5 39.6C46.5 43.4 43.4 46.4 39.7 46.4H9.6C5.8 46.4 2.8 43.3 2.8 39.6V9.5C2.8 5.7 5.9 2.7 9.6 2.7H39.7C43.5 2.7 46.5 5.8 46.5 9.5V39.6Z" fill="white"/>
<path d="M25.9999 15.6H23.1999V23.2H15.8999V25.9H23.1999V33.5H25.9999V25.9H33.2999V23.2H25.9999V15.6Z" fill="white"/>
</svg>
