<svg width="54" height="54" viewBox="0 0 54 54" fill="none" xmlns="http://www.w3.org/2000/svg">
<path d="M24.0352 1H29.7002C29.7484 1 29.7832 1.00116 29.8076 1.00195C29.8532 1.04968 29.9524 1.16786 30.1084 1.43066C30.6052 2.26774 31.3774 4.02456 32.8418 7.72754L32.998 8.12305L33.3906 8.28418L35.6426 9.21387L36.0459 9.37988L36.4434 9.19629C39.4943 7.78525 41.1753 7.09279 42.1123 6.75391C42.5807 6.58452 42.8418 6.51078 42.9824 6.47949C43.0971 6.45401 43.1154 6.45898 43.1191 6.45898H43.2109L43.2998 6.53613L47.2998 10.5254C47.3344 10.5604 47.3576 10.5867 47.374 10.6045C47.3732 10.6687 47.363 10.8237 47.2852 11.1289C47.0438 12.0748 46.3449 13.8648 44.7607 17.5195L44.5928 17.9072L44.7539 18.2988L45.6719 20.5234L45.8408 20.9307L46.2549 21.082C49.9808 22.4381 51.7433 23.1606 52.5801 23.6367C52.8335 23.7809 52.9494 23.8749 52.9971 23.9189C52.998 23.9454 53 23.9849 53 24.041V29.7002C53 29.7597 52.9971 29.8 52.9961 29.8262C52.9518 29.8706 52.8362 29.9748 52.5625 30.1396C51.7255 30.6436 49.9673 31.4244 46.2588 32.9023L45.8652 33.0586L45.7041 33.4512L44.792 35.6699L44.625 36.0752L44.8096 36.4717C46.4756 40.0564 47.2075 41.8103 47.4629 42.7383C47.5426 43.028 47.5565 43.1778 47.5586 43.2412C47.5408 43.2609 47.5144 43.2912 47.4736 43.333L43.4121 47.3896H43.2861C43.305 47.3896 43.2737 47.3901 43.1641 47.3672C43.0634 47.3461 42.9272 47.3119 42.752 47.2598C42.4014 47.1554 41.9342 46.9937 41.3438 46.7715C40.1645 46.3276 38.5452 45.6605 36.4844 44.7715L36.0967 44.6045L35.707 44.7646L33.4551 45.6934L33.0488 45.8613L32.8975 46.2744C31.536 49.9891 30.8113 51.7482 30.3369 52.584C30.1964 52.8315 30.1034 52.9473 30.0586 52.9971C30.0341 52.9978 30.0001 53 29.9541 53H24.2998C24.2441 53 24.2054 52.998 24.1797 52.9971C24.1348 52.951 24.0342 52.8346 23.876 52.5693C23.3779 51.7345 22.6064 49.9808 21.1416 46.2822L20.9863 45.8896L20.5957 45.7275L18.3496 44.793L17.9443 44.624L17.5459 44.8086C14.4917 46.2226 12.81 46.9172 11.874 47.2568C11.4058 47.4267 11.1454 47.5 11.0059 47.5312C10.9 47.5549 10.8791 47.5523 10.876 47.5518H10.7832L10.6895 47.4697L6.69531 43.4814H6.69629C6.65805 43.4425 6.63315 43.414 6.61621 43.3955C6.61705 43.3307 6.62934 43.1753 6.70703 42.8701C6.94779 41.9244 7.64461 40.1346 9.22852 36.4805L9.39648 36.0918L9.23438 35.7002L8.31641 33.4854L8.14844 33.0801L7.73633 32.9297L6.43066 32.4482C3.58983 31.3907 2.15103 30.7829 1.41992 30.3652C1.16419 30.2191 1.04871 30.1247 1.00195 30.0811C1.00099 30.0546 1 30.015 1 29.959V24.2998C1 24.2328 1.00178 24.1887 1.00293 24.1611C1.04699 24.1176 1.1625 24.0175 1.43164 23.8574C2.26804 23.3601 4.02423 22.5945 7.73242 21.1318L8.12695 20.9756L8.29004 20.584L9.20801 18.3643L9.37598 17.958L9.19043 17.5596C7.51286 13.9597 6.78116 12.2039 6.5332 11.2734C6.45193 10.9684 6.44286 10.8194 6.44336 10.7627C6.46183 10.7419 6.49497 10.7034 6.55469 10.6426L6.55566 10.6436L10.582 6.61621H10.708C10.6897 6.6162 10.7222 6.61476 10.832 6.6377C10.9331 6.6588 11.0695 6.69395 11.2451 6.74609C11.5967 6.85047 12.0656 7.01217 12.6572 7.23438C13.839 7.6782 15.4611 8.34557 17.5215 9.23438L17.9092 9.40137L18.2998 9.24023L20.541 8.31055L20.9473 8.14258L21.0977 7.72949C22.4532 4.01336 23.1805 2.25337 23.6562 1.41797C23.7987 1.16792 23.8915 1.05052 23.9365 1.00098C23.9599 1.00028 23.9921 1 24.0352 1ZM30.9756 17.3398C29.0649 16.5488 26.9626 16.3417 24.9346 16.7461C22.9066 17.1505 21.0441 18.1479 19.583 19.6113C18.1219 21.0749 17.1276 22.9399 16.7266 24.9688C16.3257 26.9974 16.5357 29.0995 17.3301 31.0088C18.1245 32.9181 19.4678 34.5487 21.1895 35.6943C22.8036 36.7684 24.6826 37.3713 26.6152 37.4385L27.002 37.4443H27.0039C29.7688 37.4347 32.4177 36.3308 34.3711 34.374C36.2024 32.5394 37.2833 30.0952 37.415 27.5186L37.4287 27.002V27.001C37.4299 24.9329 36.8175 22.9102 35.6689 21.1904C34.5203 19.4706 32.8864 18.131 30.9756 17.3398Z" fill="#3E3D3B" stroke="white" stroke-width="2"/>
</svg>
