<svg width="55" height="61" viewBox="0 0 55 61" fill="none" xmlns="http://www.w3.org/2000/svg">
<path d="M1.74467 5.08478C1.81111 5.06904 1.90028 5.078 2.01218 5.11166C2.29281 5.19515 2.87942 5.37196 3.77201 5.6421C6.4642 6.4571 9.13082 6.8151 11.8328 6.63479C13.1757 6.54562 14.723 6.31941 16.0986 5.93846C17.9031 5.43884 19.5717 4.84808 21.1853 3.99767C22.6881 3.20628 23.8854 2.37292 25.3757 1.32712C25.8526 0.992292 26.243 0.667516 26.5468 0.352793C26.8346 0.0544621 27.3834 -0.170434 27.725 0.173139C28.2522 0.704233 28.8043 1.11468 29.5471 1.63922C29.7985 1.81713 30.4388 2.23916 31.4683 2.90532C32.2236 3.39446 32.8795 3.78393 33.4359 4.07373C34.5781 4.66843 35.6823 5.1628 36.8782 5.52342C37.9699 5.85323 39.017 6.14434 40.1585 6.35547C42.4822 6.78516 44.7878 6.84001 47.0752 6.52004C48.8527 6.27154 50.6329 5.90502 52.3862 5.28738C52.8766 5.11494 53.3939 5.56473 53.5513 6.00141C53.5832 6.09014 53.6308 6.36094 53.6942 6.81379C53.9176 8.40751 54.0684 9.65394 54.1466 10.5531C54.3162 12.4917 54.3624 14.4637 54.285 16.4692C54.1296 20.4655 53.5434 24.6041 52.512 28.3677C52.0391 30.093 51.5034 31.6928 50.905 33.1672C50.8206 33.3753 50.5046 34.1389 49.9569 35.4581C49.0626 37.6114 47.9374 39.7449 46.7415 41.626C46.109 42.6205 45.125 44.0201 43.7896 45.825C43.4172 46.3281 43.0201 46.8354 42.5983 47.3468C41.6167 48.5368 40.9742 49.3164 40.0576 50.2508C39.6637 50.6525 38.7696 51.5407 37.3752 52.9154C36.9346 53.3501 36.3301 53.8878 35.9268 54.27C35.6742 54.5096 35.3212 54.8204 34.8679 55.2024C33.7585 56.1367 32.6517 56.993 31.4663 57.9365C30.7457 58.5096 29.8514 59.1148 28.9354 59.7973C28.6967 59.9748 28.3604 60.2154 27.9263 60.5192C27.671 60.698 27.4805 60.7981 27.3546 60.8195C26.8582 60.9035 26.4956 60.691 26.0931 60.3835C24.8689 59.4485 23.4658 58.4683 22.1872 57.4041C21.1338 56.5273 19.8921 55.4749 18.4623 54.2471C17.01 53 15.7118 51.6447 14.1716 50.0075C12.8059 48.5552 11.5273 47.0045 10.3418 45.4421C9.59088 44.4533 8.94242 43.5386 8.39646 42.6981C7.48289 41.2927 6.60342 39.809 5.75804 38.2467C5.57095 37.901 5.39808 37.5556 5.2394 37.2108C4.58635 35.7893 3.95691 34.3254 3.35107 32.8191C3.17578 32.3837 2.96728 31.806 2.72556 31.0861C1.64894 27.8845 0.851645 24.61 0.424802 21.255C0.30547 20.3169 0.196847 19.2353 0.0989331 18.01C-0.00378888 16.7214 -0.0265189 15.2449 0.0307431 13.5803C0.118166 11.056 0.392018 8.55066 0.8523 6.06435C0.951525 5.52845 1.24898 5.20193 1.74467 5.08478ZM27.2188 1.22877C27.0405 1.41236 26.8337 1.59595 26.5986 1.77954C25.8166 2.38931 24.9034 3.03253 23.8592 3.70918C23.1331 4.17908 22.4746 4.56374 21.8836 4.86316C21.0085 5.30552 20.3159 5.62483 19.8058 5.8211C18.0185 6.50759 16.3327 7.07278 14.4909 7.38094C13.5892 7.53175 12.8441 7.63644 12.2557 7.69501C9.7583 7.94285 7.2969 7.65895 4.82174 7.09704C3.86118 6.87935 2.98717 6.55152 1.95186 6.23745C1.9454 6.2354 1.93849 6.23522 1.93193 6.23692C1.92537 6.23863 1.91942 6.24214 1.91476 6.24707C1.91011 6.252 1.90694 6.25814 1.90561 6.26479C1.90429 6.27144 1.90487 6.27832 1.90728 6.28466C1.93176 6.34848 1.93656 6.41732 1.9217 6.4912C1.68828 7.65239 1.50994 8.71786 1.39389 9.85938C1.13686 12.3824 1.05272 14.7935 1.14145 17.0928C1.26253 20.2326 1.71888 23.404 2.5105 26.6072C2.70283 27.3866 2.9581 28.2724 3.27632 29.2647C3.72742 30.6704 4.0192 31.5453 4.15164 31.8893C4.58919 33.0284 4.89452 33.8047 5.06762 34.2183C6.18663 36.8921 7.51939 39.4086 9.0659 41.7677C10.7248 44.2986 12.6367 46.7691 14.7703 49.0528C16.5108 50.9158 18.2536 52.604 19.9986 54.1173C20.7443 54.7642 22.3092 56.0388 24.6932 57.9411C25.0951 58.2611 25.7377 58.7188 26.158 59.0407C26.4622 59.2741 26.7566 59.4739 27.0412 59.64C27.0594 59.6502 27.0739 59.6661 27.0825 59.6852L27.1021 59.7285C27.1047 59.7339 27.1084 59.7387 27.113 59.7426C27.1176 59.7464 27.123 59.7492 27.1288 59.7507C27.1346 59.7522 27.1406 59.7524 27.1464 59.7513C27.1522 59.7502 27.1577 59.7478 27.1625 59.7442C28.8834 58.4596 30.1635 57.5003 31.0027 56.8665C31.6112 56.4071 32.455 55.7333 33.5343 54.845C35.8573 52.9338 38.0151 50.8579 40.0044 48.7132C41.0699 47.5638 42.1728 46.1921 43.0645 45.0139C45.0765 42.3554 46.8213 39.5259 48.2987 36.5256C48.6549 35.803 48.99 35.0462 49.3038 34.255C50.1099 32.225 50.8099 30.2423 51.404 28.3067C51.6037 27.6554 51.7858 26.9523 51.9501 26.1974C52.4648 23.8363 52.8609 21.4622 53.0379 19.0755C53.1738 17.2427 53.2283 15.3852 53.2012 13.503C53.1671 11.1001 52.9415 8.74649 52.5245 6.44202C52.5238 6.4382 52.5222 6.43459 52.52 6.43141C52.5177 6.42823 52.5149 6.42556 52.5115 6.42358C52.5082 6.4216 52.5044 6.42035 52.5006 6.41991C52.4967 6.41947 52.4928 6.41986 52.4891 6.42104C51.5078 6.7445 50.8001 6.95563 50.366 7.05442C48.2213 7.54289 46.0865 7.84975 43.8434 7.83073C43.0286 7.82418 42.0689 7.73785 40.9644 7.57174C39.125 7.29549 37.3053 6.82821 35.5052 6.16992C35.0441 6.00163 34.6091 5.82132 34.2004 5.62899C33.2956 5.20411 32.6485 4.89398 31.7902 4.37272C30.7337 3.73191 29.736 3.09328 28.797 2.45685C28.2909 2.11371 27.8207 1.76205 27.3867 1.40187C27.3231 1.34941 27.308 1.28713 27.2746 1.23467C27.2717 1.23017 27.2678 1.22637 27.2632 1.22356C27.2586 1.22075 27.2535 1.219 27.2481 1.21843C27.2428 1.21787 27.2374 1.2185 27.2323 1.22029C27.2272 1.22208 27.2226 1.22498 27.2188 1.22877Z" fill="#EEEDEE"/>
<path d="M27.2742 1.23458C27.3077 1.28703 27.3227 1.34932 27.3863 1.40178C27.8204 1.76196 28.2905 2.11362 28.7967 2.45675C29.7356 3.09319 30.7333 3.73182 31.7898 4.37263C32.6481 4.89389 33.2953 5.20402 34.2001 5.62889C34.6088 5.82122 35.0437 6.00153 35.5049 6.16982C37.3049 6.82812 39.1246 7.29539 40.964 7.57165C42.0686 7.73775 43.0283 7.82408 43.8431 7.83064C46.0861 7.84966 48.221 7.5428 50.3657 7.05433C50.7997 6.95554 51.5074 6.74441 52.4887 6.42095C52.4924 6.41976 52.4964 6.41938 52.5002 6.41982C52.5041 6.42026 52.5078 6.42151 52.5112 6.42349C52.5145 6.42547 52.5174 6.42814 52.5196 6.43132C52.5219 6.43449 52.5234 6.43811 52.5241 6.44193C52.9412 8.7464 53.1667 11.1 53.2008 13.5029C53.2279 15.3851 53.1735 17.2426 53.0375 19.0754C52.8605 21.4621 52.4645 23.8363 51.9498 26.1973C51.7854 26.9522 51.6034 27.6553 51.4036 28.3066C50.8096 30.2422 50.1095 32.2249 49.3035 34.2549C48.9896 35.0461 48.6546 35.8029 48.2983 36.5255C46.8209 39.5258 45.0762 42.3553 43.0641 45.0138C42.1724 46.1921 41.0696 47.5637 40.0041 48.7131C38.0148 50.8578 35.857 52.9337 33.5339 54.845C32.4547 55.7332 31.6108 56.407 31.0024 56.8664C30.1631 57.5002 28.883 58.4595 27.1621 59.7441C27.1573 59.7477 27.1519 59.7501 27.146 59.7512C27.1402 59.7523 27.1342 59.7521 27.1284 59.7506C27.1227 59.7491 27.1173 59.7463 27.1127 59.7425C27.1081 59.7386 27.1043 59.7338 27.1018 59.7284L27.0821 59.6851C27.0736 59.666 27.0591 59.6501 27.0408 59.6399C26.7562 59.4738 26.4618 59.274 26.1576 59.0406C25.7373 58.7187 25.0948 58.261 24.6928 57.941C22.3088 56.0387 20.7439 54.7641 19.9982 54.1172C18.2533 52.6039 16.5105 50.9157 14.7699 49.0527C12.6363 46.769 10.7244 44.2985 9.06555 41.7676C7.51903 39.4085 6.18627 36.892 5.06726 34.2182C4.89416 33.8047 4.58884 33.0283 4.15128 31.8892C4.01884 31.5452 3.72706 30.6703 3.27596 29.2646C2.95774 28.2723 2.70247 27.3865 2.51014 26.6071C1.71852 23.4039 1.26217 20.2325 1.14109 17.0927C1.05236 14.7934 1.1365 12.3823 1.39353 9.85929C1.50958 8.71777 1.68792 7.6523 1.92134 6.4911C1.9362 6.41723 1.9314 6.34839 1.90692 6.28457C1.90451 6.27823 1.90393 6.27134 1.90525 6.26469C1.90658 6.25805 1.90975 6.25191 1.9144 6.24698C1.91906 6.24205 1.92501 6.23853 1.93157 6.23683C1.93813 6.23513 1.94504 6.23531 1.9515 6.23736C2.98681 6.55142 3.86082 6.87926 4.82138 7.09694C7.29654 7.65885 9.75794 7.94276 12.2554 7.69492C12.8437 7.63634 13.5888 7.53165 14.4906 7.38085C16.3324 7.07268 18.0181 6.5075 19.8055 5.82101C20.3156 5.62474 21.0082 5.30543 21.8833 4.86307C22.4743 4.56365 23.1328 4.17898 23.8588 3.70909C24.9031 3.03243 25.8162 2.38922 26.5982 1.77944C26.8334 1.59585 27.0401 1.41227 27.2185 1.22868C27.2223 1.22488 27.2269 1.22199 27.232 1.2202C27.237 1.21841 27.2424 1.21777 27.2478 1.21834C27.2531 1.21891 27.2582 1.22066 27.2628 1.22347C27.2674 1.22628 27.2713 1.23007 27.2742 1.23458ZM50.6089 9.27968C50.6085 9.27636 50.6073 9.27317 50.6056 9.27033C50.6038 9.26749 50.6015 9.26506 50.5988 9.2632C50.596 9.26134 50.593 9.26009 50.5897 9.25954C50.5865 9.25899 50.5832 9.25915 50.5801 9.26001C49.4086 9.55987 48.2347 9.78717 47.0585 9.94191C45.1015 10.1998 43.1821 10.2131 41.3004 9.9819C40.2058 9.84727 38.9815 9.6132 37.6273 9.27968C36.2897 8.94966 35.0313 8.53002 33.8519 8.02079C31.7127 7.09629 29.7013 5.99847 27.8178 4.72734C27.5931 4.5761 27.394 4.42989 27.2204 4.2887C27.205 4.27621 27.1857 4.26935 27.1658 4.26923C27.1459 4.26911 27.1266 4.27574 27.111 4.28804C26.1305 5.06086 25.0921 5.75522 23.9959 6.37112C23.4665 6.66879 22.7363 7.04274 21.8053 7.49297C20.403 8.17137 19.0009 8.71361 17.5991 9.11969C14.6635 9.97032 11.7035 10.2643 8.71935 10.0016C7.12257 9.86082 5.59332 9.59811 4.13161 9.21345C3.95589 9.16712 3.80837 9.12385 3.68903 9.08363C3.68458 9.08212 3.67984 9.08164 3.67517 9.08224C3.67051 9.08285 3.66604 9.08451 3.66212 9.0871C3.65819 9.0897 3.65491 9.09316 3.65253 9.09721C3.65015 9.10127 3.64873 9.10582 3.64838 9.11051C3.55528 10.4442 3.45627 11.686 3.42873 13.0445C3.34393 17.2054 3.72313 21.3054 4.56632 25.3443C5.14244 28.1056 6.01492 30.8165 7.18377 33.4773C8.02499 35.3931 9.05374 37.4415 10.2058 39.3088C12.1216 42.4154 14.3122 45.2678 16.7776 47.866C18.1488 49.3115 19.4374 50.563 20.6434 51.6204C20.7745 51.7358 21.4886 52.3458 22.7855 53.4503C24.2942 54.7355 25.3177 55.4869 27.0814 56.85C27.0893 56.8559 27.0988 56.8591 27.1086 56.8593C27.1183 56.8594 27.1279 56.8564 27.1359 56.8507C27.4056 56.6526 28.2383 56.0595 29.634 55.0712C30.197 54.6725 30.8092 54.2033 31.4705 53.6634C33.0957 52.3364 34.6344 50.9459 36.0864 49.4921C36.9012 48.6764 37.8749 47.6396 39.0075 46.3815C40.7443 44.4519 42.2734 42.4619 43.6037 40.3041C44.1182 39.4697 44.5147 38.8015 44.7931 38.2997C45.4824 37.0566 46.1886 35.6541 46.9116 34.0923C47.5673 32.6765 48.1408 31.2003 48.6321 29.6639C49.6457 26.4926 50.3246 23.2486 50.6686 19.9317C50.9427 17.2907 51.062 14.6385 50.9046 11.9942C50.8609 11.2567 50.8034 10.65 50.7322 10.174C50.6819 9.83831 50.6408 9.5402 50.6089 9.27968Z" fill="#030303"/>
<path d="M50.6093 9.27974C50.6412 9.54026 50.6823 9.83837 50.7326 10.1741C50.8038 10.6501 50.8613 11.2568 50.905 11.9942C51.0624 14.6385 50.943 17.2907 50.669 19.9318C50.325 23.2486 49.6461 26.4927 48.6325 29.6639C48.1411 31.2004 47.5676 32.6765 46.912 34.0923C46.189 35.6541 45.4828 37.0566 44.7935 38.2998C44.515 38.8016 44.1186 39.4697 43.6041 40.3042C42.2737 42.462 40.7447 44.452 39.0078 46.3816C37.8753 47.6396 36.9016 48.6765 36.0868 49.4921C34.6347 50.946 33.0961 52.3364 31.4709 53.6635C30.8095 54.2033 30.1974 54.6726 29.6344 55.0712C28.2386 56.0595 27.4059 56.6527 27.1362 56.8507C27.1283 56.8564 27.1187 56.8594 27.1089 56.8593C27.0991 56.8592 27.0896 56.856 27.0818 56.8501C25.3181 55.4869 24.2946 54.7355 22.7859 53.4504C21.4889 52.3458 20.7749 51.7358 20.6438 51.6204C19.4378 50.563 18.1492 49.3116 16.7779 47.866C14.3126 45.2678 12.122 42.4154 10.2061 39.3089C9.05411 37.4415 8.02537 35.3932 7.18414 33.4773C6.01529 30.8166 5.14281 28.1056 4.56669 25.3444C3.7235 21.3054 3.3443 17.2055 3.4291 13.0446C3.45664 11.6861 3.55565 10.4442 3.64875 9.11057C3.6491 9.10588 3.65052 9.10133 3.6529 9.09727C3.65529 9.09322 3.65856 9.08976 3.66249 9.08716C3.66641 9.08457 3.67088 9.0829 3.67554 9.0823C3.68021 9.0817 3.68495 9.08218 3.68941 9.08369C3.80874 9.1239 3.95626 9.16718 4.13198 9.21351C5.5937 9.59817 7.12294 9.86088 8.71972 10.0016C11.7039 10.2643 14.6638 9.97038 17.5995 9.11975C19.0013 8.71367 20.4034 8.17143 21.8056 7.49303C22.7367 7.0428 23.4669 6.66885 23.9962 6.37118C25.0925 5.75528 26.1309 5.06092 27.1113 4.2881C27.127 4.2758 27.1463 4.26917 27.1662 4.26929C27.1861 4.26941 27.2053 4.27627 27.2208 4.28876C27.3944 4.42995 27.5935 4.57616 27.8181 4.7274C29.7017 5.99853 31.7131 7.09635 33.8523 8.02085C35.0316 8.53008 36.2901 8.94972 37.6276 9.27974C38.9818 9.61326 40.2062 9.84733 41.3007 9.98196C43.1825 10.2132 45.1019 10.1999 47.0588 9.94196C48.2351 9.78723 49.409 9.55993 50.5805 9.26007C50.5836 9.25921 50.5869 9.25905 50.5901 9.2596C50.5933 9.26015 50.5964 9.2614 50.5991 9.26326C50.6019 9.26512 50.6042 9.26755 50.6059 9.27039C50.6077 9.27323 50.6088 9.27642 50.6093 9.27974ZM27.1244 16.3826C25.984 16.3586 24.8462 16.3728 23.711 16.4253C23.709 16.4253 23.7069 16.425 23.705 16.4243C23.7031 16.4237 23.7014 16.4226 23.6999 16.4213C23.6984 16.4199 23.6973 16.4183 23.6965 16.4165C23.6957 16.4147 23.6953 16.4128 23.6953 16.4108C23.6922 15.7648 23.6937 15.1124 23.6999 14.4536C23.7007 14.3234 23.6625 14.1767 23.5851 14.0137C23.3845 13.5923 23.0842 13.3191 22.6842 13.1941C21.7912 12.9161 21.1945 13.5173 20.5428 14.0655C18.3135 15.9394 16.0683 17.8467 13.8071 19.7875C13.3638 20.1685 13.1324 20.5632 13.1475 21.1618C13.1606 21.71 13.3789 22.1598 13.8025 22.5112C17.1193 25.2641 19.2666 27.0428 20.2445 27.8471C20.6388 28.1714 20.9015 28.3856 21.0326 28.4896C21.6417 28.9748 22.4147 29.1689 23.0553 28.6391C23.433 28.327 23.6422 27.8044 23.6599 27.3219C23.6892 26.525 23.7034 25.6278 23.7025 24.6303C23.7025 24.6205 23.7063 24.6111 23.7132 24.6041C23.7201 24.5971 23.7294 24.5931 23.7392 24.593C24.9308 24.5694 25.8975 24.5573 26.6392 24.5569C26.8032 24.5569 26.9419 24.5637 27.0556 24.5772C27.3939 24.6172 27.7604 24.6428 28.0883 24.7051C29.3341 24.9407 30.4052 25.5249 31.3017 26.4577C32.1921 27.3835 32.5567 28.6424 32.5652 29.8941C32.5731 30.9969 32.3224 32.0335 31.8131 33.0039C30.9936 34.5664 29.517 35.5879 27.7736 35.9164C27.4282 35.982 26.9374 36.0102 26.3009 36.001C26.0198 35.9971 24.9432 35.9933 23.0711 35.9898C22.6348 35.989 22.3149 36.0209 22.1112 36.0856C21.4358 36.3013 20.8359 36.9707 20.8379 37.7307C20.8453 39.8603 20.8459 41.1052 20.8398 41.4654C20.8302 42.0633 20.8621 42.4646 20.9355 42.6692C21.1775 43.3393 21.7414 43.8461 22.4711 43.8514C24.224 43.864 25.7729 43.8538 27.1179 43.8205L27.1317 56.6914C27.1317 56.7018 27.1349 56.712 27.1407 56.7207C27.1466 56.7294 27.1548 56.7361 27.1645 56.7401C27.1741 56.7441 27.1848 56.7452 27.195 56.7431C27.2053 56.7411 27.2147 56.7361 27.2221 56.7288L27.3795 56.5714C27.3965 56.5548 27.4143 56.5388 27.4326 56.5235C27.5074 56.4706 28.2668 55.9299 29.7111 54.9014C30.0983 54.6256 30.455 54.3583 30.7811 54.0995C31.2274 53.745 31.5747 53.4653 31.823 53.2603C32.115 53.019 32.2885 52.8728 32.3436 52.8216C32.5066 52.6704 32.6782 52.5211 32.8583 52.3738C33.0572 52.2112 33.5334 51.7874 34.287 51.1024C34.4597 50.9455 34.5626 50.8518 34.5958 50.8212C35.036 50.4199 35.8755 49.5819 37.1143 48.3073C37.5413 47.868 38.3716 46.9553 39.6052 45.5692C40.0366 45.0845 40.333 44.7311 40.4942 44.509C40.5828 44.3877 40.687 44.29 40.7821 44.1635C41.057 43.7954 41.4096 43.3264 41.8397 42.7564C42.1317 42.3704 42.5764 41.729 43.174 40.832C43.2994 40.6436 43.4505 40.4001 43.627 40.1016C43.6493 40.064 43.7982 39.8188 44.0736 39.3659C44.4453 38.7548 44.8237 38.048 45.1869 37.4009C45.3154 37.1718 45.4638 36.8848 45.6321 36.54C45.8581 36.0766 46.128 35.5307 46.4419 34.9021C46.5271 34.7316 46.587 34.6062 46.6215 34.5257C46.7592 34.2018 46.929 33.9061 47.0523 33.5789C47.1775 33.2485 47.3375 32.9528 47.4811 32.5705C47.6275 32.1802 47.7532 31.8563 47.8581 31.5988C47.9892 31.2767 48.1097 30.951 48.2194 30.6219C48.6473 29.3367 48.9443 28.3814 49.1104 27.7559C49.4138 26.6142 49.6686 25.5452 49.875 24.549C49.9803 24.0402 50.073 23.5327 50.153 23.0266C50.3256 21.9329 50.4526 21.0211 50.5339 20.2911C50.6983 18.8154 50.8121 17.228 50.8755 15.5289C50.9454 13.6454 50.8545 11.7713 50.6027 9.90656C50.5796 9.73521 50.5523 9.57173 50.5208 9.41612C50.5193 9.40887 50.5164 9.40201 50.5122 9.39593C50.508 9.38985 50.5026 9.38469 50.4964 9.38077C50.4901 9.37684 50.4831 9.37423 50.4758 9.37309C50.4685 9.37196 50.4611 9.37232 50.4539 9.37415C49.1102 9.72472 47.7005 9.9789 46.2248 10.1367C45.7403 10.1878 45.0079 10.2219 44.5771 10.239C44.0705 10.2587 43.3182 10.2375 42.3203 10.1754C41.7472 10.1395 41.2548 10.0853 40.8431 10.0128C40.333 9.92229 39.8727 9.8823 39.4117 9.75575C39.2907 9.72297 39.1228 9.69062 38.9082 9.65871C38.7215 9.63161 38.4715 9.57894 38.1581 9.5007C37.7275 9.39404 37.201 9.25504 36.5786 9.08369C35.7192 8.84721 34.709 8.47697 33.5481 7.97298C32.8224 7.65826 32.1945 7.36299 31.6643 7.08717C30.8801 6.67934 30.0092 6.18868 29.0515 5.61518C28.4294 5.24276 27.8782 4.88127 27.3979 4.5307C27.3367 4.48612 27.2759 4.42733 27.2156 4.35433C27.2084 4.34553 27.199 4.33881 27.1884 4.33487C27.1777 4.33093 27.1662 4.32991 27.155 4.33191C27.1439 4.33392 27.1334 4.33888 27.1248 4.34628C27.1162 4.35368 27.1097 4.36325 27.1061 4.374L27.0903 4.41989C27.0834 4.4403 27.0799 4.46156 27.0799 4.48284L27.0943 16.2436C27.0943 16.2581 27.0986 16.2722 27.1065 16.2843C27.1144 16.2964 27.1256 16.306 27.1389 16.3118L27.1677 16.3243C27.1726 16.3263 27.1767 16.3297 27.1794 16.3342C27.1822 16.3386 27.1835 16.3438 27.1831 16.3491C27.1828 16.3543 27.1808 16.3593 27.1774 16.3633C27.1741 16.3673 27.1695 16.3702 27.1644 16.3715L27.1244 16.3826ZM27.1716 35.9184C28.059 35.8178 28.9166 35.5311 29.7445 35.0581C30.6277 34.5546 31.3319 33.752 31.7646 32.8918C32.0492 32.326 32.3049 31.6808 32.3967 30.9995C32.4933 30.2796 32.4872 29.5708 32.3783 28.8732C32.2455 28.0221 31.9146 27.3195 31.3857 26.7652C31.1575 26.5265 30.7936 26.1233 30.4421 25.8525C29.8193 25.3726 29.1072 25.0432 28.306 24.8644C27.8706 24.7669 27.5025 24.6952 27.2018 24.6493C27.192 24.6478 27.1819 24.6485 27.1724 24.6512C27.1628 24.6539 27.154 24.6587 27.1464 24.6652C27.1389 24.6717 27.1329 24.6797 27.1287 24.6887C27.1246 24.6978 27.1224 24.7076 27.1225 24.7175V35.8751C27.1225 35.8813 27.1239 35.8874 27.1264 35.893C27.129 35.8986 27.1327 35.9037 27.1374 35.9077C27.142 35.9118 27.1475 35.9149 27.1534 35.9167C27.1593 35.9186 27.1655 35.9191 27.1716 35.9184Z" fill="#828282"/>
<path d="M27.1176 43.8206C28.6462 43.7519 30.1328 43.4497 31.5775 42.9138C34.865 41.6942 37.4425 39.1535 39.0004 36.0718C39.9013 34.2897 40.374 32.2598 40.4186 30.239C40.4597 28.3716 40.1508 26.5661 39.4921 24.8225C39.1883 24.019 38.7578 23.1981 38.2004 22.3598C35.7253 18.6375 31.5755 16.4751 27.1242 16.3827L27.1642 16.3715C27.1693 16.3702 27.1738 16.3674 27.1772 16.3633C27.1805 16.3593 27.1825 16.3543 27.1829 16.3491C27.1832 16.3439 27.1819 16.3386 27.1792 16.3342C27.1764 16.3297 27.1723 16.3263 27.1674 16.3243L27.1386 16.3118C27.1254 16.306 27.1141 16.2965 27.1062 16.2844C27.0983 16.2723 27.0941 16.2581 27.094 16.2437L27.0796 4.48286C27.0796 4.46158 27.0831 4.44032 27.0901 4.41992L27.1058 4.37402C27.1095 4.36327 27.1159 4.3537 27.1246 4.3463C27.1332 4.3389 27.1436 4.33394 27.1548 4.33193C27.1659 4.32993 27.1775 4.33095 27.1881 4.33489C27.1987 4.33883 27.2081 4.34555 27.2153 4.35435C27.2756 4.42735 27.3364 4.48614 27.3976 4.53072C27.878 4.88129 28.4292 5.24278 29.0512 5.61521C30.0089 6.1887 30.8799 6.67936 31.6641 7.08719C32.1943 7.36301 32.8222 7.65828 33.5478 7.973C34.7088 8.47699 35.7189 8.84723 36.5783 9.08371C37.2008 9.25506 37.7273 9.39406 38.1578 9.50072C38.4712 9.57896 38.7213 9.63163 38.9079 9.65874C39.1225 9.69064 39.2904 9.72299 39.4115 9.75577C39.8724 9.88232 40.3327 9.92232 40.8428 10.0128C41.2546 10.0854 41.747 10.1396 42.32 10.1754C43.318 10.2375 44.0702 10.2587 44.5769 10.239C45.0076 10.222 45.74 10.1879 46.2246 10.1367C47.7003 9.97892 49.11 9.72474 50.4536 9.37417C50.4608 9.37234 50.4683 9.37198 50.4756 9.37311C50.4829 9.37425 50.4898 9.37686 50.4961 9.38079C50.5024 9.38471 50.5077 9.38987 50.5119 9.39595C50.5161 9.40203 50.5191 9.40889 50.5205 9.41614C50.552 9.57175 50.5793 9.73523 50.6025 9.90658C50.8543 11.7713 50.9452 13.6454 50.8752 15.529C50.8119 17.228 50.698 18.8154 50.5336 20.2911C50.4523 21.0211 50.3254 21.9329 50.1527 23.0266C50.0727 23.5328 49.98 24.0402 49.8747 24.549C49.6684 25.5452 49.4135 26.6142 49.1102 27.7559C48.9441 28.3815 48.647 29.3368 48.2191 30.6219C48.1094 30.951 47.989 31.2767 47.8578 31.5988C47.7529 31.8563 47.6273 32.1802 47.4808 32.5705C47.3372 32.9528 47.1773 33.2485 47.052 33.579C46.9288 33.9061 46.7589 34.2019 46.6212 34.5258C46.5867 34.6062 46.5268 34.7316 46.4416 34.9021C46.1277 35.5307 45.8578 36.0766 45.6318 36.54C45.4635 36.8849 45.3151 37.1718 45.1866 37.4009C44.8234 38.048 44.4451 38.7548 44.0733 39.3659C43.7979 39.8188 43.6491 40.064 43.6268 40.1016C43.4502 40.4001 43.2992 40.6436 43.1737 40.832C42.5762 41.729 42.1314 42.3704 41.8394 42.7564C41.4093 43.3264 41.0568 43.7954 40.7818 44.1635C40.6868 44.29 40.5825 44.3877 40.494 44.509C40.3327 44.7311 40.0363 45.0845 39.6049 45.5692C38.3714 46.9553 37.5411 47.868 37.114 48.3073C35.8752 49.582 35.0357 50.4199 34.5956 50.8212C34.5623 50.8518 34.4594 50.9455 34.2867 51.1025C33.5332 51.7874 33.0569 52.2112 32.858 52.3738C32.6779 52.5211 32.5064 52.6704 32.3433 52.8216C32.2882 52.8728 32.1147 53.019 31.8227 53.2603C31.5744 53.4653 31.2272 53.745 30.7809 54.0995C30.4548 54.3583 30.0981 54.6256 29.7108 54.9014C28.2666 55.93 27.5071 56.4707 27.4323 56.5236C27.414 56.5388 27.3963 56.5548 27.3792 56.5714L27.2219 56.7288C27.2144 56.7361 27.205 56.7411 27.1948 56.7432C27.1845 56.7452 27.1739 56.7441 27.1642 56.7401C27.1546 56.7361 27.1463 56.7294 27.1405 56.7207C27.1346 56.7121 27.1315 56.7019 27.1314 56.6914L27.1176 43.8206Z" fill="#676767"/>
<path d="M27.1246 16.3826C31.576 16.4751 35.7257 18.6375 38.2009 22.3597C38.7582 23.1981 39.1888 24.019 39.4926 24.8224C40.1513 26.5661 40.4601 28.3716 40.419 30.2389C40.3744 32.2597 39.9017 34.2897 39.0008 36.0718C37.4429 39.1534 34.8655 41.6942 31.578 42.9137C30.1333 43.4496 28.6467 43.7519 27.1181 43.8205C25.7731 43.8537 24.2242 43.864 22.4713 43.8513C21.7416 43.8461 21.1777 43.3393 20.9357 42.6692C20.8623 42.4646 20.8304 42.0633 20.84 41.4653C20.8461 41.1052 20.8455 39.8603 20.838 37.7306C20.8361 36.9707 21.436 36.3013 22.1114 36.0855C22.3151 36.0209 22.635 35.9889 23.0713 35.9898C24.9434 35.9933 26.02 35.997 26.3011 36.001C26.9375 36.0101 27.4284 35.982 27.7737 35.9164C29.5172 35.5879 30.9937 34.5664 31.8133 33.0039C32.3226 32.0335 32.5733 30.9969 32.5654 29.894C32.5569 28.6424 32.1923 27.3835 31.3019 26.4577C30.4054 25.5249 29.3342 24.9407 28.0885 24.705C27.7606 24.6428 27.3941 24.6172 27.0558 24.5772C26.9421 24.5636 26.8033 24.5569 26.6394 24.5569C25.8976 24.5573 24.931 24.5693 23.7394 24.5929C23.7296 24.5931 23.7203 24.5971 23.7134 24.6041C23.7065 24.6111 23.7027 24.6205 23.7027 24.6303C23.7035 25.6278 23.6893 26.525 23.6601 27.3218C23.6424 27.8044 23.4332 28.327 23.0555 28.6391C22.4149 29.1689 21.6419 28.9748 21.0328 28.4896C20.9016 28.3856 20.6389 28.1714 20.2447 27.847C19.2668 27.0427 17.1195 25.2641 13.8027 22.5112C13.3791 22.1597 13.1608 21.7099 13.1477 21.1618C13.1326 20.5632 13.364 20.1685 13.8073 19.7875C16.0685 17.8467 18.3137 15.9394 20.543 14.0655C21.1947 13.5173 21.7914 12.9161 22.6844 13.1941C23.0844 13.3191 23.3847 13.5923 23.5853 14.0137C23.6627 14.1767 23.7009 14.3234 23.7001 14.4536C23.6939 15.1123 23.6924 15.7647 23.6955 16.4108C23.6955 16.4127 23.6959 16.4147 23.6967 16.4165C23.6975 16.4183 23.6986 16.4199 23.7001 16.4212C23.7016 16.4226 23.7033 16.4236 23.7052 16.4243C23.7071 16.425 23.7092 16.4253 23.7112 16.4252C24.8464 16.3728 25.9842 16.3586 27.1246 16.3826ZM22.2641 23.0403C22.4499 23.0381 23.716 23.0318 26.0624 23.0213C26.5922 23.0191 27.0945 23.0353 27.5692 23.0698C30.1473 23.258 32.5424 24.787 33.5745 27.1973C34.1088 28.4463 34.2072 29.8252 34.0466 31.1739C33.6872 34.2044 31.5163 36.536 28.6012 37.3156C28.394 37.3711 28.1499 37.4168 27.8688 37.4526C27.4658 37.5038 27.2184 37.5296 27.1266 37.53C25.9075 37.5357 24.4228 37.5374 22.6726 37.5352C22.3815 37.5352 22.3264 37.7523 22.333 38.0139C22.3439 38.4379 22.3579 39.6732 22.3749 41.7197C22.3776 42.0627 22.3251 42.3184 22.7336 42.3184C24.0135 42.3188 25.0844 42.3171 25.9464 42.3131C26.6012 42.3101 27.1963 42.2847 27.7318 42.2371C30.3693 42.0032 32.6626 41.0284 34.6117 39.3128C37.1492 37.0782 38.7418 33.9579 38.85 30.5674C38.8953 29.1459 38.7917 27.807 38.4212 26.4688C37.8884 24.5429 36.9206 22.8768 35.5179 21.4706C33.5753 19.5228 31.2252 18.3721 28.4674 18.0185C27.5394 17.8996 26.6213 17.8563 25.713 17.8887C24.3951 17.9365 23.4896 17.9234 22.2845 17.9759C22.2803 17.9761 22.2761 17.9754 22.2722 17.9739C22.2682 17.9725 22.2646 17.9702 22.2616 17.9674C22.2585 17.9645 22.2561 17.9611 22.2544 17.9572C22.2527 17.9534 22.2518 17.9493 22.2517 17.9451L22.1605 14.9165C22.1598 14.8966 22.1536 14.8773 22.1424 14.8608C22.1313 14.8443 22.1157 14.8312 22.0975 14.8232C22.0793 14.8152 22.0593 14.8125 22.0397 14.8154C22.0201 14.8184 22.0018 14.8268 21.9868 14.8398C19.66 16.8431 17.2576 18.8923 14.7796 20.9874C14.6935 21.06 14.6815 21.1544 14.7436 21.2706C14.7453 21.2737 14.7475 21.2763 14.7501 21.2785C17.1844 23.3058 19.5571 25.267 21.8681 27.1619C21.9566 27.2346 21.9894 27.2405 22.0923 27.2255C22.1101 27.2231 22.1264 27.2145 22.1383 27.2011C22.1502 27.1878 22.1569 27.1706 22.1573 27.1527L22.2523 23.0521C22.2525 23.0489 22.2538 23.0459 22.256 23.0437C22.2582 23.0415 22.2611 23.0403 22.2641 23.0403Z" fill="#030303"/>
<path d="M22.2641 23.0404C22.2611 23.0404 22.2582 23.0416 22.256 23.0438C22.2538 23.046 22.2525 23.049 22.2523 23.0522L22.1573 27.1527C22.157 27.1706 22.1502 27.1878 22.1383 27.2012C22.1264 27.2145 22.1101 27.2232 22.0924 27.2255C21.9894 27.2406 21.9566 27.2347 21.8681 27.1619C19.5571 25.267 17.1844 23.3059 14.7501 21.2786C14.7475 21.2764 14.7453 21.2737 14.7436 21.2707C14.6815 21.1544 14.6935 21.06 14.7797 20.9874C17.2577 18.8924 19.66 16.8432 21.9868 14.8399C22.0018 14.8269 22.0201 14.8184 22.0397 14.8155C22.0593 14.8125 22.0793 14.8152 22.0975 14.8233C22.1157 14.8313 22.1313 14.8443 22.1424 14.8608C22.1536 14.8773 22.1599 14.8967 22.1606 14.9166L22.2517 17.9451C22.2518 17.9493 22.2527 17.9534 22.2544 17.9573C22.2561 17.9611 22.2585 17.9646 22.2616 17.9674C22.2647 17.9703 22.2682 17.9725 22.2722 17.974C22.2761 17.9755 22.2803 17.9761 22.2845 17.9759C23.4896 17.9235 24.3951 17.9366 25.713 17.8887C26.6213 17.8564 27.5395 17.8997 28.4675 18.0186C31.2252 18.3722 33.5754 19.5229 35.5179 21.4707C36.9206 22.8769 37.8884 24.5429 38.4212 26.4689C38.7917 27.8071 38.8953 29.146 38.85 30.5675C38.7418 33.958 37.1492 37.0783 34.6118 39.3128C32.6627 41.0285 30.3693 42.0033 27.7318 42.2371C27.1963 42.2848 26.6012 42.3101 25.9464 42.3132C25.0844 42.3171 24.0135 42.3189 22.7336 42.3184C22.3251 42.3184 22.3776 42.0627 22.375 41.7198C22.3579 39.6732 22.3439 38.4379 22.333 38.0139C22.3264 37.7523 22.3815 37.5353 22.6726 37.5353C24.4228 37.5375 25.9075 37.5357 27.1266 37.5301C27.2184 37.5296 27.4658 37.5038 27.8688 37.4527C28.1499 37.4168 28.394 37.3712 28.6012 37.3157C31.5163 36.5361 33.6873 34.2045 34.0466 31.174C34.2072 29.8253 34.1089 28.4464 33.5745 27.1973C32.5425 24.7871 30.1473 23.258 27.5692 23.0699C27.0945 23.0353 26.5922 23.0192 26.0625 23.0213C23.716 23.0318 22.4499 23.0382 22.2641 23.0404Z" fill="#EEEDEE"/>
<path d="M27.1722 35.9183C27.1661 35.919 27.1599 35.9185 27.154 35.9166C27.148 35.9148 27.1426 35.9117 27.138 35.9076C27.1333 35.9036 27.1296 35.8985 27.127 35.8929C27.1244 35.8873 27.1231 35.8812 27.123 35.875V24.7174C27.123 24.7075 27.1252 24.6977 27.1293 24.6886C27.1334 24.6796 27.1395 24.6716 27.147 24.6651C27.1546 24.6586 27.1634 24.6538 27.173 24.6511C27.1825 24.6484 27.1926 24.6477 27.2024 24.6492C27.5031 24.6951 27.8712 24.7668 28.3065 24.8643C29.1078 25.0431 29.8198 25.3724 30.4427 25.8524C30.7942 26.1232 31.1581 26.5264 31.3862 26.7651C31.9151 27.3194 32.246 28.022 32.3789 28.8731C32.4878 29.5707 32.4939 30.2795 32.3973 30.9994C32.3055 31.6807 32.0498 32.3258 31.7652 32.8917C31.3325 33.7519 30.6283 34.5545 29.7451 35.058C28.9172 35.531 28.0596 35.8177 27.1722 35.9183Z" fill="#676767"/>
</svg>
