<svg width="57" height="56" viewBox="0 0 57 56" fill="none" xmlns="http://www.w3.org/2000/svg">
<path d="M48.5179 53.9766C48.5187 53.9795 48.5186 53.9826 48.5176 53.9855C48.5167 53.9884 48.5149 53.991 48.5125 53.9929C48.5101 53.9948 48.5072 53.996 48.5042 53.9963C48.5012 53.9965 48.4981 53.996 48.4954 53.9945L34.2817 46.5778C34.2659 46.5695 34.2476 46.5673 34.2304 46.5717C34.2132 46.5762 34.1984 46.5869 34.1889 46.6018L28.4014 55.5535C28.3983 55.5584 28.3941 55.5624 28.389 55.5652C28.384 55.5681 28.3784 55.5696 28.3726 55.5698C28.3668 55.5699 28.3611 55.5687 28.356 55.5661C28.3508 55.5635 28.3464 55.5597 28.343 55.555L22.233 46.9812C22.2237 46.9682 22.21 46.959 22.1943 46.9553C22.1786 46.9515 22.1621 46.9536 22.1477 46.961L8.38223 54.252C8.37982 54.2534 8.37704 54.2541 8.37425 54.2539C8.37146 54.2537 8.36878 54.2528 8.36655 54.2511C8.36431 54.2494 8.36262 54.2471 8.36168 54.2445C8.36075 54.2418 8.36061 54.239 8.36128 54.2363C9.06977 50.8385 9.5717 48.4459 9.86708 47.0583C10.3875 44.6115 10.9044 42.2697 11.4178 40.033C11.425 40.0016 11.4197 39.9685 11.4029 39.941C11.3861 39.9134 11.3592 39.8935 11.328 39.8856L1.48191 37.3971C1.4761 37.3956 1.4708 37.3926 1.46655 37.3884C1.4623 37.3841 1.45926 37.3789 1.45773 37.3731C1.4562 37.3673 1.45625 37.3612 1.45787 37.3554C1.45949 37.3496 1.46262 37.3444 1.46694 37.3402C1.83266 36.9905 2.15348 36.6899 2.42939 36.4384C4.31389 34.723 5.98533 33.1402 7.44373 31.6897C8.06117 31.0753 8.73623 30.4923 9.35666 29.8554C9.36038 29.8516 9.36324 29.847 9.36505 29.842C9.36686 29.837 9.36757 29.8316 9.36715 29.8263C9.36672 29.821 9.36516 29.8158 9.36258 29.8112C9.36 29.8065 9.35645 29.8024 9.35217 29.7993L0.0142812 22.9528C0.00899512 22.9489 0.00490782 22.9436 0.0024828 22.9375C5.77807e-05 22.9314 -0.000607727 22.9247 0.000560847 22.9183C0.00172942 22.9118 0.00468571 22.9058 0.00909487 22.9009C0.013504 22.8961 0.0191896 22.8925 0.0255074 22.8907L10.236 19.945C10.2402 19.9439 10.2439 19.9417 10.2469 19.9386C10.2498 19.9355 10.2518 19.9316 10.2527 19.9273C10.2535 19.923 10.2532 19.9186 10.2517 19.9145C10.2502 19.9103 10.2477 19.9066 10.2443 19.9038L8.82005 18.7221C8.81304 18.7161 8.80798 18.7081 8.8055 18.6993C8.80302 18.6904 8.80324 18.681 8.80613 18.6722C8.80902 18.6635 8.81445 18.6558 8.82173 18.6501C8.829 18.6445 8.8378 18.6411 8.847 18.6405C8.88791 18.638 8.93481 18.6323 8.9877 18.6233C10.2999 18.4008 11.5375 18.16 12.7005 17.9011C12.7108 17.8988 12.7204 17.8945 12.7289 17.8884C12.7374 17.8822 12.7446 17.8744 12.75 17.8654C12.7554 17.8563 12.7589 17.8463 12.7603 17.8358C12.7617 17.8254 12.761 17.8147 12.7582 17.8045L8.58879 2.65225C8.58776 2.64832 8.58788 2.64418 8.58915 2.64032C8.59042 2.63647 8.59279 2.63306 8.59596 2.63052C8.59913 2.62799 8.60297 2.62643 8.60702 2.62603C8.61106 2.62564 8.61513 2.62643 8.61873 2.6283L22.4538 10.4282C22.4666 10.4355 22.4814 10.4385 22.496 10.4366C22.5106 10.4347 22.5242 10.4281 22.5346 10.4177C22.6055 10.3484 22.6609 10.2803 22.7008 10.2134C24.1831 7.71423 25.8072 4.99177 27.5729 2.04604C28.0983 1.1694 28.5167 0.492344 28.828 0.0148591C28.8313 0.0101508 28.8356 0.00632738 28.8407 0.00373504C28.8458 0.00114269 28.8515 -0.000136976 28.8572 1.16098e-05C28.8629 0.000160196 28.8685 0.00173269 28.8735 0.00458638C28.8785 0.00744008 28.8826 0.0114849 28.8856 0.0163556L35.0458 10.3848C35.0647 10.4163 35.095 10.4392 35.1305 10.4487C35.166 10.4582 35.2038 10.4535 35.2359 10.4357L49.0275 2.6979C49.0328 2.69489 49.0388 2.69353 49.0448 2.69401C49.0509 2.69449 49.0566 2.69678 49.0613 2.70059C49.066 2.7044 49.0695 2.70954 49.0712 2.71534C49.0729 2.72114 49.0728 2.72732 49.0709 2.73308C48.8873 3.29339 48.7636 3.68755 48.6997 3.91556C47.888 6.82138 46.6117 11.4403 44.8709 17.7723C44.8672 17.7857 44.8663 17.7997 44.8682 17.8134C44.87 17.8271 44.8747 17.8404 44.8818 17.8523C44.8889 17.8643 44.8984 17.8747 44.9096 17.8829C44.9209 17.8912 44.9337 17.8971 44.9472 17.9003L56.9674 20.6859C56.9749 20.6875 56.9818 20.6912 56.9873 20.6965C56.9928 20.7019 56.9967 20.7087 56.9987 20.7161C57.0006 20.7236 57.0004 20.7315 56.9982 20.739C56.996 20.7465 56.9918 20.7532 56.9861 20.7585L47.8106 29.2402C47.8007 29.2495 47.7927 29.2607 47.7872 29.2731C47.7817 29.2856 47.7789 29.299 47.7788 29.3126C47.7787 29.3262 47.7815 29.3397 47.7868 29.3522C47.7922 29.3647 47.8 29.376 47.8099 29.3854C49.2573 30.7722 50.442 31.9682 51.8969 33.3332C52.9233 34.2962 54.0616 35.3811 55.3119 36.5881C55.3182 36.5941 55.3228 36.6016 55.3252 36.6099C55.3276 36.6182 55.3278 36.627 55.3258 36.6354C55.3237 36.6438 55.3195 36.6516 55.3135 36.6578C55.3075 36.6641 55.3 36.6687 55.2917 36.6711C54.0109 37.0299 52.6419 37.3998 51.1845 37.781C48.5725 38.4641 46.334 39.0436 44.469 39.5196C44.4628 39.5212 44.4569 39.5241 44.4518 39.528C44.4467 39.5319 44.4424 39.5369 44.4392 39.5425C44.436 39.5482 44.434 39.5544 44.4332 39.5609C44.4324 39.5673 44.4328 39.5739 44.4346 39.5802L48.5179 53.9766ZM49.1757 32.495C49.028 32.262 48.8387 32.0849 48.6077 31.9637L45.8708 29.3532C45.8633 29.3461 45.8588 29.3364 45.8583 29.3261C45.8577 29.3158 45.8611 29.3057 45.8678 29.2978C46.0244 29.1122 46.2108 28.9201 46.4268 28.7216C48.8008 26.5362 51.4262 24.1051 54.3031 21.4283C54.3074 21.4243 54.3106 21.4192 54.3123 21.4135C54.314 21.4078 54.3141 21.4018 54.3127 21.396C54.3112 21.3903 54.3082 21.385 54.304 21.3808C54.2999 21.3766 54.2946 21.3736 54.2889 21.3722L43.2828 18.7543C43.2764 18.7527 43.2704 18.7498 43.2652 18.746C43.2599 18.7421 43.2555 18.7372 43.2522 18.7316C43.2488 18.7261 43.2466 18.7199 43.2457 18.7135C43.2448 18.7071 43.2452 18.7006 43.2468 18.6944C43.6644 17.1836 44.0861 15.6306 44.5116 14.0355C45.3521 10.884 45.8461 9.18211 46.9327 5.34577C46.9348 5.33796 46.9345 5.32972 46.9319 5.32208C46.9293 5.31444 46.9245 5.30772 46.9182 5.30278C46.9118 5.29783 46.9041 5.29487 46.896 5.29427C46.888 5.29366 46.8799 5.29543 46.8729 5.29937L34.6701 12.2019C34.6491 12.2136 34.6244 12.2168 34.6011 12.2109C34.5779 12.2049 34.5578 12.1901 34.5451 12.1698L28.8041 2.92841C28.8023 2.92563 28.7999 2.92334 28.797 2.92175C28.7941 2.92016 28.7909 2.91932 28.7876 2.91932C28.7843 2.91932 28.7811 2.92016 28.7782 2.92175C28.7753 2.92334 28.7729 2.92563 28.7711 2.92841L23.1154 12.1892C23.1036 12.2087 23.0846 12.2229 23.0625 12.2286C23.0404 12.2343 23.017 12.2312 22.9972 12.2199L10.7899 5.27991C10.789 5.27951 10.7881 5.27934 10.7872 5.27941C10.7862 5.27949 10.7854 5.27981 10.7846 5.28034C10.7838 5.28087 10.7832 5.2816 10.7828 5.28244C10.7824 5.28329 10.7823 5.28422 10.7824 5.28515C10.8393 5.56855 10.8832 5.76688 10.9141 5.88013C12.1273 10.277 13.309 14.4352 14.4294 18.6323C14.4337 18.6486 14.4313 18.666 14.4228 18.6807C14.4142 18.6954 14.4002 18.7062 14.3837 18.7108L11.783 19.4263C11.7778 19.4277 11.773 19.4304 11.7693 19.4343C11.7655 19.4382 11.7629 19.443 11.7617 19.4483C11.7606 19.4536 11.7609 19.4591 11.7627 19.4642C11.7644 19.4693 11.7676 19.4738 11.7718 19.4772L12.8674 20.3865C12.8716 20.3898 12.8749 20.3942 12.8767 20.3992C12.8786 20.4043 12.879 20.4097 12.878 20.4149C12.877 20.4202 12.8746 20.4251 12.871 20.429C12.8674 20.433 12.8628 20.4359 12.8577 20.4374C9.50534 21.4383 7.32498 22.0874 6.31663 22.3848C5.06279 22.7545 4.17169 23.0297 3.64331 23.2103C3.49313 23.2617 3.37264 23.3103 3.28183 23.3562C3.27348 23.3605 3.26626 23.3666 3.26072 23.3742C3.25519 23.3818 3.25151 23.3905 3.24999 23.3998C3.24846 23.409 3.24912 23.4185 3.25192 23.4274C3.25472 23.4364 3.25958 23.4445 3.26612 23.4513C3.34345 23.5291 3.41829 23.596 3.49064 23.6518C5.1551 24.9346 6.46132 25.9255 7.4093 26.6245C8.56709 27.477 9.46817 28.2149 10.7038 29.0958C10.8669 29.2125 11.1244 29.4288 11.3355 29.5867C11.3399 29.5901 11.3435 29.5943 11.3462 29.5992C11.3488 29.6041 11.3504 29.6094 11.3507 29.6149C11.3511 29.6204 11.3502 29.6259 11.3482 29.631C11.3462 29.636 11.3432 29.6406 11.3392 29.6443L4.06841 36.7018C4.06218 36.7077 4.05766 36.7151 4.05533 36.7234C4.05299 36.7316 4.05293 36.7403 4.05515 36.7486C4.05736 36.757 4.06177 36.7646 4.06792 36.7707C4.07407 36.7768 4.08173 36.7812 4.09011 36.7834L12.9797 39.0301C12.9906 39.033 12.9999 39.04 13.0057 39.0496C13.0114 39.0593 13.0131 39.0709 13.0104 39.0818C12.7325 40.126 12.4783 41.189 12.2478 42.2707C11.8506 44.1333 11.1631 47.3432 10.1852 51.9005C10.1843 51.9047 10.1846 51.9091 10.1861 51.9132C10.1877 51.9173 10.1903 51.9208 10.1937 51.9235C10.1971 51.9261 10.2012 51.9277 10.2055 51.9282C10.2098 51.9286 10.2142 51.9279 10.2181 51.9259C10.611 51.7201 11.0204 51.533 11.4208 51.3197C13.7997 50.0539 15.4125 49.192 16.2592 48.734C19.662 46.8954 21.7618 45.7563 22.5586 45.3168C22.5727 45.3091 22.589 45.3067 22.6046 45.3102C22.6202 45.3136 22.6339 45.3226 22.6432 45.3355L28.1978 53.0463C28.2059 53.0574 28.2166 53.0664 28.2289 53.0725C28.2412 53.0786 28.2549 53.0816 28.2686 53.0813C28.2823 53.081 28.2958 53.0774 28.3079 53.0708C28.3199 53.0642 28.3302 53.0548 28.3378 53.0433L33.7211 44.9081C33.7304 44.894 33.7448 44.884 33.7614 44.8803C33.778 44.8765 33.7954 44.8792 33.8102 44.8879C34.3475 45.2127 34.9702 45.4979 35.5607 45.8249C36.9909 46.6152 38.3897 47.3158 39.7001 48.0185C42.135 49.3247 44.3747 50.5005 46.4193 51.5458C46.4235 51.5478 46.4282 51.5486 46.4328 51.5481C46.4374 51.5476 46.4417 51.5458 46.4453 51.543C46.4489 51.5401 46.4515 51.5363 46.4529 51.532C46.4542 51.5277 46.4543 51.5232 46.453 51.5188C46.2959 50.9321 46.096 50.3244 45.9426 49.7735C44.8604 45.8903 44.2153 43.5857 44.0072 42.8597C43.5577 41.2896 43.1523 39.93 42.7911 38.7809C42.7887 38.7731 42.7879 38.7649 42.7888 38.7568C42.7896 38.7486 42.7921 38.7408 42.7961 38.7336C42.8001 38.7265 42.8055 38.7203 42.812 38.7153C42.8184 38.7103 42.8258 38.7066 42.8337 38.7046L52.7771 36.1241C52.7875 36.1214 52.7971 36.116 52.8048 36.1083C52.8125 36.1007 52.818 36.0912 52.8207 36.0807C52.8235 36.0703 52.8234 36.0593 52.8204 36.0488C52.8175 36.0384 52.8118 36.029 52.804 36.0215L49.1757 32.495Z" fill="white"/>
<path d="M48.6075 31.9637L49.1756 32.4951L52.8038 36.0215C52.8117 36.029 52.8173 36.0385 52.8203 36.0489C52.8232 36.0593 52.8233 36.0703 52.8206 36.0807C52.8178 36.0912 52.8123 36.1007 52.8046 36.1084C52.797 36.116 52.7874 36.1214 52.7769 36.1241L42.8335 38.7046C42.8256 38.7067 42.8182 38.7103 42.8118 38.7153C42.8053 38.7203 42.7999 38.7265 42.796 38.7337C42.792 38.7408 42.7895 38.7487 42.7886 38.7568C42.7877 38.7649 42.7885 38.7731 42.7909 38.7809C43.1521 39.93 43.5575 41.2896 44.0071 42.8598C44.2151 43.5857 44.8602 45.8903 45.9424 49.7736C46.0959 50.3244 46.2957 50.9321 46.4529 51.5188C46.4541 51.5232 46.4541 51.5278 46.4527 51.5321C46.4513 51.5364 46.4487 51.5402 46.4451 51.543C46.4416 51.5459 46.4372 51.5476 46.4326 51.5481C46.428 51.5486 46.4233 51.5478 46.4192 51.5458C44.3745 50.5005 42.1348 49.3248 39.7 48.0185C38.3895 47.3158 36.9907 46.6153 35.5605 45.8249C34.97 45.4979 34.3474 45.2127 33.81 44.8879C33.7953 44.8793 33.7778 44.8765 33.7612 44.8803C33.7446 44.8841 33.7302 44.894 33.7209 44.9081L28.3376 53.0434C28.33 53.0548 28.3197 53.0642 28.3077 53.0708C28.2956 53.0775 28.2822 53.0811 28.2684 53.0814C28.2547 53.0817 28.2411 53.0786 28.2288 53.0725C28.2164 53.0664 28.2058 53.0574 28.1977 53.0463L22.643 45.3355C22.6337 45.3226 22.62 45.3136 22.6044 45.3102C22.5889 45.3068 22.5725 45.3091 22.5584 45.3168C21.7616 45.7564 19.6618 46.8954 16.2591 48.734C15.4124 49.192 13.7996 50.054 11.4206 51.3198C11.0202 51.5331 10.6108 51.7202 10.2179 51.926C10.214 51.9279 10.2097 51.9287 10.2054 51.9282C10.2011 51.9278 10.197 51.9261 10.1935 51.9235C10.1901 51.9208 10.1875 51.9173 10.186 51.9132C10.1845 51.9092 10.1841 51.9048 10.185 51.9005C11.1629 47.3432 11.8504 44.1333 12.2476 42.2708C12.4781 41.1891 12.7323 40.1261 13.0102 39.0818C13.013 39.0709 13.0113 39.0593 13.0055 39.0497C12.9998 39.04 12.9904 39.033 12.9795 39.0302L4.08995 36.7834C4.08157 36.7812 4.07391 36.7768 4.06776 36.7707C4.06161 36.7646 4.0572 36.757 4.05499 36.7487C4.05277 36.7403 4.05283 36.7316 4.05516 36.7234C4.0575 36.7151 4.06201 36.7077 4.06825 36.7019L11.339 29.6444C11.343 29.6406 11.3461 29.6361 11.3481 29.631C11.3501 29.6259 11.3509 29.6204 11.3506 29.6149C11.3502 29.6095 11.3487 29.6041 11.346 29.5992C11.3434 29.5943 11.3397 29.5901 11.3353 29.5867C11.1242 29.4288 10.8668 29.2125 10.7036 29.0958C9.46801 28.2149 8.56693 27.477 7.40914 26.6245C6.46116 25.9255 5.15494 24.9346 3.49048 23.6519C3.41813 23.596 3.34329 23.5291 3.26595 23.4513C3.25942 23.4446 3.25456 23.4364 3.25176 23.4275C3.24896 23.4185 3.2483 23.409 3.24983 23.3998C3.25135 23.3905 3.25503 23.3818 3.26056 23.3742C3.26609 23.3667 3.27332 23.3605 3.28167 23.3562C3.37248 23.3103 3.49297 23.2617 3.64315 23.2103C4.17153 23.0297 5.06263 22.7545 6.31647 22.3848C7.32482 22.0874 9.50518 21.4383 12.8576 20.4374C12.8627 20.4359 12.8673 20.433 12.8709 20.429C12.8745 20.4251 12.8769 20.4202 12.8779 20.415C12.8789 20.4097 12.8784 20.4043 12.8766 20.3993C12.8747 20.3943 12.8715 20.3899 12.8673 20.3866L11.7716 19.4772C11.7674 19.4738 11.7643 19.4693 11.7625 19.4642C11.7607 19.4591 11.7604 19.4536 11.7616 19.4483C11.7627 19.4431 11.7653 19.4382 11.7691 19.4343C11.7728 19.4304 11.7776 19.4277 11.7828 19.4263L14.3836 18.7109C14.4 18.7063 14.4141 18.6954 14.4226 18.6807C14.4311 18.666 14.4335 18.6486 14.4292 18.6323C13.3088 14.4352 12.1271 10.2771 10.9139 5.88015C10.883 5.76689 10.8391 5.56857 10.7822 5.28517L10.7827 5.28246L10.7844 5.28036L10.787 5.27943L10.7897 5.27993L22.997 12.2199C23.0168 12.2312 23.0403 12.2343 23.0624 12.2286C23.0844 12.2229 23.1034 12.2087 23.1152 12.1892L28.771 2.92843C28.7727 2.92565 28.7751 2.92335 28.778 2.92177C28.7809 2.92018 28.7841 2.91934 28.7874 2.91934C28.7907 2.91934 28.7939 2.92018 28.7968 2.92177C28.7997 2.92335 28.8021 2.92565 28.8039 2.92843L34.5449 12.1698C34.5576 12.1902 34.5777 12.2049 34.601 12.2109C34.6243 12.2169 34.6489 12.2137 34.6699 12.202L46.8727 5.29939C46.8798 5.29545 46.8878 5.29368 46.8959 5.29429C46.9039 5.29489 46.9116 5.29785 46.918 5.3028C46.9244 5.30774 46.9292 5.31445 46.9317 5.3221C46.9343 5.32974 46.9346 5.33798 46.9326 5.34579C45.8459 9.18213 45.3519 10.884 44.5115 14.0356C44.0859 15.6307 43.6643 17.1836 43.2467 18.6944C43.245 18.7006 43.2446 18.7071 43.2455 18.7135C43.2465 18.7199 43.2486 18.7261 43.252 18.7317C43.2553 18.7372 43.2598 18.7421 43.265 18.746C43.2703 18.7499 43.2762 18.7527 43.2826 18.7543L54.2887 21.3722C54.2944 21.3737 54.2997 21.3766 54.3039 21.3808C54.3081 21.385 54.3111 21.3903 54.3125 21.396C54.314 21.4018 54.3138 21.4078 54.3122 21.4135C54.3105 21.4192 54.3073 21.4243 54.3029 21.4283C51.426 24.1051 48.8006 26.5362 46.4267 28.7216C46.2106 28.9202 46.0243 29.1122 45.8676 29.2978C45.8609 29.3057 45.8575 29.3158 45.8581 29.3261C45.8587 29.3364 45.8631 29.3461 45.8706 29.3532L48.6075 31.9637ZM13.481 8.57068L13.2639 8.43896C13.2604 8.43702 13.2564 8.43614 13.2524 8.43643C13.2483 8.43672 13.2445 8.43817 13.2414 8.44059C13.2382 8.443 13.2359 8.44628 13.2347 8.44999C13.2336 8.4537 13.2336 8.45768 13.2348 8.46141C13.4119 9.04218 13.5102 9.36749 13.5296 9.43734C14.2321 11.9714 14.9244 14.5036 15.6065 17.0337C15.8904 18.0859 16.1398 19.0437 16.3549 19.9068C16.3573 19.9163 16.3559 19.9264 16.3509 19.935C16.3458 19.9435 16.3376 19.9498 16.3279 19.9525C15.6908 20.1146 15.1275 20.2543 14.638 20.3716C14.6041 20.3801 14.5891 20.3963 14.5931 20.4202C14.5966 20.4402 14.6113 20.4629 14.6373 20.4883C14.6148 20.5737 14.6477 20.6555 14.7361 20.7338C15.0464 21.0072 15.2545 21.1958 15.3602 21.2996C15.3652 21.3046 15.3688 21.3107 15.3706 21.3175C15.3725 21.3243 15.3725 21.3314 15.3708 21.3382C15.3691 21.345 15.3656 21.3512 15.3607 21.3563C15.3558 21.3613 15.3497 21.365 15.343 21.367L6.54997 23.7866C6.52053 23.7947 6.49397 23.811 6.47331 23.8335C6.45265 23.856 6.43872 23.8838 6.43311 23.9138C6.42749 23.9438 6.43042 23.9748 6.44155 24.0033C6.45269 24.0317 6.47158 24.0565 6.49608 24.0747L13.7347 29.4378C13.74 29.4416 13.7444 29.4466 13.7475 29.4524C13.7506 29.4582 13.7524 29.4646 13.7527 29.4711C13.753 29.4777 13.7518 29.4842 13.7492 29.4902C13.7466 29.4963 13.7427 29.5016 13.7377 29.5059C13.6429 29.5882 13.5616 29.6626 13.4937 29.7289C12.5432 30.6575 11.6596 31.5109 10.8428 32.2892C10.2476 32.856 9.63591 33.4483 9.00774 34.066C8.34016 34.7226 7.72048 35.3061 7.1487 35.8165C7.13155 35.8317 7.11886 35.8513 7.112 35.8732C7.10514 35.8951 7.10435 35.9184 7.10974 35.9407C7.11512 35.963 7.12646 35.9834 7.14255 35.9998C7.15864 36.0161 7.17888 36.0278 7.20109 36.0335L14.7555 38.0026C14.7689 38.006 14.7804 38.0144 14.7877 38.0261C14.795 38.0379 14.7974 38.052 14.7944 38.0655C14.6951 38.5055 14.6003 38.9189 14.51 39.3056C14.1079 41.0229 13.7053 42.7313 13.3021 44.4307C13.2353 44.7141 13.1806 44.9568 13.1382 45.1589C13.0649 45.5106 13.013 45.7536 12.9825 45.8878C12.779 46.7889 12.5547 47.8337 12.3097 49.0221C12.3069 49.0357 12.3069 49.0496 12.3097 49.0632C12.3125 49.0767 12.318 49.0896 12.3259 49.101C12.3338 49.1124 12.3439 49.1221 12.3557 49.1295C12.3674 49.1369 12.3806 49.1419 12.3943 49.1441C12.4437 49.1521 12.5011 49.1381 12.5664 49.1022C13.715 48.4741 14.7603 47.9093 15.7023 47.4078C16.0415 47.2272 18.2194 46.0532 22.2359 43.8858C22.2513 43.8773 22.5018 43.7322 22.9873 43.4503C23.0093 43.4375 23.0353 43.4334 23.0603 43.4388C23.0852 43.4442 23.1072 43.4587 23.122 43.4794L28.0794 50.3611C28.0952 50.3831 28.1162 50.401 28.1405 50.4131C28.1647 50.4253 28.1916 50.4313 28.2187 50.4307C28.2458 50.4301 28.2724 50.4229 28.2961 50.4097C28.3199 50.3966 28.34 50.3778 28.3548 50.3551L32.3626 44.2308C32.3654 44.2257 32.371 44.2147 32.3785 44.1992C32.3861 44.1836 32.3954 44.1642 32.4052 44.1433C32.4317 44.0869 32.4723 44.0175 32.5272 43.9352C32.7463 43.6074 32.9518 43.2933 33.1439 42.993C33.1584 42.9703 33.1812 42.9543 33.2074 42.9484C33.2336 42.9425 33.2611 42.9472 33.2839 42.9615C33.432 43.0558 33.5515 43.1267 33.6424 43.1741C35.0274 43.898 36.3119 44.5803 37.4959 45.221C37.686 45.3238 37.7983 45.3841 37.8327 45.4021C38.5102 45.7578 39.2402 46.15 40.0225 46.5786C40.0774 46.6085 41.23 47.2155 43.4802 48.3995C43.7102 48.5202 43.8915 48.5826 44.0243 48.5866C44.029 48.5866 44.0337 48.5856 44.038 48.5837C44.0423 48.5818 44.0462 48.579 44.0493 48.5754C44.0524 48.5718 44.0547 48.5677 44.0561 48.5631C44.0575 48.5586 44.0578 48.5538 44.0572 48.5492C44.0342 48.3675 44.0173 48.2565 44.0063 48.2161C43.5288 46.4758 43.0419 44.7585 42.5454 43.0641C42.4863 42.8642 42.4376 42.5948 42.3755 42.4062C42.3381 42.2915 41.917 40.8737 41.1122 38.153C41.0608 37.9794 41.0556 37.8275 41.0965 37.6972C41.1001 37.6856 41.1067 37.6751 41.1156 37.6667C41.1245 37.6583 41.1355 37.6523 41.1474 37.6493C42.5339 37.3016 44.2004 36.869 46.1468 36.3516C46.5574 36.2423 47.1456 36.0902 47.9115 35.8951C48.5087 35.7434 49.096 35.5875 49.6733 35.4273C49.7022 35.4193 49.7162 35.4074 49.7152 35.3914C49.7137 35.3769 49.7019 35.3607 49.68 35.3427C49.7209 35.3288 49.7299 35.3103 49.7069 35.2874C48.9016 34.4821 48.0951 33.6982 47.2873 32.9359C46.0041 31.7249 44.7293 30.5035 43.463 29.2717C43.4585 29.2672 43.455 29.2619 43.4526 29.2561C43.4502 29.2502 43.4491 29.244 43.4492 29.2377C43.4494 29.2314 43.4508 29.2251 43.4534 29.2194C43.456 29.2137 43.4598 29.2085 43.4645 29.2043L45.0092 27.7921L45.0159 27.822C45.0175 27.8289 45.0208 27.8352 45.0255 27.8405C45.0302 27.8457 45.0362 27.8497 45.0429 27.8519C45.0496 27.8542 45.0568 27.8547 45.0637 27.8534C45.0706 27.852 45.0771 27.849 45.0825 27.8444C45.7037 27.3116 46.2208 26.7869 46.8877 26.1875C47.4395 25.6915 47.7561 25.4011 47.8374 25.3163C48.0255 25.1212 48.3451 24.8356 48.7961 24.4594C49.0875 24.2169 49.4175 23.9066 49.7863 23.5284C50.263 23.0382 50.5601 22.7747 51.0825 22.289C51.0977 22.2749 51.1088 22.257 51.1146 22.2371C51.1204 22.2172 51.1207 22.1962 51.1155 22.1761C51.1103 22.1561 51.0997 22.1378 51.085 22.1233C51.0702 22.1088 51.0518 22.0985 51.0316 22.0937C48.6207 21.5064 46.2116 20.9371 43.8042 20.3858C42.9563 20.192 42.4219 20.0999 41.5373 19.9166C41.5274 19.9145 41.518 19.9105 41.5097 19.9048C41.5014 19.8991 41.4943 19.8917 41.4888 19.8832C41.4834 19.8747 41.4797 19.8652 41.478 19.8552C41.4763 19.8453 41.4766 19.8351 41.4789 19.8252C41.7573 18.6637 41.9811 17.8697 42.2827 16.6602C42.3366 16.4447 42.3885 16.2576 42.4384 16.0989C42.597 15.6005 42.6711 15.1507 42.8163 14.6964C42.8353 14.637 42.9643 14.1493 43.2033 13.2333C43.5513 11.9003 43.9951 10.4522 44.3251 9.22105C44.3887 8.98455 44.4142 8.7952 44.48 8.5834C44.4884 8.55646 44.4886 8.52768 44.4806 8.50062C44.4727 8.47357 44.457 8.44944 44.4354 8.43125C44.4139 8.41306 44.3875 8.40161 44.3595 8.39833C44.3315 8.39504 44.3031 8.40006 44.278 8.41277C44.0445 8.53002 43.5922 8.78572 42.9211 9.17989C42.5297 9.40965 41.9901 9.68207 41.6241 9.90584C41.4645 10.0036 41.3577 10.0625 41.3038 10.0825C41.2617 10.0983 41.2142 10.1215 41.1631 10.1513L34.1445 14.2421C34.135 14.2477 34.1236 14.2493 34.1128 14.2467C34.1021 14.244 34.0928 14.2373 34.0869 14.2279C33.4672 13.2295 33.0883 12.6136 32.9501 12.3801C32.165 11.0479 31.1187 9.48374 30.3748 8.20621C30.3708 8.19872 30.302 8.09669 30.1682 7.90011C30.0869 7.78036 30.0201 7.67259 29.9677 7.5768C29.8514 7.36425 29.5164 6.8456 28.9626 6.02085C28.9047 5.93504 28.8555 5.89612 28.8151 5.9041C28.7238 5.92356 28.6555 5.97745 28.6101 6.06576C28.5442 6.19399 28.4165 6.40753 28.2269 6.7064C27.8651 7.27369 27.6127 7.67758 27.4695 7.91807C27.437 7.97345 27.3749 8.07648 27.2831 8.22716C26.9538 8.77101 26.7261 9.15194 26.5998 9.36998C26.3509 9.80106 26.1228 10.1815 25.9158 10.5113C25.2352 11.5935 24.4761 12.8007 23.6384 14.1329C23.6291 14.1477 23.6167 14.1603 23.6021 14.17C23.5875 14.1797 23.5711 14.1861 23.5538 14.189C23.5366 14.1918 23.5189 14.1909 23.502 14.1864C23.4851 14.1819 23.4693 14.1739 23.4558 14.1628C23.3859 14.1059 23.3083 14.0528 23.223 14.0034C23.1447 13.9575 22.1353 13.3887 20.1949 12.297C20.1026 12.2451 20.0046 12.189 19.9008 12.1286C18.5726 11.3617 17.3448 10.6607 16.2172 10.0256C16.0804 9.94875 15.9435 9.87067 15.8063 9.79134C14.4562 9.01249 13.7005 8.57467 13.5394 8.47788C13.5149 8.46341 13.4872 8.45368 13.4563 8.44869C13.4494 8.44772 13.4423 8.44914 13.4363 8.45272C13.4303 8.45629 13.4257 8.4618 13.4233 8.46835C13.4208 8.47489 13.4207 8.48207 13.4229 8.4887C13.4251 8.49533 13.4295 8.50102 13.4353 8.50482C13.4553 8.51829 13.4705 8.54025 13.481 8.57068Z" fill="#021842"/>
<path d="M45.0092 27.792L51.0369 22.2239C51.042 22.2192 51.0456 22.2132 51.0473 22.2066C51.0491 22.1999 51.0489 22.1929 51.0467 22.1863C51.0446 22.1798 51.0406 22.174 51.0353 22.1696C51.03 22.1653 51.0235 22.1626 51.0167 22.1618C50.9224 22.1508 50.854 22.1403 50.8116 22.1303C49.0863 21.7182 47.117 21.2527 44.9037 20.7338C43.7062 20.4532 42.416 20.2099 41.3944 19.9757C41.3809 19.9725 41.3691 19.964 41.3617 19.9521C41.3543 19.9403 41.3518 19.9259 41.3547 19.9121C41.4261 19.5862 41.5249 19.1779 41.6511 18.6869C42.5223 15.2966 43.4425 11.9058 44.412 8.51454C44.415 8.50443 44.4149 8.49365 44.4116 8.48361C44.4084 8.47358 44.4022 8.46474 44.3939 8.45828C44.3856 8.45181 44.3755 8.448 44.365 8.44736C44.3544 8.44672 44.344 8.44926 44.3349 8.45467L34.1363 14.3424C34.1173 14.3535 34.0947 14.3568 34.0733 14.3514C34.0519 14.3461 34.0335 14.3327 34.0218 14.314L28.8638 6.01187C28.8582 6.00296 28.8505 5.99561 28.8413 5.99051C28.8322 5.98541 28.8219 5.98273 28.8114 5.98273C28.801 5.98273 28.7908 5.98541 28.7817 5.99051C28.7727 5.99561 28.7651 6.00296 28.7598 6.01187C26.4749 9.74717 25.3186 11.6661 23.6407 14.275C23.6304 14.2912 23.6143 14.3027 23.5956 14.3073C23.577 14.3119 23.5572 14.3092 23.5404 14.2997L13.481 8.57067C13.4705 8.54024 13.4553 8.51829 13.4354 8.50481C13.4295 8.50101 13.4251 8.49533 13.4229 8.4887C13.4207 8.48206 13.4209 8.47488 13.4233 8.46834C13.4258 8.4618 13.4304 8.45628 13.4364 8.45271C13.4424 8.44914 13.4494 8.44771 13.4563 8.44868C13.4873 8.45367 13.515 8.4634 13.5394 8.47787C13.7006 8.57467 14.4562 9.01248 15.8063 9.79133C15.9435 9.87066 16.0805 9.94874 16.2172 10.0256C17.3448 10.6607 18.5727 11.3617 19.9009 12.1286C20.0046 12.189 20.1027 12.2451 20.195 12.297C22.1354 13.3887 23.1447 13.9575 23.2231 14.0034C23.3084 14.0528 23.386 14.1059 23.4558 14.1628C23.4694 14.1738 23.4851 14.1819 23.502 14.1864C23.5189 14.1909 23.5366 14.1918 23.5539 14.189C23.5711 14.1861 23.5876 14.1797 23.6022 14.17C23.6167 14.1603 23.6291 14.1477 23.6384 14.1328C24.4761 12.8007 25.2353 11.5935 25.9158 10.5113C26.1229 10.1815 26.3509 9.80106 26.5999 9.36997C26.7261 9.15194 26.9539 8.771 27.2832 8.22716C27.375 8.07648 27.4371 7.97344 27.4695 7.91806C27.6127 7.67757 27.8652 7.27368 28.2269 6.70639C28.4165 6.40752 28.5442 6.19398 28.6101 6.06575C28.6555 5.97744 28.7239 5.92355 28.8152 5.9041C28.8556 5.89611 28.9047 5.93503 28.9626 6.02085C29.5164 6.84559 29.8515 7.36424 29.9677 7.57679C30.0201 7.67258 30.087 7.78035 30.1683 7.9001C30.302 8.09668 30.3708 8.19872 30.3748 8.2062C31.1188 9.48373 32.165 11.0479 32.9501 12.3801C33.0883 12.6136 33.4673 13.2295 34.087 14.2279C34.0928 14.2373 34.1021 14.244 34.1129 14.2467C34.1236 14.2493 34.135 14.2477 34.1446 14.2421L41.1631 10.1513C41.2142 10.1215 41.2617 10.0983 41.3039 10.0825C41.3577 10.0625 41.4645 10.0036 41.6242 9.90583C41.9901 9.68206 42.5297 9.40964 42.9212 9.17988C43.5922 8.78572 44.0445 8.53001 44.278 8.41276C44.3032 8.40005 44.3315 8.39503 44.3595 8.39832C44.3875 8.40161 44.414 8.41306 44.4355 8.43125C44.457 8.44943 44.4727 8.47356 44.4807 8.50061C44.4886 8.52767 44.4884 8.55646 44.4801 8.5834C44.4142 8.7952 44.3888 8.98454 44.3252 9.22104C43.9951 10.4522 43.5513 11.9003 43.2033 13.2333C42.9643 14.1493 42.8353 14.637 42.8164 14.6964C42.6712 15.1507 42.5971 15.6005 42.4384 16.0989C42.3885 16.2576 42.3367 16.4447 42.2828 16.6602C41.9812 17.8696 41.7574 18.6637 41.479 19.8252C41.4767 19.8351 41.4764 19.8453 41.4781 19.8552C41.4798 19.8652 41.4834 19.8747 41.4889 19.8832C41.4943 19.8917 41.5014 19.8991 41.5097 19.9048C41.5181 19.9105 41.5275 19.9145 41.5374 19.9165C42.422 20.0999 42.9563 20.192 43.8043 20.3858C46.2117 20.9371 48.6208 21.5064 51.0317 22.0937C51.0518 22.0985 51.0702 22.1088 51.085 22.1233C51.0998 22.1378 51.1103 22.1561 51.1156 22.1761C51.1208 22.1961 51.1205 22.2172 51.1147 22.2371C51.1089 22.257 51.0978 22.2749 51.0826 22.289C50.5602 22.7747 50.263 23.0382 49.7863 23.5284C49.4176 23.9066 49.0875 24.2169 48.7962 24.4594C48.3451 24.8356 48.0256 25.1212 47.8375 25.3163C47.7561 25.4011 47.4395 25.6915 46.8877 26.1875C46.2209 26.7869 45.7037 27.3116 45.0826 27.8444C45.0772 27.849 45.0707 27.852 45.0637 27.8533C45.0568 27.8547 45.0496 27.8542 45.043 27.8519C45.0363 27.8497 45.0303 27.8457 45.0255 27.8405C45.0208 27.8352 45.0175 27.8289 45.016 27.822L45.0092 27.792Z" fill="#060601"/>
<path d="M45.0088 27.792L43.4641 29.2043C43.4594 29.2085 43.4556 29.2137 43.453 29.2194C43.4504 29.2251 43.449 29.2313 43.4488 29.2376C43.4487 29.2439 43.4499 29.2502 43.4522 29.2561C43.4546 29.2619 43.4581 29.2672 43.4626 29.2717C44.7289 30.5035 46.0037 31.7249 47.2869 32.9359C48.0947 33.6982 48.9013 34.4821 49.7066 35.2874C49.7295 35.3103 49.7205 35.3288 49.6796 35.3427L40.8798 37.6052C40.8749 37.6065 40.8704 37.6087 40.8664 37.6118C40.8624 37.6149 40.859 37.6187 40.8565 37.6231C40.854 37.6275 40.8524 37.6323 40.8518 37.6374C40.8511 37.6424 40.8515 37.6475 40.8529 37.6523L43.9939 48.5402C43.9952 48.5444 43.9952 48.549 43.9939 48.5532C43.9926 48.5575 43.9901 48.5612 43.9866 48.564C43.9832 48.5668 43.979 48.5685 43.9746 48.569C43.9701 48.5694 43.9657 48.5685 43.9618 48.5664L33.2079 42.8403C33.1917 42.8317 33.1729 42.8295 33.1552 42.8341C33.1375 42.8386 33.1221 42.8497 33.1121 42.865L28.2617 50.3678C28.2577 50.3739 28.2524 50.3789 28.2461 50.3825C28.2398 50.386 28.2328 50.388 28.2256 50.3882C28.2185 50.3885 28.2114 50.3869 28.205 50.3837C28.1986 50.3806 28.1932 50.3759 28.1891 50.37L23.1658 43.3971C23.1478 43.3721 23.1213 43.3544 23.0912 43.3475C23.0612 43.3407 23.0297 43.345 23.0026 43.3597L12.4186 49.082C12.4157 49.0837 12.4124 49.0845 12.409 49.0843C12.4057 49.0842 12.4024 49.083 12.3997 49.081C12.397 49.079 12.395 49.0763 12.3938 49.0731C12.3926 49.07 12.3924 49.0666 12.3932 49.0633C12.7389 47.3954 13.0423 45.9943 13.3032 44.8602C13.9264 42.149 14.4598 39.8604 14.9033 37.9943C14.906 37.9833 14.9041 37.9715 14.8981 37.9617C14.8921 37.9519 14.8824 37.9448 14.8711 37.942L7.21642 35.9467C7.21401 35.946 7.21182 35.9447 7.21008 35.9429C7.20833 35.9411 7.20709 35.9389 7.20648 35.9365C7.20588 35.934 7.20592 35.9315 7.20661 35.9291C7.20731 35.9267 7.20863 35.9245 7.21043 35.9228L13.8511 29.4775C13.8549 29.4738 13.8579 29.4693 13.8598 29.4644C13.8617 29.4594 13.8625 29.4541 13.8621 29.4488C13.8618 29.4435 13.8603 29.4382 13.8577 29.4335C13.8551 29.4288 13.8516 29.4246 13.8473 29.4213L6.51067 23.9864C6.50338 23.9808 6.49777 23.9733 6.49449 23.9648C6.4912 23.9562 6.49037 23.9469 6.49208 23.9379C6.49379 23.9289 6.49797 23.9205 6.50416 23.9138C6.51036 23.907 6.51831 23.9021 6.52714 23.8996L15.5544 21.4156C15.5595 21.4142 15.564 21.4114 15.5677 21.4077C15.5713 21.4039 15.5739 21.3993 15.5752 21.3942C15.5765 21.3891 15.5764 21.3838 15.575 21.3788C15.5736 21.3737 15.5709 21.3691 15.5672 21.3655L14.6369 20.4883C14.6109 20.4629 14.5962 20.4402 14.5927 20.4202C14.5887 20.3963 14.6037 20.3801 14.6376 20.3716C15.1271 20.2543 15.6904 20.1146 16.3275 19.9525C16.3372 19.9498 16.3454 19.9435 16.3505 19.935C16.3555 19.9264 16.357 19.9163 16.3545 19.9068C16.1394 19.0437 15.89 18.0859 15.6061 17.0337C14.924 14.5036 14.2318 11.9714 13.5292 9.43733C13.5098 9.36748 13.4115 9.04217 13.2344 8.46141C13.2332 8.45768 13.2332 8.4537 13.2344 8.44999C13.2355 8.44627 13.2378 8.443 13.241 8.44058C13.2441 8.43816 13.248 8.43672 13.252 8.43643C13.256 8.43614 13.26 8.43702 13.2636 8.43896L13.4806 8.57068L23.54 14.2997C23.5568 14.3092 23.5766 14.3119 23.5952 14.3073C23.6139 14.3027 23.63 14.2912 23.6402 14.275C25.3182 11.6661 26.4745 9.74717 28.7594 6.01187C28.7647 6.00296 28.7723 5.99561 28.7813 5.99051C28.7903 5.98541 28.8006 5.98273 28.811 5.98273C28.8214 5.98273 28.8317 5.98541 28.8409 5.99051C28.8501 5.99561 28.8578 6.00296 28.8634 6.01187L34.0214 14.314C34.033 14.3327 34.0515 14.3461 34.0729 14.3514C34.0943 14.3568 34.1169 14.3535 34.1359 14.3424L44.3345 8.45467C44.3435 8.44927 44.354 8.44672 44.3645 8.44736C44.3751 8.448 44.3851 8.45181 44.3935 8.45828C44.4018 8.46475 44.408 8.47358 44.4112 8.48362C44.4144 8.49365 44.4146 8.50443 44.4116 8.51454C43.4421 11.9058 42.5218 15.2966 41.6507 18.6869C41.5245 19.1779 41.4257 19.5862 41.3543 19.9121C41.3514 19.9259 41.3538 19.9403 41.3613 19.9521C41.3687 19.964 41.3804 19.9725 41.394 19.9757C42.4156 20.2099 43.7058 20.4532 44.9033 20.7338C47.1166 21.2527 49.0859 21.7182 50.8112 22.1303C50.8536 22.1403 50.922 22.1508 51.0163 22.1618C51.0231 22.1626 51.0296 22.1653 51.0349 22.1696C51.0402 22.174 51.0442 22.1798 51.0463 22.1863C51.0484 22.1929 51.0486 22.1999 51.0469 22.2066C51.0452 22.2132 51.0415 22.2192 51.0365 22.2239L45.0088 27.792ZM35.6522 42.41L35.4479 34.4372C35.4478 34.432 35.4487 34.4268 35.4506 34.422C35.4525 34.4172 35.4554 34.4129 35.459 34.4092C35.4626 34.4055 35.467 34.4025 35.4717 34.4005C35.4765 34.3985 35.4816 34.3975 35.4868 34.3975H43.9857C43.996 34.3975 44.006 34.3944 44.0145 34.3887C44.0231 34.3831 44.0297 34.375 44.0337 34.3656C44.0376 34.3562 44.0386 34.3459 44.0366 34.336C44.0346 34.3261 44.0297 34.317 44.0224 34.3099L38.6548 28.9423C38.6417 28.9292 38.6315 28.9135 38.625 28.8962C38.6185 28.8788 38.6157 28.8603 38.6169 28.8418C38.6181 28.8233 38.6233 28.8053 38.632 28.7889C38.6407 28.7726 38.6528 28.7583 38.6675 28.747L44.7775 24.0253C44.7876 24.0174 44.7951 24.0067 44.7992 23.9945C44.8032 23.9824 44.8037 23.9693 44.8004 23.9569C44.7971 23.9445 44.7903 23.9333 44.7808 23.9247C44.7713 23.9162 44.7595 23.9105 44.7469 23.9086L37.2216 22.7912C37.21 22.7894 37.1989 22.7852 37.1891 22.7788C37.1793 22.7724 37.171 22.7639 37.1648 22.754C37.1586 22.7441 37.1547 22.733 37.1532 22.7215C37.1518 22.7099 37.1529 22.6982 37.1565 22.6872L39.7527 14.65C39.7549 14.6434 39.755 14.6363 39.753 14.6296C39.7509 14.623 39.7469 14.6171 39.7414 14.6128C39.7359 14.6086 39.7292 14.6061 39.7223 14.6058C39.7153 14.6055 39.7084 14.6073 39.7026 14.6111L32.2582 19.1704C32.2424 19.1799 32.2248 19.186 32.2065 19.1882C32.1883 19.1904 32.1697 19.1887 32.1521 19.1832C32.1346 19.1777 32.1184 19.1685 32.1047 19.1562C32.0909 19.1439 32.08 19.1289 32.0726 19.112L28.8544 11.8659C28.851 11.8584 28.8456 11.852 28.8387 11.8476C28.8318 11.8431 28.8237 11.8407 28.8155 11.8407C28.8073 11.8407 28.7992 11.8431 28.7923 11.8476C28.7854 11.852 28.7799 11.8584 28.7766 11.8659C28.5723 12.3322 28.4024 12.7805 28.2003 13.2288C27.3062 15.2145 26.4383 17.1277 25.5966 18.9683C25.5527 19.0646 25.5123 19.1409 25.4753 19.1973C25.4661 19.2111 25.4519 19.2207 25.4358 19.224C25.4197 19.2274 25.403 19.2243 25.3893 19.2153C24.1454 18.4165 22.8579 17.6067 21.5267 16.786C21.0522 16.4933 20.4041 16.0435 19.8264 15.697C19.2531 15.3532 18.6968 15.0057 18.1574 14.6545C18.0836 14.6061 18.0107 14.5694 17.9389 14.5445C17.9329 14.5424 17.9264 14.542 17.9202 14.5434C17.914 14.5448 17.9083 14.5478 17.9037 14.5522C17.8991 14.5567 17.8959 14.5623 17.8943 14.5684C17.8927 14.5746 17.8928 14.5811 17.8947 14.5871L20.4573 22.8032C20.462 22.8184 20.4636 22.8344 20.462 22.8503C20.4604 22.8662 20.4555 22.8815 20.4477 22.8955C20.44 22.9094 20.4294 22.9216 20.4168 22.9314C20.4041 22.9411 20.3896 22.9481 20.3742 22.9521L12.5848 24.9735C12.5783 24.9752 12.5724 24.9787 12.5679 24.9836C12.5634 24.9885 12.5604 24.9946 12.5593 25.0012C12.5582 25.0078 12.559 25.0145 12.5617 25.0206C12.5643 25.0268 12.5687 25.032 12.5743 25.0357C14.6978 26.4646 16.8619 27.8482 19.0667 29.1863C19.0798 29.1943 19.0911 29.2051 19.0996 29.2179C19.1081 29.2306 19.1138 29.2451 19.1161 29.2603C19.1185 29.2755 19.1175 29.291 19.1132 29.3057C19.1089 29.3205 19.1015 29.3342 19.0914 29.3457L14.0135 35.2088C14.009 35.2139 14.0059 35.2201 14.0046 35.2268C14.0034 35.2335 14.0039 35.2404 14.0062 35.2468C14.0085 35.2532 14.0124 35.2589 14.0177 35.2633C14.0229 35.2676 14.0292 35.2705 14.0359 35.2716C14.0369 35.2721 14.0466 35.2749 14.0651 35.2799C14.0653 35.2801 14.0657 35.2802 14.0661 35.2802C14.0665 35.2802 14.0669 35.2801 14.0674 35.2799L22.2976 34.4199C22.3081 34.4189 22.3187 34.42 22.3287 34.4233C22.3387 34.4265 22.3479 34.4318 22.3557 34.4388C22.3635 34.4458 22.3698 34.4543 22.3741 34.4638C22.3784 34.4733 22.3806 34.4836 22.3807 34.494L22.4862 42.4668C22.4863 42.475 22.4887 42.483 22.4932 42.4899C22.4977 42.4968 22.5041 42.5022 22.5116 42.5055C22.5191 42.5088 22.5274 42.5099 22.5355 42.5086C22.5436 42.5073 22.5512 42.5037 22.5573 42.4983L28.9135 36.9211C28.9288 36.9078 28.9482 36.9002 28.9685 36.8995C28.9888 36.8988 29.0087 36.9052 29.025 36.9174C29.519 37.2961 29.9471 37.7264 30.4305 38.1261C32.0389 39.4567 33.401 40.6392 34.8521 41.8591C35.0774 42.0485 35.3409 42.2371 35.5916 42.4399C35.5971 42.4443 35.6038 42.447 35.6109 42.4478C35.6179 42.4485 35.625 42.4472 35.6313 42.4441C35.6377 42.441 35.643 42.4361 35.6467 42.43C35.6504 42.424 35.6523 42.417 35.6522 42.41Z" fill="#0E8CF0"/>
<path d="M35.6525 42.41C35.6526 42.417 35.6507 42.424 35.647 42.43C35.6433 42.4361 35.638 42.441 35.6316 42.4441C35.6253 42.4472 35.6182 42.4485 35.6111 42.4478C35.6041 42.447 35.5974 42.4443 35.5919 42.4399C35.3411 42.2371 35.0777 42.0485 34.8524 41.8591C33.4013 40.6392 32.0392 39.4567 30.4308 38.1261C29.9474 37.7264 29.5193 37.2961 29.0253 36.9174C29.009 36.9052 28.989 36.8988 28.9687 36.8995C28.9484 36.9002 28.9291 36.9078 28.9138 36.9211L22.5576 42.4983C22.5515 42.5037 22.5439 42.5073 22.5358 42.5086C22.5277 42.5099 22.5194 42.5088 22.5119 42.5055C22.5044 42.5022 22.498 42.4968 22.4935 42.4899C22.489 42.483 22.4866 42.475 22.4865 42.4668L22.381 34.494C22.3809 34.4836 22.3787 34.4733 22.3744 34.4638C22.3701 34.4543 22.3638 34.4458 22.356 34.4388C22.3482 34.4318 22.339 34.4265 22.329 34.4233C22.319 34.42 22.3084 34.4189 22.2979 34.4199L14.0676 35.2799C14.0672 35.2801 14.0668 35.2802 14.0664 35.2802C14.066 35.2802 14.0656 35.2801 14.0654 35.2799C14.0469 35.2749 14.0372 35.2721 14.0362 35.2716C14.0295 35.2705 14.0232 35.2676 14.018 35.2633C14.0127 35.2589 14.0088 35.2532 14.0065 35.2468C14.0042 35.2404 14.0037 35.2335 14.0049 35.2268C14.0062 35.2201 14.0093 35.2139 14.0138 35.2088L19.0917 29.3457C19.1018 29.3342 19.1092 29.3205 19.1135 29.3057C19.1178 29.291 19.1187 29.2755 19.1164 29.2603C19.114 29.2451 19.1084 29.2306 19.0999 29.2179C19.0913 29.2051 19.0801 29.1943 19.067 29.1863C16.8622 27.8482 14.6981 26.4646 12.5746 25.0357C12.569 25.032 12.5646 25.0268 12.5619 25.0206C12.5593 25.0145 12.5585 25.0078 12.5596 25.0012C12.5607 24.9946 12.5637 24.9885 12.5682 24.9836C12.5727 24.9787 12.5786 24.9752 12.585 24.9735L20.3745 22.9521C20.3899 22.9481 20.4044 22.9411 20.4171 22.9314C20.4297 22.9216 20.4403 22.9094 20.448 22.8955C20.4558 22.8815 20.4607 22.8662 20.4623 22.8503C20.4639 22.8344 20.4623 22.8184 20.4576 22.8032L17.895 14.5871C17.8931 14.5811 17.893 14.5746 17.8946 14.5684C17.8962 14.5623 17.8994 14.5567 17.904 14.5522C17.9086 14.5478 17.9143 14.5448 17.9205 14.5434C17.9267 14.542 17.9331 14.5424 17.9392 14.5445C18.011 14.5694 18.0838 14.6061 18.1577 14.6545C18.697 15.0057 19.2534 15.3532 19.8266 15.697C20.4044 16.0435 21.0525 16.4933 21.527 16.786C22.8582 17.6067 24.1457 18.4165 25.3896 19.2153C25.4032 19.2243 25.42 19.2274 25.4361 19.224C25.4522 19.2207 25.4664 19.2111 25.4756 19.1973C25.5126 19.1409 25.553 19.0646 25.5969 18.9683C26.4386 17.1277 27.3065 15.2145 28.2006 13.2288C28.4027 12.7805 28.5725 12.3322 28.7769 11.8659C28.7802 11.8584 28.7857 11.852 28.7926 11.8476C28.7995 11.8431 28.8076 11.8407 28.8158 11.8407C28.824 11.8407 28.832 11.8431 28.839 11.8476C28.8459 11.852 28.8513 11.8584 28.8547 11.8659L32.0728 19.112C32.0803 19.1289 32.0912 19.1439 32.105 19.1562C32.1187 19.1685 32.1349 19.1777 32.1524 19.1832C32.17 19.1887 32.1885 19.1904 32.2068 19.1882C32.2251 19.186 32.2427 19.1799 32.2584 19.1704L39.7029 14.6111C39.7087 14.6073 39.7156 14.6055 39.7226 14.6058C39.7295 14.6061 39.7362 14.6086 39.7417 14.6128C39.7472 14.6171 39.7512 14.623 39.7532 14.6296C39.7553 14.6363 39.7552 14.6434 39.753 14.65L37.1568 22.6872C37.1532 22.6982 37.1521 22.7099 37.1535 22.7215C37.155 22.733 37.1589 22.7441 37.1651 22.754C37.1713 22.7639 37.1796 22.7724 37.1894 22.7788C37.1992 22.7852 37.2103 22.7894 37.2219 22.7912L44.7471 23.9086C44.7598 23.9105 44.7716 23.9162 44.7811 23.9247C44.7906 23.9333 44.7974 23.9445 44.8007 23.9569C44.8039 23.9693 44.8035 23.9824 44.7995 23.9945C44.7954 24.0067 44.7879 24.0174 44.7778 24.0253L38.6678 28.747C38.6531 28.7583 38.641 28.7726 38.6323 28.7889C38.6236 28.8053 38.6184 28.8233 38.6172 28.8418C38.616 28.8603 38.6188 28.8788 38.6253 28.8962C38.6318 28.9135 38.642 28.9292 38.6551 28.9423L44.0227 34.3099C44.0299 34.317 44.0349 34.3261 44.0369 34.336C44.0389 34.3459 44.0379 34.3562 44.034 34.3656C44.03 34.375 44.0234 34.3831 44.0148 34.3887C44.0063 34.3944 43.9962 34.3975 43.986 34.3975H35.4871C35.4819 34.3975 35.4768 34.3985 35.472 34.4005C35.4672 34.4025 35.4629 34.4055 35.4593 34.4092C35.4557 34.4129 35.4528 34.4172 35.4509 34.422C35.449 34.4268 35.4481 34.432 35.4482 34.4372L35.6525 42.41Z" fill="#2AA6F8"/>
<path d="M14.6371 20.4883L15.5674 21.3655C15.5711 21.3691 15.5738 21.3737 15.5752 21.3788C15.5767 21.3838 15.5767 21.3891 15.5754 21.3942C15.5741 21.3993 15.5716 21.4039 15.5679 21.4077C15.5643 21.4114 15.5597 21.4142 15.5547 21.4156L6.52737 23.8996C6.51854 23.9021 6.51059 23.907 6.50439 23.9138C6.4982 23.9205 6.49401 23.9289 6.4923 23.9379C6.4906 23.9469 6.49143 23.9562 6.49471 23.9648C6.498 23.9734 6.5036 23.9808 6.5109 23.9864L13.8475 29.4213C13.8518 29.4246 13.8554 29.4288 13.8579 29.4335C13.8605 29.4383 13.862 29.4435 13.8623 29.4488C13.8627 29.4541 13.8619 29.4595 13.86 29.4644C13.8581 29.4694 13.8551 29.4738 13.8513 29.4775L7.21066 35.9228C7.20885 35.9245 7.20754 35.9267 7.20684 35.9291C7.20615 35.9315 7.2061 35.934 7.20671 35.9365C7.20732 35.9389 7.20856 35.9411 7.2103 35.9429C7.21205 35.9447 7.21424 35.946 7.21665 35.9467L14.8714 37.942C14.8826 37.9448 14.8923 37.9519 14.8983 37.9617C14.9043 37.9716 14.9062 37.9833 14.9036 37.9944C14.46 39.8604 13.9266 42.149 13.3035 44.8603C13.0425 45.9943 12.7392 47.3954 12.3934 49.0633C12.3926 49.0666 12.3929 49.07 12.394 49.0732C12.3952 49.0763 12.3973 49.079 12.4 49.081C12.4027 49.083 12.4059 49.0842 12.4093 49.0843C12.4126 49.0845 12.4159 49.0837 12.4188 49.082L23.0028 43.3597C23.0299 43.345 23.0614 43.3407 23.0915 43.3476C23.1215 43.3544 23.148 43.3721 23.166 43.3971L28.1893 50.37C28.1934 50.3759 28.1989 50.3806 28.2052 50.3837C28.2116 50.3869 28.2187 50.3885 28.2259 50.3882C28.233 50.388 28.2401 50.386 28.2463 50.3825C28.2526 50.3789 28.258 50.3739 28.2619 50.3678L33.1123 42.865C33.1223 42.8497 33.1377 42.8386 33.1554 42.8341C33.1732 42.8295 33.1919 42.8317 33.2081 42.8403L43.962 48.5664C43.9659 48.5685 43.9704 48.5694 43.9748 48.569C43.9792 48.5686 43.9834 48.5668 43.9868 48.564C43.9903 48.5612 43.9928 48.5575 43.9941 48.5532C43.9954 48.549 43.9955 48.5444 43.9942 48.5402L40.8531 37.6523C40.8517 37.6475 40.8514 37.6424 40.852 37.6374C40.8526 37.6324 40.8542 37.6275 40.8567 37.6231C40.8592 37.6187 40.8626 37.6149 40.8666 37.6118C40.8706 37.6087 40.8752 37.6065 40.8801 37.6052L49.6798 35.3427C49.7018 35.3607 49.7135 35.3769 49.715 35.3914C49.716 35.4074 49.702 35.4193 49.6731 35.4273C49.0958 35.5875 48.5086 35.7434 47.9113 35.8951C47.1455 36.0902 46.5572 36.2423 46.1466 36.3516C44.2002 36.869 42.5338 37.3016 41.1472 37.6493C41.1353 37.6523 41.1244 37.6583 41.1155 37.6667C41.1066 37.6751 41.1 37.6856 41.0963 37.6972C41.0554 37.8275 41.0607 37.9794 41.1121 38.153C41.9168 40.8737 42.338 42.2915 42.3754 42.4062C42.4375 42.5948 42.4861 42.8643 42.5453 43.0641C43.0417 44.7585 43.5287 46.4758 44.0062 48.2161C44.0171 48.2565 44.0341 48.3675 44.057 48.5492C44.0577 48.5538 44.0573 48.5586 44.056 48.5631C44.0546 48.5677 44.0523 48.5719 44.0491 48.5754C44.046 48.579 44.0422 48.5818 44.0378 48.5837C44.0335 48.5857 44.0288 48.5866 44.0241 48.5866C43.8914 48.5826 43.71 48.5202 43.48 48.3995C41.2298 47.2155 40.0773 46.6085 40.0224 46.5786C39.24 46.15 38.5101 45.7578 37.8325 45.4021C37.7981 45.3841 37.6858 45.3238 37.4958 45.221C36.3118 44.5804 35.0273 43.8981 33.6422 43.1741C33.5514 43.1267 33.4319 43.0558 33.2837 42.9615C33.261 42.9472 33.2335 42.9425 33.2073 42.9484C33.181 42.9543 33.1582 42.9703 33.1438 42.993C32.9517 43.2933 32.7461 43.6074 32.5271 43.9352C32.4722 44.0175 32.4315 44.0869 32.4051 44.1433C32.3952 44.1642 32.386 44.1836 32.3784 44.1992C32.3708 44.2147 32.3653 44.2257 32.3624 44.2308L28.3547 50.3551C28.3399 50.3778 28.3197 50.3966 28.296 50.4097C28.2723 50.4229 28.2457 50.4301 28.2186 50.4307C28.1914 50.4313 28.1646 50.4253 28.1403 50.4131C28.116 50.401 28.0951 50.3831 28.0793 50.3611L23.1218 43.4794C23.107 43.4587 23.085 43.4442 23.0601 43.4388C23.0352 43.4334 23.0092 43.4375 22.9871 43.4503C22.5016 43.7322 22.2512 43.8773 22.2357 43.8858C18.2192 46.0532 16.0414 47.2272 15.7021 47.4078C14.7601 47.9093 13.7148 48.4741 12.5663 49.1022C12.5009 49.1382 12.4435 49.1521 12.3941 49.1441C12.3804 49.1419 12.3673 49.1369 12.3555 49.1295C12.3438 49.1221 12.3336 49.1124 12.3257 49.101C12.3178 49.0896 12.3123 49.0767 12.3096 49.0632C12.3068 49.0496 12.3068 49.0357 12.3096 49.0222C12.5545 47.8337 12.7788 46.7889 12.9824 45.8878C13.0128 45.7536 13.0647 45.5106 13.1381 45.1589C13.1805 44.9568 13.2351 44.7141 13.302 44.4307C13.7051 42.7313 14.1077 41.0229 14.5099 39.3056C14.6002 38.9189 14.695 38.5055 14.7943 38.0655C14.7972 38.052 14.7948 38.0379 14.7876 38.0261C14.7803 38.0144 14.7687 38.006 14.7554 38.0026L7.20093 36.0335C7.17873 36.0278 7.15849 36.0161 7.1424 35.9998C7.12631 35.9834 7.11497 35.963 7.10959 35.9407C7.1042 35.9184 7.10499 35.8951 7.11185 35.8732C7.11871 35.8513 7.1314 35.8317 7.14854 35.8165C7.72033 35.3061 8.34001 34.7226 9.00759 34.066C9.63576 33.4483 10.2475 32.856 10.8427 32.2892C11.6595 31.5109 12.5431 30.6575 13.4935 29.7289C13.5614 29.6626 13.6427 29.5882 13.7375 29.5059C13.7425 29.5016 13.7464 29.4963 13.749 29.4902C13.7516 29.4842 13.7528 29.4777 13.7525 29.4711C13.7523 29.4646 13.7505 29.4582 13.7474 29.4524C13.7443 29.4466 13.7399 29.4416 13.7345 29.4378L6.49593 24.0747C6.47143 24.0565 6.45253 24.0317 6.4414 24.0033C6.43027 23.9749 6.42734 23.9439 6.43296 23.9138C6.43857 23.8838 6.4525 23.856 6.47316 23.8335C6.49382 23.811 6.52038 23.7947 6.54982 23.7866L15.3429 21.367C15.3496 21.365 15.3557 21.3613 15.3606 21.3563C15.3654 21.3512 15.3689 21.345 15.3707 21.3382C15.3724 21.3314 15.3723 21.3243 15.3705 21.3175C15.3686 21.3107 15.365 21.3046 15.3601 21.2996C15.2543 21.1958 15.0462 21.0072 14.7359 20.7338C14.6476 20.6555 14.6147 20.5737 14.6371 20.4883Z" fill="#060601"/>
<path d="M49.1755 32.4951L48.6074 31.9637C48.8384 32.0849 49.0278 32.2621 49.1755 32.4951Z" fill="#0E8CF0"/>
</svg>
