<svg width="57" height="56" viewBox="0 0 57 56" fill="none" xmlns="http://www.w3.org/2000/svg">
<path d="M8.24083 53.9934C8.51575 52.8633 8.78594 51.6999 9.05141 50.5031C9.17019 49.9689 9.31662 49.443 9.41523 48.9828C9.69713 47.6589 9.9982 46.3501 10.3184 45.0561C10.7361 43.3692 10.9669 41.9729 11.3322 40.0477C11.3352 40.0333 11.3673 39.8938 11.4286 39.6294C11.4307 39.6203 11.431 39.611 11.4295 39.6018C11.4279 39.5927 11.4246 39.584 11.4197 39.5761C11.4147 39.5683 11.4083 39.5615 11.4007 39.5561C11.3932 39.5508 11.3846 39.547 11.3756 39.5449C9.85252 39.1933 8.62931 38.906 7.70592 38.6828C7.03007 38.52 6.42045 38.3808 5.87708 38.2652C4.37322 37.9447 2.87085 37.5637 1.426 37.1603C1.42076 37.1587 1.41611 37.1556 1.41262 37.1514C1.40914 37.1472 1.40698 37.1421 1.40642 37.1366C1.40586 37.1312 1.40692 37.1257 1.40948 37.1209C1.41203 37.116 1.41596 37.1121 1.42077 37.1095L1.54703 37.0452C1.56389 37.0368 1.57946 37.0262 1.59335 37.0139C4.01835 34.8443 6.35073 32.707 8.59046 30.6017C9.06759 30.1525 9.3592 29.8795 9.46528 29.7829C9.47159 29.7772 9.47655 29.7701 9.47981 29.7623C9.48306 29.7544 9.48453 29.7459 9.4841 29.7374C9.48367 29.7289 9.48136 29.7206 9.47733 29.7131C9.4733 29.7056 9.46765 29.6991 9.4608 29.694C7.73306 28.4155 6.5731 27.5623 5.98092 27.1345C5.47988 26.7729 4.53857 26.0784 3.15698 25.0509C1.69072 23.9602 0.738194 23.2719 0.299411 22.986C0.119117 22.8685 0.0242378 22.8065 0.0147749 22.8C0.00953219 22.7965 0.00538963 22.7916 0.00283734 22.7859C0.000285039 22.7802 -0.000570341 22.7738 0.000372771 22.7676C0.00131588 22.7614 0.00401813 22.7556 0.00815918 22.7509C0.0123002 22.7461 0.0177071 22.7427 0.02374 22.741C3.63511 21.719 7.047 20.753 10.485 19.8647C10.4968 19.8618 10.5074 19.8554 10.5156 19.8464C10.5237 19.8374 10.529 19.8262 10.5308 19.8142C10.5325 19.8022 10.5307 19.7899 10.5255 19.779C10.5203 19.768 10.5119 19.7589 10.5015 19.7527L8.84372 18.7464C8.83876 18.7434 8.83483 18.739 8.83245 18.7337C8.83008 18.7284 8.82937 18.7225 8.83043 18.7168C8.83148 18.7111 8.83425 18.7059 8.83836 18.7018C8.84247 18.6978 8.84773 18.6951 8.85343 18.6941L12.8652 17.9305C12.8737 17.929 12.8818 17.9257 12.8888 17.9207C12.8958 17.9157 12.9017 17.9092 12.906 17.9016C12.9102 17.8941 12.9128 17.8857 12.9135 17.877C12.9142 17.8683 12.913 17.8596 12.9101 17.8514C12.8094 17.5734 12.7285 17.3227 12.6673 17.0991C11.8759 14.1984 11.4734 12.7259 11.46 12.6816C11.2388 11.9539 11.0894 11.307 10.8638 10.5345C10.3822 8.88445 9.91403 7.28247 9.45931 5.72856C9.31139 5.22279 9.19111 4.89258 9.07083 4.42416C9.02849 4.25781 8.84322 3.65567 8.51501 2.61773C8.51253 2.6098 8.51247 2.6013 8.51484 2.59333C8.51721 2.58536 8.5219 2.57828 8.52831 2.57299C8.53473 2.5677 8.54257 2.56444 8.55085 2.56363C8.55912 2.56281 8.56745 2.56448 8.57477 2.56843C9.55493 3.10682 10.4459 3.58644 11.2478 4.00729C13.5107 5.1944 15.3881 6.25076 17.4448 7.42442C18.2023 7.85673 19.7802 8.745 22.1783 10.0892C22.3108 10.1634 22.4465 10.2182 22.5854 10.2536C22.5969 10.2565 22.6091 10.2553 22.6197 10.2502C22.6304 10.2452 22.6388 10.2366 22.6437 10.226C22.7595 9.97419 22.9254 9.64996 23.0897 9.38176C24.3558 7.30638 25.0851 6.12575 25.2779 5.83987C25.3187 5.77911 26.5091 3.83671 28.8489 0.0126791C28.8512 0.00881137 28.8545 0.00561151 28.8585 0.00338963C28.8624 0.00116776 28.8668 0 28.8713 0C28.8758 0 28.8803 0.00116776 28.8842 0.00338963C28.8881 0.00561151 28.8914 0.00881137 28.8937 0.0126791C30.9208 3.30828 32.9454 6.67983 34.9675 10.1273C35.0526 10.2723 35.1483 10.2954 35.2917 10.2177C39.5859 7.89483 43.9416 5.48327 48.3588 2.98305C48.5247 2.88892 48.7037 2.77736 48.8959 2.64836C48.9029 2.64363 48.9111 2.64115 48.9195 2.64124C48.9279 2.64133 48.9361 2.644 48.943 2.64889C48.9498 2.65378 48.955 2.66064 48.9578 2.66856C48.9606 2.67649 48.9609 2.68508 48.9587 2.69319L44.8356 17.6668C44.8324 17.6784 44.8315 17.6905 44.833 17.7024C44.8345 17.7144 44.8384 17.7259 44.8445 17.7363C44.8505 17.7467 44.8586 17.7559 44.8682 17.7632C44.8779 17.7705 44.8889 17.7758 44.9006 17.7789C45.9096 18.0369 46.9956 18.2889 48.1586 18.5349C48.2064 18.5449 50.086 18.9538 53.7975 19.7616C54.8434 19.9887 55.908 20.2569 56.9778 20.4422C56.9828 20.4431 56.9874 20.4453 56.9911 20.4487C56.9948 20.452 56.9975 20.4564 56.9989 20.4612C57.0003 20.466 57.0004 20.4711 56.999 20.476C56.9976 20.4808 56.995 20.4851 56.9913 20.4885L47.5318 29.1643C47.5281 29.1678 47.5251 29.172 47.523 29.1767C47.521 29.1814 47.52 29.1865 47.52 29.1916C47.52 29.1967 47.521 29.2018 47.523 29.2065C47.5251 29.2111 47.5281 29.2154 47.5318 29.2189L55.2797 36.3766C55.2856 36.3821 55.2898 36.3891 55.2921 36.3968C55.2944 36.4045 55.2946 36.4127 55.2927 36.4205C55.2908 36.4283 55.2869 36.4355 55.2813 36.4413C55.2758 36.4471 55.2688 36.4513 55.261 36.4535L44.412 39.4165C44.3962 39.4208 44.3827 39.4313 44.3746 39.4456C44.3664 39.4599 44.3643 39.4768 44.3687 39.4926C44.3766 39.52 44.4815 39.8465 44.6832 40.4721C44.9596 41.326 45.1695 42.2277 45.4049 43.0233C46.001 45.0424 46.6149 47.0812 47.2464 49.1396C47.7315 50.7205 48.1683 52.2173 48.5568 53.6303C48.5589 53.6378 48.5589 53.6458 48.5567 53.6533C48.5546 53.6608 48.5505 53.6676 48.5448 53.6729C48.5391 53.6782 48.532 53.6819 48.5244 53.6834C48.5168 53.685 48.5088 53.6845 48.5015 53.6819C48.4472 53.6614 48.3847 53.6341 48.314 53.5997C46.7899 52.8621 45.2188 52.0622 43.6007 51.2001C41.8555 50.2707 40.1671 49.4011 38.1709 48.3328C37.7491 48.1072 36.4537 47.4281 34.2846 46.2955C34.2656 46.2857 34.2435 46.2832 34.2228 46.2886C34.2021 46.2939 34.1842 46.3068 34.1726 46.3247L28.3402 55.1902C28.3353 55.1975 28.3288 55.2036 28.3212 55.2079C28.3136 55.2122 28.305 55.2147 28.2963 55.215C28.2875 55.2154 28.2788 55.2137 28.2709 55.21C28.2629 55.2063 28.2559 55.2008 28.2505 55.1939C28.0368 54.925 27.8381 54.664 27.6543 54.411C26.1774 52.3775 24.0885 49.3257 22.25 46.7931C22.234 46.7711 22.2107 46.7556 22.1844 46.7495C22.158 46.7433 22.1304 46.7468 22.1066 46.7595C20.1821 47.774 18.5433 48.6384 17.1901 49.3526C15.5455 50.2202 13.8979 51.0905 12.2474 51.9636C10.8392 52.7092 9.41673 53.389 8.25801 54.0068C8.25597 54.0079 8.25366 54.0084 8.25137 54.0082C8.24907 54.008 8.24688 54.0071 8.24506 54.0057C8.24325 54.0043 8.24188 54.0024 8.24113 54.0002C8.24038 53.998 8.24027 53.9956 8.24083 53.9934ZM10.7264 5.22129C10.7217 5.21894 10.7165 5.21805 10.7114 5.21874C10.7063 5.21943 10.7015 5.22168 10.6976 5.22517C10.6938 5.22867 10.6912 5.23324 10.69 5.23829C10.6889 5.24334 10.6893 5.24862 10.6912 5.25342C10.8167 5.54278 10.9226 5.86278 11.0087 6.21341C11.1865 6.93957 11.4809 7.87864 11.6161 8.39711C11.8233 9.19051 12.0502 10.0315 12.2967 10.92C12.5582 11.8621 12.8555 13.0835 13.1334 13.9994C13.5214 15.2784 13.742 16.0282 13.7953 16.2489C13.9856 17.0353 14.2065 17.8364 14.458 18.6522C14.4619 18.6649 14.4632 18.6783 14.4618 18.6915C14.4603 18.7047 14.4562 18.7175 14.4496 18.7291C14.4431 18.7407 14.4342 18.7509 14.4236 18.759C14.4129 18.7671 14.4007 18.773 14.3878 18.7762L11.7737 19.4352C11.7623 19.4381 11.7518 19.4441 11.7436 19.4526C11.7354 19.4612 11.7297 19.4718 11.7272 19.4834C11.7247 19.495 11.7255 19.507 11.7295 19.5182C11.7335 19.5293 11.7406 19.5391 11.7498 19.5465L12.8451 20.4183C12.8515 20.4233 12.8563 20.4301 12.8588 20.4378C12.8614 20.4455 12.8616 20.4538 12.8594 20.4617C12.8573 20.4695 12.8528 20.4765 12.8467 20.4818C12.8405 20.4872 12.833 20.4905 12.8249 20.4915C12.5761 20.5237 12.2698 20.6178 11.6438 20.7814C11.322 20.8656 10.9953 20.9565 10.6636 21.0541C9.79151 21.3101 8.85716 21.5666 7.86057 21.8236C7.09631 22.0208 6.10793 22.2927 5.15316 22.5916C4.53907 22.7833 3.93344 22.9586 3.33627 23.1175C3.325 23.1204 3.31478 23.1265 3.30674 23.1349C3.29871 23.1433 3.29318 23.1539 3.29077 23.1653C3.28837 23.1767 3.28919 23.1885 3.29313 23.1995C3.29708 23.2104 3.304 23.2201 3.31312 23.2273L11.3427 29.62C11.3516 29.6272 11.3588 29.6362 11.364 29.6464C11.3691 29.6565 11.372 29.6677 11.3724 29.679C11.3728 29.6904 11.3708 29.7017 11.3664 29.7121C11.3621 29.7226 11.3555 29.7319 11.3472 29.7396C9.4755 31.4728 7.83193 32.9904 6.41647 34.2923C5.91443 34.7547 5.27643 35.436 4.67877 35.9986C4.47557 36.1893 4.2629 36.395 4.04077 36.6157C4.03603 36.6202 4.03261 36.626 4.03087 36.6324C4.02914 36.6387 4.02915 36.6454 4.03091 36.6518C4.03267 36.6581 4.03611 36.6639 4.04087 36.6684C4.04563 36.673 4.05153 36.6762 4.05795 36.6777L12.86 38.7359C12.8794 38.7403 12.8963 38.7522 12.907 38.769C12.9178 38.7857 12.9215 38.806 12.9175 38.8255L10.2916 51.6259C10.2905 51.6312 10.291 51.6366 10.2929 51.6416C10.2948 51.6466 10.2981 51.651 10.3024 51.6542C10.3067 51.6574 10.3119 51.6593 10.3172 51.6597C10.3225 51.6602 10.3279 51.659 10.3326 51.6565L22.5346 45.2362C22.5485 45.2288 22.5642 45.2254 22.5799 45.2265C22.5956 45.2275 22.6107 45.233 22.6235 45.2422C22.7092 45.3034 22.7884 45.3858 22.8611 45.4894C22.9816 45.6603 23.1226 45.8627 23.2839 46.0968C23.5823 46.5296 24.6359 47.9862 26.4448 50.4665C27.0851 51.3443 27.6514 52.2482 28.178 52.9624C28.185 52.9719 28.1942 52.9794 28.2048 52.9845C28.2154 52.9895 28.2271 52.9919 28.2388 52.9914C28.2506 52.9909 28.262 52.9875 28.2721 52.9815C28.2822 52.9756 28.2907 52.9672 28.2968 52.9572C28.9968 51.7925 29.779 50.58 30.6703 49.3055C31.1559 48.6122 31.5526 48.0305 31.8604 47.5603C32.2683 46.9373 32.7277 46.315 33.0602 45.7412C33.3002 45.3268 33.489 45.017 33.6265 44.8118C33.6437 44.7858 33.6701 44.7671 33.7004 44.7594C33.7308 44.7517 33.763 44.7554 33.7908 44.77C34.1918 44.9802 34.6298 45.1976 35.1049 45.4222C35.6398 45.674 36.4661 46.1611 37.122 46.489C37.896 46.8755 38.731 47.3071 39.627 47.7837C41.9631 49.0253 44.1714 50.1355 46.382 51.3219C46.3871 51.3246 46.3928 51.3258 46.3985 51.3253C46.4042 51.3249 46.4097 51.3228 46.4143 51.3194C46.4188 51.3159 46.4223 51.3112 46.4243 51.3058C46.4263 51.3004 46.4266 51.2946 46.4254 51.289C46.3945 51.1505 46.3589 51.017 46.3185 50.8886C45.4721 48.1886 44.5599 44.6557 43.78 41.9916C43.4565 40.8852 43.0583 39.7863 42.74 38.7037C42.7373 38.6942 42.7384 38.684 42.7432 38.6753C42.7479 38.6666 42.7559 38.6602 42.7654 38.6574L52.7374 35.9343C52.7463 35.9319 52.7543 35.9272 52.7607 35.9206C52.7672 35.9141 52.7717 35.9059 52.7739 35.897C52.7761 35.8881 52.7759 35.8787 52.7733 35.8699C52.7707 35.8611 52.7658 35.8532 52.7591 35.8469L45.7635 29.1554C45.7604 29.1524 45.7579 29.1488 45.7563 29.1448C45.7547 29.1408 45.7539 29.1365 45.754 29.1322C45.7542 29.1279 45.7552 29.1237 45.7571 29.1199C45.759 29.116 45.7617 29.1126 45.765 29.1098C46.0279 28.8872 46.3292 28.6175 46.6689 28.3007C49.2005 25.9409 51.7388 23.5523 54.2839 21.1348C54.2902 21.1287 54.2948 21.1209 54.2972 21.1124C54.2996 21.1039 54.2996 21.095 54.2973 21.0865C54.295 21.0781 54.2904 21.0705 54.2841 21.0645C54.2778 21.0585 54.27 21.0544 54.2615 21.0526L43.2847 18.638C43.2712 18.6351 43.2585 18.6294 43.2473 18.6214C43.2361 18.6133 43.2267 18.6031 43.2196 18.5912C43.2125 18.5794 43.208 18.5662 43.2062 18.5526C43.2044 18.5389 43.2054 18.525 43.2092 18.5118C43.648 16.9325 43.9065 16.0126 43.9847 15.7521C44.2422 14.8919 44.4994 13.974 44.7564 12.9984C45.0313 11.9532 45.6604 9.77846 46.0869 8.043C46.2613 7.33278 46.446 6.62131 46.6413 5.9086C46.7135 5.64464 46.7546 5.49472 46.7645 5.45886C46.7664 5.45284 46.7665 5.44638 46.7646 5.44034C46.7628 5.4343 46.7592 5.42895 46.7543 5.425C46.7493 5.42104 46.7433 5.41867 46.737 5.41818C46.7307 5.41769 46.7244 5.41911 46.719 5.42226C43.4039 7.24761 41.5368 8.27534 41.1174 8.50544C40.4654 8.86254 39.9512 9.13672 39.5747 9.32797C38.8082 9.71794 37.3763 10.5146 35.279 11.7179C35.0534 11.8474 34.8512 11.9569 34.6724 12.0466C34.6415 12.062 34.6058 12.0651 34.5729 12.0551C34.5399 12.045 34.5121 12.0227 34.4953 11.9928C34.4624 11.9345 34.1664 11.4183 33.607 10.4441C33.1643 9.67262 32.4329 8.47132 31.4129 6.84021C30.9108 6.0371 30.2347 4.87689 29.6789 4.02298C29.4249 3.63301 29.1679 3.20643 28.9079 2.74324C28.905 2.73792 28.9007 2.73347 28.8955 2.73035C28.8903 2.72723 28.8843 2.72555 28.8783 2.72547C28.8722 2.72539 28.8662 2.72693 28.8609 2.72992C28.8556 2.73291 28.8512 2.73725 28.8482 2.74249C27.2225 5.5007 24.867 9.0396 23.5768 11.1292C23.4747 11.295 23.3223 11.5625 23.1196 11.9315C23.1147 11.9405 23.1081 11.9484 23.1001 11.9548C23.0921 11.9611 23.0829 11.9658 23.073 11.9686C23.0631 11.9714 23.0528 11.9722 23.0426 11.971C23.0324 11.9697 23.0225 11.9665 23.0135 11.9614C20.1178 10.3298 17.1064 8.66681 13.9791 6.97244C13.7184 6.83124 13.244 6.6116 12.9071 6.4196C12.024 5.91707 11.2971 5.51763 10.7264 5.22129Z" fill="white"/>
<path d="M10.7265 5.22129C11.2972 5.51763 12.0241 5.91707 12.9072 6.4196C13.2441 6.6116 13.7185 6.83124 13.9792 6.97243C17.1065 8.6668 20.118 10.3298 23.0136 11.9614C23.0226 11.9665 23.0325 11.9697 23.0427 11.971C23.0529 11.9722 23.0633 11.9714 23.0731 11.9686C23.083 11.9658 23.0922 11.9611 23.1002 11.9548C23.1082 11.9484 23.1148 11.9405 23.1197 11.9315C23.3224 11.5625 23.4748 11.295 23.5769 11.1292C24.8671 9.03959 27.2227 5.50069 28.8483 2.74249C28.8514 2.73725 28.8558 2.73291 28.8611 2.72992C28.8663 2.72693 28.8723 2.72539 28.8784 2.72547C28.8845 2.72554 28.8904 2.72723 28.8956 2.73035C28.9008 2.73347 28.9051 2.73792 28.9081 2.74324C29.168 3.20643 29.425 3.633 29.679 4.02298C30.2349 4.87689 30.911 6.0371 31.413 6.8402C32.433 8.47132 33.1644 9.67262 33.6072 10.4441C34.1665 11.4183 34.4626 11.9345 34.4954 11.9928C34.5123 12.0227 34.54 12.045 34.573 12.0551C34.606 12.0651 34.6416 12.062 34.6725 12.0466C34.8513 11.9569 35.0535 11.8474 35.2791 11.7179C37.3764 10.5146 38.8083 9.71794 39.5748 9.32797C39.9513 9.13671 40.4656 8.86254 41.1175 8.50543C41.5369 8.27533 43.4041 7.24761 46.7191 5.42225C46.7246 5.4191 46.7309 5.41768 46.7372 5.41817C46.7435 5.41866 46.7495 5.42104 46.7544 5.42499C46.7593 5.42895 46.7629 5.4343 46.7648 5.44034C46.7666 5.44638 46.7666 5.45283 46.7647 5.45886C46.7547 5.49472 46.7136 5.64463 46.6414 5.9086C46.4462 6.62131 46.2614 7.33277 46.0871 8.04299C45.6605 9.77845 45.0315 11.9532 44.7565 12.9983C44.4995 13.974 44.2423 14.8919 43.9848 15.7521C43.9066 16.0126 43.6481 16.9325 43.2093 18.5118C43.2055 18.525 43.2045 18.5389 43.2063 18.5526C43.2081 18.5662 43.2127 18.5794 43.2197 18.5912C43.2268 18.6031 43.2362 18.6133 43.2474 18.6214C43.2586 18.6294 43.2713 18.6351 43.2848 18.638L54.2616 21.0526C54.2701 21.0544 54.2779 21.0585 54.2842 21.0645C54.2906 21.0705 54.2951 21.0781 54.2974 21.0865C54.2997 21.095 54.2997 21.1039 54.2973 21.1124C54.295 21.1209 54.2903 21.1286 54.284 21.1348C51.7389 23.5523 49.2006 25.9409 46.669 28.3007C46.3294 28.6175 46.0281 28.8872 45.7651 29.1098C45.7618 29.1126 45.7591 29.116 45.7572 29.1199C45.7554 29.1237 45.7543 29.1279 45.7542 29.1322C45.754 29.1365 45.7548 29.1408 45.7564 29.1448C45.758 29.1488 45.7605 29.1524 45.7636 29.1554L52.7592 35.8469C52.7659 35.8532 52.7708 35.8611 52.7734 35.8699C52.776 35.8787 52.7763 35.8881 52.7741 35.897C52.7718 35.9059 52.7673 35.9141 52.7609 35.9206C52.7545 35.9272 52.7464 35.9319 52.7375 35.9343L42.7656 38.6574C42.7561 38.6602 42.748 38.6666 42.7433 38.6753C42.7385 38.684 42.7374 38.6942 42.7402 38.7037C43.0584 39.7862 43.4566 40.8852 43.7801 41.9916C44.56 44.6557 45.4722 48.1886 46.3187 50.8885C46.359 51.017 46.3946 51.1505 46.4255 51.289C46.4268 51.2946 46.4264 51.3004 46.4244 51.3058C46.4224 51.3112 46.419 51.3159 46.4144 51.3193C46.4098 51.3228 46.4044 51.3249 46.3987 51.3253C46.3929 51.3258 46.3872 51.3246 46.3822 51.3218C44.1716 50.1355 41.9632 49.0253 39.6271 47.7837C38.7311 47.3071 37.8961 46.8755 37.1222 46.489C36.4662 46.161 35.64 45.674 35.1051 45.4222C34.6299 45.1976 34.1919 44.9802 33.7909 44.77C33.7631 44.7554 33.7309 44.7517 33.7005 44.7594C33.6702 44.7671 33.6438 44.7858 33.6266 44.8118C33.4891 45.017 33.3004 45.3268 33.0603 45.7412C32.7279 46.3149 32.2684 46.9373 31.8605 47.5603C31.5527 48.0305 31.156 48.6122 30.6704 49.3055C29.7792 50.58 28.997 51.7925 28.297 52.9572C28.2908 52.9672 28.2823 52.9756 28.2722 52.9815C28.2621 52.9875 28.2507 52.9909 28.239 52.9914C28.2272 52.9919 28.2155 52.9895 28.205 52.9845C28.1944 52.9794 28.1852 52.9719 28.1782 52.9624C27.6515 52.2482 27.0852 51.3443 26.445 50.4664C24.636 47.9862 23.5824 46.5296 23.2841 46.0968C23.1227 45.8627 22.9818 45.6603 22.8612 45.4894C22.7885 45.3858 22.7093 45.3034 22.6237 45.2421C22.6109 45.233 22.5958 45.2275 22.5801 45.2265C22.5644 45.2254 22.5487 45.2288 22.5348 45.2362L10.3328 51.6565C10.328 51.659 10.3227 51.6601 10.3173 51.6597C10.312 51.6593 10.3069 51.6574 10.3026 51.6542C10.2983 51.651 10.295 51.6466 10.293 51.6416C10.2911 51.6366 10.2906 51.6312 10.2917 51.6259L12.9177 38.8255C12.9217 38.806 12.9179 38.7857 12.9072 38.769C12.8964 38.7522 12.8795 38.7403 12.8601 38.7359L4.05808 36.6777C4.05166 36.6762 4.04576 36.673 4.041 36.6684C4.03624 36.6639 4.0328 36.6581 4.03104 36.6518C4.02928 36.6454 4.02927 36.6387 4.031 36.6324C4.03274 36.626 4.03615 36.6202 4.0409 36.6157C4.26303 36.395 4.47569 36.1893 4.6789 35.9986C5.27656 35.436 5.91456 34.7547 6.4166 34.2923C7.83206 32.9903 9.47562 31.4728 11.3473 29.7396C11.3556 29.7319 11.3622 29.7226 11.3666 29.7121C11.3709 29.7017 11.373 29.6904 11.3725 29.679C11.3721 29.6677 11.3692 29.6565 11.3641 29.6464C11.359 29.6362 11.3517 29.6272 11.3428 29.62L3.31324 23.2273C3.30413 23.2201 3.29721 23.2104 3.29326 23.1995C3.28931 23.1885 3.2885 23.1766 3.2909 23.1652C3.29331 23.1538 3.29883 23.1433 3.30687 23.1349C3.31491 23.1265 3.32513 23.1204 3.3364 23.1175C3.93356 22.9586 4.5392 22.7833 5.15329 22.5915C6.10805 22.2927 7.09644 22.0208 7.86069 21.8236C8.85729 21.5666 9.79164 21.3101 10.6637 21.0541C10.9954 20.9565 11.3221 20.8656 11.6439 20.7814C12.2699 20.6178 12.5762 20.5236 12.825 20.4915C12.8331 20.4905 12.8407 20.4871 12.8468 20.4818C12.853 20.4765 12.8574 20.4695 12.8596 20.4617C12.8617 20.4538 12.8615 20.4455 12.859 20.4378C12.8564 20.4301 12.8516 20.4233 12.8452 20.4183L11.75 19.5465C11.7407 19.5391 11.7337 19.5293 11.7297 19.5182C11.7257 19.507 11.7249 19.495 11.7274 19.4834C11.7298 19.4718 11.7355 19.4612 11.7437 19.4526C11.752 19.4441 11.7624 19.4381 11.7739 19.4352L14.3879 18.7762C14.4009 18.7729 14.413 18.7671 14.4237 18.759C14.4343 18.7509 14.4432 18.7407 14.4498 18.7291C14.4563 18.7175 14.4605 18.7047 14.4619 18.6915C14.4633 18.6783 14.4621 18.6649 14.4581 18.6522C14.2066 17.8364 13.9857 17.0353 13.7955 16.2489C13.7422 16.0282 13.5215 15.2784 13.1336 13.9994C12.8556 13.0835 12.5583 11.862 12.2968 10.92C12.0503 10.0315 11.8234 9.1905 11.6162 8.39711C11.481 7.87864 11.1867 6.93956 11.0089 6.21341C10.9227 5.86278 10.8169 5.54278 10.6914 5.25341C10.6894 5.24861 10.689 5.24333 10.6901 5.23829C10.6913 5.23324 10.694 5.22866 10.6978 5.22517C10.7016 5.22167 10.7064 5.21943 10.7115 5.21874C10.7166 5.21804 10.7219 5.21893 10.7265 5.22129ZM43.9504 48.2753C43.7652 47.5611 43.561 46.8394 43.3378 46.1102C43.1212 45.403 42.9073 44.7003 42.6961 44.002C42.094 42.0118 41.5142 40.1493 40.9569 38.4146C40.8563 38.1018 40.7714 37.8127 40.7021 37.5473C40.7011 37.5432 40.7008 37.539 40.7014 37.5348C40.7021 37.5306 40.7035 37.5266 40.7058 37.523C40.708 37.5193 40.7109 37.5162 40.7144 37.5137C40.7179 37.5112 40.7219 37.5094 40.7261 37.5084L49.7141 35.2425C49.7189 35.2414 49.7233 35.239 49.7268 35.2356C49.7303 35.2322 49.7328 35.2279 49.7341 35.2231C49.7354 35.2183 49.7354 35.2132 49.7341 35.2084C49.7328 35.2035 49.7303 35.1991 49.7268 35.1955C49.7169 35.1855 49.6466 35.117 49.5162 34.99C46.5552 32.1203 45.0606 30.6714 45.0322 30.6435C44.51 30.134 43.9407 29.6357 43.4439 29.1569C43.4366 29.1496 43.4309 29.141 43.4271 29.1315C43.4232 29.122 43.4213 29.1118 43.4216 29.1016C43.4218 29.0914 43.4241 29.0814 43.4283 29.0721C43.4325 29.0628 43.4386 29.0546 43.4462 29.0478L51.1448 22.0671C51.1473 22.0648 51.1492 22.0619 51.1502 22.0586C51.1512 22.0553 51.1513 22.0519 51.1504 22.0485C51.1496 22.0452 51.1478 22.0422 51.1454 22.0398C51.1429 22.0374 51.1399 22.0358 51.1366 22.035L41.3693 19.7512C41.3577 19.7485 41.3467 19.7435 41.3371 19.7364C41.3274 19.7294 41.3194 19.7204 41.3133 19.7102C41.3072 19.6999 41.3033 19.6885 41.3017 19.6767C41.3002 19.6649 41.3011 19.6528 41.3043 19.6413C41.6502 18.4154 42.0305 16.8137 42.4271 15.3613C43.5836 11.1289 44.2012 8.86303 44.2799 8.56371C44.282 8.556 44.2818 8.54785 44.2792 8.54028C44.2767 8.53271 44.2719 8.52607 44.2656 8.52119C44.2593 8.51631 44.2517 8.51341 44.2437 8.51287C44.2357 8.51233 44.2278 8.51416 44.2209 8.51813L34.2011 14.1474C34.1659 14.1673 34.1243 14.1727 34.0852 14.1625C34.0462 14.1523 34.0127 14.1273 33.9919 14.0928C32.7548 12.0598 31.6765 10.3119 30.7571 8.84909C30.4426 8.3493 30.078 7.81962 29.6514 7.12558C29.3944 6.70797 29.1292 6.33368 28.808 5.83837C28.8052 5.83411 28.8015 5.83063 28.797 5.82827C28.7925 5.8259 28.7876 5.82474 28.7825 5.82489C28.7775 5.82504 28.7725 5.8265 28.7682 5.82913C28.7639 5.83175 28.7604 5.83545 28.7579 5.83987C28.4561 6.39644 28.025 6.95077 27.6806 7.51406C26.8327 8.89914 26.0781 10.2155 25.222 11.5102C24.6729 12.3402 24.0356 13.3667 23.698 13.9016C23.6307 14.0081 23.5381 14.0288 23.42 13.9636C21.4381 12.8639 19.4957 11.8195 17.9021 10.9304C16.1784 9.96821 14.6628 9.13771 13.3554 8.43894C13.3485 8.4352 13.3407 8.43358 13.3328 8.43432C13.325 8.43505 13.3176 8.43809 13.3115 8.44306C13.3054 8.44802 13.301 8.45469 13.2987 8.46221C13.2964 8.46972 13.2964 8.47775 13.2987 8.48526C13.7118 9.9077 14.0532 11.2763 14.4775 12.775C14.9776 14.5386 15.5436 16.6281 16.1756 19.0437C16.2344 19.2688 16.2728 19.4815 16.2907 19.6817C16.2924 19.6992 16.2883 19.7167 16.279 19.7316C16.2696 19.7465 16.2556 19.7578 16.2392 19.7639C15.6285 19.987 15.0732 20.1411 14.5732 20.2263C14.563 20.228 14.5536 20.2326 14.546 20.2396C14.5384 20.2466 14.533 20.2556 14.5305 20.2656C14.528 20.2756 14.5284 20.2861 14.5317 20.2958C14.535 20.3055 14.5411 20.3141 14.5493 20.3204L15.5802 21.1415C15.587 21.1467 15.5921 21.1537 15.595 21.1617C15.598 21.1697 15.5987 21.1784 15.597 21.1868C15.5953 21.1952 15.5913 21.2031 15.5854 21.2094C15.5796 21.2158 15.5721 21.2205 15.5638 21.2229L6.59365 23.7667C6.58662 23.7686 6.58028 23.7725 6.57536 23.7779C6.57043 23.7833 6.56711 23.7899 6.56579 23.7971C6.56446 23.8043 6.56518 23.8117 6.56786 23.8184C6.57054 23.8252 6.57508 23.8311 6.58095 23.8354C8.07735 24.977 9.87855 26.4659 11.4676 27.6896C13.015 28.8819 13.8156 29.4968 13.8694 29.5341C13.8712 29.5354 13.8726 29.537 13.8736 29.5389C13.8747 29.5407 13.8753 29.5428 13.8754 29.5449C13.8756 29.547 13.8753 29.549 13.8745 29.5509C13.8737 29.5528 13.8725 29.5545 13.8709 29.5558L7.00828 35.8499C7.00513 35.853 7.00284 35.8568 7.00168 35.861C7.00051 35.8653 7.0005 35.8697 7.00166 35.8739C7.00282 35.8781 7.0051 35.8818 7.00824 35.8847C7.01139 35.8876 7.01528 35.8895 7.01949 35.8902L14.8361 37.557C14.8458 37.5591 14.8544 37.5644 14.8606 37.572C14.8667 37.5796 14.8699 37.5891 14.8698 37.5988C14.8688 37.6924 14.8566 37.7891 14.8332 37.8887C14.4078 39.6841 14.1411 40.8396 14.033 41.3551C13.7237 42.8283 13.4707 43.9868 13.274 44.8305C13.0125 45.9501 12.7386 47.247 12.4522 48.7213C12.451 48.7272 12.4514 48.7334 12.4536 48.7391C12.4557 48.7449 12.4594 48.7498 12.4642 48.7535C12.4691 48.7572 12.4749 48.7594 12.481 48.7599C12.487 48.7604 12.4931 48.7592 12.4985 48.7564C15.565 47.1412 18.072 45.8174 20.0194 44.7849C21.0526 44.2373 22.0925 43.7495 23.0674 43.1391C23.0782 43.1325 23.091 43.1301 23.1034 43.1324C23.1157 43.1348 23.1266 43.1417 23.1339 43.1518L28.2095 50.1467C28.2113 50.1492 28.2137 50.1512 28.2164 50.1526C28.2192 50.1539 28.2222 50.1547 28.2252 50.1547C28.2283 50.1547 28.2313 50.1539 28.234 50.1526C28.2368 50.1512 28.2391 50.1492 28.2409 50.1467C28.5318 49.7388 28.8147 49.3232 29.0896 48.8998C29.5314 48.2205 29.9786 47.5322 30.4314 46.8349C31.682 44.9089 32.3573 43.868 32.4574 43.7121C32.7234 43.2968 33.0304 42.8986 33.0573 42.6259C33.0581 42.6185 33.0606 42.6113 33.0647 42.6051C33.0689 42.5989 33.0745 42.5938 33.081 42.5903C33.0876 42.5867 33.0949 42.5849 33.1024 42.5848C33.1099 42.5848 33.1172 42.5866 33.1238 42.59L43.9086 48.3081C43.9136 48.3108 43.9192 48.3119 43.9248 48.3114C43.9304 48.3109 43.9358 48.3088 43.9402 48.3053C43.9446 48.3018 43.9479 48.2971 43.9497 48.2918C43.9516 48.2865 43.9518 48.2807 43.9504 48.2753Z" fill="#180F0C"/>
<path d="M43.9502 48.2753C43.9516 48.2807 43.9514 48.2865 43.9495 48.2918C43.9477 48.2971 43.9444 48.3018 43.94 48.3053C43.9356 48.3088 43.9302 48.3109 43.9246 48.3114C43.919 48.3119 43.9134 48.3108 43.9084 48.3082L33.1236 42.59C33.117 42.5866 33.1097 42.5848 33.1022 42.5848C33.0947 42.5849 33.0874 42.5868 33.0808 42.5903C33.0743 42.5938 33.0687 42.5989 33.0645 42.6051C33.0604 42.6114 33.0579 42.6185 33.0571 42.6259C33.0302 42.8986 32.7232 43.2968 32.4572 43.7121C32.3571 43.868 31.6818 44.909 30.4312 46.8349C29.9784 47.5322 29.5312 48.2205 29.0894 48.8998C28.8145 49.3232 28.5316 49.7388 28.2407 50.1467C28.2389 50.1492 28.2366 50.1512 28.2338 50.1526C28.2311 50.154 28.2281 50.1547 28.225 50.1547C28.222 50.1547 28.219 50.154 28.2162 50.1526C28.2135 50.1512 28.2112 50.1492 28.2093 50.1467L23.1337 43.1518C23.1264 43.1417 23.1155 43.1348 23.1032 43.1325C23.0908 43.1301 23.078 43.1325 23.0672 43.1391C22.0923 43.7495 21.0524 44.2373 20.0192 44.7849C18.0718 45.8174 15.5648 47.1412 12.4983 48.7564C12.4929 48.7592 12.4869 48.7605 12.4808 48.7599C12.4747 48.7594 12.4689 48.7572 12.464 48.7535C12.4592 48.7499 12.4555 48.7449 12.4534 48.7392C12.4512 48.7335 12.4508 48.7273 12.452 48.7213C12.7384 47.2471 13.0123 45.9501 13.2738 44.8305C13.4705 43.9868 13.7235 42.8284 14.0328 41.3551C14.1409 40.8396 14.4076 39.6842 14.833 37.8887C14.8564 37.7891 14.8686 37.6925 14.8696 37.5988C14.8697 37.5891 14.8665 37.5796 14.8604 37.572C14.8542 37.5644 14.8456 37.5591 14.8359 37.557L7.01929 35.8903C7.01508 35.8895 7.01119 35.8876 7.00805 35.8847C7.0049 35.8818 7.00262 35.8781 7.00147 35.8739C7.00031 35.8697 7.00031 35.8653 7.00148 35.8611C7.00265 35.8568 7.00493 35.853 7.00808 35.8499L13.8707 29.5558C13.8723 29.5545 13.8735 29.5528 13.8743 29.5509C13.8751 29.549 13.8754 29.547 13.8752 29.5449C13.8751 29.5428 13.8745 29.5408 13.8734 29.5389C13.8724 29.537 13.871 29.5354 13.8692 29.5341C13.8154 29.4968 13.0148 28.8819 11.4674 27.6896C9.87835 26.4659 8.07715 24.977 6.58076 23.8354C6.57488 23.8311 6.57035 23.8252 6.56767 23.8185C6.56498 23.8117 6.56426 23.8043 6.56559 23.7971C6.56691 23.7899 6.57023 23.7833 6.57516 23.7779C6.58009 23.7725 6.58643 23.7687 6.59346 23.7667L15.5636 21.2229C15.5719 21.2205 15.5794 21.2158 15.5852 21.2094C15.5911 21.2031 15.5951 21.1952 15.5968 21.1868C15.5985 21.1784 15.5978 21.1697 15.5948 21.1617C15.5919 21.1537 15.5868 21.1467 15.58 21.1415L14.5491 20.3205C14.5409 20.3141 14.5349 20.3056 14.5315 20.2958C14.5282 20.2861 14.5278 20.2756 14.5303 20.2656C14.5328 20.2556 14.5382 20.2466 14.5458 20.2396C14.5534 20.2326 14.5628 20.228 14.573 20.2263C15.073 20.1412 15.6283 19.987 16.239 19.7639C16.2554 19.7578 16.2695 19.7465 16.2788 19.7316C16.2881 19.7167 16.2922 19.6992 16.2905 19.6817C16.2726 19.4815 16.2342 19.2688 16.1755 19.0437C15.5434 16.6282 14.9774 14.5386 14.4773 12.775C14.053 11.2764 13.7116 9.90771 13.2985 8.48528C13.2962 8.47776 13.2962 8.46973 13.2985 8.46222C13.3008 8.4547 13.3052 8.44804 13.3113 8.44307C13.3174 8.43811 13.3248 8.43506 13.3327 8.43433C13.3405 8.4336 13.3483 8.43521 13.3552 8.43896C14.6626 9.13772 16.1782 9.96822 17.9019 10.9305C19.4955 11.8195 21.4379 12.8639 23.4198 13.9636C23.5379 14.0288 23.6305 14.0082 23.6978 13.9016C24.0354 13.3667 24.6727 12.3402 25.2218 11.5102C26.0779 10.2155 26.8325 8.89916 27.6804 7.51408C28.0248 6.95078 28.4559 6.39645 28.7577 5.83988C28.7602 5.83547 28.7637 5.83176 28.768 5.82914C28.7723 5.82651 28.7773 5.82505 28.7823 5.8249C28.7874 5.82475 28.7924 5.82592 28.7968 5.82828C28.8013 5.83064 28.805 5.83413 28.8078 5.83839C29.129 6.3337 29.3942 6.70798 29.6512 7.1256C30.0778 7.81963 30.4424 8.34931 30.7569 8.8491C31.6763 10.3119 32.7546 12.0598 33.9917 14.0928C34.0125 14.1273 34.046 14.1523 34.085 14.1625C34.1241 14.1727 34.1657 14.1673 34.2009 14.1474L44.2207 8.51815C44.2276 8.51417 44.2355 8.51234 44.2435 8.51288C44.2515 8.51343 44.2591 8.51632 44.2654 8.5212C44.2717 8.52608 44.2765 8.53272 44.279 8.54029C44.2816 8.54786 44.2818 8.55601 44.2797 8.56372C44.201 8.86305 43.5834 11.1289 42.4269 15.3614C42.0303 16.8137 41.65 18.4154 41.3041 19.6414C41.3009 19.6528 41.3 19.6649 41.3015 19.6767C41.3031 19.6885 41.307 19.6999 41.3131 19.7102C41.3192 19.7205 41.3272 19.7294 41.3369 19.7364C41.3465 19.7435 41.3575 19.7485 41.3691 19.7512L51.1364 22.035C51.1397 22.0358 51.1427 22.0374 51.1452 22.0398C51.1476 22.0422 51.1494 22.0452 51.1502 22.0486C51.1511 22.0519 51.151 22.0554 51.15 22.0586C51.149 22.0619 51.1471 22.0648 51.1446 22.0671L43.446 29.0478C43.4384 29.0546 43.4323 29.0629 43.4281 29.0721C43.4239 29.0814 43.4216 29.0914 43.4214 29.1016C43.4211 29.1118 43.423 29.122 43.4269 29.1315C43.4307 29.141 43.4364 29.1496 43.4437 29.1569C43.9405 29.6357 44.5098 30.134 45.032 30.6436C45.0604 30.6714 46.555 32.1203 49.516 34.99C49.6464 35.117 49.7167 35.1855 49.7266 35.1955C49.7301 35.1991 49.7326 35.2035 49.7339 35.2084C49.7352 35.2132 49.7352 35.2183 49.7339 35.2231C49.7326 35.2279 49.7301 35.2322 49.7266 35.2356C49.7231 35.239 49.7187 35.2414 49.7139 35.2425L40.7259 37.5084C40.7217 37.5094 40.7177 37.5112 40.7142 37.5137C40.7107 37.5162 40.7078 37.5194 40.7056 37.523C40.7033 37.5266 40.7019 37.5306 40.7012 37.5348C40.7006 37.539 40.7009 37.5432 40.7019 37.5473C40.7712 37.8127 40.8561 38.1019 40.9567 38.4146C41.514 40.1493 42.0938 42.0118 42.6959 44.002C42.9071 44.7003 43.121 45.403 43.3376 46.1103C43.5608 46.8394 43.765 47.5611 43.9502 48.2753ZM39.5275 14.5448C39.2579 14.7196 38.9329 14.8944 38.5847 15.1298C37.9233 15.5775 37.4572 15.8793 37.1862 16.0352C36.6284 16.356 36.231 16.5886 35.9939 16.733C34.7963 17.4636 33.7071 18.0927 32.378 18.9219C32.3472 18.9414 32.2448 18.9959 32.071 19.0855C32.064 19.0891 32.0563 19.0911 32.0485 19.0915C32.0406 19.0919 32.0328 19.0907 32.0255 19.0879C32.0182 19.0851 32.0115 19.0807 32.006 19.0752C32.0004 19.0696 31.9961 19.063 31.9933 19.0557C31.5844 18.0028 31.2076 17.0841 30.863 16.2997C30.0031 14.3438 29.7289 13.6625 28.8063 11.5229C28.8048 11.5192 28.8022 11.516 28.7988 11.5138C28.7954 11.5116 28.7914 11.5105 28.7874 11.5107C28.7834 11.5108 28.7795 11.5123 28.7764 11.5147C28.7732 11.5172 28.7708 11.5205 28.7697 11.5244C28.556 12.1579 28.2743 12.7317 28.0495 13.3383C27.919 13.6904 27.7384 14.1282 27.5078 14.6516C26.6881 16.5129 26.0329 17.9739 25.5423 19.0347C25.5377 19.0446 25.5311 19.0534 25.5229 19.0606C25.5148 19.0679 25.5053 19.0733 25.495 19.0767C25.4847 19.0801 25.4738 19.0813 25.463 19.0802C25.4523 19.0792 25.4419 19.0759 25.4325 19.0706C25.0201 18.8435 24.6428 18.5768 24.2304 18.3295C23.2079 17.7154 22.2532 17.1429 21.3661 16.612C20.9468 16.3609 20.5969 16.1381 20.3165 15.9433C19.6538 15.4831 19.2004 15.2142 18.6453 14.7943C18.4162 14.6215 18.1988 14.4758 17.9931 14.3573C17.9872 14.3538 17.9805 14.352 17.9737 14.3521C17.9668 14.3523 17.9602 14.3544 17.9544 14.3582C17.9487 14.362 17.9441 14.3674 17.9411 14.3737C17.9382 14.38 17.937 14.387 17.9378 14.3939C17.9542 14.5319 17.9826 14.6636 18.023 14.7891C18.4095 15.9949 18.7456 17.0139 19.0315 17.8461C19.225 18.4117 19.4432 19.1169 19.5739 19.6048C19.8152 20.5065 20.3225 21.784 20.557 22.5819C20.5625 22.6008 20.6061 22.7056 20.6878 22.8964C20.6904 22.9026 20.6916 22.9094 20.6913 22.9162C20.6909 22.923 20.689 22.9297 20.6857 22.9357C20.6825 22.9417 20.6778 22.947 20.6722 22.951C20.6666 22.9551 20.6602 22.9578 20.6534 22.9591C19.4267 23.1952 18.2095 23.4549 17.0017 23.7383C15.3308 24.1308 13.8707 24.4891 12.6216 24.8134C12.6163 24.8146 12.6114 24.8175 12.6078 24.8216C12.6042 24.8258 12.602 24.8309 12.6014 24.8365C12.6009 24.842 12.602 24.8476 12.6047 24.8526C12.6073 24.8575 12.6114 24.8616 12.6164 24.8642C13.095 25.1147 13.5091 25.3575 13.8588 25.5926C14.1897 25.8152 14.6955 26.0289 15.0765 26.2873C16.2688 27.0977 17.4876 27.914 18.7327 28.7363C18.8582 28.8194 19.0004 28.9255 19.1593 29.0545C19.1728 29.0654 19.1839 29.0789 19.1919 29.0944C19.1999 29.1098 19.2045 29.1267 19.2056 29.1441C19.2066 29.1614 19.204 29.1788 19.198 29.1952C19.192 29.2116 19.1826 29.2265 19.1705 29.239C18.6171 29.8118 18.0643 30.4075 17.512 31.0261C16.9412 31.6655 16.3077 32.2856 15.834 32.8594C15.0451 33.8151 14.4126 34.5664 13.9365 35.1133C13.9338 35.1163 13.9322 35.12 13.9317 35.1239C13.9312 35.1279 13.932 35.1318 13.9339 35.1353C13.9357 35.1388 13.9386 35.1417 13.9422 35.1435C13.9457 35.1453 13.9497 35.146 13.9536 35.1454L22.2925 34.1272C22.3039 34.1258 22.3154 34.1268 22.3263 34.1302C22.3372 34.1336 22.3473 34.1392 22.3559 34.1468C22.3645 34.1543 22.3714 34.1636 22.3762 34.174C22.381 34.1844 22.3835 34.1957 22.3837 34.2071C22.4016 36.6702 22.3859 38.2294 22.4494 40.2958C22.4673 40.8725 22.4626 41.5713 22.4352 42.3921C22.4348 42.4004 22.4371 42.4087 22.4416 42.4158C22.446 42.4229 22.4526 42.4284 22.4603 42.4317C22.468 42.4349 22.4766 42.4357 22.4848 42.434C22.493 42.4322 22.5004 42.428 22.5062 42.4219C22.9888 41.9222 23.5648 41.4104 24.1004 40.8837C24.6438 40.3483 25.2402 39.7922 25.8897 39.2155C26.6661 38.5262 27.1166 38.1235 27.2411 38.0075C27.7514 37.5323 28.293 37.1476 28.8541 36.6478C28.8663 36.6366 28.882 36.6301 28.8985 36.6293C28.915 36.6285 28.9312 36.6334 28.9445 36.6433C29.5376 37.0878 30.0516 37.6257 30.6553 38.1083C31.3595 38.6706 32.198 39.3886 33.1707 40.2622C33.8938 40.9114 34.632 41.515 35.4231 42.1261C35.4293 42.1308 35.4367 42.1337 35.4444 42.1345C35.4521 42.1353 35.4599 42.1339 35.4669 42.1304C35.4739 42.127 35.4798 42.1217 35.4839 42.1152C35.488 42.1086 35.4903 42.101 35.4903 42.0932C35.4854 39.9551 35.4841 38.1985 35.4866 36.8234C35.4876 35.9079 35.4744 34.9913 35.447 34.0734C35.4467 34.0634 35.4484 34.0534 35.4522 34.0442C35.4559 34.0349 35.4616 34.0265 35.4687 34.0195C35.4759 34.0126 35.4845 34.0072 35.4939 34.0037C35.5032 34.0002 35.5132 33.9988 35.5232 33.9994C37.75 34.1414 40.0901 34.2992 42.5435 34.4731C43.2313 34.5214 43.8499 34.5776 44.3992 34.6419C44.4083 34.643 44.4174 34.6415 44.4256 34.6373C44.4337 34.6332 44.4404 34.6268 44.4448 34.6188C44.4492 34.6109 44.4512 34.6018 44.4504 34.5927C44.4496 34.5836 44.4461 34.575 44.4403 34.5679C44.3004 34.3946 44.1828 34.2656 44.0877 34.181C43.5565 33.7095 43.0732 33.1604 42.5525 32.6539C41.0708 31.2121 39.7054 29.9129 38.4562 28.7564C38.4477 28.7486 38.4411 28.7391 38.4366 28.7284C38.4322 28.7177 38.4302 28.7062 38.4307 28.6947C38.4312 28.6832 38.4342 28.6719 38.4395 28.6617C38.4448 28.6514 38.4523 28.6425 38.4615 28.6354L44.4291 24.023C44.4363 24.0175 44.4417 24.01 44.4446 24.0015C44.4475 23.9929 44.4479 23.9837 44.4455 23.975C44.4432 23.9663 44.4384 23.9584 44.4316 23.9525C44.4248 23.9465 44.4164 23.9427 44.4074 23.9415C43.8481 23.8638 43.3411 23.7769 42.8864 23.6808C41.9384 23.4798 41.3422 23.3805 40.2701 23.1399C39.1779 22.8941 38.0334 22.7036 36.9621 22.5766C36.9539 22.5756 36.946 22.5729 36.9389 22.5685C36.9318 22.5642 36.9258 22.5584 36.9212 22.5515C36.9166 22.5447 36.9135 22.5369 36.9122 22.5287C36.9109 22.5205 36.9113 22.5121 36.9135 22.5042C36.9579 22.3433 36.9972 22.2148 37.0316 22.1187C37.3259 21.2954 37.6818 20.2667 38.0991 19.0325C38.1634 18.842 38.2687 18.6179 38.3375 18.4035C38.7135 17.2241 38.9565 16.4028 39.0666 15.9396C39.0889 15.846 39.1252 15.7563 39.1742 15.6736C39.3644 15.3514 39.4952 14.9838 39.5664 14.571C39.5674 14.5661 39.5669 14.561 39.5649 14.5563C39.563 14.5517 39.5598 14.5478 39.5557 14.545C39.5515 14.5422 39.5466 14.5407 39.5416 14.5407C39.5366 14.5406 39.5317 14.5421 39.5275 14.5448Z" fill="#E01C0C"/>
<path d="M39.5278 14.5448C39.532 14.5421 39.5369 14.5406 39.5419 14.5407C39.5469 14.5407 39.5518 14.5422 39.5559 14.545C39.5601 14.5478 39.5633 14.5517 39.5652 14.5564C39.5671 14.561 39.5676 14.5661 39.5667 14.571C39.4954 14.9839 39.3647 15.3514 39.1745 15.6737C39.1254 15.7563 39.0892 15.846 39.0669 15.9396C38.9568 16.4028 38.7138 17.2241 38.3377 18.4035C38.269 18.6179 38.1637 18.842 38.0994 19.0325C37.682 20.2667 37.3262 21.2954 37.0318 22.1187C36.9975 22.2148 36.9581 22.3433 36.9138 22.5042C36.9116 22.5122 36.9111 22.5205 36.9125 22.5287C36.9138 22.5369 36.9168 22.5447 36.9215 22.5516C36.9261 22.5584 36.9321 22.5642 36.9392 22.5686C36.9462 22.5729 36.9541 22.5756 36.9624 22.5766C38.0337 22.7036 39.1782 22.8941 40.2704 23.1399C41.3425 23.3805 41.9386 23.4799 42.8867 23.6808C43.3414 23.7769 43.8484 23.8639 44.4077 23.9415C44.4167 23.9427 44.4251 23.9465 44.4318 23.9525C44.4386 23.9585 44.4435 23.9663 44.4458 23.975C44.4481 23.9837 44.4478 23.993 44.4449 24.0015C44.442 24.01 44.4366 24.0175 44.4294 24.023L38.4617 28.6354C38.4526 28.6425 38.4451 28.6514 38.4398 28.6617C38.4345 28.6719 38.4315 28.6832 38.431 28.6947C38.4305 28.7063 38.4325 28.7177 38.4369 28.7284C38.4413 28.7391 38.448 28.7486 38.4565 28.7564C39.7056 29.9129 41.071 31.2121 42.5527 32.6539C43.0734 33.1605 43.5568 33.7096 44.088 34.181C44.1831 34.2656 44.3006 34.3946 44.4406 34.568C44.4463 34.575 44.4498 34.5836 44.4506 34.5927C44.4514 34.6018 44.4495 34.6109 44.4451 34.6188C44.4407 34.6268 44.4339 34.6332 44.4258 34.6374C44.4177 34.6415 44.4085 34.6431 44.3995 34.6419C43.8502 34.5777 43.2316 34.5214 42.5438 34.4731C40.0904 34.2993 37.7503 34.1414 35.5235 33.9994C35.5135 33.9988 35.5035 34.0003 35.4941 34.0037C35.4848 34.0072 35.4762 34.0126 35.469 34.0195C35.4618 34.0265 35.4562 34.0349 35.4525 34.0442C35.4487 34.0534 35.447 34.0634 35.4473 34.0734C35.4747 34.9913 35.4879 35.908 35.4869 36.8234C35.4844 38.1985 35.4856 39.9551 35.4906 42.0932C35.4906 42.101 35.4883 42.1086 35.4842 42.1152C35.48 42.1218 35.4741 42.1271 35.4672 42.1305C35.4602 42.1339 35.4524 42.1353 35.4447 42.1345C35.4369 42.1337 35.4296 42.1308 35.4234 42.1261C34.6322 41.515 33.8941 40.9114 33.171 40.2622C32.1983 39.3886 31.3598 38.6706 30.6555 38.1083C30.0519 37.6257 29.5379 37.0878 28.9447 36.6433C28.9315 36.6334 28.9152 36.6285 28.8987 36.6293C28.8822 36.6301 28.8665 36.6367 28.8544 36.6478C28.2933 37.1476 27.7517 37.5323 27.2414 38.0075C27.1169 38.1235 26.6664 38.5262 25.89 39.2155C25.2405 39.7923 24.6441 40.3483 24.1007 40.8837C23.5651 41.4104 22.9891 41.9222 22.5064 42.422C22.5007 42.4281 22.4932 42.4323 22.485 42.434C22.4768 42.4357 22.4683 42.4349 22.4606 42.4317C22.4529 42.4284 22.4463 42.4229 22.4418 42.4158C22.4373 42.4087 22.4351 42.4005 22.4355 42.3921C22.4629 41.5713 22.4676 40.8725 22.4497 40.2958C22.3862 38.2294 22.4019 36.6702 22.3839 34.2071C22.3838 34.1957 22.3813 34.1844 22.3765 34.174C22.3717 34.1636 22.3648 34.1543 22.3562 34.1468C22.3476 34.1393 22.3375 34.1336 22.3266 34.1302C22.3157 34.1269 22.3041 34.1258 22.2928 34.1272L13.9539 35.1454C13.95 35.146 13.946 35.1453 13.9425 35.1435C13.9389 35.1417 13.936 35.1389 13.9341 35.1354C13.9323 35.1319 13.9315 35.1279 13.932 35.1239C13.9324 35.12 13.9341 35.1163 13.9367 35.1133C14.4129 34.5665 15.0454 33.8152 15.8343 32.8594C16.308 32.2856 16.9415 31.6656 17.5122 31.0261C18.0646 30.4075 18.6174 29.8118 19.1708 29.2391C19.1829 29.2265 19.1922 29.2116 19.1983 29.1952C19.2043 29.1789 19.2069 29.1614 19.2058 29.1441C19.2048 29.1267 19.2001 29.1098 19.1922 29.0944C19.1842 29.079 19.1731 29.0654 19.1595 29.0545C19.0007 28.9255 18.8585 28.8195 18.733 28.7363C17.4878 27.914 16.2691 27.0977 15.0768 26.2874C14.6958 26.0289 14.19 25.8152 13.859 25.5926C13.5094 25.3575 13.0953 25.1147 12.6167 24.8642C12.6117 24.8616 12.6076 24.8575 12.6049 24.8526C12.6023 24.8476 12.6011 24.842 12.6017 24.8365C12.6023 24.831 12.6045 24.8258 12.6081 24.8217C12.6117 24.8175 12.6165 24.8146 12.6219 24.8134C13.871 24.4892 15.331 24.1308 17.002 23.7383C18.2098 23.455 19.427 23.1952 20.6537 22.9591C20.6605 22.9579 20.6669 22.9551 20.6725 22.951C20.6781 22.947 20.6827 22.9418 20.686 22.9357C20.6893 22.9297 20.6912 22.9231 20.6916 22.9163C20.6919 22.9094 20.6907 22.9027 20.6881 22.8964C20.6064 22.7056 20.5628 22.6008 20.5573 22.5819C20.3227 21.784 19.8155 20.5065 19.5742 19.6048C19.4434 19.1169 19.2253 18.4117 19.0318 17.8462C18.7459 17.0139 18.4097 15.9949 18.0232 14.7891C17.9829 14.6636 17.9545 14.5319 17.9381 14.3939C17.9373 14.387 17.9385 14.38 17.9414 14.3737C17.9443 14.3674 17.9489 14.362 17.9547 14.3582C17.9604 14.3544 17.9671 14.3523 17.9739 14.3521C17.9808 14.352 17.9875 14.3538 17.9934 14.3573C18.1991 14.4758 18.4165 14.6215 18.6456 14.7943C19.2006 15.2142 19.6541 15.4832 20.3168 15.9434C20.5972 16.1381 20.9471 16.361 21.3664 16.612C22.2534 17.1429 23.2082 17.7154 24.2307 18.3295C24.6431 18.5768 25.0204 18.8435 25.4327 19.0706C25.4422 19.0759 25.4526 19.0792 25.4633 19.0802C25.4741 19.0813 25.4849 19.0801 25.4952 19.0767C25.5056 19.0733 25.5151 19.0679 25.5232 19.0607C25.5314 19.0534 25.5379 19.0446 25.5426 19.0348C26.0331 17.9739 26.6883 16.5129 27.5081 14.6517C27.7387 14.1282 27.9193 13.6904 28.0497 13.3383C28.2746 12.7317 28.5563 12.1579 28.7699 11.5244C28.7711 11.5206 28.7735 11.5172 28.7766 11.5147C28.7798 11.5123 28.7837 11.5109 28.7877 11.5107C28.7917 11.5105 28.7957 11.5116 28.7991 11.5138C28.8024 11.516 28.805 11.5192 28.8065 11.5229C29.7292 13.6625 30.0034 14.3439 30.8632 16.2997C31.2079 17.0841 31.5847 18.0028 31.9936 19.0557C31.9964 19.063 32.0007 19.0697 32.0062 19.0752C32.0118 19.0808 32.0184 19.0851 32.0258 19.0879C32.0331 19.0907 32.0409 19.092 32.0488 19.0916C32.0566 19.0912 32.0643 19.0891 32.0713 19.0856C32.2451 18.9959 32.3474 18.9414 32.3783 18.9219C33.7074 18.0927 34.7966 17.4637 35.9942 16.733C36.2312 16.5886 36.6287 16.356 37.1865 16.0352C37.4574 15.8794 37.9236 15.5775 38.585 15.1298C38.9332 14.8945 39.2581 14.7196 39.5278 14.5448Z" fill="#EE2B17"/>
<path d="M13.8399 29.6277L43.4676 29.2177L49.7212 35.2662L40.9047 37.7266L43.9802 48.5936L33.1133 42.9551L28.1924 50.5414L22.964 43.5702L12.4047 49.2087L14.8651 38.0342L7.07373 35.8813L13.8399 29.6277Z" fill="#3E3D3B"/>
<path d="M13.8399 29.6277L43.4676 29.2177L49.7212 35.2662L40.9047 37.7266L43.9802 48.5936L33.1133 42.9551L28.1924 50.5414L22.964 43.5702L12.4047 49.2087L14.8651 38.0342L7.07373 35.8813L13.8399 29.6277Z" stroke="#474644"/>
<path d="M13.8399 29.6277L43.4676 29.2177L49.7212 35.2662L40.9047 37.7266L43.9802 48.5936L33.1133 42.9551L28.1924 50.5414L22.964 43.5702L12.4047 49.2087L14.8651 38.0342L7.07373 35.8813L13.8399 29.6277Z" stroke="#474644"/>
<g filter="url(#filter0_d_224_81)">
<path d="M20.7521 27.4447L22.0755 18.6002H22.001L19 20.3244L19.3728 17.8826L22.6254 16H25.1884L23.4735 27.4447H20.7521Z" fill="white"/>
<path d="M34.0215 16.0072L24 40.2688H21.5215L31.5215 16.0072L34.0215 16.0072Z" fill="white"/>
<path d="M29.4814 40.2688L29.761 38.2091L34.8869 34.5837C35.2784 34.2979 35.6232 34.0401 35.9214 33.8102C36.2197 33.5741 36.4589 33.3411 36.639 33.1112C36.8254 32.8751 36.9404 32.6141 36.9839 32.3283C37.046 31.881 36.9186 31.5361 36.6018 31.2938C36.2849 31.0515 35.8562 30.9303 35.3156 30.9303C34.7875 30.9303 34.3215 31.0608 33.9177 31.3218C33.52 31.5827 33.2808 31.9773 33.2 32.5054H30.4414C30.6029 31.3311 31.159 30.3991 32.1096 29.7095C33.0664 29.0198 34.219 28.675 35.5673 28.675C36.5117 28.675 37.2976 28.8427 37.9252 29.1782C38.5589 29.5075 39.0156 29.9518 39.2952 30.511C39.581 31.0639 39.6773 31.679 39.5841 32.3563C39.5158 32.8595 39.3542 33.338 39.0995 33.7915C38.8509 34.2389 38.4626 34.6893 37.9345 35.1429C37.4064 35.5965 36.7043 36.0842 35.8282 36.6061L33.9363 37.8363L33.9177 37.9388H38.9224L38.5869 40.2688H29.4814Z" fill="white"/>
<path d="M35.1426 15.2568L34.7148 16.2939L24.6934 40.5547L24.502 41.0186H20.4014L20.8281 39.9834L30.8281 15.7217L31.0195 15.2568H35.1426ZM35.5674 27.9248C36.5961 27.9248 37.5124 28.1072 38.2783 28.5166H38.2773C39.0245 28.9063 39.6015 29.4531 39.9609 30.167H39.9619C40.3255 30.8707 40.4392 31.6445 40.3271 32.459C40.2458 33.0564 40.0525 33.6227 39.7539 34.1553L39.7549 34.1562C39.4889 34.6349 39.1076 35.0906 38.6328 35.5264L38.4229 35.7119C37.8723 36.1847 37.1641 36.6754 36.3115 37.1885H39.7881L39.665 38.0459L39.3291 40.376L39.2363 41.0186H28.623L28.7383 40.168L29.0176 38.1084L29.0615 37.7852L29.3281 37.5967L34.4443 33.9775L34.9902 33.5752C35.1566 33.4508 35.3106 33.3322 35.4541 33.2217C35.7191 33.0119 35.9142 32.8202 36.0488 32.6484L36.0508 32.6465L36.123 32.542C36.1869 32.4371 36.2248 32.3296 36.2422 32.2158C36.2631 32.056 36.238 31.9824 36.1953 31.9336L36.1465 31.8896C36 31.7776 35.7492 31.6807 35.3154 31.6807C34.9191 31.6807 34.5989 31.776 34.3291 31.9492L34.2578 32C34.0988 32.1284 33.9878 32.3158 33.9414 32.6191L33.8438 33.2559H29.5811L29.6982 32.4033C29.8873 31.0288 30.5513 29.9135 31.6689 29.1025L31.6709 29.1006L31.8799 28.957C32.9377 28.2603 34.1776 27.9248 35.5674 27.9248ZM26.0596 15.25L25.9297 16.1113L24.2148 27.5557L24.1191 28.1943H19.8818L20.0107 27.334L21.1113 19.9766L19.374 20.9746L18.0234 21.75L18.2588 20.2109L18.6318 17.7695L18.6855 17.4141L18.9971 17.2334L22.25 15.3506L22.4238 15.25H26.0596Z" stroke="black" stroke-width="1.5"/>
</g>
<defs>
<filter id="filter0_d_224_81" x="13.0474" y="14.5" width="32.0713" height="35.2688" filterUnits="userSpaceOnUse" color-interpolation-filters="sRGB">
<feFlood flood-opacity="0" result="BackgroundImageFix"/>
<feColorMatrix in="SourceAlpha" type="matrix" values="0 0 0 0 0 0 0 0 0 0 0 0 0 0 0 0 0 0 127 0" result="hardAlpha"/>
<feOffset dy="4"/>
<feGaussianBlur stdDeviation="2"/>
<feComposite in2="hardAlpha" operator="out"/>
<feColorMatrix type="matrix" values="0 0 0 0 0 0 0 0 0 0 0 0 0 0 0 0 0 0 0.25 0"/>
<feBlend mode="normal" in2="BackgroundImageFix" result="effect1_dropShadow_224_81"/>
<feBlend mode="normal" in="SourceGraphic" in2="effect1_dropShadow_224_81" result="shape"/>
</filter>
</defs>
</svg>
