<svg width="46" height="46" viewBox="0 0 46 46" fill="none" xmlns="http://www.w3.org/2000/svg">
<path d="M39.7 23.0801H24.425V25.7041H39.7C39.8755 25.7041 40.0315 25.7762 40.155 25.8943C40.2785 26.0255 40.35 26.183 40.35 26.3601V42.1041C40.35 42.2812 40.2785 42.4386 40.155 42.5698C40.0315 42.6879 39.8755 42.7601 39.7 42.7601H24.2105C23.8855 43.8425 23.1965 44.7609 22.293 45.3841H39.7C41.494 45.3775 42.9435 43.9146 42.95 42.1041V26.3601C42.9435 24.5495 41.494 23.0866 39.7 23.0801Z" fill="white"/>
<path d="M38.9266 27.0161H24.3146V41.3235L24.3081 41.4481H38.9266V27.0161Z" fill="white"/>
<path d="M23.0341 5.59763C23.0276 3.78707 21.5781 2.32419 19.7841 2.31763H4.18408C2.39008 2.32419 0.940582 3.78707 0.934082 5.59763V41.5464C0.940582 43.357 2.39008 44.8199 4.18408 44.8264H19.7841C21.5781 44.8199 23.0276 43.357 23.0341 41.5464V5.59763ZM20.2456 42.0122C20.1221 42.1368 19.9661 42.2024 19.7906 42.209H4.19058C4.01508 42.209 3.85908 42.1368 3.73558 42.0122C3.61208 41.8876 3.54708 41.7301 3.54058 41.553V5.60419C3.54058 5.42707 3.61208 5.26963 3.73558 5.13843C3.85908 5.01379 4.01508 4.94819 4.19058 4.94819H19.7906C19.9661 4.94819 20.1221 5.02035 20.2456 5.13843C20.3691 5.26307 20.4341 5.42051 20.4406 5.60419V41.553C20.4341 41.7301 20.3626 41.8876 20.2456 42.0122Z" fill="white"/>
<path d="M19.134 6.3783H4.83398V35.2423H19.134V6.3783Z" fill="white"/>
<path d="M11.9842 40.4903C13.0611 40.4903 13.9342 39.6092 13.9342 38.5223C13.9342 37.4354 13.0611 36.5543 11.9842 36.5543C10.9072 36.5543 10.0342 37.4354 10.0342 38.5223C10.0342 39.6092 10.9072 40.4903 11.9842 40.4903Z" fill="white"/>
<path d="M29.9435 6.66693C29.651 6.38485 29.5665 6.33237 29.3975 6.18805C32.0755 6.51605 34.474 7.74277 36.2875 9.57301C38.1075 11.4098 39.3231 13.8436 39.6416 16.566C39.5181 16.4282 39.414 16.3101 39.1605 16.0543C38.2375 15.0965 36.6255 16.1527 36.6255 16.1527L41.1041 20.8234L45.2185 15.8181C45.2185 15.8181 43.535 14.8932 42.6835 15.9165C42.43 16.2183 42.378 16.3101 42.2611 16.4741C41.5655 9.67797 36.229 4.27909 29.495 3.55749C29.6315 3.44597 29.755 3.34757 30.015 3.11797C31.0095 2.23893 30.067 0.55957 30.067 0.55957L25.1855 4.80389L29.9045 9.23189C29.898 9.22533 30.9055 7.57877 29.9435 6.66693Z" fill="white"/>
</svg>
