<svg width="34" height="34" viewBox="0 0 34 34" fill="none" xmlns="http://www.w3.org/2000/svg">
<path d="M18.5811 1C18.5973 1.0249 18.6175 1.0541 18.6387 1.08984C18.9332 1.58618 19.4085 2.66172 20.334 5.00195L20.4902 5.39648L20.8818 5.55859L22.2998 6.14355L22.7041 6.31055L23.1016 6.12695C25.0199 5.23976 26.0668 4.80844 26.6416 4.60059C26.8609 4.52128 26.9992 4.48015 27.082 4.45801L29.4365 6.80664C29.4302 6.8368 29.4239 6.87354 29.4131 6.91602C29.2699 7.477 28.8438 8.57448 27.8428 10.8838L27.6748 11.2715L27.8359 11.6631L28.4141 13.0635L28.582 13.4707L28.9971 13.6221C31.3518 14.4791 32.4288 14.923 32.9229 15.2041C32.9528 15.2211 32.978 15.2374 33 15.251V18.5967C32.974 18.6141 32.943 18.6358 32.9043 18.6592C32.4087 18.9576 31.333 19.438 28.9893 20.3721L28.5957 20.5293L28.4346 20.9209L27.8594 22.3184L27.6934 22.7227L27.8779 23.1201C28.9309 25.3857 29.3765 26.4596 29.5273 27.0078C29.5371 27.0431 29.5427 27.0743 29.5488 27.1006L27.1992 29.4473C27.1587 29.4374 27.1007 29.4244 27.0234 29.4014C26.8147 29.3393 26.5299 29.241 26.1621 29.1025C25.4278 28.8262 24.4141 28.4086 23.1182 27.8496L22.7305 27.6816L22.3408 27.8428L20.9229 28.4277L20.5166 28.5957L20.3652 29.0078C19.5047 31.3557 19.0597 32.4318 18.7793 32.9258C18.7629 32.9546 18.7466 32.9786 18.7334 33H15.4102C15.3937 32.975 15.3733 32.9455 15.3516 32.9092C15.0565 32.4146 14.582 31.3415 13.6562 29.0039L13.5 28.6113L13.1104 28.4492L11.6953 27.8613L11.29 27.6924L10.8916 27.877C8.97185 28.7657 7.92492 29.1978 7.35059 29.4062C7.13412 29.4848 6.99593 29.5244 6.91309 29.5469L4.55664 27.1943C4.56295 27.1638 4.57102 27.1272 4.58203 27.084C4.72474 26.5233 5.14937 25.4256 6.15039 23.1162L6.31836 22.7275L6.15625 22.3359L5.57812 20.9414L5.41016 20.5361L4.99805 20.3857L3.46289 19.8145C2.14514 19.3127 1.44814 19.0082 1.07812 18.7969C1.04748 18.7794 1.0223 18.7619 1 18.748V15.3975C1.02491 15.3811 1.05457 15.3614 1.09082 15.3398C1.58623 15.0453 2.66059 14.5741 5.00488 13.6494L5.39941 13.4941L5.56152 13.1016L6.13965 11.7041L6.30762 11.2979L6.12207 10.8994C5.06164 8.62386 4.61767 7.55066 4.47168 7.00293C4.46137 6.96424 4.45428 6.93099 4.44824 6.90332L6.7959 4.55566C6.83671 4.56555 6.8955 4.57906 6.97461 4.60254C7.18407 4.66471 7.47008 4.76287 7.83887 4.90137C8.57459 5.17768 9.58928 5.59546 10.8848 6.1543L11.2734 6.32129L11.6641 6.16016L13.0752 5.5752L13.4814 5.40723L13.6318 4.99414C14.4884 2.64578 14.9358 1.5696 15.2168 1.07617C15.2337 1.04658 15.2501 1.02188 15.2637 1H18.5811ZM19.6455 10.5752C18.3747 10.049 16.9758 9.91166 15.627 10.1807C14.2781 10.4497 13.0391 11.1135 12.0674 12.0869C11.0959 13.0603 10.4346 14.3003 10.168 15.6494C9.90142 16.9985 10.0412 18.3964 10.5693 19.666C11.0977 20.9359 11.9916 22.0213 13.1367 22.7832C14.2102 23.4974 15.4599 23.8977 16.7451 23.9424L17.002 23.9463H17.0039C18.8426 23.9399 20.6043 23.2065 21.9033 21.9053C23.1212 20.6853 23.84 19.0593 23.9277 17.3457L23.9365 17.002V17.001C23.9373 15.6256 23.5295 14.2805 22.7656 13.1367C22.0018 11.9931 20.9162 11.1014 19.6455 10.5752Z" fill="#3E3D3B" stroke="white" stroke-width="2"/>
</svg>
