<svg width="7" height="10" viewBox="0 0 7 10" fill="none" xmlns="http://www.w3.org/2000/svg">
<path d="M3.88889 2.1629V3.5556H6.22413C6.65263 3.5556 7 3.90346 7 4.33106V9.00235C7 9.43063 6.65287 9.77782 6.22413 9.77782H0.775868C0.347368 9.77782 0 9.42995 0 9.00235V4.33106C0 3.90279 0.347131 3.5556 0.775868 3.5556H3.11111V2.16164L2.67188 2.60087C2.52141 2.75134 2.27737 2.75126 2.12444 2.59833C1.97257 2.44646 1.97347 2.19934 2.1219 2.0509L3.22692 0.945883C3.30174 0.871064 3.39969 0.833466 3.49808 0.833374L3.50104 0.834535C3.59981 0.834746 3.69801 0.872076 3.77182 0.945883L4.87684 2.0509C5.02731 2.20137 5.02723 2.44541 4.8743 2.59833C4.72243 2.75021 4.4753 2.74931 4.32686 2.60087L3.88889 2.1629ZM3.11111 4.33337H0.777778V9.00004H6.22222V4.33337H3.88889V5.88951C3.88889 6.10397 3.71627 6.27782 3.5 6.27782C3.28522 6.27782 3.11111 6.10379 3.11111 5.88951V4.33337ZM1.94444 3.5556V4.33337H5.05556V3.5556H1.94444ZM3.11111 3.5556H3.88889V4.33337H3.11111V3.5556Z" fill="white"/>
</svg>
